<?xml version="1.0" encoding="utf-8"?>
<!-- Generator: Adobe Illustrator 24.1.0, SVG Export Plug-In . SVG Version: 6.00 Build 0)  -->
<svg version="1.1" baseProfile="basic" id="Layer_1"
	 xmlns="http://www.w3.org/2000/svg" xmlns:xlink="http://www.w3.org/1999/xlink" x="0px" y="0px" viewBox="0 0 60 60"
	 xml:space="preserve">
<g>
	<defs>
		<rect id="SVGID_8_" x="-848.6" y="-1147.7" width="1415.3" height="349.8"/>
	</defs>
	<clipPath id="SVGID_2_">
		<use xlink:href="#SVGID_8_"  overflow="visible"/>
	</clipPath>
</g>
<g>
	<g>
		<circle fill="#36B289" cx="30" cy="30" r="30"/>
		<circle fill="none" stroke="#FFFFFF" stroke-width="5" cx="30" cy="30" r="27.5"/>
	</g>
	<path fill="#FFFFFF" d="M41,29h-6.2V18.9c0-0.5-0.4-0.9-0.9-0.9h-15c-0.5,0-0.9,0.4-0.9,0.9v18.4c0,2.6,2.1,4.7,4.7,4.7h14.6
		c2.6,0,4.7-2.1,4.7-4.7V30C42,29.5,41.6,29,41,29z M22.7,40.1c-1.6,0-2.8-1.3-2.8-2.8V19.8H33c0,0.1,0,17,0,17.4c0,1,0.3,2,0.9,2.8
		H22.7z M40.1,37.3c0,1.5-1.1,2.7-2.6,2.8c-1.5-0.1-2.6-1.3-2.6-2.8v-6.4h5.2V37.3z"/>
	<path fill="#FFFFFF" d="M26.4,22c-1.8,0-3.3,1.7-3.3,3.8c0,2.1,1.5,3.8,3.3,3.8s3.3-1.7,3.3-3.8C29.7,23.7,28.2,22,26.4,22z
		 M26.4,27.6c-0.8,0-1.4-0.9-1.4-1.9c0-1,0.6-1.9,1.4-1.9s1.4,0.9,1.4,1.9C27.8,26.8,27.2,27.6,26.4,27.6z"/>
	<path fill="#FFFFFF" d="M30.2,36.3h-7.5c-0.5,0-0.9,0.4-0.9,0.9s0.4,0.9,0.9,0.9h7.5c0.5,0,0.9-0.4,0.9-0.9S30.7,36.3,30.2,36.3z"
		/>
	<path fill="#FFFFFF" d="M30.2,32.6h-7.5c-0.5,0-0.9,0.4-0.9,0.9s0.4,0.9,0.9,0.9h7.5c0.5,0,0.9-0.4,0.9-0.9S30.7,32.6,30.2,32.6z"
		/>
</g>
</svg>
