<?xml version="1.0" encoding="utf-8"?>
<!-- Generator: Adobe Illustrator 24.1.0, SVG Export Plug-In . SVG Version: 6.00 Build 0)  -->
<svg version="1.1" baseProfile="basic" id="Layer_1"
	 xmlns="http://www.w3.org/2000/svg" xmlns:xlink="http://www.w3.org/1999/xlink" x="0px" y="0px" viewBox="0 0 321 122.8"
	 xml:space="preserve">
<g>
	<rect x="117.8" y="65" fill="#86BACB" width="154" height="49"/>
	<rect x="170.8" y="9" fill="#86BACB" width="123" height="50"/>
	<rect x="107.8" y="36" fill="#86BACB" width="58" height="23"/>
	<path fill="#597C83" d="M250.8,46.1c0,0.6-0.1,1.2-0.3,1.7c-0.2,0.5-0.5,0.9-0.9,1.3c-0.4,0.4-0.9,0.6-1.4,0.8
		c-0.6,0.2-1.2,0.3-1.8,0.3c-1.2,0-2-0.2-2.6-0.5v-1.5c0.9,0.6,1.7,0.8,2.6,0.8c0.5,0,0.9-0.1,1.2-0.2c0.4-0.1,0.7-0.3,0.9-0.6
		c0.3-0.2,0.5-0.5,0.6-0.9c0.1-0.3,0.2-0.7,0.2-1.1c0-0.8-0.3-1.5-0.8-1.9c-0.6-0.5-1.4-0.7-2.4-0.7c-0.2,0-0.3,0-0.5,0
		c-0.2,0-0.4,0-0.6,0c-0.2,0-0.4,0-0.6,0c-0.2,0-0.3,0-0.5,0l0.4-6.3h5.8v1.3h-4.6l-0.3,3.7c0.2,0,0.4,0,0.6,0c0.2,0,0.4,0,0.6,0
		c0.7,0,1.3,0.1,1.8,0.3c0.5,0.2,1,0.4,1.3,0.8c0.4,0.3,0.6,0.7,0.8,1.2C250.7,45,250.8,45.5,250.8,46.1z M260.5,46.1
		c0,0.6-0.1,1.2-0.3,1.7c-0.2,0.5-0.5,0.9-0.9,1.3c-0.4,0.4-0.9,0.6-1.4,0.8c-0.6,0.2-1.2,0.3-1.8,0.3c-1.2,0-2-0.2-2.6-0.5v-1.5
		c0.9,0.6,1.7,0.8,2.6,0.8c0.5,0,0.9-0.1,1.2-0.2c0.4-0.1,0.7-0.3,0.9-0.6c0.3-0.2,0.5-0.5,0.6-0.9c0.1-0.3,0.2-0.7,0.2-1.1
		c0-0.8-0.3-1.5-0.8-1.9c-0.6-0.5-1.4-0.7-2.4-0.7c-0.2,0-0.3,0-0.5,0c-0.2,0-0.4,0-0.6,0c-0.2,0-0.4,0-0.6,0c-0.2,0-0.3,0-0.5,0
		l0.4-6.3h5.8v1.3h-4.6l-0.3,3.7c0.2,0,0.4,0,0.6,0c0.2,0,0.4,0,0.6,0c0.7,0,1.3,0.1,1.8,0.3c0.5,0.2,1,0.4,1.3,0.8
		c0.4,0.3,0.6,0.7,0.8,1.2C260.4,45,260.5,45.5,260.5,46.1z M275.9,50h-1.4v-5.2c0-1-0.2-1.7-0.5-2.2c-0.3-0.4-0.8-0.7-1.5-0.7
		c-0.6,0-1.1,0.3-1.6,0.8c-0.4,0.6-0.6,1.2-0.6,2V50h-1.4v-5.3c0-1.8-0.7-2.7-2-2.7c-0.6,0-1.2,0.3-1.6,0.8
		c-0.4,0.5-0.6,1.2-0.6,2.1V50h-1.4v-9h1.4v1.4h0c0.6-1.1,1.6-1.6,2.8-1.6c0.6,0,1.2,0.2,1.6,0.5c0.5,0.3,0.8,0.8,0.9,1.3
		c0.7-1.2,1.7-1.9,3-1.9c2,0,3,1.2,3,3.7V50z M283,42.2h-4.9v-0.7c0-0.4,0.1-0.7,0.3-1c0.2-0.3,0.4-0.6,0.7-0.8
		c0.3-0.2,0.5-0.5,0.9-0.7c0.3-0.2,0.6-0.5,0.8-0.7c0.3-0.2,0.5-0.5,0.6-0.7c0.2-0.3,0.3-0.6,0.3-0.9c0-0.3-0.1-0.6-0.3-0.8
		c-0.2-0.2-0.5-0.3-0.9-0.3c-0.7,0-1.3,0.3-1.9,0.9v-1.3c0.5-0.4,1.2-0.7,2.1-0.7c0.3,0,0.6,0,0.9,0.1c0.3,0.1,0.5,0.2,0.7,0.4
		c0.2,0.2,0.4,0.4,0.5,0.7c0.1,0.3,0.2,0.5,0.2,0.9c0,0.4-0.1,0.8-0.3,1.2c-0.2,0.3-0.4,0.6-0.6,0.9c-0.3,0.3-0.5,0.5-0.8,0.7
		s-0.6,0.4-0.8,0.6c-0.3,0.2-0.5,0.3-0.6,0.5c-0.2,0.2-0.2,0.3-0.2,0.5v0.1h3.5V42.2z"/>
	<path fill="#597C83" d="M228,27h-1.3l-1-2.7h-4.2l-1,2.7h-1.3l3.8-9.8h1.2L228,27z M225.3,23.2l-1.5-4.2c-0.1-0.1-0.1-0.4-0.1-0.7
		h0c0,0.3-0.1,0.5-0.2,0.7l-1.5,4.2H225.3z M225.1,14l-1.8,2.2h-0.9l1.5-2.2H225.1z M236.5,27h-1.4l-1.6-2.7
		c-0.2-0.3-0.3-0.5-0.4-0.6c-0.1-0.2-0.3-0.3-0.4-0.4c-0.1-0.1-0.3-0.2-0.5-0.2c-0.2-0.1-0.4-0.1-0.6-0.1h-0.9V27h-1.1v-9.8h2.9
		c0.4,0,0.8,0.1,1.2,0.2c0.4,0.1,0.7,0.3,0.9,0.5c0.3,0.2,0.5,0.5,0.6,0.8c0.1,0.3,0.2,0.7,0.2,1.1c0,0.3-0.1,0.7-0.2,0.9
		c-0.1,0.3-0.2,0.5-0.4,0.8c-0.2,0.2-0.4,0.4-0.7,0.6c-0.3,0.2-0.6,0.3-0.9,0.4v0c0.2,0.1,0.3,0.2,0.4,0.3c0.1,0.1,0.2,0.2,0.3,0.3
		c0.1,0.1,0.2,0.3,0.3,0.4c0.1,0.2,0.2,0.3,0.4,0.6L236.5,27z M230.6,18.2v3.6h1.6c0.3,0,0.6,0,0.8-0.1c0.2-0.1,0.5-0.2,0.6-0.4
		c0.2-0.2,0.3-0.4,0.4-0.6c0.1-0.2,0.1-0.5,0.1-0.8c0-0.5-0.2-0.9-0.5-1.2c-0.3-0.3-0.8-0.4-1.5-0.4H230.6z M243,27h-5.2v-9.8h5v1
		H239v3.3h3.5v1H239v3.4h4V27z M252.5,27h-1.3l-1-2.7H246l-1,2.7h-1.3l3.8-9.8h1.2L252.5,27z M249.8,23.2l-1.5-4.2
		c-0.1-0.1-0.1-0.4-0.1-0.7h0c0,0.3-0.1,0.5-0.2,0.7l-1.5,4.2H249.8z M265,23c0,2.8-1.2,4.1-3.7,4.1c-2.4,0-3.6-1.3-3.6-4v-6h1.1
		v5.9c0,2,0.8,3,2.5,3c1.6,0,2.5-1,2.5-2.9v-6h1.1V23z M263.1,14l-1.8,2.2h-0.9l1.5-2.2H263.1z M273.2,18.2h-2.8V27h-1.1v-8.8h-2.8
		v-1h6.8V18.2z M275.9,27h-1.1v-9.8h1.1V27z M283.6,27h-5.1v-9.8h1.1v8.8h3.9V27z"/>
	<g>
		<path fill="#FFFFFF" d="M57.1,95.8h-4.4l-3.6-9.4H35l-3.4,9.4h-4.4l12.9-33.6h4.1L57.1,95.8z M47.9,82.8l-5.3-14.3
			c-0.2-0.5-0.3-1.2-0.5-2.2H42c-0.2,1-0.3,1.7-0.5,2.2l-5.2,14.3H47.9z"/>
		<path fill="#FFFFFF" d="M31,113.8v-7.7h2.8v-1h-6.6v1h2.7v7.7H31z M37.5,113.8v-8.7h-0.9l-2.2,2.2l0.7,0.7l1.4-1.5v7.2H37.5z
			 M45.9,113.8c2.7,0,4.4-1.9,4.4-4.3c0-2.5-1.8-4.3-4.4-4.3h-3v8.7H45.9z M45.9,112.8H44v-6.7h1.9c2.1,0,3.3,1.5,3.3,3.4
			C49.2,111.3,48,112.8,45.9,112.8z M55.5,113.9c2.4,0,3.5-1.4,3.5-3.5v-5.3H58v5.3c0,1.6-0.9,2.6-2.5,2.6c-1.6,0-2.5-1-2.5-2.6
			v-5.3H52v5.3C52,112.5,53.2,113.9,55.5,113.9z M62.2,113.8v-3.4h2.4c1.7,0,2.7-1.2,2.7-2.6s-1-2.6-2.7-2.6h-3.5v8.7H62.2z
			 M64.5,109.4h-2.3v-3.3h2.3c1,0,1.7,0.7,1.7,1.7S65.5,109.4,64.5,109.4z M73.8,113.8v-1h-4v-7.7h-1.1v8.7H73.8z M81,113.8v-1h-4.6
			v-3H81v-1h-4.5v-2.8H81v-1h-5.7v8.7H81z M90.1,113.8l-3.4-4.5l3.2-4.2h-1.3l-2.6,3.5l-2.6-3.5h-1.3l3.2,4.2l-3.4,4.4h1.3l2.8-3.7
			l2.8,3.7H90.1z"/>
	</g>
</g>
</svg>
