<?xml version="1.0" encoding="utf-8"?>
<!-- Generator: Adobe Illustrator 24.1.0, SVG Export Plug-In . SVG Version: 6.00 Build 0)  -->
<svg version="1.1" baseProfile="basic" id="Layer_1"
	 xmlns="http://www.w3.org/2000/svg" xmlns:xlink="http://www.w3.org/1999/xlink" x="0px" y="0px" viewBox="0 0 320.6 123.7"
	 xml:space="preserve">
<g>
	<g>
		<rect x="154.7" y="61.7" fill="#D6ADD1" width="98" height="58"/>
		<rect x="147.7" y="5.7" fill="#D6ADD1" width="105" height="50"/>
		<path fill="#897187" d="M211.6,48.2c0,0.6-0.1,1.1-0.3,1.6c-0.2,0.5-0.5,0.9-0.9,1.2c-0.4,0.3-0.9,0.6-1.4,0.8
			c-0.5,0.2-1.1,0.3-1.8,0.3c-1.2,0-2.2-0.2-2.9-0.7v-1.5c0.9,0.7,1.8,1,2.9,1c0.4,0,0.8-0.1,1.2-0.2c0.4-0.1,0.7-0.3,0.9-0.5
			c0.3-0.2,0.5-0.5,0.6-0.8c0.1-0.3,0.2-0.6,0.2-1c0-1.6-1.2-2.5-3.5-2.5h-1v-1.2h1c2.1,0,3.1-0.8,3.1-2.3c0-1.4-0.8-2.1-2.4-2.1
			c-0.9,0-1.7,0.3-2.5,0.9v-1.4c0.8-0.5,1.8-0.7,2.9-0.7c0.5,0,1,0.1,1.4,0.2c0.4,0.1,0.8,0.4,1.1,0.6c0.3,0.3,0.5,0.6,0.7,0.9
			c0.2,0.4,0.3,0.8,0.3,1.2c0,1.7-0.8,2.7-2.5,3.2v0c0.4,0,0.8,0.2,1.2,0.3c0.4,0.2,0.7,0.4,0.9,0.6c0.3,0.3,0.5,0.6,0.6,0.9
			C211.5,47.4,211.6,47.7,211.6,48.2z M221.8,40c-0.2,0.3-0.4,0.8-0.7,1.2c-0.3,0.5-0.6,1.1-0.9,1.7c-0.3,0.6-0.6,1.3-0.9,2
			c-0.3,0.7-0.6,1.5-0.9,2.2c-0.3,0.8-0.5,1.5-0.7,2.3c-0.2,0.8-0.4,1.5-0.4,2.3h-1.5c0.1-0.8,0.3-1.5,0.5-2.3
			c0.2-0.8,0.5-1.6,0.7-2.3c0.3-0.8,0.6-1.5,0.9-2.2c0.3-0.7,0.6-1.3,0.9-1.9c0.3-0.6,0.6-1.1,0.8-1.5c0.2-0.5,0.4-0.8,0.6-1.1h-6.3
			v-1.3h8V40z M236.9,51.7h-1.4v-5.2c0-1-0.2-1.7-0.5-2.2c-0.3-0.4-0.8-0.7-1.5-0.7c-0.6,0-1.1,0.3-1.6,0.8c-0.4,0.6-0.6,1.2-0.6,2
			v5.1h-1.4v-5.3c0-1.8-0.7-2.7-2-2.7c-0.6,0-1.2,0.3-1.6,0.8c-0.4,0.5-0.6,1.2-0.6,2.1v5.1h-1.4v-9h1.4v1.4h0
			c0.6-1.1,1.6-1.6,2.8-1.6c0.6,0,1.2,0.2,1.6,0.5c0.5,0.3,0.8,0.8,0.9,1.3c0.7-1.2,1.7-1.9,3-1.9c2,0,3,1.2,3,3.7V51.7z M243.9,44
			H239v-0.7c0-0.4,0.1-0.7,0.3-1c0.2-0.3,0.4-0.6,0.7-0.8c0.3-0.2,0.5-0.5,0.9-0.7c0.3-0.2,0.6-0.5,0.8-0.7c0.3-0.2,0.5-0.5,0.7-0.7
			c0.2-0.3,0.3-0.6,0.3-0.9c0-0.3-0.1-0.6-0.3-0.8c-0.2-0.2-0.5-0.3-0.9-0.3c-0.7,0-1.3,0.3-1.9,0.9V37c0.5-0.4,1.2-0.7,2.1-0.7
			c0.3,0,0.6,0,0.9,0.1c0.3,0.1,0.5,0.2,0.7,0.4c0.2,0.2,0.4,0.4,0.5,0.7c0.1,0.3,0.2,0.5,0.2,0.9c0,0.4-0.1,0.8-0.3,1.2
			c-0.2,0.3-0.4,0.6-0.6,0.9s-0.5,0.5-0.8,0.7c-0.3,0.2-0.6,0.4-0.8,0.6c-0.3,0.2-0.5,0.3-0.6,0.5c-0.2,0.2-0.2,0.3-0.2,0.5v0.1h3.5
			V44z"/>
		<path fill="#897187" d="M188.9,27.7h-1.3l-1-2.7h-4.2l-1,2.7h-1.3l3.8-9.8h1.2L188.9,27.7z M186.2,24l-1.5-4.2
			c-0.1-0.1-0.1-0.4-0.1-0.7h0c0,0.3-0.1,0.5-0.2,0.7l-1.5,4.2H186.2z M186,14.8l-1.8,2.2h-0.9l1.5-2.2H186z M197.4,27.7H196
			l-1.6-2.7c-0.2-0.3-0.3-0.5-0.4-0.6c-0.1-0.2-0.3-0.3-0.4-0.4c-0.1-0.1-0.3-0.2-0.5-0.2c-0.2-0.1-0.4-0.1-0.6-0.1h-0.9v4.2h-1.1
			v-9.8h2.9c0.4,0,0.8,0.1,1.2,0.2c0.4,0.1,0.7,0.3,0.9,0.5c0.3,0.2,0.5,0.5,0.6,0.8c0.1,0.3,0.2,0.7,0.2,1.1c0,0.3-0.1,0.7-0.2,0.9
			c-0.1,0.3-0.2,0.5-0.4,0.8c-0.2,0.2-0.4,0.4-0.7,0.6c-0.3,0.2-0.6,0.3-0.9,0.4v0c0.2,0.1,0.3,0.2,0.4,0.3c0.1,0.1,0.2,0.2,0.3,0.3
			c0.1,0.1,0.2,0.3,0.3,0.4c0.1,0.2,0.2,0.3,0.4,0.6L197.4,27.7z M191.5,19v3.6h1.6c0.3,0,0.6,0,0.8-0.1c0.2-0.1,0.5-0.2,0.6-0.4
			c0.2-0.2,0.3-0.4,0.4-0.6c0.1-0.2,0.1-0.5,0.1-0.8c0-0.5-0.2-0.9-0.5-1.2c-0.3-0.3-0.8-0.4-1.5-0.4H191.5z M203.9,27.7h-5.2v-9.8
			h5v1h-3.8v3.3h3.5v1h-3.5v3.4h4V27.7z M213.4,27.7h-1.3l-1-2.7h-4.2l-1,2.7h-1.3l3.8-9.8h1.2L213.4,27.7z M210.7,24l-1.5-4.2
			c-0.1-0.1-0.1-0.4-0.1-0.7h0c0,0.3-0.1,0.5-0.2,0.7l-1.5,4.2H210.7z M225.9,23.8c0,2.8-1.2,4.1-3.7,4.1c-2.4,0-3.6-1.3-3.6-4v-6
			h1.1v5.9c0,2,0.8,3,2.5,3c1.6,0,2.5-1,2.5-2.9v-6h1.1V23.8z M224,14.8l-1.8,2.2h-0.9l1.5-2.2H224z M234.1,19h-2.8v8.8h-1.1V19
			h-2.8v-1h6.8V19z M236.8,27.7h-1.1v-9.8h1.1V27.7z M244.5,27.7h-5.1v-9.8h1.1v8.8h3.9V27.7z"/>
	</g>
	<path fill="#FFFFFF" d="M67.1,96.6V63h9.6c2.9,0,5.2,0.7,6.9,2.1c1.7,1.4,2.6,3.3,2.6,5.6c0,1.9-0.5,3.6-1.5,5
		c-1,1.4-2.5,2.4-4.3,3v0.1c2.3,0.3,4.1,1.1,5.4,2.6c1.4,1.4,2,3.3,2,5.6c0,2.9-1,5.2-3.1,7c-2.1,1.8-4.7,2.7-7.8,2.7H67.1z
		 M71,66.5v10.9h4c2.2,0,3.9-0.5,5.1-1.5c1.2-1,1.9-2.5,1.9-4.4c0-3.3-2.1-4.9-6.4-4.9H71z M71,80.9V93h5.3c2.3,0,4.1-0.5,5.4-1.6
		c1.3-1.1,1.9-2.6,1.9-4.5c0-4-2.7-6-8.1-6H71z"/>
	<path fill="#FFFFFF" d="M73.2,106.4h-2.6v8.1h-1.1v-8.1h-2.6v-1h6.3V106.4z M78.1,114.6h-1v-7.9c-0.1,0.1-0.2,0.2-0.4,0.3
		c-0.2,0.1-0.3,0.2-0.5,0.3c-0.2,0.1-0.4,0.2-0.6,0.3c-0.2,0.1-0.4,0.2-0.6,0.2v-1.1c0.2-0.1,0.5-0.1,0.7-0.3
		c0.3-0.1,0.5-0.2,0.8-0.4c0.2-0.1,0.5-0.3,0.7-0.4c0.2-0.1,0.4-0.3,0.6-0.4h0.4V114.6z M85.3,114.6v-9.1h2.5c3.2,0,4.8,1.5,4.8,4.4
		c0,1.4-0.4,2.5-1.3,3.4c-0.9,0.9-2.1,1.3-3.6,1.3H85.3z M86.3,106.4v7.2h1.4c1.2,0,2.1-0.3,2.8-1s1-1.5,1-2.7
		c0-2.3-1.2-3.5-3.7-3.5H86.3z M101,110.9c0,2.6-1.2,3.8-3.5,3.8c-2.2,0-3.3-1.2-3.3-3.7v-5.6h1.1v5.5c0,1.9,0.8,2.8,2.4,2.8
		c1.5,0,2.3-0.9,2.3-2.7v-5.6h1.1V110.9z M104.4,111.1v3.4h-1.1v-9.1h2.5c1,0,1.7,0.2,2.3,0.7c0.5,0.5,0.8,1.1,0.8,2
		c0,0.9-0.3,1.6-0.9,2.1c-0.6,0.6-1.4,0.8-2.4,0.8H104.4z M104.4,106.4v3.7h1.1c0.7,0,1.3-0.2,1.7-0.5c0.4-0.3,0.6-0.8,0.6-1.4
		c0-1.2-0.7-1.8-2.1-1.8H104.4z M115.3,114.6h-4.7v-9.1h1.1v8.1h3.7V114.6z M121.5,114.6h-4.8v-9.1h4.6v1h-3.6v3h3.3v1h-3.3v3.2h3.8
		V114.6z M129.6,114.6h-1.3l-2.1-3.5c-0.1-0.1-0.1-0.3-0.2-0.5h0c0,0.1-0.1,0.2-0.2,0.5l-2.2,3.5h-1.3l3-4.6l-2.8-4.5h1.3l1.9,3.2
		c0.1,0.2,0.2,0.4,0.3,0.6h0c0.1-0.3,0.3-0.5,0.4-0.7l1.9-3.2h1.2l-2.9,4.5L129.6,114.6z"/>
</g>
</svg>
