<?xml version="1.0" encoding="utf-8"?>
<!-- Generator: Adobe Illustrator 24.1.0, SVG Export Plug-In . SVG Version: 6.00 Build 0)  -->
<svg version="1.1" baseProfile="basic" id="Layer_1"
	 xmlns="http://www.w3.org/2000/svg" xmlns:xlink="http://www.w3.org/1999/xlink" x="0px" y="0px" viewBox="0 0 320.6 148.1"
	 xml:space="preserve">
<g>
	<path fill="#8CACD4" d="M253.7,144.8H151.9V92.3h2.6v-4.8h-3.7V35.6h3.7v-4.2l28.6-19.6h57.8v22.8h13.2v7.9h3.2v-7.9h22.8v51.9
		h-98.6v4.2h72.6L253.7,144.8z"/>
	<path fill="#8CACD4" d="M121.2,120.4h26.5v24.4h-26.5V120.4z"/>
	<path fill="#2D4F75" d="M237,72.2c0,0.6-0.1,1.1-0.3,1.6c-0.2,0.5-0.5,0.9-0.9,1.2c-0.4,0.3-0.9,0.6-1.4,0.8
		c-0.5,0.2-1.1,0.3-1.8,0.3c-1.2,0-2.2-0.2-2.9-0.7v-1.5c0.9,0.7,1.8,1,2.9,1c0.4,0,0.8-0.1,1.2-0.2c0.4-0.1,0.7-0.3,0.9-0.5
		c0.3-0.2,0.5-0.5,0.6-0.8c0.1-0.3,0.2-0.6,0.2-1c0-1.6-1.2-2.5-3.5-2.5h-1v-1.2h1c2.1,0,3.1-0.8,3.1-2.3c0-1.4-0.8-2.1-2.4-2.1
		c-0.9,0-1.7,0.3-2.5,0.9v-1.4c0.8-0.5,1.8-0.7,2.9-0.7c0.5,0,1,0.1,1.4,0.2c0.4,0.1,0.8,0.4,1.1,0.6c0.3,0.3,0.5,0.6,0.7,0.9
		c0.2,0.4,0.3,0.8,0.3,1.2c0,1.7-0.8,2.7-2.5,3.2v0c0.4,0,0.8,0.2,1.2,0.3c0.4,0.2,0.7,0.4,0.9,0.6c0.3,0.3,0.5,0.6,0.6,0.9
		C237,71.4,237,71.8,237,72.2z M247.2,64c-0.2,0.3-0.4,0.7-0.7,1.2c-0.3,0.5-0.6,1.1-0.9,1.7c-0.3,0.6-0.6,1.3-0.9,2
		c-0.3,0.7-0.6,1.5-0.9,2.2c-0.3,0.8-0.5,1.5-0.7,2.3c-0.2,0.8-0.4,1.5-0.4,2.3h-1.5c0.1-0.8,0.3-1.5,0.5-2.3
		c0.2-0.8,0.5-1.6,0.7-2.3c0.3-0.8,0.6-1.5,0.9-2.2c0.3-0.7,0.6-1.3,0.9-1.9c0.3-0.6,0.6-1.1,0.8-1.5c0.2-0.5,0.4-0.8,0.6-1.1h-6.3
		v-1.3h8V64z M262.3,75.7h-1.4v-5.2c0-1-0.2-1.7-0.5-2.2c-0.3-0.4-0.8-0.7-1.5-0.7c-0.6,0-1.1,0.3-1.6,0.8c-0.4,0.6-0.6,1.2-0.6,2
		v5.1h-1.4v-5.3c0-1.8-0.7-2.7-2-2.7c-0.6,0-1.2,0.3-1.6,0.8c-0.4,0.5-0.6,1.2-0.6,2.1v5.1h-1.4v-9h1.4v1.4h0
		c0.6-1.1,1.6-1.6,2.8-1.6c0.6,0,1.2,0.2,1.6,0.5c0.5,0.3,0.8,0.8,0.9,1.3c0.7-1.2,1.7-1.9,3-1.9c2,0,3,1.2,3,3.7V75.7z M269.3,68
		h-4.9v-0.7c0-0.4,0.1-0.7,0.3-1c0.2-0.3,0.4-0.6,0.7-0.8c0.3-0.2,0.5-0.5,0.9-0.7c0.3-0.2,0.6-0.5,0.8-0.7c0.3-0.2,0.5-0.5,0.7-0.7
		c0.2-0.3,0.3-0.6,0.3-0.9c0-0.3-0.1-0.6-0.3-0.8c-0.2-0.2-0.5-0.3-0.9-0.3c-0.7,0-1.3,0.3-1.9,0.9V61c0.5-0.4,1.2-0.7,2.1-0.7
		c0.3,0,0.6,0,0.9,0.1c0.3,0.1,0.5,0.2,0.7,0.4c0.2,0.2,0.4,0.4,0.5,0.7c0.1,0.3,0.2,0.5,0.2,0.9c0,0.4-0.1,0.8-0.3,1.2
		c-0.2,0.3-0.4,0.6-0.6,0.9c-0.3,0.3-0.5,0.5-0.8,0.7c-0.3,0.2-0.6,0.4-0.8,0.6c-0.3,0.2-0.5,0.3-0.6,0.5c-0.2,0.2-0.2,0.3-0.2,0.5
		v0.1h3.5V68z"/>
	<path fill="#2D4F75" d="M214.4,51.7h-1.3l-1-2.7h-4.2l-1,2.7h-1.3l3.8-9.8h1.2L214.4,51.7z M211.7,48l-1.5-4.2
		c-0.1-0.1-0.1-0.4-0.1-0.7h0c0,0.3-0.1,0.5-0.2,0.7l-1.5,4.2H211.7z M211.4,38.8l-1.8,2.2h-0.9l1.5-2.2H211.4z M222.8,51.7h-1.4
		l-1.6-2.7c-0.2-0.3-0.3-0.5-0.4-0.6c-0.1-0.2-0.3-0.3-0.4-0.4c-0.1-0.1-0.3-0.2-0.5-0.2c-0.2-0.1-0.4-0.1-0.6-0.1H217v4.2h-1.1
		v-9.8h2.9c0.4,0,0.8,0.1,1.2,0.2c0.4,0.1,0.7,0.3,0.9,0.5c0.3,0.2,0.5,0.5,0.6,0.8c0.1,0.3,0.2,0.7,0.2,1.1c0,0.3-0.1,0.7-0.2,0.9
		c-0.1,0.3-0.2,0.5-0.4,0.8c-0.2,0.2-0.4,0.4-0.7,0.6c-0.3,0.2-0.6,0.3-0.9,0.4v0c0.2,0.1,0.3,0.2,0.4,0.3c0.1,0.1,0.2,0.2,0.3,0.3
		c0.1,0.1,0.2,0.3,0.3,0.4c0.1,0.2,0.2,0.3,0.4,0.6L222.8,51.7z M217,43v3.6h1.6c0.3,0,0.6,0,0.8-0.1c0.2-0.1,0.5-0.2,0.6-0.4
		c0.2-0.2,0.3-0.4,0.4-0.6c0.1-0.2,0.1-0.5,0.1-0.8c0-0.5-0.2-0.9-0.5-1.2c-0.3-0.3-0.8-0.4-1.5-0.4H217z M229.4,51.7h-5.2v-9.8h5v1
		h-3.8v3.3h3.5v1h-3.5v3.4h4V51.7z M238.9,51.7h-1.3l-1-2.7h-4.2l-1,2.7h-1.3l3.8-9.8h1.2L238.9,51.7z M236.2,48l-1.5-4.2
		c-0.1-0.1-0.1-0.4-0.1-0.7h0c0,0.3-0.1,0.5-0.2,0.7l-1.5,4.2H236.2z M251.3,47.8c0,2.8-1.2,4.1-3.7,4.1c-2.4,0-3.6-1.3-3.6-4v-6
		h1.1v5.9c0,2,0.8,3,2.5,3c1.6,0,2.5-1,2.5-2.9v-6h1.1V47.8z M249.4,38.8l-1.8,2.2h-0.9l1.5-2.2H249.4z M259.6,43h-2.8v8.8h-1.1V43
		h-2.8v-1h6.8V43z M262.3,51.7h-1.1v-9.8h1.1V51.7z M269.9,51.7h-5.1v-9.8h1.1v8.8h3.9V51.7z"/>
	<path fill="#FFFFFF" d="M46.7,130.6h-2.6v8.1H43v-8.1h-2.6v-1h6.3V130.6z M51.6,138.7h-1v-7.9c-0.1,0.1-0.2,0.2-0.4,0.3
		c-0.2,0.1-0.3,0.2-0.5,0.3c-0.2,0.1-0.4,0.2-0.6,0.3c-0.2,0.1-0.4,0.2-0.6,0.2v-1.1c0.2-0.1,0.5-0.1,0.7-0.3
		c0.3-0.1,0.5-0.2,0.8-0.4c0.2-0.1,0.5-0.3,0.7-0.4c0.2-0.1,0.4-0.3,0.6-0.4h0.4V138.7z M58.7,138.7v-9.1h2.5c3.2,0,4.8,1.5,4.8,4.4
		c0,1.4-0.4,2.5-1.3,3.4c-0.9,0.9-2.1,1.3-3.6,1.3H58.7z M59.8,130.6v7.2h1.4c1.2,0,2.1-0.3,2.8-1c0.7-0.6,1-1.5,1-2.7
		c0-2.3-1.2-3.5-3.7-3.5H59.8z M74.5,135.1c0,2.6-1.2,3.8-3.5,3.8c-2.2,0-3.3-1.2-3.3-3.7v-5.6h1.1v5.5c0,1.9,0.8,2.8,2.4,2.8
		c1.5,0,2.3-0.9,2.3-2.7v-5.6h1.1V135.1z M77.9,135.3v3.4h-1.1v-9.1h2.5c1,0,1.7,0.2,2.3,0.7c0.5,0.5,0.8,1.1,0.8,2
		c0,0.9-0.3,1.6-0.9,2.1c-0.6,0.6-1.4,0.8-2.4,0.8H77.9z M77.9,130.6v3.7H79c0.7,0,1.3-0.2,1.7-0.5c0.4-0.3,0.6-0.8,0.6-1.4
		c0-1.2-0.7-1.8-2.1-1.8H77.9z M88.8,138.7h-4.7v-9.1h1.1v8.1h3.7V138.7z M95,138.7h-4.8v-9.1h4.6v1h-3.6v3h3.3v1h-3.3v3.2H95V138.7
		z M103.1,138.7h-1.3l-2.1-3.5c-0.1-0.1-0.1-0.3-0.2-0.5h0c0,0.1-0.1,0.2-0.2,0.5l-2.2,3.5h-1.3l3-4.6l-2.8-4.5h1.3l1.9,3.2
		c0.1,0.2,0.2,0.4,0.3,0.6h0c0.1-0.3,0.3-0.5,0.4-0.7l1.9-3.2h1.2l-2.9,4.5L103.1,138.7z"/>
	<g>
		<path fill="#FFFFFF" d="M58.4,120.9H40.6V87.3h17.1v3.6H44.5V102h12.1v3.5H44.5v11.8h13.9V120.9z"/>
	</g>
</g>
</svg>
