<svg id="Layer_1" data-name="Layer 1" xmlns="http://www.w3.org/2000/svg" viewBox="0 0 18 12.6">
  <defs>
    <style>
      .cls-1 {
        fill: #fff;
      }
    </style>
  </defs>
  <g>
    <rect class="cls-1" x="2.7" y="7.7" width="6.3" height="2.1" rx="0.3"/>
    <path class="cls-1" d="M15.1,3.3A1.8,1.8,0,0,0,14.5.9,2.2,2.2,0,0,0,13.4.7a2.1,2.1,0,0,0-3-.2,2.4,2.4,0,0,0-.7,1.6v.2A2.6,2.6,0,0,0,8.5,5.6,2.6,2.6,0,0,0,10.8,7h.7v5.3c0,.2.1.4.3.4h.7a.4.4,0,0,0,.4-.4h0V7.6h.7A2.4,2.4,0,0,0,16,5.3,2.5,2.5,0,0,0,15.1,3.3Z"/>
    <path class="cls-1" d="M9.4,10.5h-7c-.2,0-.4.1-.4.3v1.4a.4.4,0,0,0,.4.4c.2,0,.3-.2.3-.4v-.3H9v.3a.4.4,0,0,0,.4.4c.2,0,.3-.2.3-.4V10.8A.3.3,0,0,0,9.4,10.5Z"/>
  </g>
</svg>
