<svg id="Layer_1" data-name="Layer 1" xmlns="http://www.w3.org/2000/svg" viewBox="0 0 18.1 13">
  <defs>
    <style>
      .cls-1 {
        fill: #fff;
      }
    </style>
  </defs>
  <path class="cls-1" d="M3.1,6l.5-.2a.7.7,0,0,0,.1-.5V4.4c0-.1.1-.2.2-.3h.6v6h0a2,2,0,0,0,.4.8,1.2,1.2,0,0,0,.7.5v1.3h.2V13h1l.4-.2a.5.5,0,0,0,.2-.4v-.9h3.1v.9c0,.2,0,.3.1.4l.4.2h.8l.4-.2a.5.5,0,0,0,.2-.4v-1a1.2,1.2,0,0,0,.7-.5,1.1,1.1,0,0,0,.3-.8h0V4.1h.7c.1,0,.1.1.1.2v1a.8.8,0,0,0,.2.4l.4.2.5-.2a.6.6,0,0,0,.1-.4v-1a1.5,1.5,0,0,0-.4-1.1A1.6,1.6,0,0,0,14,2.8h-.5V2.1a1.9,1.9,0,0,0-.3-1,1.6,1.6,0,0,0-.8-.6A11,11,0,0,0,5.7.5a1.6,1.6,0,0,0-.8.6,1.4,1.4,0,0,0-.4,1v.7H4.1A1.6,1.6,0,0,0,3,3.3a1.6,1.6,0,0,0-.5,1.1v1a.8.8,0,0,0,.2.4l.4.2ZM7,10.1H6.5c-.1-.1-.2-.2-.2-.3a.9.9,0,0,1-.1-.5l.2-.4.4-.2h.5l.3.3a.9.9,0,0,1,.1.5v.3c-.1,0-.1.1-.2.2l-.2.2Zm4.1,0h-.4q-.3-.1-.3-.3a.9.9,0,0,1-.1-.5c.1-.1.1-.3.3-.4l.3-.2h.5l.3.3c.1.2.2.3.2.5v.3l-.2.2-.2.2ZM7.9,1.5H8a7.4,7.4,0,0,1,2.1,0h.1v.8H8a.1.1,0,0,1-.1-.1h0ZM5.8,3.9c0-.1,0-.2.1-.2h6.3a.3.3,0,0,1,.1.2v3h-.1c-.1,0-.1,0-.1.1H5.9V3.9Z"/>
</svg>
