<svg id="Layer_1" data-name="Layer 1" xmlns="http://www.w3.org/2000/svg" viewBox="0 0 18 15.3">
  <defs>
    <style>
      .cls-1 {
        fill: #fff;
      }
    </style>
  </defs>
  <g>
    <path class="cls-1" d="M15,14.2h-.5V3.3a.6.6,0,0,0-.6-.5H11.8a2.7,2.7,0,0,0-5.4,0H4.2a.5.5,0,0,0-.5.5V14.2H3.1a.5.5,0,0,0,0,1H15a.5.5,0,0,0,0-1ZM6.9,9.8H5.3V8.2H6.9Zm0-2.7H5.3V5.5H6.9ZM9.1.6a2.1,2.1,0,0,1,2.1,2.1h0A2.2,2.2,0,0,1,9.2,5H9.1A2.2,2.2,0,0,1,6.9,2.8h0A2.2,2.2,0,0,1,9.1.6ZM8.3,7.1V5.5H9.9V7.1ZM9.9,8.2V9.8H8.3V8.2Zm.8,6H7.4V10.9h3.3Zm2.2-4.4H11.2V8.2h1.7Zm0-2.7H11.2V5.5h1.7Z"/>
    <path class="cls-1" d="M8.7,4.1h.8V3.2h.9V2.4H9.5v-1H8.7v1h-1v.8h1Z"/>
  </g>
</svg>
