<svg id="Layer_1" data-name="Layer 1" xmlns="http://www.w3.org/2000/svg" viewBox="0 0 18.1 12.5">
  <defs>
    <style>
      .cls-1 {
        fill: #fff;
      }
    </style>
  </defs>
  <g>
    <path class="cls-1" d="M12.2,5.6a1.4,1.4,0,0,0-.3-.9A4.2,4.2,0,0,0,9,3.9a4.4,4.4,0,0,0-2.9.8,1.4,1.4,0,0,0-.3.9c0,.4.1,1,.1,1.5A9,9,0,0,0,9,7.7a9.1,9.1,0,0,0,3.2-.6Z"/>
    <path class="cls-1" d="M10.7,9.1c0,.4.2.4.7.4s.9-.6.6-1S10.7,9.1,10.7,9.1Z"/>
    <path class="cls-1" d="M9,0A7.4,7.4,0,0,0,1.6,7.4a7.5,7.5,0,0,0,2,5.1H5.4L6,10.6a2,2,0,0,1-.4-.8A14.7,14.7,0,0,1,5,5.6C4.9,3.8,6.9,3.1,9,3.1s4.1.7,4.1,2.5a14.7,14.7,0,0,1-.6,4.2l-.4.8.6,1.9h1.7a7.2,7.2,0,0,0,2.1-5.1A7.5,7.5,0,0,0,9,0Z"/>
    <path class="cls-1" d="M12,12.5l-.5-1.6H6.6L6,12.5Z"/>
    <path class="cls-1" d="M6.7,9.5c.5,0,.7,0,.7-.4S6.3,8.1,6,8.5A.8.8,0,0,0,6.7,9.5Z"/>
  </g>
</svg>
