<svg id="Layer_1" data-name="Layer 1" xmlns="http://www.w3.org/2000/svg" viewBox="0 0 18.1 14.1">
  <defs>
    <style>
      .cls-1 {
        fill: #fff;
        fill-rule: evenodd;
      }
    </style>
  </defs>
  <path class="cls-1" d="M7.4,12.7V10.8L3.8,7.1,9,2l5.1,5.2-3.6,3.6v1.9A5.7,5.7,0,0,0,9,1.4a5.8,5.8,0,0,0-5.8,5,5.7,5.7,0,0,0,4.2,6.3Zm1.2.5V10.3L5.5,7.2,9,3.7l3.4,3.5L9.3,10.3v2.9a.9.9,0,0,0,.3.7.8.8,0,0,0,.7.1,6.9,6.9,0,0,0,5.6-7.5A6.9,6.9,0,0,0,9,.2,7,7,0,0,0,7.7,14a.7.7,0,0,0,.6-.1A.9.9,0,0,0,8.6,13.2Z"/>
</svg>
