<svg id="Layer_1" data-name="Layer 1" xmlns="http://www.w3.org/2000/svg" viewBox="0 0 18.1 15">
  <defs>
    <style>
      .cls-1 {
        fill: #fff;
      }
    </style>
  </defs>
  <g>
    <path class="cls-1" d="M15.6,2.5H6.8a.5.5,0,0,0-.4.2.5.5,0,0,0-.2.4c0,.1.1.2.2.3a.5.5,0,0,0,.4.2h7.7l-.9,5.9h-8L3.6.4,3.4.1H.2L0,.5A.5.5,0,0,0,.2.9l.3.2H2.6L4.7,9.9c0,.2.1.3.2.3l.3.2h8.9l.3-.2.2-.3,1.1-7V2.7C15.7,2.6,15.7,2.6,15.6,2.5Z"/>
    <path class="cls-1" d="M6.9,11.6a1.7,1.7,0,0,0,0,3.4h0a1.7,1.7,0,0,0,0-3.4Zm0,2.3-.5-.2-.2-.4c0-.2.1-.3.2-.5h.9c.1.2.2.3.2.5l-.2.4Z"/>
    <path class="cls-1" d="M12.3,11.6A1.7,1.7,0,1,0,14,13.3a1.8,1.8,0,0,0-1.7-1.7Zm0,2.3-.4-.2-.2-.4c0-.2.1-.3.2-.5h.9c.1.2.2.3.2.5l-.2.4Z"/>
  </g>
</svg>
