<svg id="Layer_1" data-name="Layer 1" xmlns="http://www.w3.org/2000/svg" viewBox="0 0 18.1 15">
  <defs>
    <style>
      .cls-1 {
        fill: #fff;
      }
    </style>
  </defs>
  <g>
    <circle class="cls-1" cx="5.2" cy="9" r="1.5"/>
    <path class="cls-1" d="M5.7,10.9H4.6A1.6,1.6,0,0,0,3,12.4l-.2,1.3a.3.3,0,0,0,.3.3,6.4,6.4,0,0,0,2,.3H6V13.1A2,2,0,0,1,7,11.6,1.7,1.7,0,0,0,5.7,10.9Z"/>
    <circle class="cls-1" cx="12.8" cy="9" r="1.5"/>
    <path class="cls-1" d="M15,12.4a1.6,1.6,0,0,0-1.6-1.5H12.3a2,2,0,0,0-1.3.6,1.9,1.9,0,0,1,.8,1.5l.2,1.2h.8l2.1-.2c.2,0,.2-.2.2-.3Z"/>
    <path class="cls-1" d="M9.6,11.7H8.4a1.6,1.6,0,0,0-1.6,1.4v1.3c0,.2.1.4.2.4L9,15l2-.2c.2,0,.3-.2.3-.4l-.2-1.3A1.5,1.5,0,0,0,9.6,11.7Z"/>
    <circle class="cls-1" cx="9" cy="9.8" r="1.5"/>
    <path class="cls-1" d="M10.2,3.6a.3.3,0,0,0-.4,0L9.4,4l-.8-.8c-.1-.2-.3-.2-.5,0L6.4,5a.2.2,0,0,0,0,.3.2.2,0,0,0,.2.2h4.7c.2,0,.3-.1.3-.2s0-.2-.1-.3Z"/>
    <circle class="cls-1" cx="10" cy="2.2" r="0.7"/>
    <path class="cls-1" d="M5.4,6.8h7.1a.6.6,0,0,0,.6-.6V.6a.6.6,0,0,0-.6-.6H5.4a.6.6,0,0,0-.6.6V6.2A.6.6,0,0,0,5.4,6.8ZM5.5.6h7V6.1h-7Z"/>
  </g>
</svg>
