<svg id="Layer_1" data-name="Layer 1" xmlns="http://www.w3.org/2000/svg" viewBox="0 0 18.1 12.4">
  <defs>
    <style>
      .cls-1 {
        fill: #fff;
      }
    </style>
  </defs>
  <g>
    <path class="cls-1" d="M3.9.5C3.7.3,3.7.2,3.9.1H5.8C6.1.1,8.7,0,8.6.3s-.8.1-1,.1A1.7,1.7,0,0,0,6.4,1.5a6.7,6.7,0,0,1,2,.1c.9.4,1.1,1.5,1.5,2.2a8.5,8.5,0,0,0,3.4,3.1,6.3,6.3,0,0,0,2.3.8c1.1.2.9.4.8,1.5s0,.9-1,.9H5.9c-1.4,0-3.8.5-4.3-1.3A11,11,0,0,1,2,4.1c.2-.6.5-2,1.1-2.4s2.1-.1,2.8-.1S4.8.6,3.9.5,3.7.4,3.9.5Zm2.3.9c.3-.3.3-.7.7-1H5.5C5.6.6,6.1,1,6.2,1.4Zm-2.9.9c-.4.1-.7,1.3-.9,1.7s.4.6.9.6h5c1,0-.1-2.3-.6-2.3a21.6,21.6,0,0,0-4.4,0Zm7.5,5.5V5.9c0-.2-.9-1-1-1.2S9.4,7.5,10.8,7.8Zm1.4.7c0-1.2.1-1.4-.9-2.2S11,8.1,12.2,8.5ZM2.9,6.9A.6.6,0,0,0,3.1,8c.8,0,.6-1.3-.2-1.1Zm4.6,0A.6.6,0,0,0,7.8,8c.7-.1.4-1.3-.3-1.1Zm6,1.9c0-1.1.1-1.2-.8-1.7S12.4,8.6,13.5,8.8Zm1.1.3c0-.9.2-1.1-.7-1.4S13.6,9,14.6,9.1Zm.9.1c0-.7.3-1.1-.6-1.2S14.6,9.1,15.5,9.2Zm.7.1c0-.5.3-1.1-.5-1.1S15.5,9.3,16.2,9.3Z"/>
    <path class="cls-1" d="M2.8,10.9H4.5c.1.8.3.5,1.2.5s1.3.4,1.4-.6h8c.8,0,1.4-.4,1.3.6-3.1,0-6,.9-9.1.9H2.8c-.6,0-1.3.3-1.3-.4s1.2.2,1.3-1Z"/>
  </g>
</svg>
