<?xml version="1.0" encoding="utf-8"?>
<!-- Generator: Adobe Illustrator 24.1.0, SVG Export Plug-In . SVG Version: 6.00 Build 0)  -->
<svg version="1.1" id="Layer_1" xmlns="http://www.w3.org/2000/svg" xmlns:xlink="http://www.w3.org/1999/xlink" x="0px" y="0px"
	 viewBox="0 0 321 123.9" style="enable-background:new 0 0 321 123.9;" xml:space="preserve">
<style type="text/css">
	.st0{fill:#1A4E62;}
	.st1{opacity:0.2;}
	.st2{fill:#969696;}
	.st3{opacity:0.25;}
	.st4{fill-rule:evenodd;clip-rule:evenodd;fill:#3F99BB;}
	.st5{fill:#FFFFFF;}
	.st6{fill-rule:evenodd;clip-rule:evenodd;fill:#FFFFFF;}
	.st7{fill:#C4C4C4;}
	.st8{fill:#B6D7AE;}
	.st9{fill:#804492;}
	.st10{fill:#C791C0;}
	.st11{fill:#86BACB;}
	.st12{opacity:0.2;fill:#ED8B75;enable-background:new    ;}
	.st13{fill:#4075B7;}
	.st14{fill:#DEA819;}
	.st15{fill:#EBEBEA;}
	.st16{fill:#444141;}
	.st17{fill:#D9B1D4;}
	.st18{fill:#1D1D1B;}
	.st19{clip-path:url(#SVGID_6_);}
	.st20{fill:url(#SVGID_7_);}
	.st21{fill:#D6ADD1;}
	.st22{fill:#C6DCB5;}
	.st23{fill:#3E98BA;}
	.st24{fill:#E7F1FA;}
	.st25{fill:#37B088;}
	.st26{fill:#192533;}
	.st27{fill:#61789A;}
	.st28{fill:none;stroke:#FFFFFF;stroke-width:5;}
	.st29{fill:#BAD4F0;}
	.st30{fill:#E8F1FB;}
	.st31{fill:#36B289;}
	.st32{fill:#BBD6F5;}
	.st33{fill:#FFFFFF;fill-opacity:0.5;}
	.st34{fill:#BCBCBC;}
	.st35{fill:#757272;}
	.st36{clip-path:url(#SVGID_13_);}
	.st37{fill:none;}
	.st38{clip-path:url(#SVGID_15_);}
	.st39{clip-path:url(#SVGID_17_);}
	.st40{fill:#FF004A;}
	.st41{fill:#597C83;}
	.st42{fill:#8CACD4;}
	.st43{fill:none;stroke:#EEFF00;stroke-width:0.5;stroke-miterlimit:10;}
	.st44{clip-path:url(#SVGID_21_);}
	.st45{fill:url(#SVGID_22_);}
	.st46{fill:url(#SVGID_23_);}
	.st47{fill:url(#SVGID_24_);}
	.st48{fill:url(#SVGID_25_);}
	.st49{fill:url(#SVGID_26_);}
	.st50{fill:url(#SVGID_27_);}
	.st51{fill:url(#SVGID_28_);}
	.st52{fill:url(#SVGID_29_);}
	.st53{fill:url(#SVGID_30_);}
	.st54{fill:url(#SVGID_31_);}
	.st55{fill:#808080;}
	.st56{fill:#989898;}
	.st57{fill:none;stroke:#808080;stroke-width:0.1422;stroke-linecap:round;stroke-linejoin:round;stroke-miterlimit:10;}
	.st58{fill:#545454;}
	.st59{fill:none;stroke:#545454;stroke-width:0;stroke-linecap:round;stroke-miterlimit:10;}
	.st60{fill:none;stroke:#939598;stroke-width:0.2556;stroke-linecap:round;stroke-linejoin:round;stroke-miterlimit:10;}
	.st61{fill:none;stroke:#969696;stroke-width:0.1422;stroke-linecap:round;stroke-linejoin:round;stroke-miterlimit:10;}
	.st62{fill:none;stroke:#808080;stroke-width:0;stroke-linecap:round;stroke-miterlimit:10;}
	.st63{fill:#B8B85C;}
	.st64{fill:none;stroke:#B8B85C;stroke-width:0;stroke-linecap:round;stroke-miterlimit:10;}
	.st65{fill:#DCDCDC;}
	.st66{fill:url(#SVGID_50_);}
	.st67{fill:url(#SVGID_51_);}
	.st68{fill:#C7C8CA;}
	.st69{fill:none;stroke:#C7C8CA;stroke-width:0;stroke-miterlimit:10;}
	.st70{fill:none;stroke:#FFFFFF;stroke-width:0;stroke-linecap:round;stroke-miterlimit:10;}
	.st71{fill:none;stroke:#545454;stroke-width:0.1422;stroke-linecap:round;stroke-linejoin:round;stroke-miterlimit:10;}
	.st72{fill:none;stroke:#989898;stroke-width:0.1422;stroke-linecap:round;stroke-linejoin:round;stroke-miterlimit:10;}
	.st73{clip-path:url(#SVGID_67_);}
	.st74{fill:url(#SVGID_68_);}
	.st75{fill:#897187;}
	.st76{fill:#8C9981;}
	.st77{fill:#996600;}
	.st78{fill:#2D4F75;}
	.st79{fill:#44263A;}
</style>
<g>
	<rect x="142.4" y="64.4" class="st14" width="103.7" height="55.1"/>
	<rect x="142.4" y="5.9" class="st14" width="103.7" height="55.1"/>
	<rect x="252.7" y="95.3" class="st14" width="7.7" height="24.3"/>
	<path class="st5" d="M67,106.8h-2.6v8.1h-1.1v-8.1h-2.6v-1H67V106.8z M71.8,114.9h-1v-7.9c-0.1,0.1-0.2,0.2-0.4,0.3
		c-0.2,0.1-0.3,0.2-0.5,0.3c-0.2,0.1-0.4,0.2-0.6,0.3c-0.2,0.1-0.4,0.2-0.6,0.2v-1.1c0.2-0.1,0.5-0.1,0.7-0.3
		c0.3-0.1,0.5-0.2,0.8-0.4c0.2-0.1,0.5-0.3,0.7-0.4c0.2-0.1,0.4-0.3,0.6-0.4h0.4V114.9z M79,114.9v-9.1h2.5c3.2,0,4.8,1.5,4.8,4.4
		c0,1.4-0.4,2.5-1.3,3.4c-0.9,0.9-2.1,1.3-3.6,1.3H79z M80,106.8v7.2h1.4c1.2,0,2.1-0.3,2.8-1c0.7-0.6,1-1.5,1-2.7
		c0-2.3-1.2-3.5-3.7-3.5H80z M94.7,111.3c0,2.6-1.2,3.8-3.5,3.8c-2.2,0-3.3-1.2-3.3-3.7v-5.6H89v5.5c0,1.9,0.8,2.8,2.4,2.8
		c1.5,0,2.3-0.9,2.3-2.7v-5.6h1.1V111.3z M98.1,111.5v3.4H97v-9.1h2.5c1,0,1.7,0.2,2.3,0.7c0.5,0.5,0.8,1.1,0.8,2
		c0,0.9-0.3,1.6-0.9,2.1c-0.6,0.6-1.4,0.8-2.4,0.8H98.1z M98.1,106.8v3.7h1.1c0.7,0,1.3-0.2,1.7-0.5c0.4-0.3,0.6-0.8,0.6-1.4
		c0-1.2-0.7-1.8-2.1-1.8H98.1z M109,114.9h-4.7v-9.1h1.1v8.1h3.7V114.9z M115.2,114.9h-4.8v-9.1h4.6v1h-3.6v3h3.3v1h-3.3v3.2h3.8
		V114.9z M123.3,114.9H122l-2.1-3.5c-0.1-0.1-0.1-0.3-0.2-0.5h0c0,0.1-0.1,0.2-0.2,0.5l-2.2,3.5H116l3-4.6l-2.8-4.5h1.3l1.9,3.2
		c0.1,0.2,0.2,0.4,0.3,0.6h0c0.1-0.3,0.3-0.5,0.4-0.7l1.9-3.2h1.2l-2.9,4.5L123.3,114.9z"/>
	<g>
		<path class="st5" d="M60.5,96.9V63.3h9.3c11.8,0,17.8,5.5,17.8,16.4c0,5.2-1.6,9.4-4.9,12.5s-7.7,4.7-13.2,4.7H60.5z M64.4,66.9
			v26.5h5c4.4,0,7.8-1.2,10.3-3.5s3.7-5.7,3.7-10c0-8.6-4.6-12.9-13.7-12.9H64.4z"/>
	</g>
</g>
<g>
	<path class="st77" d="M166.6,27.9h-1.3l-1-2.7h-4.2l-1,2.7h-1.3l3.8-9.8h1.2L166.6,27.9z M163.9,24.1l-1.5-4.2
		c0-0.1-0.1-0.4-0.2-0.7h0c0,0.3-0.1,0.5-0.2,0.7l-1.5,4.2H163.9z M163.6,14.9l-1.8,2.2H161l1.5-2.2H163.6z"/>
	<path class="st77" d="M175.1,27.9h-1.4l-1.6-2.7c-0.2-0.3-0.3-0.5-0.4-0.7s-0.3-0.3-0.4-0.4c-0.1-0.1-0.3-0.2-0.5-0.2
		c-0.2-0.1-0.4-0.1-0.6-0.1h-0.9v4.2H168v-9.8h2.9c0.4,0,0.8,0.1,1.2,0.2c0.4,0.1,0.7,0.3,0.9,0.5c0.3,0.2,0.5,0.5,0.6,0.8
		s0.2,0.7,0.2,1.1c0,0.3-0.1,0.7-0.2,0.9c-0.1,0.3-0.2,0.5-0.4,0.8c-0.2,0.2-0.4,0.4-0.7,0.6c-0.3,0.2-0.6,0.3-0.9,0.4v0
		c0.2,0.1,0.3,0.2,0.4,0.2c0.1,0.1,0.2,0.2,0.3,0.3s0.2,0.3,0.3,0.4c0.1,0.2,0.2,0.3,0.4,0.6L175.1,27.9z M169.2,19.1v3.6h1.6
		c0.3,0,0.6,0,0.8-0.1c0.2-0.1,0.5-0.2,0.6-0.4s0.3-0.4,0.4-0.6s0.2-0.5,0.2-0.8c0-0.5-0.2-0.9-0.5-1.2c-0.3-0.3-0.8-0.4-1.5-0.4
		H169.2z"/>
	<path class="st77" d="M181.6,27.9h-5.2v-9.8h5v1h-3.8v3.3h3.5v1h-3.5v3.4h4V27.9z"/>
	<path class="st77" d="M191.1,27.9h-1.3l-1-2.7h-4.2l-1,2.7h-1.3l3.8-9.8h1.2L191.1,27.9z M188.4,24.1l-1.5-4.2
		c0-0.1-0.1-0.4-0.2-0.7h0c0,0.3-0.1,0.5-0.2,0.7l-1.5,4.2H188.4z"/>
	<path class="st77" d="M196.4,27.9v-9.8h2.8c0.8,0,1.5,0.2,2,0.6s0.7,1,0.7,1.6c0,0.6-0.2,1-0.5,1.4s-0.7,0.7-1.2,0.9v0
		c0.7,0.1,1.2,0.3,1.6,0.7s0.6,1,0.6,1.6c0,0.8-0.3,1.5-0.9,2s-1.4,0.8-2.3,0.8H196.4z M197.5,19.1v3.2h1.2c0.6,0,1.1-0.2,1.5-0.5
		s0.5-0.7,0.5-1.3c0-1-0.6-1.4-1.9-1.4H197.5z M197.5,23.3v3.5h1.6c0.7,0,1.2-0.2,1.6-0.5c0.4-0.3,0.6-0.8,0.6-1.3
		c0-1.2-0.8-1.7-2.4-1.7H197.5z"/>
	<path class="st77" d="M211.4,27.9H210l-1.6-2.7c-0.2-0.3-0.3-0.5-0.4-0.7s-0.3-0.3-0.4-0.4c-0.1-0.1-0.3-0.2-0.5-0.2
		c-0.2-0.1-0.4-0.1-0.6-0.1h-0.9v4.2h-1.1v-9.8h2.9c0.4,0,0.8,0.1,1.2,0.2c0.4,0.1,0.7,0.3,0.9,0.5c0.3,0.2,0.5,0.5,0.6,0.8
		s0.2,0.7,0.2,1.1c0,0.3-0.1,0.7-0.2,0.9c-0.1,0.3-0.2,0.5-0.4,0.8c-0.2,0.2-0.4,0.4-0.7,0.6c-0.3,0.2-0.6,0.3-0.9,0.4v0
		c0.2,0.1,0.3,0.2,0.4,0.2c0.1,0.1,0.2,0.2,0.3,0.3s0.2,0.3,0.3,0.4c0.1,0.2,0.2,0.3,0.4,0.6L211.4,27.9z M205.5,19.1v3.6h1.6
		c0.3,0,0.6,0,0.8-0.1c0.2-0.1,0.5-0.2,0.6-0.4s0.3-0.4,0.4-0.6s0.2-0.5,0.2-0.8c0-0.5-0.2-0.9-0.5-1.2c-0.3-0.3-0.8-0.4-1.5-0.4
		H205.5z"/>
	<path class="st77" d="M219.9,23.9c0,2.8-1.2,4.1-3.7,4.1c-2.4,0-3.6-1.3-3.6-4v-6h1.1V24c0,2,0.8,3,2.5,3c1.6,0,2.5-1,2.5-2.9v-6
		h1.1V23.9z"/>
	<path class="st77" d="M228.2,19.1h-2.8v8.8h-1.1v-8.8h-2.8v-1h6.8V19.1z"/>
	<path class="st77" d="M236.3,27.9h-1.3l-1-2.7h-4.2l-1,2.7h-1.3l3.8-9.8h1.2L236.3,27.9z M233.7,24.1l-1.5-4.2
		c0-0.1-0.1-0.4-0.2-0.7h0c0,0.3-0.1,0.5-0.2,0.7l-1.5,4.2H233.7z"/>
</g>
<g>
	<path class="st77" d="M190.4,48.2c0,0.6-0.1,1.2-0.3,1.7s-0.5,0.9-0.9,1.3s-0.9,0.6-1.4,0.8s-1.2,0.3-1.8,0.3c-1.2,0-2-0.2-2.6-0.5
		v-1.5c0.9,0.6,1.7,0.8,2.6,0.8c0.5,0,0.9-0.1,1.2-0.2c0.4-0.1,0.7-0.3,0.9-0.6s0.5-0.5,0.6-0.9c0.1-0.3,0.2-0.7,0.2-1.1
		c0-0.8-0.3-1.5-0.8-1.9s-1.4-0.7-2.4-0.7c-0.2,0-0.3,0-0.5,0s-0.4,0-0.6,0s-0.4,0-0.5,0s-0.3,0-0.5,0l0.4-6.3h5.8v1.3h-4.6
		l-0.3,3.7c0.2,0,0.4,0,0.6,0s0.4,0,0.6,0c0.7,0,1.3,0.1,1.8,0.3s1,0.4,1.3,0.8c0.4,0.3,0.6,0.7,0.8,1.2S190.4,47.6,190.4,48.2z"/>
	<path class="st77" d="M199.9,48.5c0,0.6-0.1,1.1-0.3,1.6s-0.5,0.9-0.9,1.2c-0.4,0.3-0.9,0.6-1.4,0.8s-1.1,0.3-1.8,0.3
		c-1.2,0-2.2-0.2-2.9-0.7v-1.5c0.8,0.7,1.8,1,2.9,1c0.4,0,0.8-0.1,1.2-0.2s0.7-0.3,0.9-0.5c0.3-0.2,0.5-0.5,0.6-0.8
		c0.1-0.3,0.2-0.6,0.2-1c0-1.6-1.2-2.5-3.5-2.5h-1V45h1c2.1,0,3.1-0.8,3.1-2.3c0-1.4-0.8-2.1-2.4-2.1c-0.9,0-1.7,0.3-2.5,0.9V40
		c0.8-0.5,1.8-0.7,2.9-0.7c0.5,0,1,0.1,1.4,0.2s0.8,0.4,1.1,0.6s0.5,0.6,0.7,0.9c0.2,0.4,0.3,0.8,0.3,1.2c0,1.7-0.8,2.7-2.5,3.2v0
		c0.4,0,0.8,0.2,1.2,0.3s0.7,0.4,0.9,0.6s0.5,0.6,0.6,0.9C199.9,47.7,199.9,48.1,199.9,48.5z"/>
	<path class="st77" d="M203.2,52.3c-0.3,0-0.5-0.1-0.7-0.3s-0.3-0.4-0.3-0.7s0.1-0.5,0.3-0.7s0.4-0.3,0.7-0.3c0.3,0,0.5,0.1,0.7,0.3
		s0.3,0.4,0.3,0.7s-0.1,0.5-0.3,0.7S203.5,52.3,203.2,52.3z"/>
	<path class="st77" d="M206,48.6c0-0.3,0.1-0.7,0.2-1s0.3-0.7,0.5-0.9c0.2-0.3,0.4-0.6,0.7-0.8c0.3-0.2,0.6-0.4,1-0.6
		c-0.5-0.3-1-0.7-1.3-1.2s-0.5-1-0.5-1.6c0-0.5,0.1-0.9,0.3-1.3s0.4-0.7,0.7-1s0.7-0.5,1.1-0.7s0.9-0.2,1.4-0.2c0.5,0,1,0.1,1.4,0.2
		s0.8,0.4,1.1,0.7s0.6,0.6,0.7,1s0.3,0.8,0.3,1.3c0,0.6-0.2,1.1-0.5,1.6s-0.8,0.9-1.3,1.2c0.4,0.1,0.7,0.3,1,0.6s0.5,0.5,0.7,0.8
		s0.3,0.6,0.5,0.9s0.2,0.7,0.2,1c0,0.6-0.1,1.1-0.3,1.5s-0.5,0.8-0.8,1.2c-0.4,0.3-0.8,0.6-1.3,0.8c-0.5,0.2-1.1,0.3-1.7,0.3
		c-0.6,0-1.1-0.1-1.6-0.3s-0.9-0.4-1.3-0.8s-0.6-0.7-0.8-1.2C206.1,49.6,206,49.1,206,48.6z M207.5,48.4c0,0.4,0.1,0.7,0.2,1.1
		s0.3,0.6,0.5,0.8c0.2,0.2,0.5,0.4,0.8,0.5c0.3,0.1,0.7,0.2,1,0.2c0.4,0,0.7-0.1,1-0.2s0.6-0.3,0.8-0.5c0.2-0.2,0.4-0.5,0.5-0.8
		c0.1-0.3,0.2-0.7,0.2-1.1c0-0.4-0.1-0.7-0.2-1s-0.3-0.6-0.5-0.8s-0.5-0.4-0.8-0.6s-0.7-0.2-1-0.2c-0.4,0-0.7,0.1-1,0.2
		c-0.3,0.1-0.6,0.3-0.8,0.5s-0.4,0.5-0.5,0.8S207.5,48.1,207.5,48.4z M208,42.6c0,0.3,0.1,0.6,0.2,0.8c0.1,0.3,0.3,0.5,0.4,0.7
		s0.4,0.3,0.7,0.4s0.5,0.2,0.8,0.2s0.6-0.1,0.8-0.2c0.3-0.1,0.5-0.3,0.7-0.5s0.3-0.4,0.4-0.7s0.2-0.5,0.2-0.8c0-0.3-0.1-0.6-0.2-0.8
		c-0.1-0.3-0.3-0.5-0.4-0.7s-0.4-0.3-0.7-0.4c-0.3-0.1-0.5-0.2-0.8-0.2c-0.3,0-0.6,0.1-0.8,0.2c-0.3,0.1-0.5,0.3-0.7,0.5
		c-0.2,0.2-0.3,0.4-0.4,0.7S208,42.3,208,42.6z"/>
	<path class="st77" d="M229.1,52.1h-1.4v-5.2c0-1-0.2-1.7-0.5-2.2c-0.3-0.4-0.8-0.7-1.6-0.7c-0.6,0-1.1,0.3-1.6,0.8
		c-0.4,0.6-0.6,1.2-0.6,2v5.1H222v-5.3c0-1.8-0.7-2.7-2-2.7c-0.6,0-1.2,0.3-1.6,0.8s-0.6,1.2-0.6,2.1v5.1h-1.4v-9h1.4v1.4h0
		c0.6-1.1,1.6-1.6,2.8-1.6c0.6,0,1.2,0.2,1.6,0.5s0.8,0.8,0.9,1.3c0.7-1.2,1.7-1.9,3-1.9c2,0,3,1.2,3,3.7V52.1z"/>
	<path class="st77" d="M236.1,47h-4.9v-0.7c0-0.4,0.1-0.7,0.3-1c0.2-0.3,0.4-0.5,0.7-0.8c0.3-0.2,0.5-0.5,0.8-0.7s0.6-0.4,0.8-0.7
		s0.5-0.5,0.7-0.7s0.3-0.6,0.3-0.9c0-0.3-0.1-0.6-0.3-0.8c-0.2-0.2-0.5-0.3-0.9-0.3c-0.7,0-1.3,0.3-1.9,0.9V40
		c0.5-0.4,1.2-0.7,2.1-0.7c0.3,0,0.6,0,0.9,0.1s0.5,0.2,0.7,0.4s0.4,0.4,0.5,0.7s0.2,0.5,0.2,0.9c0,0.4-0.1,0.8-0.3,1.2
		c-0.2,0.3-0.4,0.6-0.6,0.9s-0.5,0.5-0.8,0.7s-0.6,0.4-0.8,0.6s-0.5,0.3-0.6,0.5c-0.2,0.2-0.3,0.3-0.3,0.5v0.1h3.5V47z"/>
</g>
</svg>
