<?xml version="1.0" encoding="utf-8"?>
<!-- Generator: Adobe Illustrator 24.1.0, SVG Export Plug-In . SVG Version: 6.00 Build 0)  -->
<svg version="1.1" id="Layer_1" xmlns="http://www.w3.org/2000/svg" xmlns:xlink="http://www.w3.org/1999/xlink" x="0px" y="0px"
	 viewBox="0 0 320.6 137.5" style="enable-background:new 0 0 320.6 137.5;" xml:space="preserve">
<style type="text/css">
	.st0{fill:#1A4E62;}
	.st1{opacity:0.2;}
	.st2{fill:#969696;}
	.st3{opacity:0.25;}
	.st4{fill-rule:evenodd;clip-rule:evenodd;fill:#3F99BB;}
	.st5{fill:#FFFFFF;}
	.st6{fill-rule:evenodd;clip-rule:evenodd;fill:#FFFFFF;}
	.st7{fill:#C4C4C4;}
	.st8{fill:#B6D7AE;}
	.st9{fill:#804492;}
	.st10{fill:#C791C0;}
	.st11{fill:#86BACB;}
	.st12{opacity:0.2;fill:#ED8B75;enable-background:new    ;}
	.st13{fill:#4075B7;}
	.st14{fill:#DEA819;}
	.st15{fill:#EBEBEA;}
	.st16{fill:#444141;}
	.st17{fill:#D9B1D4;}
	.st18{fill:#1D1D1B;}
	.st19{clip-path:url(#SVGID_6_);}
	.st20{fill:url(#SVGID_7_);}
	.st21{fill:#D6ADD1;}
	.st22{fill:#C6DCB5;}
	.st23{fill:#3E98BA;}
	.st24{fill:#E7F1FA;}
	.st25{fill:#37B088;}
	.st26{fill:#192533;}
	.st27{fill:#61789A;}
	.st28{fill:none;stroke:#FFFFFF;stroke-width:5;}
	.st29{fill:#BAD4F0;}
	.st30{fill:#E8F1FB;}
	.st31{fill:#36B289;}
	.st32{fill:#BBD6F5;}
	.st33{fill:#FFFFFF;fill-opacity:0.5;}
	.st34{fill:#BCBCBC;}
	.st35{fill:#757272;}
	.st36{clip-path:url(#SVGID_13_);}
	.st37{fill:none;}
	.st38{clip-path:url(#SVGID_15_);}
	.st39{clip-path:url(#SVGID_17_);}
	.st40{fill:#FF004A;}
	.st41{fill:#597C83;}
	.st42{fill:#8CACD4;}
	.st43{fill:none;stroke:#EEFF00;stroke-width:0.5;stroke-miterlimit:10;}
	.st44{clip-path:url(#SVGID_21_);}
	.st45{fill:url(#SVGID_22_);}
	.st46{fill:url(#SVGID_23_);}
	.st47{fill:url(#SVGID_24_);}
	.st48{fill:url(#SVGID_25_);}
	.st49{fill:url(#SVGID_26_);}
	.st50{fill:url(#SVGID_27_);}
	.st51{fill:url(#SVGID_28_);}
	.st52{fill:url(#SVGID_29_);}
	.st53{fill:url(#SVGID_30_);}
	.st54{fill:url(#SVGID_31_);}
	.st55{fill:#808080;}
	.st56{fill:#989898;}
	.st57{fill:none;stroke:#808080;stroke-width:0.1422;stroke-linecap:round;stroke-linejoin:round;stroke-miterlimit:10;}
	.st58{fill:#545454;}
	.st59{fill:none;stroke:#545454;stroke-width:0;stroke-linecap:round;stroke-miterlimit:10;}
	.st60{fill:none;stroke:#939598;stroke-width:0.2556;stroke-linecap:round;stroke-linejoin:round;stroke-miterlimit:10;}
	.st61{fill:none;stroke:#969696;stroke-width:0.1422;stroke-linecap:round;stroke-linejoin:round;stroke-miterlimit:10;}
	.st62{fill:none;stroke:#808080;stroke-width:0;stroke-linecap:round;stroke-miterlimit:10;}
	.st63{fill:#B8B85C;}
	.st64{fill:none;stroke:#B8B85C;stroke-width:0;stroke-linecap:round;stroke-miterlimit:10;}
	.st65{fill:#DCDCDC;}
	.st66{fill:url(#SVGID_50_);}
	.st67{fill:url(#SVGID_51_);}
	.st68{fill:#C7C8CA;}
	.st69{fill:none;stroke:#C7C8CA;stroke-width:0;stroke-miterlimit:10;}
	.st70{fill:none;stroke:#FFFFFF;stroke-width:0;stroke-linecap:round;stroke-miterlimit:10;}
	.st71{fill:none;stroke:#545454;stroke-width:0.1422;stroke-linecap:round;stroke-linejoin:round;stroke-miterlimit:10;}
	.st72{fill:none;stroke:#989898;stroke-width:0.1422;stroke-linecap:round;stroke-linejoin:round;stroke-miterlimit:10;}
	.st73{clip-path:url(#SVGID_67_);}
	.st74{fill:url(#SVGID_68_);}
	.st75{fill:#897187;}
	.st76{fill:#8C9981;}
	.st77{fill:#996600;}
	.st78{fill:#2D4F75;}
	.st79{fill:#44263A;}
</style>
<g>
	<path class="st9" d="M302.6,136.3H173.7V96.9l17.1-12.6h60.6v8.9h6.7v20h46.6v7.9h-2.1V136.3z"/>
	<path class="st9" d="M127.9,27.3H96.7v81h56.3v-3.6h5.7v-4.2h5.2v-3.6h5.2v-4.2h5.2v-4.2h5.7v-4.2h5.2v-4.2h72.4v-28h-6.3v-5.7
		l-28.1-19.2H131v37.4h-3.1V27.3z"/>
	<path class="st5" d="M33.1,80.3H20v11.6h12.1v3.5H20v14.9h-3.9V76.7h17.1V80.3z"/>
	<path class="st5" d="M22.2,120.2h-2.6v8.1h-1.1v-8.1h-2.6v-1h6.3V120.2z M27.1,128.3h-1v-7.9c-0.1,0.1-0.2,0.2-0.4,0.3
		c-0.2,0.1-0.3,0.2-0.5,0.3c-0.2,0.1-0.4,0.2-0.6,0.3c-0.2,0.1-0.4,0.2-0.6,0.2v-1.1c0.2-0.1,0.5-0.1,0.7-0.3
		c0.3-0.1,0.5-0.2,0.8-0.4c0.2-0.1,0.5-0.3,0.7-0.4c0.2-0.1,0.4-0.3,0.6-0.4h0.4V128.3z M34.2,128.3v-9.1h2.5c3.2,0,4.8,1.5,4.8,4.4
		c0,1.4-0.4,2.5-1.3,3.4c-0.9,0.9-2.1,1.3-3.6,1.3H34.2z M35.3,120.2v7.2h1.4c1.2,0,2.1-0.3,2.8-1c0.7-0.6,1-1.5,1-2.7
		c0-2.3-1.2-3.5-3.7-3.5H35.3z M50,124.6c0,2.6-1.2,3.8-3.5,3.8c-2.2,0-3.3-1.2-3.3-3.7v-5.6h1.1v5.5c0,1.9,0.8,2.8,2.4,2.8
		c1.5,0,2.3-0.9,2.3-2.7v-5.6H50V124.6z M53.4,124.9v3.4h-1.1v-9.1h2.5c1,0,1.7,0.2,2.3,0.7c0.5,0.5,0.8,1.1,0.8,2
		c0,0.9-0.3,1.6-0.9,2.1c-0.6,0.6-1.4,0.8-2.4,0.8H53.4z M53.4,120.2v3.7h1.1c0.7,0,1.3-0.2,1.7-0.5c0.4-0.3,0.6-0.8,0.6-1.4
		c0-1.2-0.7-1.8-2.1-1.8H53.4z M64.3,128.3h-4.7v-9.1h1.1v8.1h3.7V128.3z M70.5,128.3h-4.8v-9.1h4.6v1h-3.6v3h3.3v1h-3.3v3.2h3.8
		V128.3z M78.6,128.3h-1.3l-2.1-3.5c-0.1-0.1-0.1-0.3-0.2-0.5h0c0,0.1-0.1,0.2-0.2,0.5l-2.2,3.5h-1.3l3-4.6l-2.8-4.5h1.3l1.9,3.2
		c0.1,0.2,0.2,0.4,0.3,0.6h0c0.1-0.3,0.3-0.5,0.4-0.7l1.9-3.2h1.2l-2.9,4.5L78.6,128.3z"/>
</g>
<g>
	<path class="st79" d="M153.8,41.6h-1.3l-1-2.7h-4.2l-1,2.7h-1.3l3.8-9.8h1.2L153.8,41.6z M151.1,37.9l-1.5-4.2
		c0-0.1-0.1-0.4-0.2-0.7h0c0,0.3-0.1,0.5-0.2,0.7l-1.5,4.2H151.1z M150.8,28.7l-1.8,2.2h-0.9l1.5-2.2H150.8z"/>
	<path class="st79" d="M162.3,41.6h-1.4l-1.6-2.7c-0.2-0.3-0.3-0.5-0.4-0.7s-0.3-0.3-0.4-0.4c-0.1-0.1-0.3-0.2-0.5-0.2
		c-0.2-0.1-0.4-0.1-0.6-0.1h-0.9v4.2h-1.1v-9.8h2.9c0.4,0,0.8,0.1,1.2,0.2c0.4,0.1,0.7,0.3,0.9,0.5c0.3,0.2,0.5,0.5,0.6,0.8
		s0.2,0.7,0.2,1.1c0,0.3-0.1,0.7-0.2,0.9c-0.1,0.3-0.2,0.5-0.4,0.8c-0.2,0.2-0.4,0.4-0.7,0.6c-0.3,0.2-0.6,0.3-0.9,0.4v0
		c0.2,0.1,0.3,0.2,0.4,0.2c0.1,0.1,0.2,0.2,0.3,0.3s0.2,0.3,0.3,0.4c0.1,0.2,0.2,0.3,0.4,0.6L162.3,41.6z M156.4,32.9v3.6h1.6
		c0.3,0,0.6,0,0.8-0.1c0.2-0.1,0.5-0.2,0.6-0.4s0.3-0.4,0.4-0.6s0.2-0.5,0.2-0.8c0-0.5-0.2-0.9-0.5-1.2c-0.3-0.3-0.8-0.4-1.5-0.4
		H156.4z"/>
	<path class="st79" d="M168.8,41.6h-5.2v-9.8h5v1h-3.8v3.3h3.5v1h-3.5v3.4h4V41.6z"/>
	<path class="st79" d="M178.3,41.6H177l-1-2.7h-4.2l-1,2.7h-1.3l3.8-9.8h1.2L178.3,41.6z M175.6,37.9l-1.5-4.2
		c0-0.1-0.1-0.4-0.2-0.7h0c0,0.3-0.1,0.5-0.2,0.7l-1.5,4.2H175.6z"/>
	<path class="st79" d="M183.6,41.6v-9.8h2.8c0.8,0,1.5,0.2,2,0.6s0.7,1,0.7,1.6c0,0.6-0.2,1-0.5,1.4s-0.7,0.7-1.2,0.9v0
		c0.7,0.1,1.2,0.3,1.6,0.7s0.6,1,0.6,1.6c0,0.8-0.3,1.5-0.9,2s-1.4,0.8-2.3,0.8H183.6z M184.7,32.9V36h1.2c0.6,0,1.1-0.2,1.5-0.5
		s0.5-0.7,0.5-1.3c0-1-0.6-1.4-1.9-1.4H184.7z M184.7,37.1v3.5h1.6c0.7,0,1.2-0.2,1.6-0.5c0.4-0.3,0.6-0.8,0.6-1.3
		c0-1.2-0.8-1.7-2.4-1.7H184.7z"/>
	<path class="st79" d="M198.6,41.6h-1.4l-1.6-2.7c-0.2-0.3-0.3-0.5-0.4-0.7s-0.3-0.3-0.4-0.4c-0.1-0.1-0.3-0.2-0.5-0.2
		c-0.2-0.1-0.4-0.1-0.6-0.1h-0.9v4.2h-1.1v-9.8h2.9c0.4,0,0.8,0.1,1.2,0.2c0.4,0.1,0.7,0.3,0.9,0.5c0.3,0.2,0.5,0.5,0.6,0.8
		s0.2,0.7,0.2,1.1c0,0.3-0.1,0.7-0.2,0.9c-0.1,0.3-0.2,0.5-0.4,0.8c-0.2,0.2-0.4,0.4-0.7,0.6c-0.3,0.2-0.6,0.3-0.9,0.4v0
		c0.2,0.1,0.3,0.2,0.4,0.2c0.1,0.1,0.2,0.2,0.3,0.3s0.2,0.3,0.3,0.4c0.1,0.2,0.2,0.3,0.4,0.6L198.6,41.6z M192.7,32.9v3.6h1.6
		c0.3,0,0.6,0,0.8-0.1c0.2-0.1,0.5-0.2,0.6-0.4s0.3-0.4,0.4-0.6s0.2-0.5,0.2-0.8c0-0.5-0.2-0.9-0.5-1.2c-0.3-0.3-0.8-0.4-1.5-0.4
		H192.7z"/>
	<path class="st79" d="M207.1,37.7c0,2.8-1.2,4.1-3.7,4.1c-2.4,0-3.6-1.3-3.6-4v-6h1.1v5.9c0,2,0.8,3,2.5,3c1.6,0,2.5-1,2.5-2.9v-6
		h1.1V37.7z"/>
	<path class="st79" d="M215.4,32.9h-2.8v8.8h-1.1v-8.8h-2.8v-1h6.8V32.9z"/>
	<path class="st79" d="M223.5,41.6h-1.3l-1-2.7h-4.2l-1,2.7h-1.3l3.8-9.8h1.2L223.5,41.6z M220.8,37.9l-1.5-4.2
		c0-0.1-0.1-0.4-0.2-0.7h0c0,0.3-0.1,0.5-0.2,0.7l-1.5,4.2H220.8z"/>
</g>
<g>
	<path class="st79" d="M177.6,62c0,0.6-0.1,1.2-0.3,1.7s-0.5,0.9-0.9,1.3s-0.9,0.6-1.4,0.8s-1.2,0.3-1.8,0.3c-1.2,0-2-0.2-2.6-0.5
		V64c0.9,0.6,1.7,0.8,2.6,0.8c0.5,0,0.9-0.1,1.2-0.2c0.4-0.1,0.7-0.3,0.9-0.6s0.5-0.5,0.6-0.9c0.1-0.3,0.2-0.7,0.2-1.1
		c0-0.8-0.3-1.5-0.8-1.9s-1.4-0.7-2.4-0.7c-0.2,0-0.3,0-0.5,0s-0.4,0-0.6,0s-0.4,0-0.5,0s-0.3,0-0.5,0l0.4-6.3h5.8v1.3h-4.6
		l-0.3,3.7c0.2,0,0.4,0,0.6,0s0.4,0,0.6,0c0.7,0,1.3,0.1,1.8,0.3s1,0.4,1.3,0.8c0.4,0.3,0.6,0.7,0.8,1.2S177.6,61.4,177.6,62z"/>
	<path class="st79" d="M187.1,62.3c0,0.6-0.1,1.1-0.3,1.6s-0.5,0.9-0.9,1.2c-0.4,0.3-0.9,0.6-1.4,0.8s-1.1,0.3-1.8,0.3
		c-1.2,0-2.2-0.2-2.9-0.7v-1.5c0.8,0.7,1.8,1,2.9,1c0.4,0,0.8-0.1,1.2-0.2s0.7-0.3,0.9-0.5c0.3-0.2,0.5-0.5,0.6-0.8
		c0.1-0.3,0.2-0.6,0.2-1c0-1.6-1.2-2.5-3.5-2.5h-1v-1.2h1c2.1,0,3.1-0.8,3.1-2.3c0-1.4-0.8-2.1-2.4-2.1c-0.9,0-1.7,0.3-2.5,0.9v-1.4
		c0.8-0.5,1.8-0.7,2.9-0.7c0.5,0,1,0.1,1.4,0.2s0.8,0.4,1.1,0.6s0.5,0.6,0.7,0.9c0.2,0.4,0.3,0.8,0.3,1.2c0,1.7-0.8,2.7-2.5,3.2v0
		c0.4,0,0.8,0.2,1.2,0.3s0.7,0.4,0.9,0.6s0.5,0.6,0.6,0.9C187.1,61.5,187.1,61.8,187.1,62.3z"/>
	<path class="st79" d="M190.4,66c-0.3,0-0.5-0.1-0.7-0.3s-0.3-0.4-0.3-0.7s0.1-0.5,0.3-0.7s0.4-0.3,0.7-0.3c0.3,0,0.5,0.1,0.7,0.3
		s0.3,0.4,0.3,0.7s-0.1,0.5-0.3,0.7S190.7,66,190.4,66z"/>
	<path class="st79" d="M201.2,58.8c0,1.2-0.1,2.2-0.3,3.1s-0.6,1.7-1,2.3s-1,1.1-1.6,1.4s-1.4,0.5-2.2,0.5c-0.8,0-1.6-0.1-2.2-0.4
		v-1.4c0.7,0.4,1.4,0.6,2.2,0.6c0.6,0,1.1-0.1,1.5-0.4c0.4-0.2,0.8-0.6,1.1-1s0.5-1,0.7-1.7s0.2-1.4,0.2-2.3h0
		c-0.5,1.1-1.5,1.6-2.8,1.6c-0.5,0-1-0.1-1.5-0.3s-0.8-0.5-1.2-0.8s-0.6-0.8-0.8-1.2s-0.3-1-0.3-1.6c0-0.6,0.1-1.2,0.3-1.7
		c0.2-0.5,0.5-1,0.8-1.3c0.4-0.4,0.8-0.7,1.3-0.9s1-0.3,1.6-0.3c0.6,0,1.2,0.1,1.7,0.4s0.9,0.6,1.2,1.1s0.6,1.1,0.8,1.8
		S201.2,57.9,201.2,58.8z M199.6,57.5c0-0.5-0.1-0.9-0.2-1.3c-0.1-0.4-0.3-0.7-0.5-1s-0.5-0.5-0.8-0.7c-0.3-0.2-0.6-0.2-1-0.2
		c-0.3,0-0.7,0.1-1,0.2s-0.6,0.3-0.8,0.6c-0.2,0.2-0.4,0.5-0.5,0.9c-0.1,0.3-0.2,0.7-0.2,1.1c0,0.4,0.1,0.8,0.2,1.2s0.3,0.6,0.5,0.9
		s0.5,0.4,0.8,0.6s0.7,0.2,1,0.2c0.3,0,0.6-0.1,0.9-0.2s0.6-0.3,0.8-0.5c0.2-0.2,0.4-0.5,0.5-0.8C199.6,58.1,199.6,57.8,199.6,57.5z
		"/>
	<path class="st79" d="M216.3,65.8h-1.4v-5.2c0-1-0.2-1.7-0.5-2.2c-0.3-0.4-0.8-0.7-1.6-0.7c-0.6,0-1.1,0.3-1.6,0.8
		c-0.4,0.6-0.6,1.2-0.6,2v5.1h-1.4v-5.3c0-1.8-0.7-2.7-2-2.7c-0.6,0-1.2,0.3-1.6,0.8s-0.6,1.2-0.6,2.1v5.1h-1.4v-9h1.4v1.4h0
		c0.6-1.1,1.6-1.6,2.8-1.6c0.6,0,1.2,0.2,1.6,0.5s0.8,0.8,0.9,1.3c0.7-1.2,1.7-1.9,3-1.9c2,0,3,1.2,3,3.7V65.8z"/>
	<path class="st79" d="M223.3,60.7h-4.9V60c0-0.4,0.1-0.7,0.3-1c0.2-0.3,0.4-0.5,0.7-0.8c0.3-0.2,0.5-0.5,0.8-0.7s0.6-0.4,0.8-0.7
		s0.5-0.5,0.7-0.7s0.3-0.6,0.3-0.9c0-0.3-0.1-0.6-0.3-0.8c-0.2-0.2-0.5-0.3-0.9-0.3c-0.7,0-1.3,0.3-1.9,0.9v-1.3
		c0.5-0.4,1.2-0.7,2.1-0.7c0.3,0,0.6,0,0.9,0.1s0.5,0.2,0.7,0.4s0.4,0.4,0.5,0.7s0.2,0.5,0.2,0.9c0,0.4-0.1,0.8-0.3,1.2
		c-0.2,0.3-0.4,0.6-0.6,0.9s-0.5,0.5-0.8,0.7s-0.6,0.4-0.8,0.6s-0.5,0.3-0.6,0.5c-0.2,0.2-0.3,0.3-0.3,0.5v0.1h3.5V60.7z"/>
</g>
</svg>
