<?xml version="1.0" encoding="utf-8"?>
<!-- Generator: Adobe Illustrator 24.1.0, SVG Export Plug-In . SVG Version: 6.00 Build 0)  -->
<svg version="1.1" id="Layer_1" xmlns="http://www.w3.org/2000/svg" xmlns:xlink="http://www.w3.org/1999/xlink" x="0px" y="0px"
	 viewBox="0 0 320.6 137.5" style="enable-background:new 0 0 320.6 137.5;" xml:space="preserve">
<style type="text/css">
	.st0{fill:#804593;}
	.st1{fill:#FFFFFF;}
	.st2{fill:#88BBCB;}
	.st3{fill:#5B7C84;}
	.st4{fill:#D6ADD1;}
	.st5{fill:#C7DDB6;}
	.st6{fill:#DEA81B;}
	.st7{fill:#8BABD3;}
	.st8{fill:#8A7288;}
	.st9{fill:#8D9981;}
	.st10{fill:#9A6814;}
	.st11{fill:#2E5076;}
	.st12{fill:#45273B;}
</style>
<g>
	<path class="st0" d="M302.6,136.3H173.7V96.9l17.1-12.6h60.6v8.9h6.7v20h46.6v7.9h-2.1V136.3z"/>
	<path class="st0" d="M127.9,27.3H96.7v81h56.3v-3.6h5.7v-4.2h5.2v-3.6h5.2v-4.2h5.2v-4.2h5.7v-4.2h5.2v-4.2h72.4v-28h-6.3v-5.7
		l-28.1-19.2H131v37.4h-3.1V27.3z"/>
	<path class="st1" d="M33.1,80.3H20v11.6h12.1v3.5H20v14.9h-3.9V76.7h17.1V80.3z"/>
	<path class="st1" d="M22.2,120.2h-2.6v8.1h-1.1v-8.1h-2.6v-1h6.3V120.2z M27.1,128.3h-1v-7.9c-0.1,0.1-0.2,0.2-0.4,0.3
		c-0.2,0.1-0.3,0.2-0.5,0.3c-0.2,0.1-0.4,0.2-0.6,0.3c-0.2,0.1-0.4,0.2-0.6,0.2v-1.1c0.2-0.1,0.5-0.1,0.7-0.3
		c0.3-0.1,0.5-0.2,0.8-0.4c0.2-0.1,0.5-0.3,0.7-0.4c0.2-0.1,0.4-0.3,0.6-0.4h0.4V128.3z M34.2,128.3v-9.1h2.5c3.2,0,4.8,1.5,4.8,4.4
		c0,1.4-0.4,2.5-1.3,3.4c-0.9,0.9-2.1,1.3-3.6,1.3H34.2z M35.3,120.2v7.2h1.4c1.2,0,2.1-0.3,2.8-1c0.7-0.6,1-1.5,1-2.7
		c0-2.3-1.2-3.5-3.7-3.5H35.3z M50,124.6c0,2.6-1.2,3.8-3.5,3.8c-2.2,0-3.3-1.2-3.3-3.7v-5.6h1.1v5.5c0,1.9,0.8,2.8,2.4,2.8
		c1.5,0,2.3-0.9,2.3-2.7v-5.6H50V124.6z M53.4,124.9v3.4h-1.1v-9.1h2.5c1,0,1.7,0.2,2.3,0.7c0.5,0.5,0.8,1.1,0.8,2
		c0,0.9-0.3,1.6-0.9,2.1c-0.6,0.6-1.4,0.8-2.4,0.8H53.4z M53.4,120.2v3.7h1.1c0.7,0,1.3-0.2,1.7-0.5c0.4-0.3,0.6-0.8,0.6-1.4
		c0-1.2-0.7-1.8-2.1-1.8H53.4z M64.3,128.3h-4.7v-9.1h1.1v8.1h3.7V128.3z M70.5,128.3h-4.8v-9.1h4.6v1h-3.6v3h3.3v1h-3.3v3.2h3.8
		V128.3z M78.6,128.3h-1.3l-2.1-3.5c-0.1-0.1-0.1-0.3-0.2-0.5h0c0,0.1-0.1,0.2-0.2,0.5l-2.2,3.5h-1.3l3-4.6l-2.8-4.5h1.3l1.9,3.2
		c0.1,0.2,0.2,0.4,0.3,0.6h0c0.1-0.3,0.3-0.5,0.4-0.7l1.9-3.2h1.2l-2.9,4.5L78.6,128.3z"/>
</g>
<g>
	<path class="st12" d="M177.6,62c0,0.6-0.1,1.2-0.3,1.7s-0.5,0.9-0.9,1.3s-0.9,0.6-1.4,0.8s-1.2,0.3-1.8,0.3c-1.2,0-2-0.2-2.6-0.5
		V64c0.9,0.6,1.7,0.8,2.6,0.8c0.5,0,0.9-0.1,1.2-0.2c0.4-0.1,0.7-0.3,0.9-0.6s0.5-0.5,0.6-0.9c0.1-0.3,0.2-0.7,0.2-1.1
		c0-0.8-0.3-1.5-0.8-1.9s-1.4-0.7-2.4-0.7c-0.2,0-0.3,0-0.5,0s-0.4,0-0.6,0s-0.4,0-0.5,0s-0.3,0-0.5,0l0.4-6.3h5.8v1.3h-4.6
		l-0.3,3.7c0.2,0,0.4,0,0.6,0s0.4,0,0.6,0c0.7,0,1.3,0.1,1.8,0.3s1,0.4,1.3,0.8c0.4,0.3,0.6,0.7,0.8,1.2S177.6,61.4,177.6,62z"/>
	<path class="st12" d="M187.1,62.3c0,0.6-0.1,1.1-0.3,1.6s-0.5,0.9-0.9,1.2c-0.4,0.3-0.9,0.6-1.4,0.8s-1.1,0.3-1.8,0.3
		c-1.2,0-2.2-0.2-2.9-0.7v-1.5c0.8,0.7,1.8,1,2.9,1c0.4,0,0.8-0.1,1.2-0.2s0.7-0.3,0.9-0.5c0.3-0.2,0.5-0.5,0.6-0.8
		c0.1-0.3,0.2-0.6,0.2-1c0-1.6-1.2-2.5-3.5-2.5h-1v-1.2h1c2.1,0,3.1-0.8,3.1-2.3c0-1.4-0.8-2.1-2.4-2.1c-0.9,0-1.7,0.3-2.5,0.9v-1.4
		c0.8-0.5,1.8-0.7,2.9-0.7c0.5,0,1,0.1,1.4,0.2s0.8,0.4,1.1,0.6s0.5,0.6,0.7,0.9c0.2,0.4,0.3,0.8,0.3,1.2c0,1.7-0.8,2.7-2.5,3.2v0
		c0.4,0,0.8,0.2,1.2,0.3s0.7,0.4,0.9,0.6s0.5,0.6,0.6,0.9C187.1,61.5,187.1,61.8,187.1,62.3z"/>
	<path class="st12" d="M190.4,66c-0.3,0-0.5-0.1-0.7-0.3s-0.3-0.4-0.3-0.7s0.1-0.5,0.3-0.7s0.4-0.3,0.7-0.3c0.3,0,0.5,0.1,0.7,0.3
		s0.3,0.4,0.3,0.7s-0.1,0.5-0.3,0.7S190.7,66,190.4,66z"/>
	<path class="st12" d="M201.2,58.8c0,1.2-0.1,2.2-0.3,3.1s-0.6,1.7-1,2.3s-1,1.1-1.6,1.4s-1.4,0.5-2.2,0.5c-0.8,0-1.6-0.1-2.2-0.4
		v-1.4c0.7,0.4,1.4,0.6,2.2,0.6c0.6,0,1.1-0.1,1.5-0.4c0.4-0.2,0.8-0.6,1.1-1s0.5-1,0.7-1.7s0.2-1.4,0.2-2.3h0
		c-0.5,1.1-1.5,1.6-2.8,1.6c-0.5,0-1-0.1-1.5-0.3s-0.8-0.5-1.2-0.8s-0.6-0.8-0.8-1.2s-0.3-1-0.3-1.6c0-0.6,0.1-1.2,0.3-1.7
		c0.2-0.5,0.5-1,0.8-1.3c0.4-0.4,0.8-0.7,1.3-0.9s1-0.3,1.6-0.3c0.6,0,1.2,0.1,1.7,0.4s0.9,0.6,1.2,1.1s0.6,1.1,0.8,1.8
		S201.2,57.9,201.2,58.8z M199.6,57.5c0-0.5-0.1-0.9-0.2-1.3c-0.1-0.4-0.3-0.7-0.5-1s-0.5-0.5-0.8-0.7c-0.3-0.2-0.6-0.2-1-0.2
		c-0.3,0-0.7,0.1-1,0.2s-0.6,0.3-0.8,0.6c-0.2,0.2-0.4,0.5-0.5,0.9c-0.1,0.3-0.2,0.7-0.2,1.1c0,0.4,0.1,0.8,0.2,1.2s0.3,0.6,0.5,0.9
		s0.5,0.4,0.8,0.6s0.7,0.2,1,0.2c0.3,0,0.6-0.1,0.9-0.2s0.6-0.3,0.8-0.5c0.2-0.2,0.4-0.5,0.5-0.8C199.6,58.1,199.6,57.8,199.6,57.5z
		"/>
	<path class="st12" d="M216.3,65.8h-1.4v-5.2c0-1-0.2-1.7-0.5-2.2c-0.3-0.4-0.8-0.7-1.6-0.7c-0.6,0-1.1,0.3-1.6,0.8
		c-0.4,0.6-0.6,1.2-0.6,2v5.1h-1.4v-5.3c0-1.8-0.7-2.7-2-2.7c-0.6,0-1.2,0.3-1.6,0.8s-0.6,1.2-0.6,2.1v5.1h-1.4v-9h1.4v1.4h0
		c0.6-1.1,1.6-1.6,2.8-1.6c0.6,0,1.2,0.2,1.6,0.5s0.8,0.8,0.9,1.3c0.7-1.2,1.7-1.9,3-1.9c2,0,3,1.2,3,3.7V65.8z"/>
	<path class="st12" d="M223.3,60.7h-4.9V60c0-0.4,0.1-0.7,0.3-1c0.2-0.3,0.4-0.5,0.7-0.8c0.3-0.2,0.5-0.5,0.8-0.7s0.6-0.4,0.8-0.7
		s0.5-0.5,0.7-0.7s0.3-0.6,0.3-0.9c0-0.3-0.1-0.6-0.3-0.8c-0.2-0.2-0.5-0.3-0.9-0.3c-0.7,0-1.3,0.3-1.9,0.9v-1.3
		c0.5-0.4,1.2-0.7,2.1-0.7c0.3,0,0.6,0,0.9,0.1s0.5,0.2,0.7,0.4s0.4,0.4,0.5,0.7s0.2,0.5,0.2,0.9c0,0.4-0.1,0.8-0.3,1.2
		c-0.2,0.3-0.4,0.6-0.6,0.9s-0.5,0.5-0.8,0.7s-0.6,0.4-0.8,0.6s-0.5,0.3-0.6,0.5c-0.2,0.2-0.3,0.3-0.3,0.5v0.1h3.5V60.7z"/>
</g>
<g>
	<path class="st12" d="M152.3,41c-1,0.6-2.1,0.8-3.3,0.8c-1.4,0-2.5-0.5-3.4-1.4c-0.9-0.9-1.3-2.1-1.3-3.6c0-1.5,0.5-2.8,1.4-3.7
		c1-1,2.2-1.5,3.6-1.5c1.1,0,2,0.2,2.7,0.5v1.3c-0.8-0.5-1.7-0.8-2.8-0.8c-1.1,0-2,0.4-2.7,1.1s-1.1,1.7-1.1,2.9
		c0,1.2,0.3,2.2,1,2.9s1.5,1.1,2.7,1.1c0.8,0,1.4-0.2,2-0.5v-2.7H149v-1h3.3V41z"/>
	<path class="st12" d="M161.6,41.6h-1.4l-1.6-2.7c-0.2-0.3-0.3-0.5-0.4-0.7s-0.3-0.3-0.4-0.4c-0.1-0.1-0.3-0.2-0.5-0.2
		c-0.2-0.1-0.4-0.1-0.6-0.1h-0.9v4.2h-1.1v-9.8h2.9c0.4,0,0.8,0.1,1.2,0.2c0.4,0.1,0.7,0.3,0.9,0.5c0.3,0.2,0.5,0.5,0.6,0.8
		s0.2,0.7,0.2,1.1c0,0.3-0.1,0.7-0.2,0.9c-0.1,0.3-0.2,0.5-0.4,0.8c-0.2,0.2-0.4,0.4-0.7,0.6c-0.3,0.2-0.6,0.3-0.9,0.4v0
		c0.2,0.1,0.3,0.2,0.4,0.2c0.1,0.1,0.2,0.2,0.3,0.3s0.2,0.3,0.3,0.4c0.1,0.2,0.2,0.3,0.4,0.6L161.6,41.6z M155.7,32.9v3.6h1.6
		c0.3,0,0.6,0,0.8-0.1c0.2-0.1,0.5-0.2,0.6-0.4s0.3-0.4,0.4-0.6s0.2-0.5,0.2-0.8c0-0.5-0.2-0.9-0.5-1.2c-0.3-0.3-0.8-0.4-1.5-0.4
		H155.7z"/>
	<path class="st12" d="M166.8,41.8c-1.4,0-2.5-0.5-3.3-1.4c-0.8-0.9-1.3-2.1-1.3-3.6c0-1.6,0.4-2.8,1.3-3.8s2-1.4,3.5-1.4
		c1.4,0,2.4,0.5,3.3,1.4c0.8,0.9,1.2,2.1,1.2,3.6c0,1.6-0.4,2.9-1.3,3.8S168.2,41.8,166.8,41.8z M166.8,32.7c-1,0-1.9,0.4-2.5,1.1
		s-1,1.7-1,2.9s0.3,2.2,0.9,2.9c0.6,0.7,1.4,1.1,2.5,1.1c1.1,0,1.9-0.4,2.5-1.1s0.9-1.7,0.9-2.9c0-1.3-0.3-2.3-0.9-3
		S167.9,32.7,166.8,32.7z"/>
	<path class="st12" d="M172.9,41.2v-1.4c0.2,0.1,0.3,0.3,0.6,0.4c0.2,0.1,0.4,0.2,0.7,0.3c0.2,0.1,0.5,0.1,0.7,0.2s0.5,0.1,0.7,0.1
		c0.7,0,1.2-0.1,1.6-0.4c0.3-0.3,0.5-0.6,0.5-1.1c0-0.3-0.1-0.5-0.2-0.7c-0.1-0.2-0.3-0.4-0.5-0.5s-0.4-0.3-0.7-0.5
		c-0.3-0.1-0.6-0.3-0.9-0.5c-0.3-0.2-0.7-0.3-1-0.5s-0.6-0.4-0.8-0.6s-0.4-0.5-0.5-0.7c-0.1-0.3-0.2-0.6-0.2-1
		c0-0.4,0.1-0.8,0.3-1.2s0.5-0.6,0.8-0.8s0.7-0.4,1.1-0.5c0.4-0.1,0.8-0.2,1.2-0.2c1,0,1.7,0.1,2.1,0.3v1.3
		c-0.6-0.4-1.3-0.6-2.2-0.6c-0.3,0-0.5,0-0.8,0.1s-0.5,0.1-0.7,0.3s-0.4,0.3-0.5,0.5s-0.2,0.4-0.2,0.7c0,0.3,0,0.5,0.1,0.6
		c0.1,0.2,0.2,0.3,0.4,0.5s0.4,0.3,0.7,0.4c0.3,0.1,0.6,0.3,0.9,0.5c0.4,0.2,0.7,0.4,1,0.5s0.6,0.4,0.8,0.6s0.4,0.5,0.6,0.8
		c0.1,0.3,0.2,0.6,0.2,1c0,0.5-0.1,0.9-0.3,1.2c-0.2,0.3-0.4,0.6-0.8,0.8c-0.3,0.2-0.7,0.4-1.1,0.5s-0.9,0.1-1.3,0.1
		c-0.2,0-0.3,0-0.6,0s-0.5-0.1-0.7-0.1s-0.5-0.1-0.7-0.2C173.2,41.4,173,41.3,172.9,41.2z"/>
	<path class="st12" d="M180.3,41.2v-1.4c0.2,0.1,0.3,0.3,0.6,0.4c0.2,0.1,0.4,0.2,0.7,0.3c0.2,0.1,0.5,0.1,0.7,0.2s0.5,0.1,0.7,0.1
		c0.7,0,1.2-0.1,1.6-0.4c0.3-0.3,0.5-0.6,0.5-1.1c0-0.3-0.1-0.5-0.2-0.7c-0.1-0.2-0.3-0.4-0.5-0.5s-0.4-0.3-0.7-0.5
		c-0.3-0.1-0.6-0.3-0.9-0.5c-0.3-0.2-0.7-0.3-1-0.5s-0.6-0.4-0.8-0.6s-0.4-0.5-0.5-0.7c-0.1-0.3-0.2-0.6-0.2-1
		c0-0.4,0.1-0.8,0.3-1.2s0.5-0.6,0.8-0.8s0.7-0.4,1.1-0.5c0.4-0.1,0.8-0.2,1.2-0.2c1,0,1.7,0.1,2.1,0.3v1.3
		c-0.6-0.4-1.3-0.6-2.2-0.6c-0.3,0-0.5,0-0.8,0.1s-0.5,0.1-0.7,0.3s-0.4,0.3-0.5,0.5s-0.2,0.4-0.2,0.7c0,0.3,0,0.5,0.1,0.6
		c0.1,0.2,0.2,0.3,0.4,0.5s0.4,0.3,0.7,0.4c0.3,0.1,0.6,0.3,0.9,0.5c0.4,0.2,0.7,0.4,1,0.5s0.6,0.4,0.8,0.6s0.4,0.5,0.6,0.8
		c0.1,0.3,0.2,0.6,0.2,1c0,0.5-0.1,0.9-0.3,1.2c-0.2,0.3-0.4,0.6-0.8,0.8c-0.3,0.2-0.7,0.4-1.1,0.5s-0.9,0.1-1.3,0.1
		c-0.2,0-0.3,0-0.6,0s-0.5-0.1-0.7-0.1s-0.5-0.1-0.7-0.2C180.6,41.4,180.5,41.3,180.3,41.2z"/>
	<path class="st12" d="M199.7,41.6h-1.3l-1-2.7h-4.2l-1,2.7h-1.3l3.8-9.8h1.2L199.7,41.6z M197,37.9l-1.5-4.2c0-0.1-0.1-0.4-0.2-0.7
		h0c0,0.3-0.1,0.5-0.2,0.7l-1.5,4.2H197z"/>
	<path class="st12" d="M208.1,41.6h-1.4l-1.6-2.7c-0.2-0.3-0.3-0.5-0.4-0.7s-0.3-0.3-0.4-0.4c-0.1-0.1-0.3-0.2-0.5-0.2
		c-0.2-0.1-0.4-0.1-0.6-0.1h-0.9v4.2h-1.1v-9.8h2.9c0.4,0,0.8,0.1,1.2,0.2c0.4,0.1,0.7,0.3,0.9,0.5c0.3,0.2,0.5,0.5,0.6,0.8
		s0.2,0.7,0.2,1.1c0,0.3-0.1,0.7-0.2,0.9c-0.1,0.3-0.2,0.5-0.4,0.8c-0.2,0.2-0.4,0.4-0.7,0.6c-0.3,0.2-0.6,0.3-0.9,0.4v0
		c0.2,0.1,0.3,0.2,0.4,0.2c0.1,0.1,0.2,0.2,0.3,0.3s0.2,0.3,0.3,0.4c0.1,0.2,0.2,0.3,0.4,0.6L208.1,41.6z M202.2,32.9v3.6h1.6
		c0.3,0,0.6,0,0.8-0.1c0.2-0.1,0.5-0.2,0.6-0.4s0.3-0.4,0.4-0.6s0.2-0.5,0.2-0.8c0-0.5-0.2-0.9-0.5-1.2c-0.3-0.3-0.8-0.4-1.5-0.4
		H202.2z"/>
	<path class="st12" d="M214.7,41.6h-5.2v-9.8h5v1h-3.8v3.3h3.5v1h-3.5v3.4h4V41.6z"/>
	<path class="st12" d="M224.1,41.6h-1.3l-1-2.7h-4.2l-1,2.7h-1.3l3.8-9.8h1.2L224.1,41.6z M221.5,37.9l-1.5-4.2
		c0-0.1-0.1-0.4-0.2-0.7h0c0,0.3-0.1,0.5-0.2,0.7l-1.5,4.2H221.5z"/>
</g>
</svg>
