<?xml version="1.0" encoding="utf-8"?>
<!-- Generator: Adobe Illustrator 24.1.0, SVG Export Plug-In . SVG Version: 6.00 Build 0)  -->
<svg version="1.1" id="Layer_1" xmlns="http://www.w3.org/2000/svg" xmlns:xlink="http://www.w3.org/1999/xlink" x="0px" y="0px"
	 viewBox="0 0 1185.2 211.5" style="enable-background:new 0 0 1185.2 211.5;" xml:space="preserve">
<style type="text/css">
	.st0{fill:#FFFFFF;}
	.st1{fill-rule:evenodd;clip-rule:evenodd;fill:#FFFFFF;}
	.st2{fill:#C4C4C4;}
	.st3{opacity:0.2;}
	.st4{fill:#B7D8AF;}
	.st5{fill:#814494;}
	.st6{fill:#C892C1;}
	.st7{fill:#86BACB;}
	.st8{opacity:0.2;fill:#EE8B75;enable-background:new    ;}
	.st9{fill:#4075B7;}
	.st10{fill:#DFA819;}
	.st11{fill:#EBEBEB;}
	.st12{fill:#444141;}
	.st13{fill:#DAB2D5;}
	.st14{clip-path:url(#SVGID_2_);}
	.st15{fill:url(#SVGID_3_);}
	.st16{fill:#D7AED2;}
	.st17{fill:#C7DDB6;}
	.st18{fill:#3E98BB;}
	.st19{fill:#29677D;}
	.st20{fill:#E8F1FB;}
	.st21{fill:#38B189;}
	.st22{fill:#192533;}
	.st23{fill:#60789A;}
	.st24{fill:none;stroke:#FFFFFF;stroke-width:5;}
	.st25{fill:#BBD5F1;}
	.st26{fill:#4075B7;fill-opacity:0.49;}
</style>
<path class="st20" d="M59.6,103.2h1065c5.5,0,10,4.5,10,10l0,0c0,5.5-4.5,10-10,10H59.6c-5.5,0-10-4.5-10-10l0,0
	C49.6,107.6,54,103.2,59.6,103.2z"/>
<path class="st21" d="M59.6,103.2h280c5.5,0,10,4.5,10,10l0,0c0,5.5-4.5,10-10,10h-280c-5.5,0-10-4.5-10-10l0,0
	C49.6,107.6,54,103.2,59.6,103.2z"/>
<path class="st22" d="M37.4,168.2v-1.9h-4.2v-8.1h-2.1v10H37.4z M39.8,160.1c0.6,0,1.1-0.5,1.1-1.1c0-0.6-0.5-1.1-1.1-1.1
	c-0.6,0-1.1,0.5-1.1,1.1C38.7,159.6,39.2,160.1,39.8,160.1z M40.8,168.2v-7.2h-1.9v7.2H40.8z M46,168.3c1.5,0,2.4-0.6,2.9-1.3
	l-1.2-1.2c-0.3,0.5-0.9,0.8-1.5,0.8c-1.2,0-2-0.9-2-2.1s0.8-2.1,2-2.1c0.7,0,1.2,0.3,1.5,0.8l1.2-1.2c-0.5-0.7-1.4-1.3-2.9-1.3
	c-2.2,0-3.8,1.6-3.8,3.8C42.2,166.8,43.8,168.3,46,168.3z M53.6,168.3c1.1,0,2.3-0.3,3-1l-0.8-1.2c-0.5,0.4-1.3,0.7-1.9,0.7
	c-1.2,0-2-0.8-2.1-1.7h5.4v-0.4c0-2.4-1.5-4-3.6-4c-2.2,0-3.8,1.7-3.8,3.8C49.7,166.9,51.4,168.3,53.6,168.3z M55.2,163.9h-3.6
	c0.1-0.7,0.6-1.6,1.8-1.6C54.7,162.2,55.2,163.2,55.2,163.9z M65.2,168.2V163c0-1.4-0.8-2.3-2.4-2.3c-1.2,0-2.1,0.6-2.5,1.1v-0.9
	h-1.9v7.2h1.9v-4.9c0.3-0.4,0.9-0.9,1.7-0.9c0.8,0,1.3,0.3,1.3,1.4v4.4H65.2z M70.5,168.3c1.5,0,2.4-0.6,2.9-1.3l-1.2-1.2
	c-0.3,0.5-0.9,0.8-1.5,0.8c-1.2,0-2-0.9-2-2.1s0.8-2.1,2-2.1c0.7,0,1.2,0.3,1.5,0.8l1.2-1.2c-0.5-0.7-1.4-1.3-2.9-1.3
	c-2.2,0-3.8,1.6-3.8,3.8C66.7,166.8,68.3,168.3,70.5,168.3z M75.6,160.1c0.6,0,1.1-0.5,1.1-1.1c0-0.6-0.5-1.1-1.1-1.1
	c-0.6,0-1.1,0.5-1.1,1.1C74.4,159.6,75,160.1,75.6,160.1z M76.5,168.2v-7.2h-1.9v7.2H76.5z M84.7,168.2v-4.7c0-2.1-1.5-2.7-3.2-2.7
	c-1.1,0-2.3,0.4-3.2,1.1l0.7,1.3c0.6-0.6,1.3-0.9,2.1-0.9c1,0,1.6,0.5,1.6,1.2v1c-0.5-0.6-1.3-0.9-2.3-0.9c-1.2,0-2.5,0.6-2.5,2.3
	c0,1.6,1.4,2.4,2.5,2.4c0.9,0,1.8-0.3,2.3-0.9v0.8H84.7z M81.2,167c-0.8,0-1.4-0.4-1.4-1.1c0-0.7,0.6-1.1,1.4-1.1
	c0.6,0,1.2,0.2,1.5,0.6v0.9C82.4,166.8,81.8,167,81.2,167z M97.5,168.2v-5.2c0-1.5-0.8-2.2-2.1-2.2c-1.1,0-2.1,0.7-2.5,1.3
	c-0.3-0.8-0.9-1.3-2-1.3c-1.1,0-2.1,0.7-2.4,1.1v-0.9h-1.9v7.2h1.9v-4.9c0.3-0.4,0.8-0.9,1.5-0.9c0.8,0,1.1,0.5,1.1,1.2v4.6H93v-4.9
	c0.3-0.4,0.8-0.8,1.5-0.8c0.8,0,1.1,0.5,1.1,1.2v4.6H97.5z M102.7,168.3c1.1,0,2.3-0.3,3-1l-0.8-1.2c-0.5,0.4-1.3,0.7-1.9,0.7
	c-1.2,0-2-0.8-2.1-1.7h5.4v-0.4c0-2.4-1.5-4-3.6-4c-2.2,0-3.8,1.7-3.8,3.8C98.9,166.9,100.5,168.3,102.7,168.3z M104.4,163.9h-3.6
	c0.1-0.7,0.6-1.6,1.8-1.6C103.9,162.2,104.4,163.2,104.4,163.9z M114.4,168.2V163c0-1.4-0.8-2.3-2.4-2.3c-1.2,0-2.1,0.6-2.5,1.1
	v-0.9h-1.9v7.2h1.9v-4.9c0.3-0.4,0.9-0.9,1.7-0.9c0.8,0,1.3,0.3,1.3,1.4v4.4H114.4z M118.7,168.3c0.8,0,1.3-0.2,1.6-0.5l-0.4-1.4
	c-0.1,0.1-0.4,0.2-0.7,0.2c-0.4,0-0.7-0.3-0.7-0.8v-3.3h1.5v-1.7h-1.5v-2h-1.9v2h-1.2v1.7h1.2v3.8
	C116.7,167.6,117.4,168.3,118.7,168.3z M124.7,168.3c2.4,0,3.8-1.7,3.8-3.8c0-2.1-1.4-3.8-3.8-3.8c-2.4,0-3.8,1.7-3.8,3.8
	C120.9,166.6,122.4,168.3,124.7,168.3z M124.7,166.6c-1.2,0-1.8-1-1.8-2.1c0-1.1,0.7-2.1,1.8-2.1s1.9,1,1.9,2.1
	C126.6,165.7,125.9,166.6,124.7,166.6z"/>
<path class="st23" d="M42.1,192.2v-1h-5v-3.2H42v-1h-4.9v-3h5v-1H36v9.3H42.1z M53.1,192.2v-4.9c0-1.4-0.7-2-1.9-2
	c-1,0-1.9,0.6-2.3,1.3c-0.2-0.7-0.8-1.3-1.8-1.3c-1,0-1.9,0.7-2.2,1.1v-1h-1v6.8h1v-4.9c0.4-0.5,1.1-1.1,1.8-1.1
	c0.9,0,1.2,0.5,1.2,1.4v4.6h1v-5c0.3-0.5,1.1-1,1.8-1c0.9,0,1.2,0.5,1.2,1.4v4.6H53.1z M66.9,192.2l-3.8-9.3h-1.4l-3.8,9.3h1.3
	l0.8-2.1h4.6l0.8,2.1H66.9z M64.4,189h-4l2-5L64.4,189z M71.4,192.3c1.8,0,3-1.4,3-3.6c0-2.2-1.2-3.5-3-3.5c-1,0-1.8,0.5-2.3,1.2v-1
	h-1v9.3h1v-3.6C69.7,191.9,70.5,192.3,71.4,192.3z M71.1,191.4c-0.8,0-1.7-0.5-2-1.1v-3.1c0.4-0.6,1.2-1.1,2-1.1
	c1.4,0,2.2,1.1,2.2,2.6S72.5,191.4,71.1,191.4z M77.1,192.2v-4.8c0.3-0.5,1.2-1.1,1.8-1.1c0.2,0,0.3,0,0.4,0v-1.1
	c-0.9,0-1.7,0.5-2.3,1.2v-1.1h-1.1v6.8H77.1z M83.6,192.3c2.1,0,3.3-1.6,3.3-3.6s-1.3-3.5-3.3-3.5s-3.3,1.6-3.3,3.5
	S81.6,192.3,83.6,192.3z M83.6,191.4c-1.4,0-2.3-1.2-2.3-2.6c0-1.4,0.8-2.6,2.3-2.6s2.2,1.2,2.2,2.6
	C85.9,190.2,85.1,191.4,83.6,191.4z M91.7,192.2l2.8-6.8h-1.1l-2.2,5.5l-2.3-5.5h-1.1l2.8,6.8H91.7z M100.8,192.2v-4.6
	c0-1.6-1.2-2.3-2.6-2.3c-1.1,0-2,0.4-2.7,1.1l0.5,0.7c0.6-0.6,1.3-0.9,2.1-0.9c1,0,1.7,0.5,1.7,1.4v1.2c-0.5-0.6-1.3-0.9-2.2-0.9
	c-1.1,0-2.4,0.7-2.4,2.2c0,1.5,1.2,2.2,2.4,2.2c0.9,0,1.7-0.3,2.2-0.9v0.8H100.8z M97.9,191.6c-1,0-1.7-0.6-1.7-1.5
	c0-0.9,0.7-1.5,1.7-1.5c0.7,0,1.5,0.3,1.9,0.8v1.3C99.4,191.3,98.7,191.6,97.9,191.6z M105.9,194.8c0.8,0,1.5-0.4,1.5-1.1
	c0-0.6-0.4-0.9-0.9-0.9c-0.2,0-0.4,0.1-0.5,0.2l0.2-0.6c1.1-0.1,1.7-0.5,2.2-1.2l-0.7-0.6c-0.4,0.6-1,0.9-1.7,0.9
	c-1.4,0-2.3-1.1-2.3-2.6s0.9-2.6,2.3-2.6c0.7,0,1.3,0.3,1.7,0.9l0.7-0.6c-0.5-0.7-1.2-1.2-2.5-1.2c-2,0-3.4,1.5-3.4,3.5
	c0,1.9,1.2,3.4,3,3.5l-0.3,0.9l0.5,0.3c0.1-0.1,0.3-0.2,0.5-0.2c0.4,0,0.5,0.2,0.5,0.5c0,0.4-0.4,0.6-0.9,0.6
	c-0.4,0-0.8-0.1-1.1-0.4l-0.3,0.5C104.8,194.6,105.3,194.8,105.9,194.8z M115.2,192.2v-4.6c0-1.6-1.2-2.3-2.6-2.3
	c-1.1,0-2,0.4-2.7,1.1l0.5,0.7c0.6-0.6,1.3-0.9,2.1-0.9c1,0,1.7,0.5,1.7,1.4v1.2c-0.5-0.6-1.3-0.9-2.2-0.9c-1.1,0-2.4,0.7-2.4,2.2
	c0,1.5,1.2,2.2,2.4,2.2c0.9,0,1.7-0.3,2.2-0.9v0.8H115.2z M112.2,191.6c-1,0-1.7-0.6-1.7-1.5c0-0.9,0.7-1.5,1.7-1.5
	c0.7,0,1.5,0.3,1.9,0.8v1.3C113.7,191.3,113,191.6,112.2,191.6z M113.4,184.4c0.9,0,1.4-0.8,1.4-1.9h-0.6c0,0.8-0.3,1.2-0.7,1.2
	c-0.7,0-0.7-1.3-1.7-1.3c-0.9,0-1.4,0.8-1.4,1.9h0.6c0-0.8,0.3-1.2,0.7-1.2C112.3,183.1,112.4,184.4,113.4,184.4z M120.2,192.3
	c2.1,0,3.3-1.6,3.3-3.6s-1.3-3.5-3.3-3.5s-3.3,1.6-3.3,3.5S118.2,192.3,120.2,192.3z M120.2,191.4c-1.4,0-2.3-1.2-2.3-2.6
	c0-1.4,0.8-2.6,2.3-2.6s2.2,1.2,2.2,2.6C122.5,190.2,121.7,191.4,120.2,191.4z"/>
<g>
	<circle class="st21" cx="79.6" cy="113.2" r="30"/>
	<circle class="st24" cx="79.6" cy="113.2" r="27.5"/>
</g>
<path class="st0" d="M90.6,112.2h-6.2v-10.1c0-0.5-0.4-0.9-0.9-0.9h-15c-0.5,0-0.9,0.4-0.9,0.9v18.4c0,2.6,2.1,4.7,4.7,4.7h14.6
	c2.6,0,4.7-2.1,4.7-4.7v-7.3C91.6,112.6,91.1,112.2,90.6,112.2z M72.3,123.3c-1.6,0-2.8-1.3-2.8-2.8V103h13.1c0,0.1,0,17,0,17.4
	c0,1,0.3,2,0.9,2.8H72.3z M89.7,120.5c0,1.5-1.1,2.7-2.6,2.8c-1.5-0.1-2.6-1.3-2.6-2.8v-6.4h5.2V120.5z"/>
<path class="st0" d="M76,105.2c-1.8,0-3.3,1.7-3.3,3.8c0,2.1,1.5,3.8,3.3,3.8s3.3-1.7,3.3-3.8C79.3,106.9,77.8,105.2,76,105.2z
	 M76,110.8c-0.8,0-1.4-0.9-1.4-1.9c0-1,0.6-1.9,1.4-1.9s1.4,0.9,1.4,1.9C77.4,110,76.8,110.8,76,110.8z"/>
<path class="st0" d="M79.8,119.5h-7.5c-0.5,0-0.9,0.4-0.9,0.9s0.4,0.9,0.9,0.9h7.5c0.5,0,0.9-0.4,0.9-0.9S80.3,119.5,79.8,119.5z"/>
<path class="st0" d="M79.8,115.8h-7.5c-0.5,0-0.9,0.4-0.9,0.9s0.4,0.9,0.9,0.9h7.5c0.5,0,0.9-0.4,0.9-0.9S80.3,115.8,79.8,115.8z"/>
<path class="st21" d="M56.5,70.4c4,0,6.8-2.9,6.8-6.9s-2.8-6.9-6.8-6.9c-4,0-6.8,2.9-6.8,6.9S52.5,70.4,56.5,70.4z M56.5,68.3
	c-2.7,0-4.4-2.1-4.4-4.8c0-2.8,1.7-4.8,4.4-4.8c2.7,0,4.4,2.1,4.4,4.8C60.9,66.2,59.2,68.3,56.5,68.3z M74.1,70.2v-9.7H72v6.8
	c-0.5,0.6-1.4,1.3-2.5,1.3c-1.2,0-2-0.5-2-2v-6.1h-2.1v6.8c0,2,1,3.1,3.1,3.1c1.5,0,2.7-0.8,3.4-1.5v1.3H74.1z M79.8,70.4
	c1,0,1.6-0.3,2-0.6l-0.5-1.6c-0.2,0.2-0.5,0.4-0.9,0.4c-0.6,0-0.9-0.5-0.9-1.2v-5.1h2v-1.8h-2v-2.6h-2.1v2.6h-1.6v1.8h1.6v5.6
	C77.3,69.5,78.1,70.4,79.8,70.4z M97.7,70.2v-2.1h-5.9c3.6-2.7,5.8-4.9,5.8-7.4c0-2.7-2.2-4.1-4.8-4.1c-1.9,0-3.8,0.7-4.9,2.1
	l1.4,1.5c0.9-1,2-1.6,3.6-1.6c1.2,0,2.4,0.6,2.4,2c0,1.9-2,3.7-7.2,7.6v1.9H97.7z M105.1,70.4c3.7,0,5.3-3.6,5.3-6.9
	c0-3.4-1.6-6.9-5.3-6.9c-3.8,0-5.3,3.5-5.3,6.9C99.8,66.8,101.4,70.4,105.1,70.4z M105.1,68.3c-2.2,0-3-2.3-3-4.8
	c0-2.6,0.8-4.8,3-4.8s2.9,2.2,2.9,4.8C108.1,66,107.3,68.3,105.1,68.3z"/>
<path class="st22" d="M261.6,168.2l-3.9-10H255l-3.9,10h2.4l0.6-1.7h4.3l0.6,1.7H261.6z M257.9,164.6h-3.1l1.6-4.3L257.9,164.6z
	 M265.7,166.6c-1.1,0-1.8-0.9-1.8-2.1c0-1.2,0.8-2.1,1.8-2.1c0.6,0,1.3,0.4,1.6,0.8v2.6C267.1,166.3,266.4,166.6,265.7,166.6z
	 M265.1,168.3c0.9,0,1.6-0.4,2.2-1.1v3.7h1.9v-10h-1.9v0.9c-0.6-0.7-1.4-1.1-2.2-1.1c-1.9,0-3.2,1.4-3.2,3.8
	C261.9,166.9,263.3,168.3,265.1,168.3z M278,168.2v-7.2h-1.9v4.9c-0.3,0.4-0.9,0.8-1.7,0.8c-0.8,0-1.3-0.3-1.3-1.3v-4.4h-1.9v5.1
	c0,1.4,0.8,2.3,2.3,2.3c1.2,0,2.1-0.5,2.6-1.1v0.9H278z M280.8,160.1c0.6,0,1.1-0.5,1.1-1.1c0-0.6-0.5-1.1-1.1-1.1
	c-0.6,0-1.1,0.5-1.1,1.1C279.7,159.6,280.2,160.1,280.8,160.1z M281.8,168.2v-7.2h-1.9v7.2H281.8z M286.3,168.3c2,0,3.1-1,3.1-2.3
	c0-2.9-4.3-2-4.3-3.1c0-0.4,0.5-0.7,1.1-0.7c0.9,0,1.7,0.4,2.1,0.8l0.8-1.3c-0.7-0.6-1.7-1-2.9-1c-1.9,0-3,1.1-3,2.3
	c0,2.9,4.3,1.9,4.3,3.1c0,0.4-0.4,0.8-1.2,0.8c-0.9,0-2-0.5-2.5-1l-0.8,1.3C283.8,167.9,285,168.3,286.3,168.3z M291.7,160.1
	c0.6,0,1.1-0.5,1.1-1.1c0-0.6-0.5-1.1-1.1-1.1c-0.6,0-1.1,0.5-1.1,1.1C290.6,159.6,291.1,160.1,291.7,160.1z M292.7,168.2v-7.2h-1.9
	v7.2H292.7z M298,171.1c0.9,0,1.7-0.5,1.7-1.3c0-0.6-0.4-1.1-1-1.1c-0.2,0-0.4,0.1-0.5,0.2l0.2-0.6c1.2-0.1,2-0.7,2.5-1.3l-1.2-1.2
	c-0.3,0.5-0.9,0.8-1.5,0.8c-1.2,0-2-0.9-2-2.1s0.8-2.1,2-2.1c0.7,0,1.2,0.3,1.5,0.8l1.2-1.2c-0.5-0.7-1.4-1.3-2.9-1.3
	c-2.2,0-3.8,1.6-3.8,3.8c0,2.1,1.4,3.6,3.3,3.8l-0.3,0.9l0.7,0.4c0.1-0.1,0.3-0.2,0.5-0.2c0.3,0,0.4,0.1,0.4,0.4
	c0,0.3-0.4,0.5-0.8,0.5s-0.8-0.1-1.2-0.4l-0.4,0.8C296.7,170.8,297.3,171.1,298,171.1z M308.3,168.2v-4.7c0-2.1-1.5-2.7-3.2-2.7
	c-1.1,0-2.3,0.4-3.2,1.1l0.7,1.3c0.6-0.6,1.3-0.9,2.1-0.9c1,0,1.6,0.5,1.6,1.2v1c-0.5-0.6-1.3-0.9-2.3-0.9c-1.2,0-2.5,0.6-2.5,2.3
	c0,1.6,1.4,2.4,2.5,2.4c0.9,0,1.8-0.3,2.3-0.9v0.8H308.3z M304.9,167c-0.8,0-1.4-0.4-1.4-1.1c0-0.7,0.6-1.1,1.4-1.1
	c0.6,0,1.2,0.2,1.5,0.6v0.9C306.1,166.8,305.5,167,304.9,167z M306,159.8c1.1,0,1.6-0.7,1.6-2h-1c0,0.6-0.2,0.9-0.5,0.9
	c-0.6,0-0.8-1-1.7-1c-1.1,0-1.6,0.7-1.6,2h1c0-0.6,0.2-0.9,0.5-0.9C304.8,158.8,305,159.8,306,159.8z M313.6,168.3
	c2.4,0,3.8-1.7,3.8-3.8c0-2.1-1.4-3.8-3.8-3.8c-2.4,0-3.8,1.7-3.8,3.8C309.8,166.6,311.2,168.3,313.6,168.3z M313.6,166.6
	c-1.2,0-1.8-1-1.8-2.1c0-1.1,0.7-2.1,1.8-2.1c1.2,0,1.9,1,1.9,2.1C315.4,165.7,314.8,166.6,313.6,166.6z"/>
<path class="st23" d="M220.1,192.3c1.7,0,2.8-0.8,3.6-1.8l-1-0.5c-0.5,0.8-1.5,1.4-2.6,1.4c-2,0-3.6-1.6-3.6-3.8
	c0-2.2,1.6-3.8,3.6-3.8c1.1,0,2,0.6,2.6,1.4l1-0.5c-0.7-1.1-1.9-1.8-3.5-1.8c-2.7,0-4.8,2-4.8,4.8S217.4,192.3,220.1,192.3z
	 M228.1,192.3c2.1,0,3.3-1.6,3.3-3.6s-1.3-3.5-3.3-3.5s-3.3,1.6-3.3,3.5S226,192.3,228.1,192.3z M228.1,191.4
	c-1.4,0-2.3-1.2-2.3-2.6c0-1.4,0.8-2.6,2.3-2.6s2.2,1.2,2.2,2.6C230.3,190.2,229.5,191.4,228.1,191.4z M242.3,192.2v-4.9
	c0-1.4-0.7-2-1.9-2c-1,0-1.9,0.6-2.3,1.3c-0.2-0.7-0.8-1.3-1.8-1.3c-1,0-1.9,0.7-2.2,1.1v-1h-1.1v6.8h1.1v-4.9
	c0.4-0.5,1.1-1.1,1.8-1.1c0.9,0,1.2,0.5,1.2,1.4v4.6h1.1v-5c0.3-0.5,1.1-1,1.8-1c0.9,0,1.2,0.5,1.2,1.4v4.6H242.3z M247.8,192.3
	c1.8,0,3-1.4,3-3.6c0-2.2-1.2-3.5-3-3.5c-1,0-1.8,0.5-2.3,1.2v-1h-1.1v9.3h1.1v-3.6C246,191.9,246.8,192.3,247.8,192.3z
	 M247.5,191.4c-0.8,0-1.7-0.5-2-1.1v-3.1c0.4-0.6,1.2-1.1,2-1.1c1.4,0,2.2,1.1,2.2,2.6S248.9,191.4,247.5,191.4z M253.5,192.2v-4.8
	c0.3-0.5,1.2-1.1,1.8-1.1c0.2,0,0.3,0,0.4,0v-1.1c-0.9,0-1.7,0.5-2.3,1.2v-1.1h-1.1v6.8H253.5z M262.3,192.2v-4.6
	c0-1.6-1.2-2.3-2.6-2.3c-1.1,0-2,0.4-2.7,1.1l0.5,0.7c0.6-0.6,1.3-0.9,2.1-0.9c1,0,1.7,0.5,1.7,1.4v1.2c-0.5-0.6-1.3-0.9-2.2-0.9
	c-1.1,0-2.4,0.7-2.4,2.2c0,1.5,1.2,2.2,2.4,2.2c0.9,0,1.7-0.3,2.2-0.9v0.8H262.3z M259.4,191.6c-1,0-1.7-0.6-1.7-1.5
	c0-0.9,0.7-1.5,1.7-1.5c0.7,0,1.5,0.3,1.9,0.8v1.3C260.9,191.3,260.2,191.6,259.4,191.6z M270.4,192.2v-9.3h-1v3.6
	c-0.5-0.7-1.4-1.2-2.3-1.2c-1.8,0-3,1.4-3,3.6c0,2.2,1.2,3.5,3,3.5c1,0,1.8-0.5,2.3-1.2v1H270.4z M267.3,191.4
	c-1.4,0-2.2-1.1-2.2-2.6c0-1.5,0.8-2.6,2.2-2.6c0.8,0,1.7,0.5,2,1.1v3.1C269,190.9,268.2,191.4,267.3,191.4z M275.5,192.3
	c2.1,0,3.3-1.6,3.3-3.6s-1.3-3.5-3.3-3.5c-2.1,0-3.3,1.6-3.3,3.5S273.4,192.3,275.5,192.3z M275.5,191.4c-1.4,0-2.3-1.2-2.3-2.6
	c0-1.4,0.8-2.6,2.3-2.6c1.4,0,2.2,1.2,2.2,2.6C277.7,190.2,276.9,191.4,275.5,191.4z M281.6,192.2v-4.8c0.3-0.5,1.2-1.1,1.8-1.1
	c0.2,0,0.3,0,0.4,0v-1.1c-0.9,0-1.7,0.5-2.3,1.2v-1.1h-1v6.8H281.6z M289.6,192.4v-9.9h-0.8v9.9H289.6z M296.5,192.2v-9.3h-1.2v9.3
	H296.5z M304.3,192.2v-4.7c0-1.5-0.7-2.2-2.2-2.2c-1,0-1.9,0.6-2.4,1.1v-1h-1.1v6.8h1.1v-4.9c0.4-0.5,1.2-1.1,2-1.1
	c0.9,0,1.5,0.4,1.5,1.6v4.4H304.3z M309.3,192.2l2.8-6.8H311l-2.2,5.5l-2.3-5.5h-1.1l2.8,6.8H309.3z M316.3,192.3c1.1,0,2-0.4,2.7-1
	l-0.5-0.7c-0.5,0.5-1.3,0.9-2.1,0.9c-1.5,0-2.4-1.1-2.4-2.3h5.5v-0.3c0-2-1.2-3.6-3.2-3.6c-1.9,0-3.3,1.6-3.3,3.5
	C312.8,190.9,314.3,192.3,316.3,192.3z M318.4,188.3h-4.4c0.1-1,0.8-2.3,2.2-2.3C317.7,186.1,318.4,187.3,318.4,188.3z M323.3,192.3
	c1.8,0,2.7-0.9,2.7-2c0-2.6-4.2-1.7-4.2-3.1c0-0.6,0.6-1.1,1.5-1.1c0.9,0,1.6,0.4,2,0.9l0.5-0.7c-0.5-0.5-1.4-1-2.5-1
	c-1.6,0-2.5,0.9-2.5,1.9c0,2.5,4.2,1.5,4.2,3.1c0,0.7-0.6,1.2-1.6,1.2c-0.9,0-1.8-0.4-2.2-1l-0.5,0.8
	C321.2,192,322.2,192.3,323.3,192.3z M329.3,192.3c0.6,0,1-0.2,1.3-0.4l-0.3-0.8c-0.1,0.2-0.4,0.3-0.7,0.3c-0.5,0-0.7-0.4-0.7-0.9
	v-4.2h1.4v-0.9h-1.4v-1.8h-1.1v1.8h-1.1v0.9h1.1v4.4C327.8,191.8,328.3,192.3,329.3,192.3z M332.3,184.4c0.4,0,0.7-0.3,0.7-0.7
	c0-0.4-0.3-0.7-0.7-0.7c-0.4,0-0.7,0.3-0.7,0.7C331.6,184.1,331.9,184.4,332.3,184.4z M332.8,192.2v-6.8h-1.1v6.8H332.8z
	 M340.8,192.2v-9.3h-1.1v3.6c-0.5-0.7-1.4-1.2-2.3-1.2c-1.8,0-3,1.4-3,3.6c0,2.2,1.2,3.5,3,3.5c1,0,1.8-0.5,2.3-1.2v1H340.8z
	 M337.8,191.4c-1.4,0-2.2-1.1-2.2-2.6c0-1.5,0.8-2.6,2.2-2.6c0.8,0,1.7,0.5,2,1.1v3.1C339.4,190.9,338.6,191.4,337.8,191.4z
	 M345.9,192.3c2.1,0,3.3-1.6,3.3-3.6s-1.3-3.5-3.3-3.5c-2.1,0-3.3,1.6-3.3,3.5S343.8,192.3,345.9,192.3z M345.9,191.4
	c-1.4,0-2.3-1.2-2.3-2.6c0-1.4,0.8-2.6,2.3-2.6c1.4,0,2.2,1.2,2.2,2.6C348.1,190.2,347.3,191.4,345.9,191.4z M352,192.2v-4.8
	c0.3-0.5,1.2-1.1,1.8-1.1c0.2,0,0.3,0,0.4,0v-1.1c-0.9,0-1.7,0.5-2.3,1.2v-1.1h-1v6.8H352z"/>
<circle class="st21" cx="284.6" cy="113.2" r="25"/>
<g>
	<circle class="st0" cx="284.6" cy="113.2" r="20"/>
</g>
<path class="st21" d="M290.1,107.2l-7.5,7.7l-3.5-3.3l-2.5,2.5l6,5.8l10-10.2L290.1,107.2z"/>
<path class="st21" d="M260.6,70.4c2.6,0,4.5-1.4,4.5-4.5v-9.1h-2.3v9.1c0,1.4-0.9,2.4-2.3,2.4c-1,0-1.8-0.5-2.3-1.1L257,69
	C258,70,259.2,70.4,260.6,70.4z M275.9,70.2v-6.4c0-2.6-1.9-3.5-4-3.5c-1.5,0-2.9,0.5-4.1,1.6l0.9,1.5c0.8-0.8,1.8-1.2,2.9-1.2
	c1.3,0,2.3,0.7,2.3,1.8v1.4c-0.7-0.8-1.8-1.2-3.1-1.2c-1.6,0-3.3,0.9-3.3,3.2c0,2.1,1.8,3.2,3.3,3.2c1.3,0,2.4-0.5,3.1-1.3v1.1
	H275.9z M271.5,69c-1.2,0-2.1-0.7-2.1-1.7c0-1,0.9-1.7,2.1-1.7c0.9,0,1.8,0.3,2.3,1V68C273.3,68.6,272.4,69,271.5,69z M287.3,70.2
	v-6.8c0-2-1-3.1-3.1-3.1c-1.5,0-2.8,0.8-3.4,1.5v-1.3h-2.1v9.7h2.1v-6.8c0.5-0.6,1.4-1.3,2.5-1.3c1.2,0,2,0.5,2,2v6H287.3z
	 M304.4,70.2v-2.1h-5.9c3.6-2.7,5.8-4.9,5.8-7.4c0-2.7-2.2-4.1-4.8-4.1c-1.9,0-3.8,0.7-4.9,2.1l1.4,1.5c0.9-1,2-1.6,3.6-1.6
	c1.2,0,2.4,0.6,2.4,2c0,1.9-2,3.7-7.2,7.6v1.9H304.4z M311.8,70.2V56.8h-2l-3.8,3.9l1.4,1.4l2.2-2.3v10.3H311.8z"/>
<path class="st22" d="M447.4,168.2v-1.9h-4.2v-8.1h-2.1v10H447.4z M449.8,160.1c0.6,0,1.1-0.5,1.1-1.1c0-0.6-0.5-1.1-1.1-1.1
	c-0.6,0-1.1,0.5-1.1,1.1C448.7,159.6,449.2,160.1,449.8,160.1z M450.8,168.2v-7.2h-1.9v7.2H450.8z M456,168.3c1.5,0,2.4-0.6,2.9-1.3
	l-1.2-1.2c-0.3,0.5-0.9,0.8-1.5,0.8c-1.2,0-2-0.9-2-2.1s0.8-2.1,2-2.1c0.7,0,1.2,0.3,1.5,0.8l1.2-1.2c-0.5-0.7-1.4-1.3-2.9-1.3
	c-2.2,0-3.8,1.6-3.8,3.8C452.2,166.8,453.8,168.3,456,168.3z M463.6,168.3c1.1,0,2.3-0.3,3-1l-0.8-1.2c-0.5,0.4-1.3,0.7-1.9,0.7
	c-1.2,0-2-0.8-2.1-1.7h5.4v-0.4c0-2.4-1.5-4-3.6-4c-2.2,0-3.8,1.7-3.8,3.8C459.7,166.9,461.4,168.3,463.6,168.3z M465.2,163.9h-3.6
	c0.1-0.7,0.6-1.6,1.8-1.6C464.7,162.2,465.2,163.2,465.2,163.9z M475.2,168.2V163c0-1.4-0.8-2.3-2.4-2.3c-1.2,0-2.1,0.6-2.5,1.1
	v-0.9h-1.9v7.2h1.9v-4.9c0.3-0.4,0.9-0.9,1.6-0.9c0.8,0,1.3,0.3,1.3,1.4v4.4H475.2z M480.5,168.3c1.5,0,2.4-0.6,2.9-1.3l-1.2-1.2
	c-0.3,0.5-0.9,0.8-1.5,0.8c-1.2,0-2-0.9-2-2.1s0.8-2.1,2-2.1c0.7,0,1.2,0.3,1.5,0.8l1.2-1.2c-0.5-0.7-1.4-1.3-2.9-1.3
	c-2.2,0-3.8,1.6-3.8,3.8C476.7,166.8,478.3,168.3,480.5,168.3z M485.6,160.1c0.6,0,1.1-0.5,1.1-1.1c0-0.6-0.5-1.1-1.1-1.1
	c-0.6,0-1.1,0.5-1.1,1.1C484.4,159.6,485,160.1,485.6,160.1z M486.5,168.2v-7.2h-1.9v7.2H486.5z M494.7,168.2v-4.7
	c0-2.1-1.5-2.7-3.2-2.7c-1.1,0-2.3,0.4-3.2,1.1l0.7,1.3c0.6-0.6,1.3-0.9,2.1-0.9c1,0,1.6,0.5,1.6,1.2v1c-0.5-0.6-1.3-0.9-2.3-0.9
	c-1.2,0-2.5,0.6-2.5,2.3c0,1.6,1.4,2.4,2.5,2.4c0.9,0,1.8-0.3,2.3-0.9v0.8H494.7z M491.2,167c-0.8,0-1.4-0.4-1.4-1.1
	c0-0.7,0.6-1.1,1.4-1.1c0.6,0,1.2,0.2,1.5,0.6v0.9C492.4,166.8,491.8,167,491.2,167z M507.5,168.2v-5.2c0-1.5-0.8-2.2-2.1-2.2
	c-1.1,0-2.1,0.7-2.5,1.3c-0.3-0.8-0.9-1.3-2-1.3c-1.1,0-2.1,0.7-2.4,1.1v-0.9h-1.9v7.2h1.9v-4.9c0.3-0.4,0.8-0.9,1.5-0.9
	c0.8,0,1.1,0.5,1.1,1.2v4.6h1.9v-4.9c0.3-0.4,0.8-0.8,1.5-0.8c0.8,0,1.1,0.5,1.1,1.2v4.6H507.5z M512.7,168.3c1.1,0,2.3-0.3,3-1
	l-0.8-1.2c-0.5,0.4-1.3,0.7-1.9,0.7c-1.2,0-2-0.8-2.1-1.7h5.4v-0.4c0-2.4-1.5-4-3.6-4c-2.2,0-3.8,1.7-3.8,3.8
	C508.9,166.9,510.5,168.3,512.7,168.3z M514.4,163.9h-3.6c0.1-0.7,0.6-1.6,1.8-1.6C513.9,162.2,514.4,163.2,514.4,163.9z
	 M524.4,168.2V163c0-1.4-0.8-2.3-2.4-2.3c-1.2,0-2.1,0.6-2.5,1.1v-0.9h-1.9v7.2h1.9v-4.9c0.3-0.4,0.9-0.9,1.7-0.9
	c0.8,0,1.3,0.3,1.3,1.4v4.4H524.4z M528.7,168.3c0.8,0,1.3-0.2,1.6-0.5l-0.4-1.4c-0.1,0.1-0.4,0.2-0.7,0.2c-0.4,0-0.7-0.3-0.7-0.8
	v-3.3h1.5v-1.7h-1.5v-2h-1.9v2h-1.2v1.7h1.2v3.8C526.7,167.6,527.4,168.3,528.7,168.3z M534.7,168.3c2.4,0,3.8-1.7,3.8-3.8
	c0-2.1-1.4-3.8-3.8-3.8c-2.4,0-3.8,1.7-3.8,3.8C530.9,166.6,532.4,168.3,534.7,168.3z M534.7,166.6c-1.2,0-1.8-1-1.8-2.1
	c0-1.1,0.7-2.1,1.8-2.1s1.9,1,1.9,2.1C536.6,165.7,535.9,166.6,534.7,166.6z"/>
<path class="st23" d="M436.4,192.3c1.7,0,2.8-0.8,3.6-1.8l-1-0.5c-0.5,0.8-1.5,1.4-2.6,1.4c-2,0-3.6-1.6-3.6-3.8
	c0-2.2,1.6-3.8,3.6-3.8c1.1,0,2,0.6,2.6,1.4l1-0.5c-0.7-1.1-1.9-1.8-3.5-1.8c-2.7,0-4.8,2-4.8,4.8S433.7,192.3,436.4,192.3z
	 M444.3,192.3c2.1,0,3.3-1.6,3.3-3.6s-1.3-3.5-3.3-3.5c-2.1,0-3.3,1.6-3.3,3.5S442.3,192.3,444.3,192.3z M444.3,191.4
	c-1.4,0-2.3-1.2-2.3-2.6c0-1.4,0.8-2.6,2.3-2.6c1.4,0,2.2,1.2,2.2,2.6C446.6,190.2,445.8,191.4,444.3,191.4z M455,192.2v-4.7
	c0-1.5-0.7-2.2-2.2-2.2c-1,0-1.9,0.6-2.4,1.1v-1h-1.1v6.8h1.1v-4.9c0.4-0.5,1.2-1.1,2-1.1c0.9,0,1.5,0.4,1.5,1.6v4.4H455z
	 M458.8,192.3c0.6,0,1-0.2,1.3-0.4l-0.3-0.8c-0.1,0.2-0.4,0.3-0.7,0.3c-0.5,0-0.7-0.4-0.7-0.9v-4.2h1.4v-0.9h-1.4v-1.8h-1v1.8h-1.1
	v0.9h1.1v4.4C457.3,191.8,457.8,192.3,458.8,192.3z M464.3,192.3c1.1,0,2-0.4,2.7-1l-0.5-0.7c-0.5,0.5-1.3,0.9-2.1,0.9
	c-1.5,0-2.4-1.1-2.4-2.3h5.5v-0.3c0-2-1.2-3.6-3.2-3.6c-1.9,0-3.3,1.6-3.3,3.5C460.8,190.9,462.3,192.3,464.3,192.3z M466.4,188.3
	h-4.4c0.1-1,0.8-2.3,2.2-2.3C465.7,186.1,466.4,187.3,466.4,188.3z M474.7,192.2v-6.8h-1v5c-0.4,0.5-1.2,1-2,1
	c-0.9,0-1.5-0.3-1.5-1.5v-4.5h-1.1v4.8c0,1.5,0.7,2.2,2.2,2.2c1,0,1.9-0.5,2.4-1.1v1H474.7z M482.8,192.2v-9.3h-1v3.6
	c-0.5-0.7-1.4-1.2-2.3-1.2c-1.8,0-3,1.4-3,3.6c0,2.2,1.2,3.5,3,3.5c1,0,1.8-0.5,2.3-1.2v1H482.8z M479.7,191.4
	c-1.4,0-2.2-1.1-2.2-2.6c0-1.5,0.8-2.6,2.2-2.6c0.8,0,1.7,0.5,2,1.1v3.1C481.3,190.9,480.5,191.4,479.7,191.4z M487.8,192.3
	c2.1,0,3.3-1.6,3.3-3.6s-1.3-3.5-3.3-3.5c-2.1,0-3.3,1.6-3.3,3.5S485.8,192.3,487.8,192.3z M487.8,191.4c-1.4,0-2.3-1.2-2.3-2.6
	c0-1.4,0.8-2.6,2.3-2.6c1.4,0,2.2,1.2,2.2,2.6C490.1,190.2,489.3,191.4,487.8,191.4z M501.8,192.2v-4.6c0-1.6-1.2-2.3-2.6-2.3
	c-1.1,0-2,0.4-2.7,1.1l0.5,0.7c0.6-0.6,1.3-0.9,2.1-0.9c1,0,1.7,0.5,1.7,1.4v1.2c-0.5-0.6-1.3-0.9-2.2-0.9c-1.1,0-2.4,0.7-2.4,2.2
	c0,1.5,1.2,2.2,2.4,2.2c0.9,0,1.7-0.3,2.2-0.9v0.8H501.8z M498.9,191.6c-1,0-1.7-0.6-1.7-1.5c0-0.9,0.7-1.5,1.7-1.5
	c0.7,0,1.5,0.3,1.9,0.8v1.3C500.3,191.3,499.6,191.6,498.9,191.6z M513.4,192.2v-9.3h-1v3.6c-0.5-0.7-1.4-1.2-2.3-1.2
	c-1.8,0-3,1.4-3,3.6c0,2.2,1.2,3.5,3,3.5c1,0,1.8-0.5,2.3-1.2v1H513.4z M510.3,191.4c-1.4,0-2.2-1.1-2.2-2.6c0-1.5,0.8-2.6,2.2-2.6
	c0.8,0,1.7,0.5,2,1.1v3.1C512,190.9,511.2,191.4,510.3,191.4z M518.6,192.3c1.1,0,2-0.4,2.7-1l-0.5-0.7c-0.5,0.5-1.3,0.9-2.1,0.9
	c-1.5,0-2.4-1.1-2.4-2.3h5.5v-0.3c0-2-1.2-3.6-3.2-3.6c-1.9,0-3.3,1.6-3.3,3.5C515.1,190.9,516.6,192.3,518.6,192.3z M520.7,188.3
	h-4.4c0.1-1,0.8-2.3,2.2-2.3C520,186.1,520.7,187.3,520.7,188.3z M526.4,192.3c1.2,0,2-0.5,2.5-1.2l-0.7-0.6c-0.4,0.6-1,0.9-1.7,0.9
	c-1.4,0-2.3-1.1-2.3-2.6s0.9-2.6,2.3-2.6c0.7,0,1.3,0.3,1.7,0.9l0.7-0.6c-0.5-0.7-1.2-1.2-2.5-1.2c-2,0-3.4,1.5-3.4,3.5
	C523,190.8,524.4,192.3,526.4,192.3z M530.9,184.4c0.4,0,0.7-0.3,0.7-0.7c0-0.4-0.3-0.7-0.7-0.7c-0.4,0-0.7,0.3-0.7,0.7
	C530.2,184.1,530.5,184.4,530.9,184.4z M531.4,192.2v-6.8h-1v6.8H531.4z M539.4,192.2v-9.3h-1.1v3.6c-0.5-0.7-1.4-1.2-2.3-1.2
	c-1.8,0-3,1.4-3,3.6c0,2.2,1.2,3.5,3,3.5c1,0,1.8-0.5,2.3-1.2v1H539.4z M536.4,191.4c-1.4,0-2.2-1.1-2.2-2.6c0-1.5,0.8-2.6,2.2-2.6
	c0.8,0,1.7,0.5,2,1.1v3.1C538,190.9,537.2,191.4,536.4,191.4z M542.1,184.4c0.4,0,0.7-0.3,0.7-0.7c0-0.4-0.3-0.7-0.7-0.7
	c-0.4,0-0.7,0.3-0.7,0.7C541.4,184.1,541.7,184.4,542.1,184.4z M542.6,192.2v-6.8h-1v6.8H542.6z M545.7,192.2v-4.8
	c0.3-0.5,1.2-1.1,1.8-1.1c0.2,0,0.3,0,0.4,0v-1.1c-0.9,0-1.7,0.5-2.3,1.2v-1.1h-1v6.8H545.7z"/>
<circle class="st20" cx="489.6" cy="113.2" r="25"/>
<g>
	<circle class="st0" cx="489.6" cy="113.2" r="20"/>
</g>
<path class="st25" d="M495.1,107.2l-7.5,7.7l-3.5-3.3l-2.5,2.5l6,5.8l10-10.2L495.1,107.2z"/>
<path class="st22" d="M475.3,70.2V56.8H472l-3.6,9.2l-3.6-9.2h-3.3v13.3h2.3V59.9l4.1,10.3h1l4.1-10.3v10.3H475.3z M486.1,70.2v-6.4
	c0-2.6-1.9-3.5-4-3.5c-1.5,0-2.9,0.5-4.1,1.6l0.9,1.5c0.8-0.8,1.8-1.2,2.9-1.2c1.3,0,2.3,0.7,2.3,1.8v1.4c-0.7-0.8-1.8-1.2-3.1-1.2
	c-1.6,0-3.3,0.9-3.3,3.2c0,2.1,1.8,3.2,3.3,3.2c1.3,0,2.4-0.5,3.1-1.3v1.1H486.1z M481.7,69c-1.2,0-2.1-0.7-2.1-1.7
	c0-1,0.9-1.7,2.1-1.7c0.9,0,1.8,0.3,2.3,1V68C483.5,68.6,482.6,69,481.7,69z M491,70.2v-6.6c0.4-0.7,1.6-1.3,2.5-1.3
	c0.3,0,0.5,0,0.6,0.1v-2.1c-1.2,0-2.4,0.7-3.1,1.6v-1.4h-2.1v9.7H491z M510.2,70.2v-2.1h-5.9c3.6-2.7,5.8-4.9,5.8-7.4
	c0-2.7-2.2-4.1-4.8-4.1c-1.9,0-3.8,0.7-4.9,2.1l1.4,1.5c0.9-1,2-1.6,3.6-1.6c1.2,0,2.4,0.6,2.4,2c0,1.9-2,3.7-7.2,7.6v1.9H510.2z
	 M517.7,70.2V56.8h-2l-3.8,3.9l1.4,1.4l2.2-2.3v10.3H517.7z"/>
<path class="st22" d="M661.3,168.3c2.2,0,3.5-1.2,4.2-2.5l-1.8-0.9c-0.4,0.8-1.3,1.5-2.4,1.5c-1.8,0-3.1-1.4-3.1-3.3
	s1.3-3.3,3.1-3.3c1,0,1.9,0.6,2.4,1.5l1.8-0.9c-0.7-1.2-2-2.4-4.2-2.4c-3,0-5.3,2.1-5.3,5.2C656,166.2,658.3,168.3,661.3,168.3z
	 M670.1,168.3c2.4,0,3.8-1.7,3.8-3.8c0-2.1-1.4-3.8-3.8-3.8c-2.4,0-3.8,1.7-3.8,3.8C666.3,166.6,667.7,168.3,670.1,168.3z
	 M670.1,166.6c-1.2,0-1.8-1-1.8-2.1c0-1.1,0.7-2.1,1.8-2.1s1.9,1,1.9,2.1C672,165.7,671.3,166.6,670.1,166.6z M682.1,168.2V163
	c0-1.4-0.8-2.3-2.4-2.3c-1.2,0-2.1,0.6-2.5,1.1v-0.9h-1.9v7.2h1.9v-4.9c0.3-0.4,0.9-0.9,1.7-0.9c0.8,0,1.3,0.3,1.3,1.4v4.4H682.1z
	 M686.6,168.3c2,0,3.1-1,3.1-2.3c0-2.9-4.3-2-4.3-3.1c0-0.4,0.5-0.7,1.1-0.7c0.9,0,1.7,0.4,2.1,0.8l0.8-1.3c-0.7-0.6-1.7-1-2.9-1
	c-1.9,0-3,1.1-3,2.3c0,2.9,4.3,1.9,4.3,3.1c0,0.4-0.4,0.8-1.2,0.8c-0.9,0-2-0.5-2.5-1l-0.8,1.3C684.2,167.9,685.4,168.3,686.6,168.3
	z M693.6,168.3c0.8,0,1.3-0.2,1.6-0.5l-0.4-1.4c-0.1,0.1-0.4,0.2-0.7,0.2c-0.4,0-0.7-0.3-0.7-0.8v-3.3h1.5v-1.7h-1.5v-2h-1.9v2h-1.2
	v1.7h1.2v3.8C691.6,167.6,692.3,168.3,693.6,168.3z M698.2,168.2v-4.8c0.3-0.5,1.2-0.8,1.8-0.8c0.2,0,0.4,0,0.5,0v-1.9
	c-0.9,0-1.8,0.5-2.3,1.2v-1h-1.9v7.2H698.2z M708.4,168.2v-7.2h-1.9v4.9c-0.3,0.4-0.9,0.8-1.6,0.8c-0.8,0-1.3-0.3-1.3-1.3v-4.4h-1.9
	v5.1c0,1.4,0.8,2.3,2.3,2.3c1.2,0,2.1-0.5,2.5-1.1v0.9H708.4z M713.8,171.1c0.9,0,1.7-0.5,1.7-1.3c0-0.6-0.5-1.1-1-1.1
	c-0.2,0-0.4,0.1-0.5,0.2l0.2-0.6c1.2-0.1,2-0.7,2.5-1.3l-1.2-1.2c-0.3,0.5-0.9,0.8-1.5,0.8c-1.2,0-2-0.9-2-2.1s0.8-2.1,2-2.1
	c0.7,0,1.2,0.3,1.5,0.8l1.2-1.2c-0.5-0.7-1.4-1.3-2.9-1.3c-2.2,0-3.8,1.6-3.8,3.8c0,2.1,1.3,3.6,3.3,3.8l-0.3,0.9l0.7,0.4
	c0.1-0.1,0.3-0.2,0.5-0.2c0.3,0,0.4,0.1,0.4,0.4c0,0.3-0.4,0.5-0.8,0.5c-0.4,0-0.8-0.1-1.2-0.4l-0.4,0.8
	C712.4,170.8,713,171.1,713.8,171.1z M724.1,168.2v-4.7c0-2.1-1.5-2.7-3.2-2.7c-1.1,0-2.3,0.4-3.2,1.1l0.7,1.3
	c0.6-0.6,1.3-0.9,2.1-0.9c1,0,1.6,0.5,1.6,1.2v1c-0.5-0.6-1.3-0.9-2.3-0.9c-1.2,0-2.5,0.6-2.5,2.3c0,1.6,1.4,2.4,2.5,2.4
	c0.9,0,1.8-0.3,2.3-0.9v0.8H724.1z M720.6,167c-0.8,0-1.4-0.4-1.4-1.1c0-0.7,0.6-1.1,1.4-1.1c0.6,0,1.2,0.2,1.5,0.6v0.9
	C721.9,166.8,721.3,167,720.6,167z M721.8,159.8c1.1,0,1.6-0.7,1.6-2h-1c0,0.6-0.2,0.9-0.5,0.9c-0.6,0-0.8-1-1.7-1
	c-1,0-1.6,0.7-1.6,2h1c0-0.6,0.2-0.9,0.5-0.9C720.6,158.8,720.8,159.8,721.8,159.8z M729.3,168.3c2.4,0,3.8-1.7,3.8-3.8
	c0-2.1-1.4-3.8-3.8-3.8c-2.4,0-3.8,1.7-3.8,3.8C725.5,166.6,726.9,168.3,729.3,168.3z M729.3,166.6c-1.2,0-1.8-1-1.8-2.1
	c0-1.1,0.7-2.1,1.8-2.1s1.9,1,1.9,2.1C731.2,165.7,730.5,166.6,729.3,166.6z"/>
<path class="st23" d="M641.4,192.3c1.7,0,2.8-0.8,3.6-1.8l-1-0.5c-0.5,0.8-1.5,1.4-2.6,1.4c-2,0-3.6-1.6-3.6-3.8
	c0-2.2,1.6-3.8,3.6-3.8c1.1,0,2,0.6,2.6,1.4l1-0.5c-0.7-1.1-1.9-1.8-3.5-1.8c-2.7,0-4.8,2-4.8,4.8S638.7,192.3,641.4,192.3z
	 M649.3,192.3c2.1,0,3.3-1.6,3.3-3.6s-1.3-3.5-3.3-3.5c-2.1,0-3.3,1.6-3.3,3.5S647.3,192.3,649.3,192.3z M649.3,191.4
	c-1.4,0-2.3-1.2-2.3-2.6c0-1.4,0.8-2.6,2.3-2.6c1.4,0,2.2,1.2,2.2,2.6C651.6,190.2,650.8,191.4,649.3,191.4z M660,192.2v-4.7
	c0-1.5-0.7-2.2-2.2-2.2c-1,0-1.9,0.6-2.4,1.1v-1h-1v6.8h1v-4.9c0.4-0.5,1.2-1.1,2-1.1c0.9,0,1.5,0.4,1.5,1.6v4.4H660z M663.8,192.3
	c0.6,0,1-0.2,1.3-0.4l-0.3-0.8c-0.1,0.2-0.4,0.3-0.7,0.3c-0.5,0-0.7-0.4-0.7-0.9v-4.2h1.4v-0.9h-1.4v-1.8h-1.1v1.8h-1.1v0.9h1.1v4.4
	C662.3,191.8,662.8,192.3,663.8,192.3z M669.3,192.3c1.1,0,2-0.4,2.7-1l-0.5-0.7c-0.5,0.5-1.3,0.9-2.1,0.9c-1.5,0-2.4-1.1-2.4-2.3
	h5.5v-0.3c0-2-1.2-3.6-3.2-3.6c-1.9,0-3.3,1.6-3.3,3.5C665.8,190.9,667.3,192.3,669.3,192.3z M671.4,188.3h-4.4
	c0.1-1,0.8-2.3,2.2-2.3C670.7,186.1,671.4,187.3,671.4,188.3z M679.7,192.2v-6.8h-1v5c-0.4,0.5-1.2,1-2,1c-0.9,0-1.5-0.3-1.5-1.5
	v-4.5h-1v4.8c0,1.5,0.7,2.2,2.2,2.2c1,0,1.9-0.5,2.4-1.1v1H679.7z M687.8,192.2v-9.3h-1v3.6c-0.5-0.7-1.4-1.2-2.3-1.2
	c-1.8,0-3,1.4-3,3.6c0,2.2,1.2,3.5,3,3.5c1,0,1.8-0.5,2.3-1.2v1H687.8z M684.7,191.4c-1.4,0-2.2-1.1-2.2-2.6c0-1.5,0.8-2.6,2.2-2.6
	c0.8,0,1.7,0.5,2,1.1v3.1C686.3,190.9,685.5,191.4,684.7,191.4z M692.8,192.3c2.1,0,3.3-1.6,3.3-3.6s-1.3-3.5-3.3-3.5
	s-3.3,1.6-3.3,3.5S690.8,192.3,692.8,192.3z M692.8,191.4c-1.4,0-2.3-1.2-2.3-2.6c0-1.4,0.8-2.6,2.3-2.6s2.2,1.2,2.2,2.6
	C695.1,190.2,694.3,191.4,692.8,191.4z M706.8,192.2v-4.6c0-1.6-1.2-2.3-2.6-2.3c-1.1,0-2,0.4-2.7,1.1l0.5,0.7
	c0.6-0.6,1.3-0.9,2.1-0.9c1,0,1.7,0.5,1.7,1.4v1.2c-0.5-0.6-1.3-0.9-2.2-0.9c-1.1,0-2.4,0.7-2.4,2.2c0,1.5,1.2,2.2,2.4,2.2
	c0.9,0,1.7-0.3,2.2-0.9v0.8H706.8z M703.9,191.6c-1,0-1.7-0.6-1.7-1.5c0-0.9,0.7-1.5,1.7-1.5c0.7,0,1.5,0.3,1.9,0.8v1.3
	C705.3,191.3,704.6,191.6,703.9,191.6z M718.4,192.2v-9.3h-1v3.6c-0.5-0.7-1.4-1.2-2.3-1.2c-1.8,0-3,1.4-3,3.6c0,2.2,1.2,3.5,3,3.5
	c1,0,1.8-0.5,2.3-1.2v1H718.4z M715.3,191.4c-1.4,0-2.2-1.1-2.2-2.6c0-1.5,0.8-2.6,2.2-2.6c0.8,0,1.7,0.5,2,1.1v3.1
	C717,190.9,716.2,191.4,715.3,191.4z M723.6,192.3c1.1,0,2-0.4,2.7-1l-0.5-0.7c-0.5,0.5-1.3,0.9-2.1,0.9c-1.5,0-2.4-1.1-2.4-2.3h5.5
	v-0.3c0-2-1.2-3.6-3.2-3.6c-1.9,0-3.3,1.6-3.3,3.5C720.1,190.9,721.6,192.3,723.6,192.3z M725.7,188.3h-4.4c0.1-1,0.8-2.3,2.2-2.3
	C725,186.1,725.7,187.3,725.7,188.3z M731.4,192.3c1.2,0,2-0.5,2.5-1.2l-0.7-0.6c-0.4,0.6-1,0.9-1.7,0.9c-1.4,0-2.3-1.1-2.3-2.6
	s0.9-2.6,2.3-2.6c0.7,0,1.3,0.3,1.7,0.9l0.7-0.6c-0.5-0.7-1.2-1.2-2.5-1.2c-2,0-3.4,1.5-3.4,3.5C728,190.8,729.4,192.3,731.4,192.3z
	 M735.9,184.4c0.4,0,0.7-0.3,0.7-0.7c0-0.4-0.3-0.7-0.7-0.7c-0.4,0-0.7,0.3-0.7,0.7C735.2,184.1,735.5,184.4,735.9,184.4z
	 M736.4,192.2v-6.8h-1v6.8H736.4z M744.4,192.2v-9.3h-1.1v3.6c-0.5-0.7-1.4-1.2-2.3-1.2c-1.8,0-3,1.4-3,3.6c0,2.2,1.2,3.5,3,3.5
	c1,0,1.8-0.5,2.3-1.2v1H744.4z M741.4,191.4c-1.4,0-2.2-1.1-2.2-2.6c0-1.5,0.8-2.6,2.2-2.6c0.8,0,1.7,0.5,2,1.1v3.1
	C743,190.9,742.2,191.4,741.4,191.4z M747.1,184.4c0.4,0,0.7-0.3,0.7-0.7c0-0.4-0.3-0.7-0.7-0.7c-0.4,0-0.7,0.3-0.7,0.7
	C746.4,184.1,746.7,184.4,747.1,184.4z M747.6,192.2v-6.8h-1v6.8H747.6z M750.7,192.2v-4.8c0.3-0.5,1.2-1.1,1.8-1.1
	c0.2,0,0.3,0,0.4,0v-1.1c-0.9,0-1.7,0.5-2.3,1.2v-1.1h-1v6.8H750.7z"/>
<circle class="st20" cx="694.6" cy="113.2" r="25"/>
<g>
	<circle class="st0" cx="694.6" cy="113.2" r="20"/>
</g>
<path class="st25" d="M700.1,107.2l-7.5,7.7l-3.5-3.3l-2.5,2.5l6,5.8l10-10.2L700.1,107.2z"/>
<path class="st22" d="M680.2,70.2l-5.2-13.3H672l-5.2,13.3h2.7l1-2.6h6.1l1,2.6H680.2z M675.9,65.5h-4.8l2.4-6.4L675.9,65.5z
	 M683.7,67.3v-3.8c0.5-0.7,1.5-1.3,2.5-1.3c1.7,0,2.7,1.3,2.7,3.2c0,1.9-1.1,3.2-2.7,3.2C685.2,68.5,684.1,68,683.7,67.3z
	 M683.7,70.2v-1.3c0.7,1,1.9,1.6,3.1,1.6c2.5,0,4.3-1.9,4.3-5.1c0-3.1-1.8-5.1-4.3-5.1c-1.2,0-2.3,0.5-3.1,1.6v-5h-2.1v13.3H683.7z
	 M695.3,70.2v-6.6c0.4-0.7,1.6-1.3,2.5-1.3c0.3,0,0.5,0,0.6,0.1v-2.1c-1.2,0-2.4,0.7-3.1,1.6v-1.4h-2.1v9.7H695.3z M714.6,70.2v-2.1
	h-5.9c3.6-2.7,5.8-4.9,5.8-7.4c0-2.7-2.2-4.1-4.8-4.1c-1.9,0-3.8,0.7-4.9,2.1l1.4,1.5c0.9-1,2-1.6,3.6-1.6c1.2,0,2.4,0.6,2.4,2
	c0,1.9-2,3.7-7.2,7.6v1.9H714.6z M722,70.2V56.8h-2l-3.8,3.9l1.4,1.4l2.2-2.3v10.3H722z"/>
<path class="st22" d="M864.7,168.3c2.2,0,3.5-1.2,4.2-2.5L867,165c-0.4,0.8-1.3,1.5-2.4,1.5c-1.8,0-3.1-1.4-3.1-3.3s1.3-3.3,3.1-3.3
	c1,0,1.9,0.6,2.4,1.5l1.8-0.9c-0.7-1.2-2-2.4-4.2-2.4c-3,0-5.3,2.1-5.3,5.2C859.4,166.2,861.7,168.3,864.7,168.3z M873.5,168.3
	c1.1,0,2.3-0.3,3-1l-0.8-1.2c-0.5,0.4-1.3,0.7-1.9,0.7c-1.2,0-2-0.8-2.1-1.7h5.4v-0.4c0-2.4-1.5-4-3.6-4c-2.2,0-3.8,1.7-3.8,3.8
	C869.6,166.9,871.3,168.3,873.5,168.3z M875.2,163.9h-3.6c0.1-0.7,0.6-1.6,1.8-1.6C874.6,162.2,875.1,163.2,875.2,163.9z
	 M880.3,168.2v-4.8c0.3-0.5,1.2-0.8,1.8-0.8c0.2,0,0.4,0,0.5,0v-1.9c-0.9,0-1.8,0.5-2.3,1.2v-1h-1.9v7.2H880.3z M886.2,168.3
	c0.8,0,1.3-0.2,1.6-0.5l-0.4-1.4c-0.1,0.1-0.4,0.2-0.7,0.2c-0.4,0-0.7-0.3-0.7-0.8v-3.3h1.5v-1.7h-1.5v-2h-1.9v2H883v1.7h1.2v3.8
	C884.2,167.6,884.9,168.3,886.2,168.3z M889.8,160.1c0.6,0,1.1-0.5,1.1-1.1c0-0.6-0.5-1.1-1.1-1.1c-0.6,0-1.1,0.5-1.1,1.1
	C888.7,159.6,889.2,160.1,889.8,160.1z M890.8,168.2v-7.2h-1.9v7.2H890.8z M895,168.2v-5.6h1.5v-1.7H895v-0.4c0-0.7,0.4-1,0.9-1
	c0.3,0,0.5,0.1,0.6,0.2l0.4-1.4c-0.3-0.2-0.8-0.3-1.4-0.3c-1.4,0-2.4,0.9-2.4,2.5v0.4h-1.2v1.7h1.2v5.6H895z M898.5,160.1
	c0.6,0,1.1-0.5,1.1-1.1c0-0.6-0.5-1.1-1.1-1.1c-0.6,0-1.1,0.5-1.1,1.1C897.4,159.6,897.9,160.1,898.5,160.1z M899.5,168.2v-7.2h-1.9
	v7.2H899.5z M904.7,168.3c1.5,0,2.4-0.6,2.9-1.3l-1.2-1.2c-0.3,0.5-0.9,0.8-1.5,0.8c-1.2,0-2-0.9-2-2.1s0.8-2.1,2-2.1
	c0.7,0,1.2,0.3,1.5,0.8l1.2-1.2c-0.5-0.7-1.4-1.3-2.9-1.3c-2.2,0-3.8,1.6-3.8,3.8C900.9,166.8,902.5,168.3,904.7,168.3z
	 M915.1,168.2v-4.7c0-2.1-1.5-2.7-3.2-2.7c-1.1,0-2.3,0.4-3.2,1.1l0.7,1.3c0.6-0.6,1.3-0.9,2.1-0.9c1,0,1.6,0.5,1.6,1.2v1
	c-0.5-0.6-1.3-0.9-2.3-0.9c-1.2,0-2.5,0.6-2.5,2.3c0,1.6,1.4,2.4,2.5,2.4c0.9,0,1.8-0.3,2.3-0.9v0.8H915.1z M911.7,167
	c-0.8,0-1.4-0.4-1.4-1.1c0-0.7,0.6-1.1,1.4-1.1c0.6,0,1.2,0.2,1.5,0.6v0.9C912.9,166.8,912.3,167,911.7,167z M920.4,171.1
	c0.9,0,1.7-0.5,1.7-1.3c0-0.6-0.5-1.1-1-1.1c-0.2,0-0.4,0.1-0.5,0.2l0.2-0.6c1.2-0.1,2-0.7,2.5-1.3l-1.2-1.2
	c-0.3,0.5-0.9,0.8-1.5,0.8c-1.2,0-2-0.9-2-2.1s0.8-2.1,2-2.1c0.7,0,1.2,0.3,1.5,0.8l1.2-1.2c-0.5-0.7-1.4-1.3-2.9-1.3
	c-2.2,0-3.8,1.6-3.8,3.8c0,2.1,1.3,3.6,3.3,3.8l-0.3,0.9l0.7,0.4c0.1-0.1,0.3-0.2,0.5-0.2c0.3,0,0.4,0.1,0.4,0.4
	c0,0.3-0.4,0.5-0.8,0.5c-0.4,0-0.8-0.1-1.2-0.4l-0.4,0.8C919.1,170.8,919.7,171.1,920.4,171.1z M930.7,168.2v-4.7
	c0-2.1-1.5-2.7-3.2-2.7c-1.1,0-2.3,0.4-3.2,1.1l0.7,1.3c0.6-0.6,1.3-0.9,2.1-0.9c1,0,1.6,0.5,1.6,1.2v1c-0.5-0.6-1.3-0.9-2.3-0.9
	c-1.2,0-2.5,0.6-2.5,2.3c0,1.6,1.4,2.4,2.5,2.4c0.9,0,1.8-0.3,2.3-0.9v0.8H930.7z M927.3,167c-0.8,0-1.4-0.4-1.4-1.1
	c0-0.7,0.6-1.1,1.4-1.1c0.6,0,1.2,0.2,1.5,0.6v0.9C928.5,166.8,927.9,167,927.3,167z M928.4,159.8c1,0,1.6-0.7,1.6-2h-1
	c0,0.6-0.2,0.9-0.5,0.9c-0.6,0-0.8-1-1.7-1c-1.1,0-1.6,0.7-1.6,2h1c0-0.6,0.2-0.9,0.5-0.9C927.2,158.8,927.4,159.8,928.4,159.8z
	 M936,168.3c2.4,0,3.8-1.7,3.8-3.8c0-2.1-1.4-3.8-3.8-3.8c-2.4,0-3.8,1.7-3.8,3.8C932.1,166.6,933.6,168.3,936,168.3z M936,166.6
	c-1.2,0-1.8-1-1.8-2.1c0-1.1,0.7-2.1,1.8-2.1s1.9,1,1.9,2.1C937.8,165.7,937.2,166.6,936,166.6z"/>
<path class="st23" d="M846.4,192.3c1.7,0,2.8-0.8,3.6-1.8l-1-0.5c-0.5,0.8-1.5,1.4-2.6,1.4c-2,0-3.6-1.6-3.6-3.8
	c0-2.2,1.6-3.8,3.6-3.8c1.1,0,2,0.6,2.6,1.4l1-0.5c-0.7-1.1-1.9-1.8-3.5-1.8c-2.7,0-4.8,2-4.8,4.8S843.7,192.3,846.4,192.3z
	 M854.3,192.3c2.1,0,3.3-1.6,3.3-3.6s-1.3-3.5-3.3-3.5c-2.1,0-3.3,1.6-3.3,3.5S852.3,192.3,854.3,192.3z M854.3,191.4
	c-1.4,0-2.3-1.2-2.3-2.6c0-1.4,0.8-2.6,2.3-2.6c1.4,0,2.2,1.2,2.2,2.6C856.6,190.2,855.8,191.4,854.3,191.4z M865,192.2v-4.7
	c0-1.5-0.7-2.2-2.2-2.2c-1,0-1.9,0.6-2.4,1.1v-1h-1v6.8h1v-4.9c0.4-0.5,1.2-1.1,2-1.1c0.9,0,1.5,0.4,1.5,1.6v4.4H865z M868.8,192.3
	c0.6,0,1-0.2,1.3-0.4l-0.3-0.8c-0.1,0.2-0.4,0.3-0.7,0.3c-0.5,0-0.7-0.4-0.7-0.9v-4.2h1.4v-0.9h-1.4v-1.8h-1.1v1.8h-1.1v0.9h1.1v4.4
	C867.3,191.8,867.8,192.3,868.8,192.3z M874.3,192.3c1.1,0,2-0.4,2.7-1l-0.5-0.7c-0.5,0.5-1.3,0.9-2.1,0.9c-1.5,0-2.4-1.1-2.4-2.3
	h5.5v-0.3c0-2-1.2-3.6-3.2-3.6c-1.9,0-3.3,1.6-3.3,3.5C870.8,190.9,872.3,192.3,874.3,192.3z M876.4,188.3h-4.4
	c0.1-1,0.8-2.3,2.2-2.3C875.7,186.1,876.4,187.3,876.4,188.3z M884.7,192.2v-6.8h-1v5c-0.4,0.5-1.2,1-2,1c-0.9,0-1.5-0.3-1.5-1.5
	v-4.5h-1v4.8c0,1.5,0.7,2.2,2.2,2.2c1,0,1.9-0.5,2.4-1.1v1H884.7z M892.8,192.2v-9.3h-1v3.6c-0.5-0.7-1.4-1.2-2.3-1.2
	c-1.8,0-3,1.4-3,3.6c0,2.2,1.2,3.5,3,3.5c1,0,1.8-0.5,2.3-1.2v1H892.8z M889.7,191.4c-1.4,0-2.2-1.1-2.2-2.6c0-1.5,0.8-2.6,2.2-2.6
	c0.8,0,1.7,0.5,2,1.1v3.1C891.3,190.9,890.5,191.4,889.7,191.4z M897.8,192.3c2.1,0,3.3-1.6,3.3-3.6s-1.3-3.5-3.3-3.5
	s-3.3,1.6-3.3,3.5S895.8,192.3,897.8,192.3z M897.8,191.4c-1.4,0-2.3-1.2-2.3-2.6c0-1.4,0.8-2.6,2.3-2.6s2.2,1.2,2.2,2.6
	C900.1,190.2,899.3,191.4,897.8,191.4z M911.8,192.2v-4.6c0-1.6-1.2-2.3-2.6-2.3c-1.1,0-2,0.4-2.7,1.1l0.5,0.7
	c0.6-0.6,1.3-0.9,2.1-0.9c1,0,1.7,0.5,1.7,1.4v1.2c-0.5-0.6-1.3-0.9-2.2-0.9c-1.1,0-2.4,0.7-2.4,2.2c0,1.5,1.2,2.2,2.4,2.2
	c0.9,0,1.7-0.3,2.2-0.9v0.8H911.8z M908.9,191.6c-1,0-1.7-0.6-1.7-1.5c0-0.9,0.7-1.5,1.7-1.5c0.7,0,1.5,0.3,1.9,0.8v1.3
	C910.3,191.3,909.6,191.6,908.9,191.6z M923.4,192.2v-9.3h-1v3.6c-0.5-0.7-1.4-1.2-2.3-1.2c-1.8,0-3,1.4-3,3.6c0,2.2,1.2,3.5,3,3.5
	c1,0,1.8-0.5,2.3-1.2v1H923.4z M920.3,191.4c-1.4,0-2.2-1.1-2.2-2.6c0-1.5,0.8-2.6,2.2-2.6c0.8,0,1.7,0.5,2,1.1v3.1
	C922,190.9,921.2,191.4,920.3,191.4z M928.6,192.3c1.1,0,2-0.4,2.7-1l-0.5-0.7c-0.5,0.5-1.3,0.9-2.1,0.9c-1.5,0-2.4-1.1-2.4-2.3h5.5
	v-0.3c0-2-1.2-3.6-3.2-3.6c-1.9,0-3.3,1.6-3.3,3.5C925.1,190.9,926.6,192.3,928.6,192.3z M930.7,188.3h-4.4c0.1-1,0.8-2.3,2.2-2.3
	C930,186.1,930.7,187.3,930.7,188.3z M936.4,192.3c1.2,0,2-0.5,2.5-1.2l-0.7-0.6c-0.4,0.6-1,0.9-1.7,0.9c-1.4,0-2.3-1.1-2.3-2.6
	s0.9-2.6,2.3-2.6c0.7,0,1.3,0.3,1.7,0.9l0.7-0.6c-0.5-0.7-1.2-1.2-2.5-1.2c-2,0-3.4,1.5-3.4,3.5C933,190.8,934.4,192.3,936.4,192.3z
	 M940.9,184.4c0.4,0,0.7-0.3,0.7-0.7c0-0.4-0.3-0.7-0.7-0.7c-0.4,0-0.7,0.3-0.7,0.7C940.2,184.1,940.5,184.4,940.9,184.4z
	 M941.4,192.2v-6.8h-1v6.8H941.4z M949.4,192.2v-9.3h-1.1v3.6c-0.5-0.7-1.4-1.2-2.3-1.2c-1.8,0-3,1.4-3,3.6c0,2.2,1.2,3.5,3,3.5
	c1,0,1.8-0.5,2.3-1.2v1H949.4z M946.4,191.4c-1.4,0-2.2-1.1-2.2-2.6c0-1.5,0.8-2.6,2.2-2.6c0.8,0,1.7,0.5,2,1.1v3.1
	C948,190.9,947.2,191.4,946.4,191.4z M952.1,184.4c0.4,0,0.7-0.3,0.7-0.7c0-0.4-0.3-0.7-0.7-0.7c-0.4,0-0.7,0.3-0.7,0.7
	C951.4,184.1,951.7,184.4,952.1,184.4z M952.6,192.2v-6.8h-1v6.8H952.6z M955.7,192.2v-4.8c0.3-0.5,1.2-1.1,1.8-1.1
	c0.2,0,0.3,0,0.4,0v-1.1c-0.9,0-1.7,0.5-2.3,1.2v-1.1h-1v6.8H955.7z"/>
<circle class="st20" cx="899.6" cy="113.2" r="25"/>
<g>
	<circle class="st0" cx="899.6" cy="113.2" r="20"/>
</g>
<path class="st25" d="M905.1,107.2l-7.5,7.7l-3.5-3.3l-2.5,2.5l6,5.8l10-10.2L905.1,107.2z"/>
<path class="st22" d="M872.6,70.2v-5.8h6.7v-2.1h-6.7v-3.4h6.8v-2.1h-9.1v13.3H872.6z M886,70.4c1.5,0,2.9-0.5,3.9-1.4l-1-1.4
	c-0.7,0.7-1.8,1.1-2.8,1.1c-1.8,0-2.9-1.2-3.1-2.7h7.4v-0.5c0-3-1.8-5.2-4.7-5.2c-2.9,0-4.9,2.3-4.9,5.1
	C880.9,68.4,883.1,70.4,886,70.4z M888.5,64.5h-5.4c0.1-1.2,0.9-2.5,2.7-2.5C887.7,62,888.5,63.4,888.5,64.5z M897.4,70.2l3.9-9.7
	h-2.2l-2.8,7.2l-2.8-7.2h-2.3l3.9,9.7H897.4z M917.1,70.2v-2.1h-5.9c3.6-2.7,5.8-4.9,5.8-7.4c0-2.7-2.2-4.1-4.8-4.1
	c-1.9,0-3.8,0.7-4.9,2.1l1.4,1.5c0.9-1,2-1.6,3.6-1.6c1.2,0,2.4,0.6,2.4,2c0,1.9-2,3.7-7.2,7.6v1.9H917.1z M929,70.2v-2.1h-5.9
	c3.6-2.7,5.8-4.9,5.8-7.4c0-2.7-2.2-4.1-4.8-4.1c-1.9,0-3.8,0.7-4.9,2.1l1.4,1.5c0.9-1,2-1.6,3.6-1.6c1.2,0,2.4,0.6,2.4,2
	c0,1.9-2,3.7-7.2,7.6v1.9H929z"/>
<path class="st22" d="M1074.7,168.3c2.2,0,3.5-1.2,4.2-2.5l-1.8-0.9c-0.4,0.8-1.3,1.5-2.4,1.5c-1.8,0-3.1-1.4-3.1-3.3
	s1.3-3.3,3.1-3.3c1,0,1.9,0.6,2.4,1.5l1.8-0.9c-0.7-1.2-2-2.4-4.2-2.4c-3,0-5.3,2.1-5.3,5.2C1069.3,166.2,1071.7,168.3,1074.7,168.3
	z M1083.4,168.3c2.4,0,3.8-1.7,3.8-3.8c0-2.1-1.4-3.8-3.8-3.8c-2.4,0-3.8,1.7-3.8,3.8C1079.6,166.6,1081,168.3,1083.4,168.3z
	 M1083.4,166.6c-1.2,0-1.8-1-1.8-2.1c0-1.1,0.7-2.1,1.8-2.1c1.2,0,1.9,1,1.9,2.1C1085.3,165.7,1084.6,166.6,1083.4,166.6z
	 M1095.5,168.2V163c0-1.4-0.8-2.3-2.4-2.3c-1.2,0-2.1,0.6-2.5,1.1v-0.9h-1.9v7.2h1.9v-4.9c0.3-0.4,0.9-0.9,1.7-0.9
	c0.8,0,1.3,0.3,1.3,1.4v4.4H1095.5z M1100.7,168.3c1.5,0,2.4-0.6,2.9-1.3l-1.2-1.2c-0.3,0.5-0.9,0.8-1.5,0.8c-1.2,0-2-0.9-2-2.1
	s0.8-2.1,2-2.1c0.7,0,1.2,0.3,1.5,0.8l1.2-1.2c-0.5-0.7-1.4-1.3-2.9-1.3c-2.2,0-3.8,1.6-3.8,3.8
	C1096.9,166.8,1098.5,168.3,1100.7,168.3z M1106.8,168.2v-10h-1.9v10H1106.8z M1115.4,168.2v-7.2h-1.9v4.9c-0.3,0.4-0.9,0.8-1.7,0.8
	c-0.8,0-1.3-0.3-1.3-1.3v-4.4h-1.9v5.1c0,1.4,0.8,2.3,2.3,2.3c1.2,0,2-0.5,2.5-1.1v0.9H1115.4z M1119.9,168.3c2,0,3.1-1,3.1-2.3
	c0-2.9-4.3-2-4.3-3.1c0-0.4,0.5-0.7,1.1-0.7c0.9,0,1.7,0.4,2.1,0.8l0.8-1.3c-0.7-0.6-1.7-1-2.9-1c-1.9,0-3,1.1-3,2.3
	c0,2.9,4.3,1.9,4.3,3.1c0,0.4-0.4,0.8-1.2,0.8c-0.9,0-2-0.5-2.5-1l-0.8,1.3C1117.5,167.9,1118.7,168.3,1119.9,168.3z M1130.7,168.2
	v-4.7c0-2.1-1.5-2.7-3.2-2.7c-1.1,0-2.3,0.4-3.2,1.1l0.7,1.3c0.6-0.6,1.3-0.9,2.1-0.9c1,0,1.6,0.5,1.6,1.2v1
	c-0.5-0.6-1.3-0.9-2.3-0.9c-1.2,0-2.5,0.6-2.5,2.3c0,1.6,1.4,2.4,2.5,2.4c0.9,0,1.8-0.3,2.3-0.9v0.8H1130.7z M1127.3,167
	c-0.8,0-1.4-0.4-1.4-1.1c0-0.7,0.6-1.1,1.4-1.1c0.6,0,1.2,0.2,1.5,0.6v0.9C1128.5,166.8,1127.9,167,1127.3,167z M1128.4,159.8
	c1.1,0,1.6-0.7,1.6-2h-1c0,0.6-0.2,0.9-0.5,0.9c-0.6,0-0.8-1-1.7-1c-1,0-1.6,0.7-1.6,2h1c0-0.6,0.2-0.9,0.5-0.9
	C1127.2,158.8,1127.4,159.8,1128.4,159.8z M1136,168.3c2.4,0,3.8-1.7,3.8-3.8c0-2.1-1.4-3.8-3.8-3.8c-2.4,0-3.8,1.7-3.8,3.8
	C1132.2,166.6,1133.6,168.3,1136,168.3z M1136,166.6c-1.2,0-1.9-1-1.9-2.1c0-1.1,0.7-2.1,1.9-2.1c1.2,0,1.9,1,1.9,2.1
	C1137.9,165.7,1137.2,166.6,1136,166.6z"/>
<path class="st23" d="M1061.2,192.2v-1h-5v-3.2h4.9v-1h-4.9v-3h5v-1h-6.1v9.3H1061.2z M1065.1,192.3c1.8,0,2.7-0.9,2.7-2
	c0-2.6-4.2-1.7-4.2-3.1c0-0.6,0.6-1.1,1.5-1.1c0.9,0,1.6,0.4,2,0.9l0.5-0.7c-0.5-0.5-1.4-1-2.5-1c-1.6,0-2.5,0.9-2.5,1.9
	c0,2.5,4.2,1.5,4.2,3.1c0,0.7-0.6,1.2-1.6,1.2c-0.9,0-1.8-0.4-2.2-1l-0.6,0.8C1063.1,192,1064,192.3,1065.1,192.3z M1072.5,192.3
	c1.2,0,2-0.5,2.5-1.2l-0.7-0.6c-0.4,0.6-1,0.9-1.7,0.9c-1.4,0-2.3-1.1-2.3-2.6s0.9-2.6,2.3-2.6c0.7,0,1.3,0.3,1.7,0.9l0.7-0.6
	c-0.5-0.7-1.2-1.2-2.5-1.2c-2,0-3.4,1.5-3.4,3.5C1069.1,190.8,1070.5,192.3,1072.5,192.3z M1077.5,192.2v-4.8
	c0.3-0.5,1.2-1.1,1.8-1.1c0.2,0,0.3,0,0.4,0v-1.1c-0.9,0-1.7,0.5-2.2,1.2v-1.1h-1.1v6.8H1077.5z M1081.6,184.4
	c0.4,0,0.7-0.3,0.7-0.7c0-0.4-0.3-0.7-0.7-0.7c-0.4,0-0.7,0.3-0.7,0.7C1080.9,184.1,1081.2,184.4,1081.6,184.4z M1082.1,192.2v-6.8
	h-1.1v6.8H1082.1z M1085.9,192.3c0.6,0,1-0.2,1.3-0.4l-0.3-0.8c-0.1,0.2-0.4,0.3-0.7,0.3c-0.5,0-0.7-0.4-0.7-0.9v-4.2h1.4v-0.9h-1.4
	v-1.8h-1.1v1.8h-1.1v0.9h1.1v4.4C1084.4,191.8,1084.9,192.3,1085.9,192.3z M1093.9,192.2v-6.8h-1v5c-0.4,0.5-1.2,1-2,1
	c-0.9,0-1.5-0.3-1.5-1.5v-4.5h-1.1v4.8c0,1.5,0.7,2.2,2.2,2.2c1,0,1.9-0.5,2.4-1.1v1H1093.9z M1097.1,192.2v-4.8
	c0.3-0.5,1.2-1.1,1.8-1.1c0.2,0,0.3,0,0.4,0v-1.1c-0.9,0-1.7,0.5-2.3,1.2v-1.1h-1.1v6.8H1097.1z M1105.9,192.2v-4.6
	c0-1.6-1.2-2.3-2.6-2.3c-1.1,0-2,0.4-2.7,1.1l0.5,0.7c0.6-0.6,1.3-0.9,2.1-0.9c1,0,1.7,0.5,1.7,1.4v1.2c-0.5-0.6-1.3-0.9-2.2-0.9
	c-1.2,0-2.4,0.7-2.4,2.2c0,1.5,1.2,2.2,2.4,2.2c0.9,0,1.7-0.3,2.2-0.9v0.8H1105.9z M1103,191.6c-1,0-1.7-0.6-1.7-1.5
	c0-0.9,0.7-1.5,1.7-1.5c0.7,0,1.5,0.3,1.9,0.8v1.3C1104.5,191.3,1103.7,191.6,1103,191.6z M1112.8,192.2v-3.7h2.6
	c1.8,0,2.9-1.3,2.9-2.8s-1.1-2.8-2.9-2.8h-3.8v9.3H1112.8z M1115.3,187.4h-2.4v-3.6h2.4c1.1,0,1.9,0.7,1.9,1.8
	S1116.4,187.4,1115.3,187.4z M1125,182.4h-1.1l-2.1,2h0.8L1125,182.4z M1125.5,192.2v-6.8h-1.1v5c-0.4,0.5-1.2,1-2,1
	c-0.9,0-1.5-0.3-1.5-1.5v-4.5h-1v4.8c0,1.5,0.7,2.2,2.2,2.2c1,0,1.9-0.5,2.4-1.1v1H1125.5z M1128.6,190.3v-3.1
	c0.4-0.6,1.2-1.1,2-1.1c1.4,0,2.2,1.1,2.2,2.6c0,1.5-0.8,2.6-2.2,2.6C1129.8,191.4,1129,190.9,1128.6,190.3z M1128.6,192.2v-1
	c0.5,0.7,1.3,1.2,2.3,1.2c1.8,0,3-1.3,3-3.5c0-2.2-1.2-3.6-3-3.6c-0.9,0-1.7,0.4-2.3,1.2v-3.6h-1.1v9.3H1128.6z M1136.7,192.2v-9.3
	h-1v9.3H1136.7z M1139.3,184.4c0.4,0,0.7-0.3,0.7-0.7c0-0.4-0.3-0.7-0.7-0.7c-0.4,0-0.7,0.3-0.7,0.7
	C1138.6,184.1,1138.9,184.4,1139.3,184.4z M1139.8,192.2v-6.8h-1.1v6.8H1139.8z M1144.9,192.3c1.2,0,2-0.5,2.5-1.2l-0.7-0.6
	c-0.4,0.6-1,0.9-1.7,0.9c-1.4,0-2.3-1.1-2.3-2.6s0.9-2.6,2.3-2.6c0.7,0,1.3,0.3,1.7,0.9l0.7-0.6c-0.5-0.7-1.2-1.2-2.5-1.2
	c-2,0-3.4,1.5-3.4,3.5C1141.5,190.8,1142.9,192.3,1144.9,192.3z M1154.1,192.2v-4.6c0-1.6-1.2-2.3-2.6-2.3c-1.1,0-2,0.4-2.7,1.1
	l0.5,0.7c0.6-0.6,1.3-0.9,2.1-0.9c1,0,1.7,0.5,1.7,1.4v1.2c-0.5-0.6-1.3-0.9-2.2-0.9c-1.1,0-2.4,0.7-2.4,2.2c0,1.5,1.2,2.2,2.4,2.2
	c0.9,0,1.7-0.3,2.2-0.9v0.8H1154.1z M1151.2,191.6c-1,0-1.7-0.6-1.7-1.5c0-0.9,0.7-1.5,1.7-1.5c0.7,0,1.5,0.3,1.9,0.8v1.3
	C1152.7,191.3,1151.9,191.6,1151.2,191.6z"/>
<g>
	<circle class="st21" cx="1104.6" cy="113.2" r="30"/>
	<circle class="st24" cx="1104.6" cy="113.2" r="27.5"/>
</g>
<path class="st0" d="M1096.9,118.2v-10h-1.9l-3.2,3.2l1.2,1.3l1.7-1.7v7.3H1096.9z M1102.5,118.3c2.1,0,4-0.9,4-2.8
	c0-1.2-1-2.1-2.2-2.6c1.1-0.4,2-1.1,2-2.4c0-1.9-2-2.6-3.9-2.6c-1.9,0-3.8,0.8-3.8,2.6c0,1.2,0.9,2,2,2.4c-1.2,0.4-2.2,1.4-2.2,2.6
	C1098.4,117.4,1100.4,118.3,1102.5,118.3z M1102.5,112.2c-0.6-0.1-1.7-0.4-1.7-1.2c0-0.7,0.7-1.1,1.7-1.1c1,0,1.7,0.4,1.7,1.1
	C1104.1,111.7,1103.1,112.1,1102.5,112.2z M1102.5,116.5c-1.1,0-1.9-0.5-1.9-1.2c0-0.8,1.2-1.2,1.9-1.3c0.6,0.1,1.9,0.5,1.9,1.3
	C1104.3,116,1103.5,116.5,1102.5,116.5z M1109.9,113c1.6,0,2.6-1.1,2.6-2.5c0-1.4-1-2.5-2.6-2.5c-1.5,0-2.5,1.1-2.5,2.5
	C1107.4,111.9,1108.4,113,1109.9,113z M1110.1,118.2l6.4-10h-1.1l-6.4,10H1110.1z M1115.5,118.3c1.5,0,2.5-1.1,2.5-2.5
	c0-1.4-1-2.5-2.5-2.5s-2.5,1.1-2.5,2.5C1112.9,117.3,1113.9,118.3,1115.5,118.3z M1109.9,111.8c-0.7,0-1.2-0.5-1.2-1.3
	c0-0.8,0.5-1.3,1.2-1.3c0.7,0,1.2,0.5,1.2,1.3C1111.1,111.3,1110.6,111.8,1109.9,111.8z M1115.5,117.2c-0.7,0-1.2-0.5-1.2-1.3
	c0-0.8,0.5-1.3,1.2-1.3c0.7,0,1.2,0.5,1.2,1.3C1116.7,116.7,1116.1,117.2,1115.5,117.2z"/>
<path class="st22" d="M1088.2,70.2V56.8h-3.3l-3.6,9.2l-3.6-9.2h-3.3v13.3h2.3V59.9l4.1,10.3h1l4.1-10.3v10.3H1088.2z M1099,70.2
	v-6.4c0-2.6-1.9-3.5-4-3.5c-1.5,0-2.9,0.5-4.1,1.6l0.9,1.5c0.8-0.8,1.8-1.2,2.9-1.2c1.3,0,2.3,0.7,2.3,1.8v1.4
	c-0.7-0.8-1.8-1.2-3.1-1.2c-1.6,0-3.3,0.9-3.3,3.2c0,2.1,1.8,3.2,3.3,3.2c1.3,0,2.4-0.5,3.1-1.3v1.1H1099z M1094.6,69
	c-1.2,0-2.1-0.7-2.1-1.7c0-1,0.9-1.7,2.1-1.7c0.9,0,1.8,0.3,2.3,1V68C1096.4,68.6,1095.5,69,1094.6,69z M1103.8,70.2v-6.6
	c0.4-0.7,1.6-1.3,2.5-1.3c0.3,0,0.5,0,0.6,0.1v-2.1c-1.2,0-2.4,0.7-3.1,1.6v-1.4h-2.1v9.7H1103.8z M1123.1,70.2v-2.1h-5.9
	c3.6-2.7,5.8-4.9,5.8-7.4c0-2.7-2.2-4.1-4.8-4.1c-1.9,0-3.8,0.7-4.9,2.1l1.4,1.5c0.9-1,2-1.6,3.6-1.6c1.2,0,2.4,0.6,2.4,2
	c0,1.9-2,3.7-7.2,7.6v1.9H1123.1z M1135,70.2v-2.1h-5.9c3.6-2.7,5.8-4.9,5.8-7.4c0-2.7-2.2-4.1-4.8-4.1c-1.9,0-3.8,0.7-4.9,2.1
	l1.4,1.5c0.9-1,2-1.6,3.6-1.6c1.2,0,2.4,0.6,2.4,2c0,1.9-2,3.7-7.2,7.6v1.9H1135z"/>
</svg>
