<?xml version="1.0" standalone="no"?>
<!DOCTYPE svg PUBLIC "-//W3C//DTD SVG 20010904//EN"
 "http://www.w3.org/TR/2001/REC-SVG-20010904/DTD/svg10.dtd">
<svg version="1.0" xmlns="http://www.w3.org/2000/svg"
 width="300.000000pt" height="300.000000pt" viewBox="0 0 300.000000 300.000000"
 preserveAspectRatio="xMidYMid meet">
<metadata>
Created by potrace 1.11, written by Peter Selinger 2001-2013
</metadata>
<g transform="translate(0.000000,300.000000) scale(0.100000,-0.100000)"
fill="#000000" stroke="none">
<path d="M0 1500 l0 -1500 1500 0 1500 0 0 1500 0 1500 -1500 0 -1500 0 0
-1500z m2902 437 c-45 -64 -174 -182 -265 -242 -162 -104 -267 -148 -569 -235
-207 -60 -339 -103 -410 -134 -21 -9 -54 -23 -74 -32 -20 -8 -34 -18 -31 -21
3 -3 52 -13 109 -23 57 -10 87 -19 68 -19 -19 -1 -77 6 -129 14 l-94 16 -80
-48 c-44 -26 -111 -74 -151 -106 l-71 -58 66 64 c37 36 95 84 129 107 45 30
59 45 49 50 -8 4 -54 15 -104 25 -110 22 -306 16 -549 -15 -363 -46 -592 -14
-696 96 l-35 37 36 -27 c102 -75 246 -89 619 -60 129 10 307 17 395 17 143 0
172 -3 272 -30 l112 -29 58 30 c118 60 243 110 443 176 402 134 710 289 872
440 29 27 54 49 56 50 2 0 -10 -19 -26 -43z"/>
</g>
</svg>
