<?xml version="1.0" encoding="utf-8"?>
<!-- Generator: Adobe Illustrator 16.0.0, SVG Export Plug-In . SVG Version: 6.00 Build 0)  -->
<!DOCTYPE svg PUBLIC "-//W3C//DTD SVG 1.1//EN" "http://www.w3.org/Graphics/SVG/1.1/DTD/svg11.dtd">
<svg version="1.1" id="Layer_1" xmlns="http://www.w3.org/2000/svg" xmlns:xlink="http://www.w3.org/1999/xlink" x="0px" y="0px"
	 width="244.535px" height="100px" viewBox="0 0 244.535 100" enable-background="new 0 0 244.535 100" xml:space="preserve">
<g>
	<path fill="#FFFFFF" d="M237.26,0.064c-0.123-0.102-0.305-0.081-0.406,0.045l-0.002,0.003c0,0-0.398,0.498-1.254,1.37
		c-0.428,0.43-0.943,0.974-1.592,1.573c-0.318,0.304-0.66,0.627-1.027,0.973c-0.377,0.335-0.783,0.688-1.207,1.063
		c-0.826,0.771-1.818,1.54-2.871,2.401c-1.021,0.892-2.244,1.731-3.482,2.684c-1.246,0.949-2.648,1.869-4.076,2.886
		c-0.709,0.516-1.492,0.977-2.271,1.473c-0.771,0.5-1.564,1.008-2.377,1.529c-3.291,2.009-6.91,4.084-10.824,6.131
		c-3.943,1.984-8.1,4.087-12.523,6.025c-1.094,0.506-2.197,1.02-3.307,1.536c-1.131,0.476-2.271,0.958-3.418,1.44
		c-2.297,0.947-4.586,2.045-6.963,2.893c-2.371,0.902-4.76,1.812-7.156,2.718c-2.477,0.814-4.963,1.628-7.453,2.442
		c-2.486,0.8-4.977,1.602-7.451,2.398c-1.25,0.403-2.504,0.801-3.742,1.2l-1.863,0.6l-1.834,0.665
		c-2.439,0.886-4.859,1.766-7.25,2.636c-2.355,0.962-4.686,1.912-6.975,2.849c-0.572,0.237-1.141,0.467-1.707,0.702
		c-0.559,0.257-1.111,0.513-1.664,0.766c-1.105,0.51-2.195,1.012-3.273,1.512c-1.078,0.514-2.168,0.961-3.191,1.516
		c-1.031,0.54-2.053,1.074-3.054,1.598c-1.006,0.535-2,1.039-2.969,1.572c-0.418,0.246-0.827,0.486-1.241,0.729
		c-0.043-0.008-0.086-0.019-0.129-0.027c-0.969-0.261-1.955-0.523-2.951-0.791c-1.996-0.528-4.042-1.071-6.137-1.625
		c-0.522-0.137-1.049-0.273-1.581-0.412c-0.544-0.137-1.095-0.272-1.646-0.409c-0.539-0.136-1.082-0.269-1.625-0.402
		c-0.57-0.105-1.141-0.212-1.721-0.32c-4.595-0.841-9.32-1.181-14.134-1.267c-4.807-0.082-9.678,0.094-14.516,0.376
		c-4.846,0.263-9.667,0.655-14.402,0.984c-4.713,0.341-9.35,0.675-13.84,0.996c-4.467,0.339-8.77,0.595-12.836,0.749
		c-4.059,0.126-7.893,0.087-11.387-0.21c-3.492-0.31-6.664-0.804-9.397-1.552c-0.684-0.184-1.326-0.414-1.958-0.609
		c-0.316-0.104-0.625-0.203-0.932-0.301c-0.289-0.123-0.576-0.244-0.857-0.363c-0.57-0.233-1.116-0.457-1.633-0.674
		c-0.502-0.262-0.977-0.514-1.426-0.754c-0.926-0.446-1.667-0.983-2.336-1.423c-0.332-0.227-0.655-0.419-0.926-0.626
		c-0.26-0.218-0.502-0.417-0.713-0.592c-0.871-0.709-1.33-1.092-1.33-1.092L0.4,47.628c-0.09-0.069-0.219-0.075-0.306-0.004
		c-0.108,0.087-0.125,0.24-0.043,0.345c0,0,0.384,0.48,1.095,1.38c0.182,0.225,0.383,0.478,0.608,0.76
		c0.24,0.262,0.529,0.52,0.83,0.818c0.608,0.58,1.281,1.3,2.178,1.919c0.439,0.33,0.898,0.68,1.383,1.043
		c0.52,0.313,1.059,0.645,1.621,0.986c0.287,0.17,0.578,0.342,0.876,0.518c0.307,0.148,0.624,0.301,0.944,0.454
		c0.642,0.3,1.306,0.644,2.013,0.937c2.828,1.156,6.155,2.095,9.831,2.73c0.918,0.138,1.859,0.313,2.816,0.426
		c0.958,0.113,1.938,0.22,2.934,0.332c1.988,0.134,4.048,0.267,6.154,0.305c4.221,0.114,8.651-0.066,13.198-0.401
		c4.544-0.356,9.203-0.914,13.912-1.515c4.709-0.604,9.483-1.166,14.252-1.645c4.766-0.462,9.535-0.816,14.219-0.915
		c4.669-0.097,9.302,0.071,13.626,0.695c0.539,0.077,1.074,0.152,1.612,0.233c0.547,0.111,1.091,0.223,1.634,0.337
		c0.531,0.108,1.057,0.218,1.582,0.325c0.542,0.121,1.078,0.24,1.609,0.359c2.133,0.468,4.223,0.925,6.254,1.373
		c0.288,0.06,0.566,0.119,0.85,0.18c-0.508,0.302-1.023,0.607-1.523,0.902c-0.863,0.563-1.709,1.115-2.542,1.66
		c-0.824,0.545-1.641,1.061-2.423,1.598c-0.766,0.561-1.516,1.105-2.242,1.639c-1.479,1.033-2.801,2.131-4.045,3.147
		c-2.498,2.03-4.5,4.008-6.099,5.681c-1.547,1.721-2.694,3.131-3.391,4.163c-0.362,0.503-0.617,0.917-0.781,1.198
		c-0.172,0.277-0.242,0.423-0.242,0.423l-0.012,0.026c-0.063,0.133-0.012,0.297,0.121,0.369c0.138,0.076,0.313,0.026,0.387-0.11
		c0,0,0.082-0.149,0.262-0.399c0.172-0.25,0.434-0.625,0.818-1.098c0.737-0.96,1.948-2.273,3.561-3.859
		c1.669-1.539,3.738-3.363,6.289-5.233c1.273-0.935,2.621-1.938,4.129-2.879c0.744-0.485,1.504-0.979,2.283-1.488
		c0.793-0.489,1.627-0.953,2.465-1.446c0.84-0.488,1.698-0.988,2.573-1.498c0.898-0.466,1.813-0.942,2.746-1.426
		c0.41-0.213,0.84-0.435,1.254-0.649c0.504,0.085,1.016,0.177,1.513,0.266c1.928,0.333,3.791,0.655,5.58,0.966
		c1.787,0.311,3.531,0.472,5.168,0.697c1.645,0.193,3.193,0.443,4.674,0.523c1.475,0.113,2.848,0.215,4.121,0.314
		c1.279,0.072,2.457,0.058,3.516,0.088c0.529,0.004,1.029,0.024,1.502,0.017c0.475-0.021,0.918-0.039,1.332-0.056
		c0.824-0.041,1.523-0.043,2.098-0.125c1.148-0.102,1.732-0.217,1.732-0.217l0.01-0.005c0.125-0.023,0.211-0.142,0.193-0.269
		c-0.018-0.135-0.143-0.23-0.273-0.211c0,0-0.602,0.081-1.711,0.115c-0.549,0.047-1.25,0.012-2.061,0.005
		c-0.404-0.005-0.846-0.013-1.309-0.021c-0.467-0.016-0.961-0.066-1.484-0.101c-1.047-0.087-2.207-0.144-3.461-0.282
		c-1.254-0.155-2.613-0.324-4.063-0.511c-1.455-0.145-2.98-0.47-4.602-0.741c-1.609-0.303-3.318-0.543-5.076-0.938
		c-1.424-0.317-2.906-0.651-4.423-0.992c0.527-0.243,1.064-0.485,1.599-0.734c2.027-0.929,4.09-1.915,6.273-2.774
		c1.084-0.445,2.176-0.897,3.281-1.354c0.553-0.229,1.105-0.455,1.664-0.686c0.568-0.209,1.139-0.417,1.709-0.624
		c2.289-0.827,4.615-1.668,6.969-2.52c2.391-0.759,4.807-1.527,7.242-2.301l1.832-0.581l1.859-0.512
		c1.242-0.343,2.486-0.688,3.734-1.031c2.516-0.697,5.039-1.398,7.563-2.099c2.527-0.694,5.049-1.391,7.563-2.082
		c2.525-0.807,5.039-1.61,7.531-2.409c2.521-0.752,4.924-1.706,7.32-2.603c1.199-0.457,2.389-0.916,3.568-1.363
		c1.164-0.496,2.309-1.016,3.449-1.522c2.254-1.066,4.523-1.998,6.617-3.195c2.105-1.158,4.219-2.185,6.15-3.43
		c1.941-1.223,3.871-2.331,5.65-3.554c1.758-1.263,3.49-2.415,5.072-3.642c3.188-2.429,5.957-4.846,8.295-7.107
		c2.322-2.28,4.232-4.381,5.674-6.22c0.359-0.457,0.701-0.892,1.021-1.298c0.303-0.426,0.584-0.824,0.846-1.193
		c0.531-0.729,0.945-1.387,1.268-1.924c0.648-1.065,0.943-1.679,0.943-1.679C237.396,0.295,237.365,0.148,237.26,0.064z"/>
	<g>
		<path fill="#FFFFFF" d="M170.984,92.226c0,2.638-0.602,4.592-1.797,5.867c-1.199,1.27-3.047,1.906-5.547,1.906
			c-1.553,0-3.025-0.346-4.412-1.039v-1.805c1.543,0.86,3.014,1.29,4.412,1.29c3.711,0,5.566-1.962,5.566-5.886v-1.707h-0.055
			c-1.094,1.87-2.758,2.805-4.998,2.805c-0.879,0-1.682-0.164-2.408-0.486c-0.727-0.323-1.35-0.792-1.865-1.402
			c-0.52-0.609-0.922-1.354-1.209-2.229c-0.287-0.873-0.43-1.86-0.43-2.963c0-1.166,0.152-2.229,0.459-3.186
			c0.305-0.958,0.738-1.778,1.303-2.463c0.566-0.684,1.248-1.215,2.049-1.59c0.799-0.374,1.699-0.563,2.699-0.563
			c2.008,0,3.473,0.816,4.4,2.443h0.055v-2.11h1.777V92.226z M169.207,84.691c0-0.592-0.107-1.152-0.318-1.68
			c-0.213-0.527-0.51-0.988-0.889-1.387s-0.832-0.715-1.354-0.953c-0.523-0.234-1.1-0.354-1.729-0.354
			c-0.74,0-1.408,0.144-2.006,0.432c-0.596,0.286-1.105,0.693-1.525,1.221c-0.422,0.526-0.746,1.17-0.973,1.922
			c-0.227,0.756-0.34,1.604-0.34,2.547c0,0.87,0.105,1.658,0.32,2.361c0.211,0.703,0.512,1.301,0.902,1.789
			c0.389,0.492,0.855,0.871,1.408,1.138c0.551,0.27,1.162,0.403,1.838,0.403c0.703,0,1.342-0.127,1.916-0.381
			c0.572-0.254,1.064-0.605,1.473-1.057c0.404-0.446,0.721-0.975,0.943-1.582c0.221-0.605,0.332-1.26,0.332-1.963V84.691z"/>
		<path fill="#FFFFFF" d="M183.754,93.325v-2.527h-0.055c-0.465,0.907-1.096,1.609-1.895,2.109c-0.803,0.5-1.707,0.751-2.715,0.751
			c-0.684,0-1.303-0.099-1.852-0.293c-0.553-0.193-1.02-0.469-1.402-0.825c-0.387-0.354-0.68-0.784-0.889-1.284
			s-0.313-1.049-0.313-1.65c0-1.285,0.396-2.313,1.193-3.074c0.795-0.765,2-1.261,3.609-1.492l4.316-0.625
			c0-2.729-1.061-4.096-3.178-4.096c-1.658,0-3.193,0.607-4.609,1.819v-1.942c0.295-0.213,0.633-0.406,1.006-0.577
			c0.375-0.171,0.771-0.319,1.188-0.445c0.416-0.125,0.844-0.22,1.285-0.29c0.438-0.069,0.867-0.105,1.283-0.105
			c1.582,0,2.777,0.445,3.588,1.333c0.809,0.89,1.215,2.212,1.215,3.972v9.243H183.754z M180.09,86.425
			c-0.639,0.094-1.186,0.208-1.639,0.348c-0.455,0.138-0.828,0.325-1.123,0.563c-0.297,0.235-0.514,0.527-0.652,0.875
			s-0.209,0.774-0.209,1.282c0,0.38,0.066,0.731,0.201,1.056c0.133,0.324,0.328,0.604,0.584,0.839
			c0.252,0.237,0.563,0.421,0.93,0.548c0.363,0.131,0.779,0.195,1.242,0.195c0.627,0,1.207-0.119,1.734-0.361
			c0.527-0.24,0.982-0.573,1.367-1c0.383-0.425,0.684-0.933,0.902-1.525c0.217-0.592,0.326-1.236,0.326-1.93v-1.402L180.09,86.425z"
			/>
		<path fill="#FFFFFF" d="M190.68,75.515c-0.344,0-0.637-0.117-0.887-0.359c-0.252-0.24-0.375-0.546-0.375-0.918
			c0-0.359,0.123-0.658,0.375-0.895c0.25-0.234,0.543-0.354,0.887-0.354c0.176,0,0.342,0.03,0.5,0.09
			c0.156,0.061,0.293,0.146,0.41,0.257c0.113,0.11,0.207,0.243,0.277,0.396s0.104,0.322,0.104,0.506c0,0.178-0.033,0.345-0.098,0.5
			c-0.064,0.16-0.156,0.297-0.277,0.41c-0.121,0.117-0.256,0.207-0.408,0.271C191.035,75.484,190.863,75.515,190.68,75.515z
			 M189.807,93.325V79.11h1.775v14.215H189.807z"/>
		<path fill="#FFFFFF" d="M201.229,93.325h-1.693l-5.439-14.215h1.957l3.928,10.827c0.238,0.658,0.391,1.235,0.457,1.735h0.057
			c0.111-0.665,0.252-1.226,0.43-1.68l4.066-10.883h1.902L201.229,93.325z"/>
		<path fill="#FFFFFF" d="M215.055,93.658c-1.055,0-2.002-0.178-2.84-0.528c-0.838-0.349-1.553-0.849-2.145-1.491
			c-0.594-0.643-1.045-1.414-1.359-2.313c-0.316-0.896-0.473-1.889-0.473-2.982c0-1.184,0.166-2.244,0.5-3.18
			c0.332-0.933,0.807-1.729,1.424-2.381c0.613-0.652,1.355-1.146,2.227-1.492c0.869-0.341,1.842-0.514,2.914-0.514
			c1.029,0,1.953,0.172,2.777,0.508c0.822,0.338,1.521,0.825,2.096,1.465c0.572,0.637,1.014,1.414,1.318,2.332
			c0.305,0.915,0.459,1.957,0.459,3.123c0,1.109-0.16,2.12-0.48,3.031c-0.318,0.912-0.775,1.697-1.367,2.354
			c-0.592,0.657-1.314,1.165-2.164,1.527C217.09,93.477,216.127,93.658,215.055,93.658z M215.193,80.318
			c-0.779,0-1.482,0.136-2.111,0.402c-0.629,0.27-1.168,0.66-1.615,1.174c-0.451,0.513-0.795,1.143-1.035,1.887
			c-0.24,0.746-0.361,1.59-0.361,2.535c0,0.887,0.121,1.688,0.361,2.399c0.24,0.714,0.58,1.324,1.02,1.833
			c0.439,0.51,0.975,0.9,1.604,1.172c0.629,0.275,1.334,0.41,2.109,0.41c0.795,0,1.5-0.133,2.111-0.396s1.127-0.647,1.555-1.152
			c0.424-0.503,0.744-1.121,0.963-1.853c0.219-0.73,0.326-1.563,0.326-2.499c0-1.915-0.426-3.379-1.275-4.392
			C217.992,80.825,216.775,80.318,215.193,80.318z"/>
		<path fill="#FFFFFF" d="M231.641,93.158c-0.609,0.305-1.277,0.459-1.998,0.459c-2.297,0-3.443-1.323-3.443-3.972v-8.979h-2.498
			V79.11h2.498v-3.581l1.777-0.582v4.163h3.664v1.556h-3.664v8.702c0,0.964,0.156,1.657,0.471,2.082
			c0.314,0.427,0.848,0.64,1.598,0.64c0.555,0,1.086-0.168,1.596-0.5V93.158z"/>
		<path fill="#FFFFFF" d="M242.76,93.325v-2.527h-0.057c-0.463,0.907-1.094,1.609-1.895,2.109s-1.705,0.751-2.715,0.751
			c-0.684,0-1.301-0.099-1.852-0.293c-0.551-0.193-1.02-0.469-1.402-0.825c-0.385-0.354-0.68-0.784-0.889-1.284
			c-0.207-0.5-0.313-1.049-0.313-1.65c0-1.285,0.398-2.313,1.195-3.074c0.793-0.765,1.998-1.261,3.607-1.492l4.318-0.625
			c0-2.729-1.061-4.096-3.18-4.096c-1.656,0-3.193,0.607-4.607,1.819v-1.942c0.295-0.213,0.631-0.406,1.006-0.577
			s0.77-0.319,1.188-0.445c0.416-0.125,0.842-0.22,1.283-0.29c0.439-0.069,0.867-0.105,1.283-0.105c1.584,0,2.777,0.445,3.588,1.333
			c0.809,0.89,1.215,2.212,1.215,3.972v9.243H242.76z M239.094,86.425c-0.639,0.094-1.184,0.208-1.637,0.348
			c-0.455,0.138-0.83,0.325-1.125,0.563c-0.297,0.235-0.514,0.527-0.652,0.875s-0.207,0.774-0.207,1.282
			c0,0.38,0.064,0.731,0.199,1.056s0.328,0.604,0.584,0.839c0.254,0.237,0.564,0.421,0.93,0.548
			c0.365,0.131,0.779,0.195,1.242,0.195c0.629,0,1.207-0.119,1.736-0.361c0.527-0.24,0.98-0.573,1.367-1
			c0.383-0.425,0.684-0.933,0.902-1.525c0.215-0.592,0.326-1.236,0.326-1.93v-1.402L239.094,86.425z"/>
	</g>
</g>
</svg>
