<?xml version="1.0" encoding="utf-8"?>
<!-- Generator: Adobe Illustrator 16.0.0, SVG Export Plug-In . SVG Version: 6.00 Build 0)  -->
<!DOCTYPE svg PUBLIC "-//W3C//DTD SVG 1.1//EN" "http://www.w3.org/Graphics/SVG/1.1/DTD/svg11.dtd">
<svg version="1.1" id="Layer_1" xmlns="http://www.w3.org/2000/svg" xmlns:xlink="http://www.w3.org/1999/xlink" x="0px" y="0px"
	 width="42.857px" height="50px" viewBox="0 0 42.857 50" enable-background="new 0 0 42.857 50" xml:space="preserve">
<g>
	<path opacity="0.3" fill="#808080" d="M25.241,45.284h-7.625c-4.21,0-7.623,0.604-7.623,1.348v1.347
		c0,0.744,3.413,1.348,7.623,1.348c2.106,0,3.813,0.302,3.813,0.674c0-0.372,1.706-0.674,3.813-0.674
		c4.21,0,7.623-0.604,7.623-1.348v-1.347C32.864,45.888,29.451,45.284,25.241,45.284z"/>
	<path fill="#00ADEE" d="M28.571,0H14.286C6.396,0,0,6.396,0,14.286v14.285c0,7.89,6.396,14.286,14.286,14.286
		c3.945,0,7.143,3.197,7.143,7.143c0-3.945,3.197-7.143,7.143-7.143c7.891,0,14.286-6.396,14.286-14.286V14.286
		C42.857,6.396,36.462,0,28.571,0z"/>
	<path fill="#FFFFFF" d="M36.698,16.188c-0.018-0.014-0.038-0.008-0.054,0.006l0,0c0,0-0.052,0.066-0.163,0.178
		c-0.058,0.059-0.125,0.127-0.21,0.207c-0.041,0.039-0.084,0.082-0.132,0.125c-0.049,0.047-0.103,0.092-0.157,0.141
		c-0.109,0.1-0.238,0.203-0.375,0.314c-0.134,0.113-0.293,0.223-0.455,0.348c-0.163,0.125-0.345,0.246-0.53,0.379
		c-0.095,0.066-0.195,0.125-0.299,0.189c-0.099,0.068-0.205,0.133-0.311,0.199c-0.43,0.264-0.901,0.533-1.413,0.803
		c-0.514,0.258-1.055,0.533-1.633,0.787c-0.142,0.064-0.286,0.131-0.43,0.197c-0.147,0.064-0.296,0.125-0.447,0.189
		c-0.3,0.123-0.598,0.266-0.907,0.377c-0.311,0.117-0.623,0.236-0.935,0.354c-0.323,0.107-0.647,0.215-0.971,0.32
		c-0.326,0.104-0.651,0.209-0.974,0.313c-0.164,0.055-0.326,0.105-0.487,0.156l-0.245,0.08l-0.239,0.084
		c-0.317,0.119-0.632,0.229-0.946,0.346c-0.306,0.127-0.61,0.25-0.908,0.371c-0.075,0.031-0.149,0.061-0.224,0.092
		c-0.072,0.033-0.145,0.066-0.217,0.1c-0.146,0.064-0.288,0.133-0.427,0.199c-0.142,0.066-0.283,0.123-0.417,0.197
		c-0.134,0.07-0.267,0.139-0.399,0.209c-0.13,0.068-0.26,0.137-0.388,0.205c-0.054,0.029-0.105,0.063-0.159,0.094
		c-0.007,0-0.013-0.004-0.02-0.004c-0.127-0.033-0.254-0.068-0.384-0.102c-0.261-0.07-0.526-0.139-0.802-0.211
		c-0.066-0.02-0.136-0.039-0.205-0.057c-0.072-0.018-0.142-0.037-0.214-0.055c-0.069-0.018-0.144-0.033-0.213-0.051
		c-0.075-0.016-0.147-0.027-0.224-0.041c-0.603-0.111-1.22-0.154-1.845-0.168c-0.626-0.008-1.264,0.014-1.895,0.053
		c-0.632,0.033-1.261,0.084-1.88,0.127c-0.614,0.045-1.22,0.088-1.806,0.129c-0.582,0.045-1.143,0.08-1.676,0.098
		c-0.527,0.018-1.029,0.012-1.485-0.027c-0.453-0.039-0.868-0.104-1.226-0.203c-0.091-0.023-0.172-0.051-0.253-0.078
		c-0.043-0.012-0.084-0.027-0.125-0.041c-0.036-0.014-0.075-0.029-0.111-0.043c-0.072-0.035-0.145-0.063-0.211-0.092
		c-0.067-0.033-0.129-0.066-0.188-0.098c-0.121-0.057-0.218-0.125-0.303-0.188c-0.045-0.025-0.087-0.053-0.12-0.078
		c-0.037-0.029-0.067-0.055-0.094-0.078c-0.115-0.094-0.173-0.143-0.173-0.143l-0.003-0.002c-0.013-0.01-0.03-0.01-0.043,0
		c-0.013,0.012-0.015,0.029-0.002,0.043c0,0,0.048,0.063,0.142,0.18c0.025,0.029,0.049,0.064,0.079,0.1
		c0.029,0.033,0.069,0.068,0.108,0.105c0.079,0.078,0.167,0.17,0.285,0.252c0.057,0.041,0.116,0.088,0.178,0.137
		c0.069,0.041,0.139,0.084,0.211,0.129c0.039,0.021,0.077,0.047,0.116,0.066c0.038,0.023,0.081,0.041,0.123,0.061
		c0.082,0.039,0.17,0.082,0.263,0.121c0.37,0.152,0.803,0.273,1.284,0.357C8.655,23.963,8.779,23.984,8.903,24
		c0.126,0.016,0.254,0.031,0.384,0.045c0.261,0.016,0.526,0.033,0.801,0.039c0.552,0.016,1.129-0.01,1.726-0.053
		c0.591-0.047,1.2-0.119,1.813-0.197c0.614-0.078,1.237-0.152,1.86-0.215c0.62-0.061,1.244-0.105,1.854-0.117
		c0.606-0.016,1.213,0.008,1.778,0.09c0.069,0.01,0.139,0.018,0.21,0.031c0.071,0.012,0.144,0.025,0.213,0.039
		c0.07,0.018,0.137,0.033,0.206,0.045c0.069,0.018,0.142,0.033,0.211,0.049c0.278,0.059,0.551,0.121,0.814,0.178
		c0.04,0.008,0.075,0.016,0.112,0.023c-0.067,0.041-0.134,0.078-0.2,0.117c-0.111,0.072-0.22,0.146-0.329,0.217
		c-0.109,0.072-0.215,0.139-0.317,0.209c-0.101,0.072-0.197,0.145-0.294,0.213c-0.19,0.137-0.362,0.277-0.526,0.412
		c-0.327,0.264-0.587,0.523-0.795,0.74c-0.203,0.225-0.352,0.41-0.445,0.543c-0.045,0.064-0.078,0.121-0.101,0.156
		c-0.022,0.037-0.033,0.055-0.033,0.055v0.004c-0.008,0.018-0.002,0.037,0.016,0.047c0.018,0.014,0.04,0.006,0.052-0.012
		c0,0,0.01-0.021,0.033-0.055c0.021-0.031,0.058-0.082,0.105-0.141c0.098-0.125,0.255-0.297,0.466-0.506
		c0.218-0.199,0.487-0.439,0.821-0.68c0.165-0.125,0.341-0.256,0.537-0.379c0.1-0.063,0.197-0.127,0.301-0.193
		c0.102-0.064,0.211-0.123,0.319-0.188c0.109-0.064,0.224-0.131,0.336-0.197c0.118-0.061,0.235-0.121,0.36-0.184
		c0.052-0.027,0.108-0.059,0.163-0.086c0.065,0.01,0.133,0.021,0.197,0.033c0.25,0.045,0.495,0.088,0.728,0.127
		s0.461,0.061,0.675,0.09c0.215,0.025,0.415,0.061,0.608,0.07c0.194,0.012,0.371,0.029,0.539,0.039
		c0.164,0.01,0.318,0.01,0.459,0.012c0.068,0,0.133,0.004,0.197,0.004c0.059-0.004,0.117-0.006,0.172-0.008
		c0.108-0.004,0.199-0.008,0.272-0.016c0.149-0.014,0.227-0.031,0.227-0.031h0.003c0.015-0.004,0.027-0.018,0.023-0.033
		c-0.003-0.018-0.018-0.029-0.036-0.027c0,0-0.077,0.01-0.225,0.014c-0.069,0.008-0.161,0.002-0.265,0.002
		c-0.055-0.002-0.113-0.002-0.172-0.002c-0.063-0.004-0.124-0.01-0.193-0.014c-0.137-0.012-0.288-0.02-0.452-0.039
		c-0.162-0.018-0.341-0.043-0.532-0.064c-0.188-0.02-0.387-0.063-0.598-0.098c-0.213-0.039-0.433-0.07-0.664-0.121
		c-0.185-0.043-0.378-0.086-0.576-0.129c0.069-0.031,0.139-0.064,0.209-0.098c0.265-0.121,0.534-0.248,0.818-0.361
		c0.139-0.057,0.284-0.117,0.426-0.178c0.072-0.029,0.146-0.059,0.219-0.086c0.076-0.029,0.148-0.057,0.224-0.084
		c0.3-0.109,0.603-0.217,0.911-0.328c0.312-0.102,0.626-0.201,0.941-0.301l0.24-0.076l0.241-0.066
		c0.164-0.045,0.325-0.09,0.488-0.137c0.329-0.09,0.659-0.18,0.985-0.271c0.333-0.09,0.659-0.18,0.988-0.271
		c0.33-0.107,0.657-0.213,0.983-0.316c0.327-0.096,0.642-0.223,0.956-0.336c0.154-0.061,0.309-0.121,0.463-0.18
		c0.155-0.063,0.302-0.133,0.451-0.199c0.293-0.139,0.589-0.26,0.864-0.418c0.272-0.15,0.551-0.285,0.803-0.449
		c0.253-0.156,0.504-0.301,0.738-0.461c0.226-0.164,0.453-0.316,0.662-0.475c0.414-0.318,0.774-0.633,1.079-0.93
		c0.307-0.295,0.553-0.57,0.741-0.809c0.049-0.063,0.09-0.117,0.134-0.17c0.038-0.055,0.075-0.109,0.111-0.156
		c0.068-0.094,0.123-0.18,0.163-0.25c0.084-0.141,0.124-0.219,0.124-0.219C36.714,16.217,36.711,16.199,36.698,16.188z"/>
</g>
</svg>
