<?xml version="1.0" encoding="utf-8"?>
<!-- Generator: Adobe Illustrator 24.1.0, SVG Export Plug-In . SVG Version: 6.00 Build 0)  -->
<svg version="1.1" id="Layer_1" xmlns="http://www.w3.org/2000/svg" xmlns:xlink="http://www.w3.org/1999/xlink" x="0px" y="0px"
	 viewBox="0 0 294.6 240.6" style="enable-background:new 0 0 294.6 240.6;" xml:space="preserve">
<style type="text/css">
	.st0{fill:#336666;}
</style>
<g>
	<path class="st0" d="M270,19.4c-0.4-10.6-9-19.2-19.6-19.3c-1,0-2-0.1-3-0.1H35.6c-5.1,0-10.2,0.1-15.3,0.1C14.6,0.1,9,2.2,5.1,6.6
		c-3.6,4-5.1,9-5.1,14.4v169c0,2,0,3.9,0,5.9c0,7.3,3.7,14.1,10.1,17.7c6.1,3.3,13.6,2.5,20.3,2.5h141.4c-0.6-1.1-1.2-2.3-1.8-3.5
		c-0.5-1.2-1.1-2.3-1.5-3.5c-9.2-23-6.1-50.6,9.2-70.6c8.6-11.3,19.9-19.8,33.2-24.8c14.5-5.5,31-5.9,45.8-1.4
		c2.1,0.6,4.2,1.4,6.3,2.2c1.2,0.5,2.3,1,3.5,1.5c1.2,0.6,2.5,1.2,3.5,1.8v-98C270,19.6,270,19.5,270,19.4z M237.1,52.1
		c-4,2.4-7.9,4.8-11.9,7.2c-17.4,10.5-34.7,20.9-52.1,31.4c-11,6.6-22,13.3-33,19.9c-3.1,1.9-7.5,2-10.6,0c-4-2.5-7.9-4.9-11.9-7.4
		c-17.4-10.9-34.8-21.7-52.2-32.6C54.5,63.7,43.6,56.8,32.7,50c-5-3.1-6.5-9.2-3.8-14.4c2.6-4.9,9.7-6.7,14.4-3.8
		c4,2.5,7.9,4.9,11.9,7.4c17.4,10.9,34.8,21.7,52.2,32.6c9.2,5.7,18.3,11.5,27.5,17.2c2.2-1.3,4.3-2.6,6.5-3.9
		c17.4-10.5,34.7-20.9,52.1-31.4c11-6.6,22-13.3,33-19.9c5.1-3.1,11.3-0.9,14.4,3.8C244,42.5,241.8,49.2,237.1,52.1z"/>
	<path class="st0" d="M294.3,176.5c-0.1-0.8-0.1-1.6-0.2-2.3c-0.1-0.2-0.1-0.8-0.1-1c-0.6-3.4-1.4-6.8-2.5-10
		c-0.3-0.8-0.6-1.6-0.8-2.4c-0.1-0.4-0.3-0.8-0.5-1.2c0,0,0,0,0,0l0,0c-0.1-0.3-0.3-0.5-0.4-0.6l0,0c-0.6-1.1-1-2.5-1.5-3.5
		c-1.5-3-3.3-5.9-5.3-8.6c-0.2-0.2-0.4-0.5-0.6-0.8c-0.1-0.1-0.1-0.1-0.2-0.2c-0.5-0.6-1.1-1.3-1.6-1.9c-1-1.1-2-2.2-3.1-3.3
		c-1.2-1.3-2.5-2.5-3.9-3.6c-0.6-0.5-1.2-1-1.7-1.4c-0.1-0.1-0.1-0.1-0.2-0.1c0.1,0,0.1,0.1,0.2,0.1c0.1,0.1,0.1,0.1,0.2,0.1
		c-0.1-0.1-0.6-0.5-0.6-0.5c0,0,0.1,0.1,0.2,0.2c-0.2-0.2-0.5-0.4-0.8-0.6c-2.6-1.9-5.3-3.6-8.1-5.1c-1.1-0.6-2.1-1.1-3.2-1.6
		c-0.2-0.1-0.4-0.2-0.6-0.3c0,0,0,0,0,0c-0.2-0.1-0.5-0.2-0.7-0.3c-1.8-0.7-3.6-1.3-5.4-1.9c-1.9-0.6-3.9-1.1-5.9-1.5
		c-1-0.2-2-0.4-3.1-0.5c0,0,0,0-0.1,0h0c0,0,0,0-0.1,0c-0.1,0-0.1,0-0.2,0c0,0,0,0-0.1,0c0,0,0,0-0.1,0c0,0-0.1,0-0.1,0h0
		c0,0,0,0-0.1,0h0c-0.2,0-0.4,0-0.5-0.1c-3.8-0.4-7.5-0.5-11.3-0.2c-0.8,0-1.6,0.1-2.4,0.2c-0.1,0-0.3,0-0.5,0c0,0-0.1,0-0.5,0.1
		c-1.4,0.2-2.8,0.5-4.2,0.8c-3.1,0.7-6.1,1.5-9,2.6c-0.6,0.2-1.7,0.4-2.2,0.8c0.4-0.1,0.6-0.2,0.7-0.3c-0.1,0-0.2,0.1-0.3,0.1
		s-0.3,0.1-0.4,0.2c-0.3,0.1-0.6,0.2-0.8,0.4c-1.3,0.6-2.5,1.2-3.7,1.9c-2.7,1.5-5.3,3.1-7.8,5c-0.2,0.1-0.4,0.3-0.6,0.4l0,0l0,0
		c-0.1,0.1-0.1,0.1-0.1,0.1c-0.6,0.5-1.2,1-1.8,1.5c-1.1,0.9-2.1,1.9-3.2,2.9c-1.1,1.1-2.1,2.2-3.2,3.3c-0.5,0.5-0.9,1.1-1.3,1.6
		c-0.2,0.3-0.5,0.6-0.7,0.9c0,0,0.1-0.1,0.1-0.1c0.9-1.3-0.8,0.9-0.1,0.1c-1.8,2.3-3.4,4.8-4.8,7.4c-0.8,1.3-1.5,2.7-2.1,4.1
		c-0.1,0.3-0.5,0.8-0.7,1.2c0,0.1,0,0.3-0.1,0.5c-0.1,0.4-0.3,0.7-0.4,1.1c-1.1,2.8-2,5.8-2.7,8.8c-0.4,1.5-0.6,3.1-0.9,4.6
		c0,0,0-0.1,0-0.1c0,0.1,0,0.1,0,0.2c0,0.1,0,0.2,0,0.3l0,0c0,0.2,0,0.3-0.1,0.5c-0.1,0.8-0.2,1.6-0.2,2.4
		c-0.3,3.6-0.2,7.3,0.1,10.9c0.1,0.6,0.1,1.2,0.2,1.9c0,0,0,0.1,0,0.1c-0.2-1.5,0.1,0.9,0,0c0,0,0,0.1,0,0.2c0.2,1,0.3,2,0.5,3
		c0.4,1.8,0.8,3.6,1.3,5.3c0.6,1.9,1.2,3.8,2,5.7c0,0,0.3,0.7,0.4,1c-0.1-0.1-0.1-0.3-0.2-0.4c0,0,0,0.1,0.1,0.2
		c0.1,0.2,0.1,0.3,0.1,0.3c0.1,0.3,0.2,0.5,0.2,0.5c0.4,0.8,0.8,1.6,1.2,2.4c1.5,2.9,3.2,5.8,5.2,8.5c0.3,0.4,0.6,0.8,0.8,1.1l0,0
		c0.5,0.6,0.9,1.2,1.4,1.8c1,1.2,2.1,2.4,3.2,3.5c1.2,1.3,2.5,2.5,3.8,3.6c0.5,0.4,1,0.9,1.5,1.3c0,0,0.1,0.1,0.2,0.2
		c0.2,0.2,0.4,0.4,0.5,0.4c-0.1-0.1-0.2-0.2-0.4-0.3c0.2,0.2,0.4,0.3,0.6,0.5c2.6,1.9,5.4,3.7,8.3,5.2c1.4,0.7,2.9,1.6,4.3,2.1
		c-0.1-0.1-0.2-0.1-0.3-0.1c0.1,0,0.2,0.1,0.5,0.2c0.3,0.1,0.6,0.2,0.9,0.4c0.8,0.3,1.6,0.6,2.4,0.9c3.2,1.1,6.5,1.9,9.7,2.5
		c0.3,0.1,0.6,0.1,1,0.2l0,0c0,0,0.2,0,0.6,0.1c0.9,0.1,1.8,0.2,2.6,0.3c1.6,0.1,3.2,0.2,4.8,0.2c1.6,0,3.3,0,4.9-0.1
		c0.8-0.1,1.6-0.1,2.4-0.2c0.3,0,0.6-0.1,0.9-0.1c-0.1,0-0.1,0-0.2,0c-1.1,0.2,1.8-0.2,0.2,0c3-0.5,5.9-1.1,8.8-1.9
		c1.5-0.5,3-0.9,4.5-1.5c0.4-0.1,0.9-0.3,1.4-0.5c0,0,0.1-0.1,0.4-0.2c0.4-0.2,0.8-0.4,1.3-0.6c2.7-1.2,5.2-2.6,7.7-4.2
		c1.3-0.8,2.6-1.7,3.8-2.6c0.2-0.1,0.4-0.3,0.6-0.5l0,0l0,0c0.1-0.1,0.1-0.1,0.1-0.1c0.6-0.5,1.2-1,1.8-1.5c2.2-1.9,4.2-4,6.2-6.1
		c0.6-0.7,1.2-1.4,1.8-2.1c0,0,0.1-0.1,0.2-0.2c-0.3,0.5,0.3-0.1,0.4-0.5c0,0.1-0.2,0.3-0.4,0.5c0,0,0.1-0.1,0.1-0.2
		c0.9-1.2,1.8-2.5,2.6-3.8c1.6-2.5,3-5,4.3-7.6c0.2-0.4,0.4-0.8,0.6-1.3c0.1-0.3,0.2-0.6,0.4-0.8c-0.1,0.3-0.2,0.6-0.4,0.8
		c0.4-0.4,0.5-1.2,0.7-1.7c0.6-1.5,1.1-2.9,1.5-4.4c0.9-2.9,1.5-5.8,2-8.8c0-0.3,0.1-0.6,0.1-0.9c0,0.3-0.1,0.6-0.1,0.9
		c0.2-0.2,0.1-1.1,0.2-1.4c0.1-0.6,0.1-1.3,0.2-1.9c0.1-1.6,0.2-3.3,0.2-4.9C294.6,180.1,294.5,178.3,294.3,176.5z M260.6,171.1
		c5.9,0,10.3,4.8,10.5,10.5c0.3,5.7-5,10.5-10.5,10.5h-49.3c-5.9,0-10.3-4.8-10.5-10.5c-0.2-5.7,5-10.5,10.5-10.5H260.6z"/>
</g>
</svg>
