<?xml version="1.0" encoding="utf-8"?>
<!-- Generator: Adobe Illustrator 24.1.0, SVG Export Plug-In . SVG Version: 6.00 Build 0)  -->
<svg version="1.1" id="Layer_1" xmlns="http://www.w3.org/2000/svg" xmlns:xlink="http://www.w3.org/1999/xlink" x="0px" y="0px"
	 viewBox="0 0 101 111.1" style="enable-background:new 0 0 101 111.1;" xml:space="preserve">
<style type="text/css">
	.st0{fill:#FFFFFF;}
	.st1{fill-rule:evenodd;clip-rule:evenodd;fill:#FFFFFF;}
	.st2{fill:#C4C4C4;}
	.st3{opacity:0.2;}
	.st4{fill:#B7D8AF;}
	.st5{fill:#814494;}
	.st6{fill:#C892C1;}
	.st7{fill:#86BACB;}
	.st8{opacity:0.2;fill:#EE8B75;enable-background:new    ;}
	.st9{fill:#4075B7;}
	.st10{fill:#DFA819;}
	.st11{fill:#EBEBEB;}
	.st12{fill:#D7D5D5;}
	.st13{fill:#DAB2D5;}
	.st14{clip-path:url(#SVGID_2_);}
	.st15{fill:url(#SVGID_3_);}
	.st16{fill:#D7AED2;}
	.st17{fill:#C7DDB6;}
	.st18{fill:#3E98BB;}
</style>
<g>
	<path class="st18" d="M1,11.2v19.9h10.3V10.2c0-0.7,0.4-1.4,1.1-1.9c0.7-0.6,1.4-0.9,2.3-0.9c1,0,1.7,0.3,2.5,0.9
		c0.7,0.5,1,1.2,1,1.9v7c0,6.2,0,10.1,0,12c-0.2,4.2-2.2,8.1-6.2,11.3c-3.9,3.2-6.7,6.2-8.6,9.4C1.8,52.6,0.8,55.6,0.8,68v9.2h27.6
		V69H11.1V57.8c0-1.9,1-4,2.9-6.4c1.4-1.7,6.6-6.1,6.6-6.1c4.2-3.7,6.8-8,7.7-13c0.2-1.4,0.3-2.9,0.3-4.4l0.1-9.6l-0.1-4.7v-2.3
		c0-3.2-1.3-5.7-4-7.9c-2.7-2.2-6-3.3-9.8-3.3C11,0,7.7,1.1,5,3.3C2.3,5.5,1,8.1,1,11.2z"/>
	<path class="st18" d="M65.1,0.8H38.3l-0.1,37.9h12.3c3.7,0.1,4.7,1.5,4.7,2.8V66c0,1-0.3,1.8-1,2.5c-0.7,0.7-1.6,0.9-2.5,0.9
		c-1,0-1.8-0.2-2.6-0.9c-0.7-0.7-1.1-1.5-1.1-2.5v-23h-10V65c0,3.6,1.3,6.7,4,9.1c2.7,2.6,5.8,3.8,9.7,3.8c3.7,0,6.9-1.2,9.6-3.8
		c2.7-2.5,4-5.6,4-9.1V41.6c0-3.1-1.7-6.4-3.8-8.4c-2-1.7-4.3-2.7-7-2.7c-2.8,0-4.8,0-6.2,0L48.3,9.1h16.7V0.8z"/>
	<path class="st18" d="M100.7,0.8H73.9l-0.1,37.9h12.3c3.7,0.1,4.7,1.5,4.7,2.8V66c0,1-0.3,1.8-1,2.5c-0.7,0.7-1.6,0.9-2.5,0.9
		c-1,0-1.8-0.2-2.6-0.9c-0.7-0.7-1.1-1.5-1.1-2.5v-23h-10V65c0,3.6,1.3,6.7,4,9.1c2.7,2.6,5.8,3.8,9.7,3.8c3.7,0,6.9-1.2,9.6-3.8
		c2.7-2.5,4-5.6,4-9.1V41.6c0-3.1-1.7-6.4-3.8-8.4c-2-1.7-4.3-2.7-7-2.7c-2.8,0-4.8,0-6.2,0L83.9,9.1h16.7V0.8z"/>
	<path class="st18" d="M8.3,109.5c1-0.8,1.4-1.7,1.4-2.8v-19c0-1-0.4-2.1-1.4-2.8c-0.9-0.8-1.8-1-3.5-1C1.9,84,0,84,0,84v26.6
		c0,0,2.2,0,4.8,0C6.4,110.6,7.4,110.3,8.3,109.5z M3.6,86.5h1.2c0.3,0,0.6,0.1,0.9,0.3C5.9,87,6,87.2,6,87.4v19.7
		c0,0.3-0.1,0.5-0.3,0.6c-0.3,0.2-0.5,0.3-0.9,0.3H3.6V86.5z"/>
	<path class="st18" d="M22.7,107.1V87.5c0-1.1-0.5-2-1.4-2.8c-0.9-0.8-2.1-1.1-3.4-1.1c-1.3,0-2.5,0.4-3.4,1.1
		c-0.9,0.8-1.4,1.7-1.4,2.8v19.6c0,1.1,0.5,2,1.4,2.8c1,0.8,2.1,1.1,3.4,1.1c1.3,0,2.5-0.4,3.4-1.1
		C22.2,109.1,22.7,108.2,22.7,107.1z M19,107.4c0,0.3-0.1,0.5-0.3,0.7c-0.2,0.2-0.5,0.3-0.8,0.3c-0.3,0-0.6-0.1-0.8-0.3
		c-0.2-0.2-0.3-0.4-0.3-0.7V87.2c0-0.3,0.1-0.5,0.3-0.7c0.2-0.2,0.5-0.3,0.8-0.3c0.3,0,0.6,0.1,0.8,0.3c0.2,0.2,0.3,0.4,0.3,0.7
		V107.4z"/>
	<path class="st18" d="M40.4,106.8v-8.3c0-1.8-1.3-2.1-1.3-2.1s1.3-0.6,1.3-2.3v-6.3c0-1-0.4-2.1-1.4-2.8c-0.9-0.8-1.7-1-3.4-1
		c-2.9,0-4.8,0-4.8,0v26.6c0,0,2.2,0,4.8,0c1.5,0,2.5-0.3,3.4-1.1C40,108.7,40.4,107.9,40.4,106.8z M36.4,107.8
		c-0.2,0.2-0.5,0.3-0.8,0.3h-1.2V97.8c1.6,0,2.4,0,2.4,1.3c0,2.2,0,8.1,0,8.1C36.8,107.4,36.7,107.6,36.4,107.8z M36.8,93.6
		c0,1-0.6,1.4-2.4,1.3v-8.5h1.2c0.3,0,0.6,0.1,0.8,0.3c0.2,0.2,0.3,0.4,0.3,0.6C36.8,87.4,36.8,92.6,36.8,93.6z"/>
	<path class="st18" d="M53.3,107.1V87.5c0-1.1-0.5-2-1.4-2.8c-0.9-0.8-2.1-1.1-3.4-1.1c-1.3,0-2.5,0.4-3.4,1.1
		c-0.9,0.8-1.4,1.7-1.4,2.8v19.6c0,1.1,0.5,2,1.4,2.8c1,0.8,2.1,1.1,3.4,1.1c1.3,0,2.5-0.4,3.4-1.1
		C52.8,109.1,53.3,108.2,53.3,107.1z M49.6,107.4c0,0.3-0.1,0.5-0.3,0.7c-0.2,0.2-0.5,0.3-0.8,0.3c-0.3,0-0.6-0.1-0.8-0.3
		c-0.2-0.2-0.3-0.4-0.3-0.7V87.2c0-0.3,0.1-0.5,0.3-0.7c0.2-0.2,0.5-0.3,0.8-0.3c0.3,0,0.6,0.1,0.8,0.3c0.2,0.2,0.3,0.4,0.3,0.7
		V107.4z"/>
	<path class="st18" d="M66,84h-3.6v11.5L60.1,84h-3.6v26.6h3.6V98.9l2.4,11.7H66V84z"/>
	<path class="st18" d="M73.4,98.7h2.1v-2.9h-2.1v-9H77V84h-7.2v26.6h3.6V98.7z"/>
	<path class="st18" d="M83.2,84h-3.6v26.6h3.6V84z"/>
	<path class="st18" d="M97,98.7v11.9h3.6V84H97l-3.1,14.7L90.7,84h-3.6v26.6h3.6V98.9l1.7,11.6h2.8L97,98.7z"/>
</g>
</svg>
