<?xml version="1.0" encoding="utf-8"?>
<!-- Generator: Adobe Illustrator 24.1.0, SVG Export Plug-In . SVG Version: 6.00 Build 0)  -->
<svg version="1.1" id="Layer_1" xmlns="http://www.w3.org/2000/svg" xmlns:xlink="http://www.w3.org/1999/xlink" x="0px" y="0px"
	 viewBox="0 0 117.1 129.1" style="enable-background:new 0 0 117.1 129.1;" xml:space="preserve">
<style type="text/css">
	.st0{fill:#FFFFFF;}
</style>
<g>
	<path class="st0" d="M1.2,13.1v23.1h12V11.9c0-0.9,0.5-1.6,1.3-2.2c0.8-0.7,1.6-1.1,2.7-1.1c1.2,0,2,0.4,2.9,1.1
		c0.8,0.6,1.2,1.4,1.2,2.2V20c0,7.2,0,11.7,0,13.9c-0.2,4.9-2.6,9.4-7.2,13.1C9.4,50.9,6.2,54.3,4,58c-1.8,3.2-3,6.7-3,21.1v10.7h32
		v-9.7H12.9v-13c0-2.2,1.2-4.6,3.4-7.4c1.6-1.9,7.6-7.1,7.6-7.1c4.9-4.3,7.9-9.3,8.9-15.1c0.3-1.6,0.4-3.4,0.4-5.1l0.1-11.2
		l-0.1-5.5v-2.7c0-3.7-1.5-6.7-4.6-9.2C25.4,1.3,21.5,0,17.1,0C12.8,0,9,1.3,5.8,3.9C2.7,6.4,1.2,9.4,1.2,13.1z"/>
	<path class="st0" d="M75.4,1h-31l-0.1,44.1h14.3c4.3,0.1,5.5,1.7,5.5,3.3v28.4c0,1.2-0.4,2.1-1.2,2.9c-0.9,0.8-1.8,1.1-2.9,1.1
		c-1.2,0-2.1-0.3-3-1.1c-0.8-0.8-1.3-1.7-1.3-2.9V50.1H44.2v25.4c0,4.2,1.5,7.7,4.6,10.6c3.1,3,6.8,4.4,11.2,4.4
		c4.3,0,8-1.4,11.1-4.4c3.1-2.9,4.6-6.5,4.6-10.6V48.3c0-3.6-1.9-7.4-4.4-9.8c-2.3-2-5-3.1-8.1-3.1c-3.3,0-5.6,0-7.1,0L56,10.5h19.4
		V1z"/>
	<path class="st0" d="M116.7,1h-31l-0.1,44.1h14.3c4.3,0.1,5.5,1.7,5.5,3.3v28.4c0,1.2-0.4,2.1-1.2,2.9c-0.9,0.8-1.8,1.1-2.9,1.1
		c-1.2,0-2.1-0.3-3-1.1c-0.8-0.8-1.3-1.7-1.3-2.9V50.1H85.5v25.4c0,4.2,1.5,7.7,4.6,10.6c3.1,3,6.8,4.4,11.2,4.4
		c4.3,0,8-1.4,11.1-4.4c3.1-2.9,4.6-6.5,4.6-10.6V48.3c0-3.6-1.9-7.4-4.4-9.8c-2.3-2-5-3.1-8.1-3.1c-3.3,0-5.6,0-7.1,0l-0.1-24.9
		h19.4V1z"/>
	<path class="st0" d="M9.7,127.3c1.1-0.9,1.6-2,1.6-3.2V102c0-1.2-0.5-2.4-1.6-3.2c-1.1-0.9-2.1-1.2-4.1-1.2c-3.3,0-5.6,0-5.6,0
		v30.9c0,0,2.5,0,5.6,0C7.4,128.5,8.6,128.2,9.7,127.3z M4.2,100.5h1.4c0.4,0,0.7,0.1,1,0.3c0.3,0.2,0.4,0.4,0.4,0.7v22.9
		c0,0.3-0.1,0.5-0.4,0.7c-0.3,0.2-0.6,0.3-1,0.3H4.2V100.5z"/>
	<path class="st0" d="M26.3,124.5v-22.7c0-1.3-0.5-2.3-1.7-3.2c-1.1-0.9-2.4-1.3-3.9-1.3c-1.6,0-2.9,0.4-4,1.3
		c-1.1,0.9-1.6,2-1.6,3.2v22.7c0,1.3,0.5,2.3,1.6,3.2c1.1,0.9,2.4,1.3,4,1.3c1.6,0,2.9-0.4,3.9-1.3
		C25.8,126.8,26.3,125.7,26.3,124.5z M22.1,124.9c0,0.3-0.1,0.6-0.4,0.8c-0.3,0.2-0.6,0.3-1,0.3s-0.7-0.1-1-0.3
		c-0.3-0.2-0.4-0.5-0.4-0.8v-23.5c0-0.3,0.1-0.6,0.4-0.8c0.3-0.2,0.6-0.3,1-0.3s0.7,0.1,1,0.3c0.3,0.2,0.4,0.5,0.4,0.8V124.9z"/>
	<path class="st0" d="M46.9,124.1v-9.6c0-2.1-1.5-2.5-1.5-2.5s1.5-0.6,1.5-2.6V102c0-1.2-0.5-2.4-1.6-3.2c-1.1-0.9-2-1.2-4-1.2
		c-3.3,0-5.6,0-5.6,0v30.9c0,0,2.5,0,5.6,0c1.8,0,2.9-0.4,3.9-1.3C46.3,126.4,46.9,125.4,46.9,124.1z M42.2,125.3
		c-0.3,0.2-0.6,0.3-1,0.3h-1.4v-11.9c1.9,0,2.8,0,2.8,1.5c0,2.5,0,9.4,0,9.4C42.7,124.8,42.5,125.1,42.2,125.3z M42.7,108.8
		c0,1.2-0.6,1.6-2.8,1.6v-9.8h1.4c0.4,0,0.7,0.1,1,0.3c0.3,0.2,0.4,0.4,0.4,0.7C42.7,101.6,42.7,107.7,42.7,108.8z"/>
	<path class="st0" d="M61.7,124.5v-22.7c0-1.3-0.5-2.3-1.7-3.2c-1.1-0.9-2.4-1.3-3.9-1.3c-1.6,0-2.9,0.4-4,1.3
		c-1.1,0.9-1.6,2-1.6,3.2v22.7c0,1.3,0.5,2.3,1.6,3.2c1.1,0.9,2.4,1.3,4,1.3c1.6,0,2.9-0.4,3.9-1.3
		C61.2,126.8,61.7,125.7,61.7,124.5z M57.5,124.9c0,0.3-0.1,0.6-0.4,0.8c-0.3,0.2-0.6,0.3-1,0.3s-0.7-0.1-1-0.3
		c-0.3-0.2-0.4-0.5-0.4-0.8v-23.5c0-0.3,0.1-0.6,0.4-0.8c0.3-0.2,0.6-0.3,1-0.3s0.7,0.1,1,0.3c0.3,0.2,0.4,0.5,0.4,0.8V124.9z"/>
	<path class="st0" d="M76.5,97.6h-4.2V111l-2.7-13.4h-4.2v30.9h4.2V115l2.7,13.6h4.2V97.6z"/>
	<path class="st0" d="M85,114.8h2.5v-3.4H85V101h4.2v-3.3h-8.3v30.9H85V114.8z"/>
	<path class="st0" d="M96.4,97.6h-4.2v30.9h4.2V97.6z"/>
	<path class="st0" d="M112.4,114.7v13.8h4.2V97.7h-4.2l-3.6,17.1l-3.7-17.1H101v30.9h4.1V115l2,13.5h3.3L112.4,114.7z"/>
</g>
</svg>
