<?xml version="1.0" encoding="utf-8"?>
<!-- Generator: Adobe Illustrator 16.0.0, SVG Export Plug-In . SVG Version: 6.00 Build 0)  -->
<!DOCTYPE svg PUBLIC "-//W3C//DTD SVG 1.1//EN" "http://www.w3.org/Graphics/SVG/1.1/DTD/svg11.dtd">
<svg version="1.1" id="Layer_1" xmlns="http://www.w3.org/2000/svg" xmlns:xlink="http://www.w3.org/1999/xlink" x="0px" y="0px"
	 width="122.713px" height="75px" viewBox="0 0 122.713 75" enable-background="new 0 0 122.713 75" xml:space="preserve">
<g>
	<path fill-rule="evenodd" clip-rule="evenodd" fill="#00ADEE" d="M89.489,1.442c0,18.396,0,36.773,0,56.431
		C78.232,47.729,67.811,38.297,57.341,28.918c-6.82-6.11-13.359-12.607-20.652-18.097c-9.322-7.018-20.857-4.209-26.46,5.555
		c-3.853,6.714-3.412,13.2,1.163,19.235c4.447,5.866,10.416,9.157,17.924,7.461c7.456-1.688,12.633-6.251,14.399-13.998
		c0.44-1.931,0.545-3.938,0.83-6.1c5.995,2.593,6.174,6.748,3.875,12.061c-5.635,13.022-20.827,18.867-33.905,12.857
		C1.653,41.982-3.755,26.185,2.785,13.641C9.419,0.919,25.317-4.193,37.308,3.897c10.378,7.002,19.599,15.735,29.251,23.8
		c5.202,4.35,10.237,8.899,16.696,14.535c0-11.008,0.539-20.522-0.374-29.894c-0.233-2.386-5.082-4.322-7.466-6.196
		C79.004,4.944,84.125,3.234,89.489,1.442z"/>
	<path fill="#00ADEE" d="M53.332,30.176c0,12.719,0,42.089,0,44.786h3.144c1.003,0.031,2.007,0.066,3.096,0
		c0-2.687,0-20.316,0-27.102C70.189,57.303,79.988,66.547,89.489,75v-2.413v-9.639L53.332,30.176z"/>
	<path fill="#00ADEE" d="M122.165,47.27c-0.003-0.019-0.009-0.035-0.011-0.052c-6.99,0-13.762,0-20.728,0c0-4.739,0-8.756,0-13.429
		c6.654,0,12.961,0,19.491,0c0-2.421,0-4.181,0-7.075c-7.048,0-13.326,0-19.466,0c0-4.332,0-7.92,0-12.23h20.323V8.577H93.354v5.907
		c0,10.982,0,21.784,0,32.786c0,2.084,0,4.154,0,6.259h21.282h8.077v-2.896v-0.015V47.27H122.165z"/>
</g>
</svg>
