<?xml version="1.0" encoding="utf-8"?>
<!-- Generator: Adobe Illustrator 24.1.0, SVG Export Plug-In . SVG Version: 6.00 Build 0)  -->
<svg version="1.1" id="Layer_1" xmlns="http://www.w3.org/2000/svg" xmlns:xlink="http://www.w3.org/1999/xlink" x="0px" y="0px"
	 viewBox="0 0 15 25.7" style="enable-background:new 0 0 15 25.7;" xml:space="preserve">
<style type="text/css">
	.st0{fill:#FFFFFF;}
	.st1{fill-rule:evenodd;clip-rule:evenodd;fill:#FFFFFF;}
	.st2{fill:#C4C4C4;}
</style>
<path class="st2" d="M1.6,0.3L0.3,1.6C0.1,1.7,0,1.9,0,2.1s0.1,0.4,0.3,0.6l10.1,10.1L0.3,23C0.1,23.2,0,23.4,0,23.6
	c0,0.2,0.1,0.4,0.3,0.6l1.3,1.3c0.2,0.2,0.4,0.2,0.6,0.2c0.2,0,0.4-0.1,0.6-0.3l12-12c0.2-0.2,0.3-0.4,0.3-0.6
	c0-0.2-0.1-0.4-0.3-0.6l-12-12C2.6,0.1,2.4,0,2.1,0C1.9,0,1.7,0.1,1.6,0.3z"/>
</svg>
