<?xml version="1.0" encoding="utf-8"?>
<!-- Generator: Adobe Illustrator 16.0.0, SVG Export Plug-In . SVG Version: 6.00 Build 0)  -->
<!DOCTYPE svg PUBLIC "-//W3C//DTD SVG 1.1//EN" "http://www.w3.org/Graphics/SVG/1.1/DTD/svg11.dtd">
<svg version="1.1" id="Layer_1" xmlns="http://www.w3.org/2000/svg" xmlns:xlink="http://www.w3.org/1999/xlink" x="0px" y="0px"
	 width="80px" height="80px" viewBox="0 0 80 80" enable-background="new 0 0 80 80" xml:space="preserve">
<g>
	<g>
		<rect x="1" y="1" fill="#FFFFFF" width="78" height="78"/>
		<path fill="#808080" d="M78,2v76H2V2H78 M80,0H0v80h80V0L80,0z"/>
	</g>
	<g>
		<rect fill="none" stroke="#808080" stroke-width="0.3299" stroke-miterlimit="10" width="20" height="20"/>
		<rect x="20" fill="none" stroke="#808080" stroke-width="0.3299" stroke-miterlimit="10" width="20" height="20"/>
		<rect x="40" fill="none" stroke="#808080" stroke-width="0.3299" stroke-miterlimit="10" width="20" height="20"/>
		<rect x="60" fill="none" stroke="#808080" stroke-width="0.3299" stroke-miterlimit="10" width="20" height="20"/>
		<rect y="20" fill="none" stroke="#808080" stroke-width="0.3299" stroke-miterlimit="10" width="20" height="20"/>
		<rect x="20" y="20" fill="none" stroke="#808080" stroke-width="0.3299" stroke-miterlimit="10" width="20" height="20"/>
		<rect x="40" y="20" fill="none" stroke="#808080" stroke-width="0.3299" stroke-miterlimit="10" width="20" height="20"/>
		<rect x="60" y="20" fill="none" stroke="#808080" stroke-width="0.3299" stroke-miterlimit="10" width="20" height="20"/>
		<rect y="40" fill="none" stroke="#808080" stroke-width="0.3299" stroke-miterlimit="10" width="20" height="20"/>
		<rect x="20" y="40" fill="none" stroke="#808080" stroke-width="0.3299" stroke-miterlimit="10" width="20" height="20"/>
		<rect x="40" y="40" fill="none" stroke="#808080" stroke-width="0.3299" stroke-miterlimit="10" width="20" height="20"/>
		<rect x="60" y="40" fill="none" stroke="#808080" stroke-width="0.3299" stroke-miterlimit="10" width="20" height="20"/>
		<rect y="60" fill="none" stroke="#808080" stroke-width="0.3299" stroke-miterlimit="10" width="20" height="20"/>
		<rect x="20" y="60" fill="none" stroke="#808080" stroke-width="0.3299" stroke-miterlimit="10" width="20" height="20"/>
		<rect x="40" y="60" fill="none" stroke="#808080" stroke-width="0.3299" stroke-miterlimit="10" width="20" height="20"/>
		<rect x="60" y="60" fill="none" stroke="#808080" stroke-width="0.3299" stroke-miterlimit="10" width="20" height="20"/>
	</g>
</g>
</svg>
