<?xml version="1.0" encoding="utf-8"?>
<!-- Generator: Adobe Illustrator 24.1.0, SVG Export Plug-In . SVG Version: 6.00 Build 0)  -->
<svg version="1.1" baseProfile="basic" id="Layer_1"
	 xmlns="http://www.w3.org/2000/svg" xmlns:xlink="http://www.w3.org/1999/xlink" x="0px" y="0px" viewBox="0 0 320.6 137.5"
	 xml:space="preserve">
<g>
	<path fill="#804492" d="M302.6,136.3H173.7V96.9l17.1-12.6h60.6v8.9h6.7v20h46.6v7.9h-2.1V136.3z"/>
	<path fill="#804492" d="M127.9,27.3H96.7v81h56.3v-3.6h5.7v-4.2h5.2v-3.6h5.2v-4.2h5.2v-4.2h5.7v-4.2h5.2v-4.2h72.4v-28h-6.3v-5.7
		l-28.1-19.2H131v37.4h-3.1V27.3z"/>
	<path fill="#44263A" d="M190.5,61.7c0,0.6-0.1,1.1-0.3,1.6c-0.2,0.5-0.5,0.9-0.9,1.2c-0.4,0.3-0.9,0.6-1.4,0.8
		c-0.5,0.2-1.1,0.3-1.8,0.3c-1.2,0-2.2-0.2-2.9-0.7v-1.5c0.9,0.7,1.8,1,2.9,1c0.4,0,0.8-0.1,1.2-0.2c0.4-0.1,0.7-0.3,0.9-0.5
		c0.3-0.2,0.5-0.5,0.6-0.8c0.1-0.3,0.2-0.6,0.2-1c0-1.6-1.2-2.5-3.5-2.5h-1v-1.2h1c2.1,0,3.1-0.8,3.1-2.3c0-1.4-0.8-2.1-2.4-2.1
		c-0.9,0-1.7,0.3-2.5,0.9v-1.4c0.8-0.5,1.8-0.7,2.9-0.7c0.5,0,1,0.1,1.4,0.2c0.4,0.1,0.8,0.4,1.1,0.6c0.3,0.3,0.5,0.6,0.7,0.9
		c0.2,0.4,0.3,0.8,0.3,1.2c0,1.7-0.8,2.7-2.5,3.2v0c0.4,0,0.8,0.2,1.2,0.3c0.4,0.2,0.7,0.4,0.9,0.6c0.3,0.3,0.5,0.6,0.6,0.9
		C190.5,60.9,190.5,61.3,190.5,61.7z M200.8,59c0,1.1-0.1,2-0.3,2.8c-0.2,0.8-0.5,1.5-0.8,2.1c-0.4,0.6-0.8,1-1.3,1.3
		c-0.5,0.3-1.1,0.4-1.8,0.4c-0.6,0-1.2-0.1-1.7-0.4c-0.5-0.3-0.9-0.7-1.2-1.2s-0.6-1.2-0.8-2c-0.2-0.8-0.3-1.7-0.3-2.7
		c0-1.1,0.1-2.1,0.3-2.9c0.2-0.8,0.5-1.5,0.8-2.1c0.4-0.6,0.8-1,1.3-1.3c0.5-0.3,1.1-0.4,1.8-0.4C199.5,52.5,200.8,54.6,200.8,59z
		 M199.3,59.1c0-3.6-0.9-5.4-2.6-5.4c-1.8,0-2.7,1.8-2.7,5.5c0,3.4,0.9,5.1,2.6,5.1C198.5,64.3,199.3,62.6,199.3,59.1z M215.8,65.3
		h-1.4v-5.2c0-1-0.2-1.7-0.5-2.2c-0.3-0.4-0.8-0.7-1.5-0.7c-0.6,0-1.1,0.3-1.6,0.8c-0.4,0.6-0.6,1.2-0.6,2v5.1h-1.4V60
		c0-1.8-0.7-2.7-2-2.7c-0.6,0-1.2,0.3-1.6,0.8c-0.4,0.5-0.6,1.2-0.6,2.1v5.1H203v-9h1.4v1.4h0c0.6-1.1,1.6-1.6,2.8-1.6
		c0.6,0,1.2,0.2,1.6,0.5c0.5,0.3,0.8,0.8,0.9,1.3c0.7-1.2,1.7-1.9,3-1.9c2,0,3,1.2,3,3.7V65.3z M222.8,57.5H218v-0.7
		c0-0.4,0.1-0.7,0.3-1c0.2-0.3,0.4-0.6,0.7-0.8c0.3-0.2,0.5-0.5,0.9-0.7c0.3-0.2,0.6-0.5,0.8-0.7c0.3-0.2,0.5-0.5,0.7-0.7
		c0.2-0.3,0.3-0.6,0.3-0.9c0-0.3-0.1-0.6-0.3-0.8c-0.2-0.2-0.5-0.3-0.9-0.3c-0.7,0-1.3,0.3-1.9,0.9v-1.3c0.5-0.4,1.2-0.7,2.1-0.7
		c0.3,0,0.6,0,0.9,0.1c0.3,0.1,0.5,0.2,0.7,0.4c0.2,0.2,0.4,0.4,0.5,0.7c0.1,0.3,0.2,0.5,0.2,0.9c0,0.4-0.1,0.8-0.3,1.2
		c-0.2,0.3-0.4,0.6-0.6,0.9c-0.3,0.3-0.5,0.5-0.8,0.7c-0.3,0.2-0.6,0.4-0.8,0.6c-0.3,0.2-0.5,0.3-0.6,0.5c-0.2,0.2-0.2,0.3-0.2,0.5
		v0.1h3.5V57.5z"/>
	<path fill="#44263A" d="M167.9,41.3h-1.3l-1-2.7h-4.2l-1,2.7h-1.3l3.8-9.8h1.2L167.9,41.3z M165.2,37.5l-1.5-4.2
		c-0.1-0.1-0.1-0.4-0.1-0.7h0c0,0.3-0.1,0.5-0.2,0.7l-1.5,4.2H165.2z M164.9,28.4l-1.8,2.2h-0.9l1.5-2.2H164.9z M176.3,41.3H175
		l-1.6-2.7c-0.2-0.3-0.3-0.5-0.4-0.6c-0.1-0.2-0.3-0.3-0.4-0.4c-0.1-0.1-0.3-0.2-0.5-0.2c-0.2-0.1-0.4-0.1-0.6-0.1h-0.9v4.2h-1.1
		v-9.8h2.9c0.4,0,0.8,0.1,1.2,0.2c0.4,0.1,0.7,0.3,0.9,0.5c0.3,0.2,0.5,0.5,0.6,0.8c0.1,0.3,0.2,0.7,0.2,1.1c0,0.3-0.1,0.7-0.2,0.9
		c-0.1,0.3-0.2,0.5-0.4,0.8c-0.2,0.2-0.4,0.4-0.7,0.6c-0.3,0.2-0.6,0.3-0.9,0.4v0c0.2,0.1,0.3,0.2,0.4,0.3c0.1,0.1,0.2,0.2,0.3,0.3
		c0.1,0.1,0.2,0.3,0.3,0.4c0.1,0.2,0.2,0.3,0.4,0.6L176.3,41.3z M170.5,32.5v3.6h1.6c0.3,0,0.6,0,0.8-0.1c0.2-0.1,0.5-0.2,0.6-0.4
		c0.2-0.2,0.3-0.4,0.4-0.6c0.1-0.2,0.1-0.5,0.1-0.8c0-0.5-0.2-0.9-0.5-1.2c-0.3-0.3-0.8-0.4-1.5-0.4H170.5z M182.9,41.3h-5.2v-9.8h5
		v1h-3.8v3.3h3.5v1h-3.5v3.4h4V41.3z M192.4,41.3h-1.3l-1-2.7h-4.2l-1,2.7h-1.3l3.8-9.8h1.2L192.4,41.3z M189.7,37.5l-1.5-4.2
		c-0.1-0.1-0.1-0.4-0.1-0.7h0c0,0.3-0.1,0.5-0.2,0.7l-1.5,4.2H189.7z M204.8,37.3c0,2.8-1.2,4.1-3.7,4.1c-2.4,0-3.6-1.3-3.6-4v-6
		h1.1v5.9c0,2,0.8,3,2.5,3c1.6,0,2.5-1,2.5-2.9v-6h1.1V37.3z M202.9,28.4l-1.8,2.2h-0.9l1.5-2.2H202.9z M213.1,32.5h-2.8v8.8h-1.1
		v-8.8h-2.8v-1h6.8V32.5z M215.8,41.3h-1.1v-9.8h1.1V41.3z M223.4,41.3h-5.1v-9.8h1.1v8.8h3.9V41.3z"/>
	<path fill="#FFFFFF" d="M33.1,80.3H20v11.6h12.1v3.5H20v14.9h-3.9V76.7h17.1V80.3z"/>
	<path fill="#FFFFFF" d="M22.2,120.2h-2.6v8.1h-1.1v-8.1h-2.6v-1h6.3V120.2z M27.1,128.3h-1v-7.9c-0.1,0.1-0.2,0.2-0.4,0.3
		c-0.2,0.1-0.3,0.2-0.5,0.3c-0.2,0.1-0.4,0.2-0.6,0.3c-0.2,0.1-0.4,0.2-0.6,0.2v-1.1c0.2-0.1,0.5-0.1,0.7-0.3
		c0.3-0.1,0.5-0.2,0.8-0.4c0.2-0.1,0.5-0.3,0.7-0.4c0.2-0.1,0.4-0.3,0.6-0.4h0.4V128.3z M34.2,128.3v-9.1h2.5c3.2,0,4.8,1.5,4.8,4.4
		c0,1.4-0.4,2.5-1.3,3.4c-0.9,0.9-2.1,1.3-3.6,1.3H34.2z M35.3,120.2v7.2h1.4c1.2,0,2.1-0.3,2.8-1c0.7-0.6,1-1.5,1-2.7
		c0-2.3-1.2-3.5-3.7-3.5H35.3z M50,124.6c0,2.6-1.2,3.8-3.5,3.8c-2.2,0-3.3-1.2-3.3-3.7v-5.6h1.1v5.5c0,1.9,0.8,2.8,2.4,2.8
		c1.5,0,2.3-0.9,2.3-2.7v-5.6H50V124.6z M53.4,124.9v3.4h-1.1v-9.1h2.5c1,0,1.7,0.2,2.3,0.7c0.5,0.5,0.8,1.1,0.8,2
		c0,0.9-0.3,1.6-0.9,2.1c-0.6,0.6-1.4,0.8-2.4,0.8H53.4z M53.4,120.2v3.7h1.1c0.7,0,1.3-0.2,1.7-0.5c0.4-0.3,0.6-0.8,0.6-1.4
		c0-1.2-0.7-1.8-2.1-1.8H53.4z M64.3,128.3h-4.7v-9.1h1.1v8.1h3.7V128.3z M70.5,128.3h-4.8v-9.1h4.6v1h-3.6v3h3.3v1h-3.3v3.2h3.8
		V128.3z M78.6,128.3h-1.3l-2.1-3.5c-0.1-0.1-0.1-0.3-0.2-0.5h0c0,0.1-0.1,0.2-0.2,0.5l-2.2,3.5h-1.3l3-4.6l-2.8-4.5h1.3l1.9,3.2
		c0.1,0.2,0.2,0.4,0.3,0.6h0c0.1-0.3,0.3-0.5,0.4-0.7l1.9-3.2h1.2l-2.9,4.5L78.6,128.3z"/>
</g>
</svg>
