<?xml version="1.0" encoding="utf-8"?>
<!-- Generator: Adobe Illustrator 24.1.0, SVG Export Plug-In . SVG Version: 6.00 Build 0)  -->
<svg version="1.1" id="Layer_1" xmlns="http://www.w3.org/2000/svg" xmlns:xlink="http://www.w3.org/1999/xlink" x="0px" y="0px"
	 viewBox="0 0 254.1 254.1" style="enable-background:new 0 0 254.1 254.1;" xml:space="preserve">
<style type="text/css">
	.st0{fill:#FFFFFF;}
	.st1{fill-rule:evenodd;clip-rule:evenodd;fill:#FFFFFF;}
	.st2{fill:#C4C4C4;}
	.st3{opacity:0.2;}
	.st4{fill:#B7D8AF;}
	.st5{fill:#814494;}
	.st6{fill:#C892C1;}
	.st7{fill:#86BACB;}
	.st8{opacity:0.2;fill:#EE8B75;enable-background:new    ;}
	.st9{fill:#4075B7;}
	.st10{fill:#DFA819;}
	.st11{fill:#EBEBEB;}
	.st12{fill:#D7D5D5;}
	.st13{fill:#DAB2D5;}
	.st14{clip-path:url(#SVGID_2_);}
	.st15{fill:url(#SVGID_3_);}
	.st16{fill:#D7AED2;}
	.st17{fill:#C7DDB6;}
</style>
<rect x="0.5" y="0.5" class="st2" width="253" height="253"/>
<g>
	<path class="st5" d="M234.8,237.7l-130.6-0.6l0.2-39.4l17.4-12.5l61.4,0.3l0,8.9l6.8,0l-0.1,19.9l47.2,0.2l0,7.9l-2.1,0
		L234.8,237.7z"/>
	<path class="st5" d="M59,127.3l-31.5-0.1L27.1,209l56.7,0.3l0-3.7l5.8,0l0-4.2l5.2,0l0-3.7l5.2,0l0-4.2l5.2,0l0-4.2l5.8,0l0-4.2
		l5.2,0l0-4.2l72.9,0.3l0.1-28.3l-6.3,0l0-5.8L155,127.7l-92.9-0.4l-0.2,37.8l-3.1,0L59,127.3z"/>
</g>
</svg>
