<?xml version="1.0" encoding="utf-8"?>
<!-- Generator: Adobe Illustrator 24.1.0, SVG Export Plug-In . SVG Version: 6.00 Build 0)  -->
<svg version="1.1" baseProfile="basic" id="Layer_1"
	 xmlns="http://www.w3.org/2000/svg" xmlns:xlink="http://www.w3.org/1999/xlink" x="0px" y="0px" viewBox="0 0 320.1 123.3"
	 xml:space="preserve">
<g>
	<g>
		<path fill="#C6DCB5" d="M275.4,10.7H154.9v49h2.5v4.5h-4.5v49.5h101.5V64.2h-72v-4.5h93V10.7z"/>
		<rect x="125.9" y="91.7" fill="#C6DCB5" width="22" height="23"/>
		<path fill="#8C9981" d="M230.9,39.1v8.3h1.6v1.3h-1.6v3h-1.4v-3h-5.9v-1.2c0.6-0.6,1.1-1.3,1.7-2c0.6-0.7,1.1-1.4,1.6-2.2
			c0.5-0.7,1-1.5,1.4-2.2c0.4-0.7,0.8-1.4,1.1-2.1H230.9z M225.2,47.4h4.3v-6.2c-0.4,0.8-0.9,1.5-1.2,2.1c-0.4,0.6-0.8,1.2-1.1,1.6
			c-0.4,0.5-0.7,0.9-1,1.3C225.7,46.6,225.4,47,225.2,47.4z M242.1,45.3c0,1.1-0.1,2-0.3,2.8c-0.2,0.8-0.5,1.5-0.8,2.1
			c-0.4,0.6-0.8,1-1.3,1.3c-0.5,0.3-1.1,0.4-1.8,0.4c-0.6,0-1.2-0.1-1.7-0.4c-0.5-0.3-0.9-0.7-1.2-1.2s-0.6-1.2-0.8-2
			c-0.2-0.8-0.3-1.7-0.3-2.7c0-1.1,0.1-2.1,0.3-2.9c0.2-0.8,0.5-1.5,0.8-2.1c0.4-0.6,0.8-1,1.3-1.3c0.5-0.3,1.1-0.4,1.8-0.4
			C240.7,38.8,242.1,41,242.1,45.3z M240.6,45.4c0-3.6-0.9-5.4-2.6-5.4c-1.8,0-2.7,1.8-2.7,5.5c0,3.4,0.9,5.1,2.6,5.1
			C239.7,50.7,240.6,48.9,240.6,45.4z M257,51.7h-1.4v-5.2c0-1-0.2-1.7-0.5-2.2c-0.3-0.4-0.8-0.7-1.5-0.7c-0.6,0-1.1,0.3-1.6,0.8
			c-0.4,0.6-0.6,1.2-0.6,2v5.1h-1.4v-5.3c0-1.8-0.7-2.7-2-2.7c-0.6,0-1.2,0.3-1.6,0.8c-0.4,0.5-0.6,1.2-0.6,2.1v5.1h-1.4v-9h1.4v1.4
			h0c0.6-1.1,1.6-1.6,2.8-1.6c0.6,0,1.2,0.2,1.6,0.5c0.5,0.3,0.8,0.8,0.9,1.3c0.7-1.2,1.7-1.9,3-1.9c2,0,3,1.2,3,3.7V51.7z
			 M264.1,43.9h-4.9v-0.7c0-0.4,0.1-0.7,0.3-1c0.2-0.3,0.4-0.6,0.7-0.8c0.3-0.2,0.5-0.5,0.9-0.7c0.3-0.2,0.6-0.5,0.8-0.7
			c0.3-0.2,0.5-0.5,0.7-0.7c0.2-0.3,0.3-0.6,0.3-0.9c0-0.3-0.1-0.6-0.3-0.8c-0.2-0.2-0.5-0.3-0.9-0.3c-0.7,0-1.3,0.3-1.9,0.9v-1.3
			c0.5-0.4,1.2-0.7,2.1-0.7c0.3,0,0.6,0,0.9,0.1c0.3,0.1,0.5,0.2,0.7,0.4c0.2,0.2,0.4,0.4,0.5,0.7c0.1,0.3,0.2,0.5,0.2,0.9
			c0,0.4-0.1,0.8-0.3,1.2c-0.2,0.3-0.4,0.6-0.6,0.9c-0.3,0.3-0.5,0.5-0.8,0.7c-0.3,0.2-0.6,0.4-0.8,0.6c-0.3,0.2-0.5,0.3-0.6,0.5
			c-0.2,0.2-0.2,0.3-0.2,0.5v0.1h3.5V43.9z"/>
		<path fill="#8C9981" d="M209.1,27.7h-1.3l-1-2.7h-4.2l-1,2.7h-1.3l3.8-9.8h1.2L209.1,27.7z M206.4,23.9l-1.5-4.2
			c-0.1-0.1-0.1-0.4-0.1-0.7h0c0,0.3-0.1,0.5-0.2,0.7l-1.5,4.2H206.4z M206.2,14.7l-1.8,2.2h-0.9l1.5-2.2H206.2z M217.6,27.7h-1.4
			l-1.6-2.7c-0.2-0.3-0.3-0.5-0.4-0.6c-0.1-0.2-0.3-0.3-0.4-0.4c-0.1-0.1-0.3-0.2-0.5-0.2c-0.2-0.1-0.4-0.1-0.6-0.1h-0.9v4.2h-1.1
			v-9.8h2.9c0.4,0,0.8,0.1,1.2,0.2c0.4,0.1,0.7,0.3,0.9,0.5c0.3,0.2,0.5,0.5,0.6,0.8c0.1,0.3,0.2,0.7,0.2,1.1c0,0.3-0.1,0.7-0.2,0.9
			c-0.1,0.3-0.2,0.5-0.4,0.8c-0.2,0.2-0.4,0.4-0.7,0.6c-0.3,0.2-0.6,0.3-0.9,0.4v0c0.2,0.1,0.3,0.2,0.4,0.3c0.1,0.1,0.2,0.2,0.3,0.3
			c0.1,0.1,0.2,0.3,0.3,0.4c0.1,0.2,0.2,0.3,0.4,0.6L217.6,27.7z M211.7,18.9v3.6h1.6c0.3,0,0.6,0,0.8-0.1c0.2-0.1,0.5-0.2,0.6-0.4
			c0.2-0.2,0.3-0.4,0.4-0.6c0.1-0.2,0.1-0.5,0.1-0.8c0-0.5-0.2-0.9-0.5-1.2c-0.3-0.3-0.8-0.4-1.5-0.4H211.7z M224.1,27.7h-5.2v-9.8
			h5v1h-3.8v3.3h3.5v1h-3.5v3.4h4V27.7z M233.6,27.7h-1.3l-1-2.7h-4.2l-1,2.7h-1.3l3.8-9.8h1.2L233.6,27.7z M230.9,23.9l-1.5-4.2
			c-0.1-0.1-0.1-0.4-0.1-0.7h0c0,0.3-0.1,0.5-0.2,0.7l-1.5,4.2H230.9z M246.1,23.7c0,2.8-1.2,4.1-3.7,4.1c-2.4,0-3.6-1.3-3.6-4v-6
			h1.1v5.9c0,2,0.8,3,2.5,3c1.6,0,2.5-1,2.5-2.9v-6h1.1V23.7z M244.2,14.7l-1.8,2.2h-0.9l1.5-2.2H244.2z M254.3,18.9h-2.8v8.8h-1.1
			v-8.8h-2.8v-1h6.8V18.9z M257,27.7h-1.1v-9.8h1.1V27.7z M264.7,27.7h-5.1v-9.8h1.1v8.8h3.9V27.7z"/>
	</g>
	<g>
		<path fill="#FFFFFF" d="M68.3,95.1c-2.5,1.3-5.6,2-9.3,2c-4.8,0-8.6-1.5-11.5-4.6s-4.3-7.1-4.3-12.1c0-5.4,1.6-9.7,4.9-13
			c3.2-3.3,7.3-5,12.3-5c3.2,0,5.8,0.5,7.9,1.4V68c-2.4-1.3-5.1-2-8-2c-3.9,0-7,1.3-9.4,3.9c-2.4,2.6-3.6,6-3.6,10.3
			c0,4.1,1.1,7.4,3.4,9.8c2.2,2.4,5.2,3.6,8.8,3.6c3.4,0,6.3-0.8,8.8-2.2V95.1z"/>
		<path fill="#FFFFFF" d="M51.6,106.4H49v8.1h-1.1v-8.1h-2.6v-1h6.3V106.4z M56.5,114.5h-1v-7.9c-0.1,0.1-0.2,0.2-0.4,0.3
			c-0.2,0.1-0.3,0.2-0.5,0.3c-0.2,0.1-0.4,0.2-0.6,0.3c-0.2,0.1-0.4,0.2-0.6,0.2v-1.1c0.2-0.1,0.5-0.1,0.7-0.3
			c0.3-0.1,0.5-0.2,0.8-0.4c0.2-0.1,0.5-0.3,0.7-0.4c0.2-0.1,0.4-0.3,0.6-0.4h0.4V114.5z M63.6,114.5v-9.1h2.5
			c3.2,0,4.8,1.5,4.8,4.4c0,1.4-0.4,2.5-1.3,3.4c-0.9,0.9-2.1,1.3-3.6,1.3H63.6z M64.7,106.4v7.2H66c1.2,0,2.1-0.3,2.8-1
			c0.7-0.6,1-1.5,1-2.7c0-2.3-1.2-3.5-3.7-3.5H64.7z M79.4,110.9c0,2.6-1.2,3.8-3.5,3.8c-2.2,0-3.3-1.2-3.3-3.7v-5.6h1.1v5.5
			c0,1.9,0.8,2.8,2.4,2.8c1.5,0,2.3-0.9,2.3-2.7v-5.6h1.1V110.9z M82.7,111.1v3.4h-1.1v-9.1h2.5c1,0,1.7,0.2,2.3,0.7
			c0.5,0.5,0.8,1.1,0.8,2c0,0.9-0.3,1.6-0.9,2.1c-0.6,0.6-1.4,0.8-2.4,0.8H82.7z M82.7,106.4v3.7h1.1c0.7,0,1.3-0.2,1.7-0.5
			c0.4-0.3,0.6-0.8,0.6-1.4c0-1.2-0.7-1.8-2.1-1.8H82.7z M93.7,114.5H89v-9.1H90v8.1h3.7V114.5z M99.9,114.5h-4.8v-9.1h4.6v1h-3.6v3
			h3.3v1h-3.3v3.2h3.8V114.5z M107.9,114.5h-1.3l-2.1-3.5c-0.1-0.1-0.1-0.3-0.2-0.5h0c0,0.1-0.1,0.2-0.2,0.5l-2.2,3.5h-1.3l3-4.6
			l-2.8-4.5h1.3l1.9,3.2c0.1,0.2,0.2,0.4,0.3,0.6h0c0.1-0.3,0.3-0.5,0.4-0.7l1.9-3.2h1.2L105,110L107.9,114.5z"/>
	</g>
</g>
</svg>
