<?xml version="1.0" encoding="utf-8"?>
<!-- Generator: Adobe Illustrator 24.1.0, SVG Export Plug-In . SVG Version: 6.00 Build 0)  -->
<svg version="1.1" baseProfile="basic" id="Layer_1"
	 xmlns="http://www.w3.org/2000/svg" xmlns:xlink="http://www.w3.org/1999/xlink" x="0px" y="0px" viewBox="0 0 321 123.9"
	 xml:space="preserve">
<g>
	<rect x="142.4" y="64.4" fill="#DEA819" width="103.7" height="55.1"/>
	<rect x="142.4" y="5.9" fill="#DEA819" width="103.7" height="55.1"/>
	<rect x="252.7" y="95.3" fill="#DEA819" width="7.7" height="24.3"/>
	<path fill="#8D6914" d="M203.3,48.4c0,0.6-0.1,1.1-0.3,1.6c-0.2,0.5-0.5,0.9-0.9,1.2c-0.4,0.3-0.9,0.6-1.4,0.8
		c-0.5,0.2-1.1,0.3-1.8,0.3c-1.2,0-2.2-0.2-2.9-0.7v-1.5c0.9,0.7,1.8,1,2.9,1c0.4,0,0.8-0.1,1.2-0.2c0.4-0.1,0.7-0.3,0.9-0.5
		c0.3-0.2,0.5-0.5,0.6-0.8c0.1-0.3,0.2-0.6,0.2-1c0-1.6-1.2-2.5-3.5-2.5h-1v-1.2h1c2.1,0,3.1-0.8,3.1-2.3c0-1.4-0.8-2.1-2.4-2.1
		c-0.9,0-1.7,0.3-2.5,0.9v-1.4c0.8-0.5,1.8-0.7,2.9-0.7c0.5,0,1,0.1,1.4,0.2c0.4,0.1,0.8,0.4,1.1,0.6c0.3,0.3,0.5,0.6,0.7,0.9
		c0.2,0.4,0.3,0.8,0.3,1.2c0,1.7-0.8,2.7-2.5,3.2v0c0.4,0,0.8,0.2,1.2,0.3c0.4,0.2,0.7,0.4,0.9,0.6c0.3,0.3,0.5,0.6,0.6,0.9
		C203.2,47.6,203.3,48,203.3,48.4z M205.4,48.4c0-0.3,0.1-0.7,0.2-1c0.1-0.3,0.3-0.7,0.4-0.9c0.2-0.3,0.4-0.6,0.7-0.8
		c0.3-0.2,0.6-0.4,1-0.6c-0.5-0.3-1-0.7-1.3-1.2c-0.3-0.5-0.5-1-0.5-1.6c0-0.5,0.1-0.9,0.3-1.3c0.2-0.4,0.4-0.7,0.7-1
		c0.3-0.3,0.7-0.5,1.1-0.7c0.4-0.2,0.9-0.2,1.4-0.2c0.5,0,1,0.1,1.4,0.2c0.4,0.2,0.8,0.4,1.1,0.7c0.3,0.3,0.6,0.6,0.7,1
		c0.2,0.4,0.3,0.8,0.3,1.3c0,0.6-0.2,1.1-0.5,1.6c-0.3,0.5-0.8,0.9-1.3,1.2c0.4,0.1,0.7,0.3,1,0.6s0.5,0.5,0.7,0.8
		c0.2,0.3,0.4,0.6,0.5,0.9c0.1,0.3,0.2,0.7,0.2,1c0,0.6-0.1,1.1-0.3,1.5c-0.2,0.5-0.5,0.8-0.8,1.2c-0.4,0.3-0.8,0.6-1.3,0.8
		c-0.5,0.2-1,0.3-1.7,0.3c-0.6,0-1.1-0.1-1.6-0.3c-0.5-0.2-0.9-0.4-1.3-0.8c-0.4-0.3-0.6-0.7-0.9-1.2
		C205.5,49.5,205.4,49,205.4,48.4z M206.9,48.3c0,0.4,0.1,0.7,0.2,1.1c0.1,0.3,0.3,0.6,0.5,0.8c0.2,0.2,0.5,0.4,0.8,0.5
		c0.3,0.1,0.7,0.2,1,0.2c0.4,0,0.7-0.1,1-0.2c0.3-0.1,0.6-0.3,0.8-0.5c0.2-0.2,0.4-0.5,0.5-0.8c0.1-0.3,0.2-0.7,0.2-1.1
		c0-0.4-0.1-0.7-0.2-1c-0.1-0.3-0.3-0.6-0.5-0.8c-0.2-0.2-0.5-0.4-0.8-0.6c-0.3-0.1-0.7-0.2-1-0.2c-0.4,0-0.7,0.1-1,0.2
		c-0.3,0.1-0.6,0.3-0.8,0.5c-0.2,0.2-0.4,0.5-0.5,0.8C207,47.6,206.9,47.9,206.9,48.3z M207.4,42.5c0,0.3,0.1,0.6,0.2,0.8
		c0.1,0.3,0.3,0.5,0.4,0.7c0.2,0.2,0.4,0.3,0.7,0.4c0.3,0.1,0.5,0.2,0.8,0.2s0.6-0.1,0.8-0.2c0.3-0.1,0.5-0.3,0.7-0.4
		c0.2-0.2,0.3-0.4,0.4-0.7c0.1-0.3,0.2-0.5,0.2-0.8c0-0.3-0.1-0.6-0.2-0.8c-0.1-0.3-0.3-0.5-0.4-0.7c-0.2-0.2-0.4-0.3-0.7-0.4
		c-0.3-0.1-0.5-0.2-0.8-0.2c-0.3,0-0.6,0.1-0.9,0.2c-0.3,0.1-0.5,0.3-0.7,0.5c-0.2,0.2-0.3,0.4-0.4,0.7
		C207.4,41.9,207.4,42.2,207.4,42.5z M228.5,51.9h-1.4v-5.2c0-1-0.2-1.7-0.5-2.2c-0.3-0.4-0.8-0.7-1.5-0.7c-0.6,0-1.1,0.3-1.6,0.8
		c-0.4,0.6-0.6,1.2-0.6,2v5.1h-1.4v-5.3c0-1.8-0.7-2.7-2-2.7c-0.6,0-1.2,0.3-1.6,0.8c-0.4,0.5-0.6,1.2-0.6,2.1v5.1h-1.4v-9h1.4v1.4
		h0c0.6-1.1,1.6-1.6,2.8-1.6c0.6,0,1.2,0.2,1.6,0.5c0.5,0.3,0.8,0.8,0.9,1.3c0.7-1.2,1.7-1.9,3-1.9c2,0,3,1.2,3,3.7V51.9z
		 M235.6,44.2h-4.9v-0.7c0-0.4,0.1-0.7,0.3-1c0.2-0.3,0.4-0.6,0.7-0.8c0.3-0.2,0.5-0.5,0.9-0.7c0.3-0.2,0.6-0.5,0.8-0.7
		c0.3-0.2,0.5-0.5,0.7-0.7c0.2-0.3,0.3-0.6,0.3-0.9c0-0.3-0.1-0.6-0.3-0.8c-0.2-0.2-0.5-0.3-0.9-0.3c-0.7,0-1.3,0.3-1.9,0.9v-1.3
		c0.5-0.4,1.2-0.7,2.1-0.7c0.3,0,0.6,0,0.9,0.1c0.3,0.1,0.5,0.2,0.7,0.4c0.2,0.2,0.4,0.4,0.5,0.7c0.1,0.3,0.2,0.5,0.2,0.9
		c0,0.4-0.1,0.8-0.3,1.2c-0.2,0.3-0.4,0.6-0.6,0.9s-0.5,0.5-0.8,0.7c-0.3,0.2-0.6,0.4-0.8,0.6c-0.3,0.2-0.5,0.3-0.6,0.5
		c-0.2,0.2-0.2,0.3-0.2,0.5v0.1h3.5V44.2z"/>
	<path fill="#8D6914" d="M180.6,27.9h-1.3l-1-2.7h-4.2l-1,2.7h-1.3l3.8-9.8h1.2L180.6,27.9z M177.9,24.2l-1.5-4.2
		c-0.1-0.1-0.1-0.4-0.1-0.7h0c0,0.3-0.1,0.5-0.2,0.7l-1.5,4.2H177.9z M177.6,15l-1.8,2.2H175l1.5-2.2H177.6z M189.1,27.9h-1.4
		l-1.6-2.7c-0.2-0.3-0.3-0.5-0.4-0.6c-0.1-0.2-0.3-0.3-0.4-0.4c-0.1-0.1-0.3-0.2-0.5-0.2c-0.2-0.1-0.4-0.1-0.6-0.1h-0.9v4.2H182
		v-9.8h2.9c0.4,0,0.8,0.1,1.2,0.2c0.4,0.1,0.7,0.3,0.9,0.5c0.3,0.2,0.5,0.5,0.6,0.8c0.1,0.3,0.2,0.7,0.2,1.1c0,0.3-0.1,0.7-0.2,0.9
		c-0.1,0.3-0.2,0.5-0.4,0.8c-0.2,0.2-0.4,0.4-0.7,0.6c-0.3,0.2-0.6,0.3-0.9,0.4v0c0.2,0.1,0.3,0.2,0.4,0.3c0.1,0.1,0.2,0.2,0.3,0.3
		c0.1,0.1,0.2,0.3,0.3,0.4c0.1,0.2,0.2,0.3,0.4,0.6L189.1,27.9z M183.2,19.2v3.6h1.6c0.3,0,0.6,0,0.8-0.1c0.2-0.1,0.5-0.2,0.6-0.4
		c0.2-0.2,0.3-0.4,0.4-0.6c0.1-0.2,0.1-0.5,0.1-0.8c0-0.5-0.2-0.9-0.5-1.2c-0.3-0.3-0.8-0.4-1.5-0.4H183.2z M195.6,27.9h-5.2v-9.8h5
		v1h-3.8v3.3h3.5v1h-3.5v3.4h4V27.9z M205.1,27.9h-1.3l-1-2.7h-4.2l-1,2.7h-1.3l3.8-9.8h1.2L205.1,27.9z M202.4,24.2l-1.5-4.2
		c-0.1-0.1-0.1-0.4-0.1-0.7h0c0,0.3-0.1,0.5-0.2,0.7l-1.5,4.2H202.4z M217.5,24c0,2.8-1.2,4.1-3.7,4.1c-2.4,0-3.6-1.3-3.6-4v-6h1.1
		v5.9c0,2,0.8,3,2.5,3c1.6,0,2.5-1,2.5-2.9v-6h1.1V24z M215.6,15l-1.8,2.2H213l1.5-2.2H215.6z M225.8,19.2H223v8.8h-1.1v-8.8H219v-1
		h6.8V19.2z M228.5,27.9h-1.1v-9.8h1.1V27.9z M236.2,27.9h-5.1v-9.8h1.1v8.8h3.9V27.9z"/>
	<path fill="#FFFFFF" d="M67,106.8h-2.6v8.1h-1.1v-8.1h-2.6v-1H67V106.8z M71.8,114.9h-1v-7.9c-0.1,0.1-0.2,0.2-0.4,0.3
		c-0.2,0.1-0.3,0.2-0.5,0.3c-0.2,0.1-0.4,0.2-0.6,0.3c-0.2,0.1-0.4,0.2-0.6,0.2v-1.1c0.2-0.1,0.5-0.1,0.7-0.3
		c0.3-0.1,0.5-0.2,0.8-0.4c0.2-0.1,0.5-0.3,0.7-0.4c0.2-0.1,0.4-0.3,0.6-0.4h0.4V114.9z M79,114.9v-9.1h2.5c3.2,0,4.8,1.5,4.8,4.4
		c0,1.4-0.4,2.5-1.3,3.4c-0.9,0.9-2.1,1.3-3.6,1.3H79z M80,106.8v7.2h1.4c1.2,0,2.1-0.3,2.8-1c0.7-0.6,1-1.5,1-2.7
		c0-2.3-1.2-3.5-3.7-3.5H80z M94.7,111.3c0,2.6-1.2,3.8-3.5,3.8c-2.2,0-3.3-1.2-3.3-3.7v-5.6H89v5.5c0,1.9,0.8,2.8,2.4,2.8
		c1.5,0,2.3-0.9,2.3-2.7v-5.6h1.1V111.3z M98.1,111.5v3.4H97v-9.1h2.5c1,0,1.7,0.2,2.3,0.7c0.5,0.5,0.8,1.1,0.8,2
		c0,0.9-0.3,1.6-0.9,2.1c-0.6,0.6-1.4,0.8-2.4,0.8H98.1z M98.1,106.8v3.7h1.1c0.7,0,1.3-0.2,1.7-0.5c0.4-0.3,0.6-0.8,0.6-1.4
		c0-1.2-0.7-1.8-2.1-1.8H98.1z M109,114.9h-4.7v-9.1h1.1v8.1h3.7V114.9z M115.2,114.9h-4.8v-9.1h4.6v1h-3.6v3h3.3v1h-3.3v3.2h3.8
		V114.9z M123.3,114.9H122l-2.1-3.5c-0.1-0.1-0.1-0.3-0.2-0.5h0c0,0.1-0.1,0.2-0.2,0.5l-2.2,3.5H116l3-4.6l-2.8-4.5h1.3l1.9,3.2
		c0.1,0.2,0.2,0.4,0.3,0.6h0c0.1-0.3,0.3-0.5,0.4-0.7l1.9-3.2h1.2l-2.9,4.5L123.3,114.9z"/>
	<g>
		<path fill="#FFFFFF" d="M60.5,96.9V63.3h9.3c11.8,0,17.8,5.5,17.8,16.4c0,5.2-1.6,9.4-4.9,12.5s-7.7,4.7-13.2,4.7H60.5z
			 M64.4,66.9v26.5h5c4.4,0,7.8-1.2,10.3-3.5s3.7-5.7,3.7-10c0-8.6-4.6-12.9-13.7-12.9H64.4z"/>
	</g>
</g>
</svg>
