<?xml version="1.0" encoding="utf-8"?>
<!-- Generator: Adobe Illustrator 24.1.0, SVG Export Plug-In . SVG Version: 6.00 Build 0)  -->
<svg version="1.1" id="Layer_1" xmlns="http://www.w3.org/2000/svg" xmlns:xlink="http://www.w3.org/1999/xlink" x="0px" y="0px"
	 viewBox="0 0 151.4 139.1" style="enable-background:new 0 0 151.4 139.1;" xml:space="preserve">
<style type="text/css">
	.st0{fill:#FFFFFF;}
	.st1{fill-rule:evenodd;clip-rule:evenodd;fill:#FFFFFF;}
	.st2{fill:#C4C4C4;}
	.st3{opacity:0.2;}
	.st4{fill:#B7D8AF;}
	.st5{fill:#814494;}
	.st6{fill:#C892C1;}
	.st7{fill:#86BACB;}
	.st8{opacity:0.2;fill:#EE8B75;enable-background:new    ;}
	.st9{fill:#4075B7;}
	.st10{fill:#DFA819;}
	.st11{fill:#EBEBEB;}
	.st12{fill:#444141;}
	.st13{fill:#DAB2D5;}
	.st14{clip-path:url(#SVGID_2_);}
	.st15{fill:url(#SVGID_3_);}
	.st16{fill:#D7AED2;}
	.st17{fill:#C7DDB6;}
	.st18{fill:#3E98BB;}
</style>
<g>
	<g>
		<path class="st4" d="M70.2,56.7H26.6v17.7h0.9V76h-1.6V94h36.7V76H36.6v-1.6h33.7V56.7z"/>
		<rect x="63.5" y="75.9" class="st12" width="6.9" height="18.1"/>
		<rect x="16.1" y="86" class="st4" width="8" height="8.3"/>
	</g>
	<g>
		<path class="st12" d="M143.6,44.2H98.5V30.6l6-4.3h21.2v3.1h2.4v6.9h16.3v2.7h-0.7V44.2z"/>
		<path class="st12" d="M82.7,6.3H71.9v28.2h19.6v-1.3h2v-1.4h1.8v-1.3H97v-1.4h1.8v-1.4h2v-1.4h1.8v-1.4h25.2V15h-2.2v-2l-9.8-6.7
			h-32v13h-1.1V6.3z"/>
	</g>
	<g>
		<rect x="111.3" y="105.5" class="st12" width="35.5" height="21"/>
		<rect x="108.8" y="86" class="st12" width="38" height="18.1"/>
	</g>
	<rect x="6.7" y="116.4" class="st12" width="55.8" height="17.7"/>
	<rect x="25.9" y="96.1" class="st12" width="44.5" height="18.1"/>
	<rect x="3.1" y="105.9" class="st12" width="21" height="8.3"/>
	<rect x="63.5" y="116.4" class="st12" width="6.9" height="18.1"/>
	<g>
		<path class="st12" d="M16.1,46.5h9.1v8.3h-9.1V46.5z"/>
		<rect x="62.5" y="36" class="st12" width="8" height="18.1"/>
		<path class="st12" d="M61.4,54.3H26.6V36.4h0.9v-1.6h-1.3V17h1.3v-1.4l9.8-6.7H57v7.8h4.5v2.7h1.1v-2.7h7.8v17.7H36.8v1.4h24.8
			L61.4,54.3z"/>
	</g>
	<g>
		<rect x="108.8" y="65.7" class="st12" width="34" height="18.1"/>
		<rect x="108.8" y="46.5" class="st12" width="34" height="18.1"/>
		<rect x="145" y="75.9" class="st12" width="2.5" height="8"/>
	</g>
	<path class="st12" d="M72.1,134V36h19.7l5.1-4.3v14.7h10.7v59.4h2v21H96.9v7.2H72.1z"/>
	<path class="st11" d="M147.4,72V33.1h-14.8V12.5L113.4,0H67.7v11.6h-6.1V4H38.3L22.1,14.3v29.1h-8.9v14.9h8.9v24.6h-8.9v15.2h8.9
		v4.7H0V118h3v20.7h98v-8.3h50V72H147.4z M149,128.4H99l0,8.3H5V116H2v-11.2h22.1v-8.7h-8.9V84.9h8.9V56.3h-8.9V45.4h8.9v-30L38.9,6
		h20.6v7.6h10.1V2h43.1l17.7,11.6v21.5h14.8V74h3.6V128.4z"/>
</g>
</svg>
