<svg id="Layer_1" data-name="Layer 1" xmlns="http://www.w3.org/2000/svg" viewBox="0 0 97 13">
  <defs>
    <style>
      .cls-1 {
        fill: #fff;
      }
    </style>
  </defs>
  <path class="cls-1" d="M32.8,5.6a1,1,0,0,0-.4-.9,4.2,4.2,0,0,0-2.9-.8,4.1,4.1,0,0,0-2.8.8,1,1,0,0,0-.4.9c0,.4.1.9.1,1.5a12.2,12.2,0,0,0,3.1.6,12.2,12.2,0,0,0,3.2-.6A6.6,6.6,0,0,1,32.8,5.6Z"/>
  <path class="cls-1" d="M31.2,9.1c0,.4.2.4.7.4s.9-.6.6-1S31.2,9.1,31.2,9.1Z"/>
  <path class="cls-1" d="M29.5,0a7.4,7.4,0,0,0-7.4,7.4,7.5,7.5,0,0,0,2,5.1h1.8l.6-2c-.2-.1-.3-.4-.4-.7a14.7,14.7,0,0,1-.6-4.2c0-1.8,1.9-2.5,4-2.5s4.1.7,4.1,2.5A14.7,14.7,0,0,1,33,9.8c-.1.3-.2.6-.4.7l.6,2h1.7A7.2,7.2,0,0,0,37,7.4,7.5,7.5,0,0,0,29.5,0Z"/>
  <path class="cls-1" d="M32.5,12.5,32,10.8H27.1l-.6,1.7Z"/>
  <path class="cls-1" d="M27.2,9.5c.5,0,.7,0,.7-.4S26.8,8,26.6,8.5,26.7,9.5,27.2,9.5Z"/>
  <path class="cls-1" d="M4.7,5.9h.5a.7.7,0,0,0,.1-.5V4.4c0-.1.1-.2.1-.3h.7v6.1a1.2,1.2,0,0,0,.4.8,1.3,1.3,0,0,0,.7.5v1.2c.1.1.1.2.2.2H8.5l.4-.2a.5.5,0,0,0,.2-.4v-.9h3.1v.9c0,.2,0,.3.1.4l.4.2h.8l.4-.2c.1-.1.1-.2.1-.4v-1l.8-.5a1.1,1.1,0,0,0,.3-.8V4h.7a.4.4,0,0,1,.1.3v.9a.8.8,0,0,0,.2.5l.4.2.4-.2c.2-.1.2-.3.2-.5V4.4a1.5,1.5,0,0,0-.4-1.1,1.7,1.7,0,0,0-1.2-.5h-.4V2.1a1.7,1.7,0,0,0-.3-1A1.6,1.6,0,0,0,14,.5,10.9,10.9,0,0,0,7.3.5a1.5,1.5,0,0,0-.9.6,1.7,1.7,0,0,0-.3,1v.7H5.7a1.6,1.6,0,0,0-1.1.5,1.6,1.6,0,0,0-.5,1.1v.9a.8.8,0,0,0,.2.5Zm3.9,4.2H8.1l-.3-.4V9.2A.5.5,0,0,1,8,8.8l.4-.2h.4l.4.3a.6.6,0,0,1,.1.4v.3l-.2.3-.3.2Zm4.1,0h-.4c-.2-.1-.3-.2-.3-.4a.6.6,0,0,1-.1-.4l.2-.4.4-.2H13l.3.3a.8.8,0,0,1,.2.4v.3l-.2.3-.2.2ZM9.4,1.5h.2a6.7,6.7,0,0,1,2,0h.2v.8a.1.1,0,0,1-.1.1.1.1,0,0,1-.1.1H9.4Zm-2,2.4c0-.1,0-.2.1-.2s.1-.1.2-.1h6.1V6.9H7.5V3.9Z"/>
  <path class="cls-1" d="M74.3,10.2c-1,.2-1.9,0-1.6,1.1A2,2,0,0,0,74.9,13a1.9,1.9,0,0,0,1.4-2.4C76.1,9.5,75.3,10,74.3,10.2Z"/>
  <path class="cls-1" d="M74.2,9.7h.2a1.9,1.9,0,0,0,.9-.4,2.1,2.1,0,0,0,.6-1,5.8,5.8,0,0,0-.3-2.6,3.6,3.6,0,0,0-1.2-1.8,1.9,1.9,0,0,0-1.6-.6,2,2,0,0,0-1.3,1.2,3.9,3.9,0,0,0-.3,2.6A10.8,10.8,0,0,0,72,9a2.4,2.4,0,0,0,.9.8A2,2,0,0,0,74.2,9.7Z"/>
  <path class="cls-1" d="M79.3,7c-1-.1-1.9-.7-2.1.4a1.9,1.9,0,0,0,1.6,2.3A2,2,0,0,0,81,8C81.1,6.8,80.3,7.2,79.3,7Z"/>
  <path class="cls-1" d="M80.3,0a2.1,2.1,0,0,0-2,1.2,5.4,5.4,0,0,0-.9,2.5A5.7,5.7,0,0,0,77.5,5,1.6,1.6,0,0,0,78,6l.8.4h1.3a1.3,1.3,0,0,0,1.1-.6,5.4,5.4,0,0,0,.9-2.4A4.2,4.2,0,0,0,81.6,1a1.8,1.8,0,0,0-.5-.7Z"/>
</svg>
