<svg id="Layer_1" data-name="Layer 1" xmlns="http://www.w3.org/2000/svg" viewBox="0 0 18 13.1">
  <defs>
    <style>
      .cls-1 {
        fill: #fff;
      }
    </style>
  </defs>
  <g>
    <path class="cls-1" d="M4.6,11.8c-.1.2-.1.5.1.6l.8.5h.6l2.3-4L7.7,7.6Z"/>
    <path class="cls-1" d="M13.9,1.4l-.3-.2h-.1L11.6,4h-.3a.1.1,0,1,1,0-.2L13,1h0L12.7.8h-.1L10.7,3.4h-.2a.1.1,0,0,1-.1-.1h0s-.1-.1,0-.1L12.1.3h0L11.8,0h-.1L9.8,2.8l-.2.4a2,2,0,0,0-.3,1.1l.2.7-.2.3.6.9.3-.7H11a1.6,1.6,0,0,0,.9-.7l.2-.4,1.8-2.8Z"/>
    <path class="cls-1" d="M8.2,5.1,5,.1c-.3-.4-1.4,1.1-.6,2.7L6,5.9a1.1,1.1,0,0,0,1.5.5h.3l3.7,6.5a.4.4,0,0,0,.6.1h0l.8-.5c.2-.1.3-.4.1-.5h0Z"/>
  </g>
</svg>
