<svg id="Layer_1" data-name="Layer 1" xmlns="http://www.w3.org/2000/svg" viewBox="0 0 18.1 12.1">
  <defs>
    <style>
      .cls-1 {
        fill: #fff;
      }
    </style>
  </defs>
  <g>
    <path class="cls-1" d="M5.2,3.7l2.4.7a5,5,0,0,0,3.2-.2l6.4-1.7h.2c.2-.1.5-.1.5-.4s-.3-.4-.5-.4L13.9,1,9.4,0A5.7,5.7,0,0,0,7.6.3L.6,1.7c-.2.1-.5.1-.5.4s.3.4.5.5a4,4,0,0,0,1.5.3c.4.1.5.3.5.6a2.1,2.1,0,0,1-.2,1.3c-.3.4-.1.2-.1.3a10.4,10.4,0,0,1,0,1.8,10.4,10.4,0,0,0,.5,4.3c.1.6.4.8,1.1.8a2.4,2.4,0,0,0,1.4-.5c.4-.3.2-.5,0-.8A10.5,10.5,0,0,1,3.6,6.8c-.1-.4-.3-.8-.1-1.1a2.3,2.3,0,0,0-.2-1.6c-.1-.5.1-.7.7-.8L8.3,2.2h.2c.2-.1.5-.1.5.2a.5.5,0,0,1-.3.5l-2.5.6Z"/>
    <path class="cls-1" d="M4.8,4.7c0,2.1,1,3.2,3.3,3.7a4.7,4.7,0,0,0,4.1-1.1,2.2,2.2,0,0,0,1-2.1V3.9c0-.3,0-.4-.4-.3l-3.4.8H8.5L5.1,3.6c-.3-.1-.3-.1-.3.2Z"/>
  </g>
</svg>
