<svg id="Layer_1" data-name="Layer 1" xmlns="http://www.w3.org/2000/svg" viewBox="0 0 18 13">
  <defs>
    <style>
      .cls-1 {
        fill: #fff;
      }
    </style>
  </defs>
  <g>
    <path class="cls-1" d="M9.2,7V6.4c0-.1-.1-.1-.2-.1s-.1,0-.1.1h0v.8h1V7Z"/>
    <path class="cls-1" d="M16.6,6.8H11.9L9,4.2,6.2,6.8H1.5c-.1,0-.1,0-.1.1v5.9l.2.2H7.8V11.1A1.2,1.2,0,0,1,9,9.9,1.2,1.2,0,0,1,10.3,11h0v1.8h6.1c.2,0,.3-.1.3-.2V6.9C16.7,6.8,16.7,6.8,16.6,6.8ZM4.1,11.6H2.6V10.3c0-.1,0-.1.1-.1H4a.1.1,0,0,1,.1.1h0Zm0-2.4H2.6V7.9H4.1Zm2.4,2.4H5.1V10.3c0-.1,0-.1.1-.1H6.4c.1,0,.1,0,.1.1Zm0-2.4a.1.1,0,0,1-.1.1H5.2c-.1,0-.1,0-.1-.1h0V7.9H6.5ZM9,8.3a.9.9,0,0,1-1-1H8a1,1,0,0,1,.9-1.1H9A1.1,1.1,0,0,1,9,8.3Zm4,3.3H11.5V10.3c0-.1,0-.1.1-.1h1.3c.1,0,.1,0,.1.1Zm0-2.4a.1.1,0,0,1-.1.1H11.5V7.9H13Zm2.5,2.4H14V10.3c0-.1,0-.1.1-.1h1.3c.1,0,.1,0,.1.1Zm0-2.4a.1.1,0,0,1-.1.1H14.1c-.1,0-.1,0-.1-.1h0V7.9h1.5Z"/>
    <path class="cls-1" d="M9.5,2c.8-.5,1.5.2,2.3-.2h.1V.1h-.1c-.8.4-1.5-.3-2.3.2h0V1.9Z"/>
    <path class="cls-1" d="M16.6,5.5,15.1,4.1H10.8L9.2,2.5V.2L9,0H9c-.1,0-.1.1-.1.2V2.5L7.3,4H3L1.5,5.5c-.1.1-.1.1-.1.2V6H6L9,3.3,12.1,6h4.6V5.7C16.7,5.6,16.7,5.6,16.6,5.5Z"/>
  </g>
</svg>
