<svg id="Layer_1" data-name="Layer 1" xmlns="http://www.w3.org/2000/svg" viewBox="0 0 18.1 15">
  <defs>
    <style>
      .cls-1 {
        fill: #fff;
      }
    </style>
  </defs>
  <path class="cls-1" d="M4.7,0A2.2,2.2,0,0,0,2.5,2.2a3.1,3.1,0,0,0,.2.8,2.5,2.5,0,0,0-.6,1.5,2.8,2.8,0,0,0,.4,1.3,3.5,3.5,0,0,0-1,2.1h0a3.2,3.2,0,0,0,2.7,3.2V14H1.9a.7.7,0,0,0-.4.5A.5.5,0,0,0,2,15H16a.5.5,0,0,0,.5-.5A.5.5,0,0,0,16,14H8.5V11.7a2.9,2.9,0,0,0,1.7-1.6A7.7,7.7,0,0,0,11,6.5a8,8,0,0,0-.8-3.6A2.6,2.6,0,0,0,8.1,1.3H7.7c0,.3.1.6.1.9a1.4,1.4,0,0,1-.2.6,2.4,2.4,0,0,1,.7,1.7h0A3.5,3.5,0,0,1,8,5.7a3.9,3.9,0,0,1,.8,2.2h0a3.9,3.9,0,0,1-1.9,3.5,1.1,1.1,0,0,0,.7.3V14H5.2V11.1A3.2,3.2,0,0,0,7.9,7.9h0a3.5,3.5,0,0,0-1-2.1,2.8,2.8,0,0,0,.4-1.3A2.1,2.1,0,0,0,6.6,3a3.1,3.1,0,0,0,.2-.8A2.1,2.1,0,0,0,4.7,0Zm9.4,1.5a2.5,2.5,0,1,0,0,4.9,2.5,2.5,0,0,0,0-4.9ZM8.3,11.8h0Zm-.5,0h0Z"/>
</svg>
