<?xml version="1.0" encoding="utf-8"?>
<!-- Generator: Adobe Illustrator 24.1.0, SVG Export Plug-In . SVG Version: 6.00 Build 0)  -->
<svg version="1.1" id="Layer_1" xmlns="http://www.w3.org/2000/svg" xmlns:xlink="http://www.w3.org/1999/xlink" x="0px" y="0px"
	 viewBox="0 0 321 122.8" style="enable-background:new 0 0 321 122.8;" xml:space="preserve">
<style type="text/css">
	.st0{fill:#804593;}
	.st1{fill:#FFFFFF;}
	.st2{fill:#88BBCB;}
	.st3{fill:#5B7C84;}
	.st4{fill:#D6ADD1;}
	.st5{fill:#C7DDB6;}
	.st6{fill:#DEA81B;}
	.st7{fill:#8BABD3;}
	.st8{fill:#8A7288;}
	.st9{fill:#8D9981;}
	.st10{fill:#9A6814;}
	.st11{fill:#2E5076;}
	.st12{fill:#45273B;}
</style>
<g>
	<rect x="117.8" y="65" class="st2" width="154" height="49"/>
	<rect x="170.8" y="9" class="st2" width="123" height="50"/>
	<rect x="107.8" y="36" class="st2" width="58" height="23"/>
	<g>
		<path class="st1" d="M57.1,95.8h-4.4l-3.6-9.4H35l-3.4,9.4h-4.4l12.9-33.6h4.1L57.1,95.8z M47.9,82.8l-5.3-14.3
			c-0.2-0.5-0.3-1.2-0.5-2.2H42c-0.2,1-0.3,1.7-0.5,2.2l-5.2,14.3H47.9z"/>
		<path class="st1" d="M31,113.8v-7.7h2.8v-1h-6.6v1h2.7v7.7H31z M37.5,113.8v-8.7h-0.9l-2.2,2.2l0.7,0.7l1.4-1.5v7.2H37.5z
			 M45.9,113.8c2.7,0,4.4-1.9,4.4-4.3c0-2.5-1.8-4.3-4.4-4.3h-3v8.7H45.9z M45.9,112.8H44v-6.7h1.9c2.1,0,3.3,1.5,3.3,3.4
			C49.2,111.3,48,112.8,45.9,112.8z M55.5,113.9c2.4,0,3.5-1.4,3.5-3.5v-5.3H58v5.3c0,1.6-0.9,2.6-2.5,2.6c-1.6,0-2.5-1-2.5-2.6
			v-5.3H52v5.3C52,112.5,53.2,113.9,55.5,113.9z M62.2,113.8v-3.4h2.4c1.7,0,2.7-1.2,2.7-2.6s-1-2.6-2.7-2.6h-3.5v8.7H62.2z
			 M64.5,109.4h-2.3v-3.3h2.3c1,0,1.7,0.7,1.7,1.7S65.5,109.4,64.5,109.4z M73.8,113.8v-1h-4v-7.7h-1.1v8.7H73.8z M81,113.8v-1h-4.6
			v-3H81v-1h-4.5v-2.8H81v-1h-5.7v8.7H81z M90.1,113.8l-3.4-4.5l3.2-4.2h-1.3l-2.6,3.5l-2.6-3.5h-1.3l3.2,4.2l-3.4,4.4h1.3l2.8-3.7
			l2.8,3.7H90.1z"/>
	</g>
</g>
<g>
	<path class="st3" d="M238.1,46c0,0.6-0.1,1.2-0.3,1.7s-0.5,1-0.8,1.3s-0.8,0.7-1.3,0.9s-1,0.3-1.6,0.3c-0.6,0-1.2-0.1-1.7-0.4
		c-0.5-0.3-0.9-0.6-1.3-1.1s-0.6-1.1-0.8-1.8s-0.3-1.5-0.3-2.4c0-1.1,0.1-2.1,0.4-3s0.6-1.7,1-2.3c0.4-0.6,1-1.1,1.6-1.5
		s1.3-0.5,2.1-0.5c0.9,0,1.6,0.1,2.1,0.4v1.4c-0.7-0.3-1.3-0.5-2.1-0.5c-0.6,0-1.1,0.1-1.5,0.4s-0.8,0.6-1.2,1.1s-0.6,1-0.7,1.7
		s-0.3,1.4-0.3,2.2h0c0.6-1,1.5-1.6,2.9-1.6c0.6,0,1,0.1,1.5,0.3c0.4,0.2,0.8,0.5,1.1,0.8s0.6,0.8,0.7,1.2S238.1,45.4,238.1,46z
		 M236.6,46.2c0-0.4-0.1-0.8-0.2-1.2s-0.3-0.7-0.5-0.9s-0.5-0.4-0.8-0.6s-0.7-0.2-1-0.2c-0.4,0-0.7,0.1-1,0.2s-0.6,0.3-0.8,0.5
		s-0.4,0.5-0.5,0.8s-0.2,0.6-0.2,1c0,0.4,0.1,0.8,0.2,1.2s0.3,0.7,0.5,1s0.5,0.5,0.8,0.7c0.3,0.2,0.6,0.2,1,0.2c0.4,0,0.7-0.1,1-0.2
		s0.6-0.3,0.8-0.6s0.4-0.5,0.5-0.9S236.6,46.6,236.6,46.2z"/>
	<path class="st3" d="M247.7,38.2c-0.2,0.3-0.4,0.8-0.7,1.2c-0.3,0.5-0.6,1.1-0.9,1.7s-0.6,1.3-0.9,2s-0.6,1.5-0.9,2.2
		s-0.5,1.5-0.7,2.3s-0.4,1.6-0.5,2.3h-1.5c0.1-0.8,0.3-1.5,0.5-2.3c0.2-0.8,0.5-1.5,0.7-2.3c0.3-0.8,0.6-1.5,0.9-2.2
		s0.6-1.3,0.9-1.9s0.6-1.1,0.8-1.6s0.4-0.8,0.6-1.1h-6.3v-1.3h8V38.2z"/>
	<path class="st3" d="M250.5,50.2c-0.3,0-0.5-0.1-0.7-0.3s-0.3-0.4-0.3-0.7s0.1-0.5,0.3-0.7s0.4-0.3,0.7-0.3c0.3,0,0.5,0.1,0.7,0.3
		s0.3,0.4,0.3,0.7s-0.1,0.5-0.3,0.7S250.8,50.2,250.5,50.2z"/>
	<path class="st3" d="M261.3,42.9c0,1.2-0.1,2.2-0.3,3.1s-0.6,1.7-1,2.3s-1,1.1-1.6,1.4s-1.4,0.5-2.2,0.5c-0.8,0-1.6-0.1-2.2-0.4
		v-1.4c0.7,0.4,1.4,0.6,2.2,0.6c0.6,0,1.1-0.1,1.5-0.4c0.4-0.2,0.8-0.6,1.1-1s0.5-1,0.7-1.7s0.2-1.4,0.2-2.3h0
		c-0.5,1.1-1.5,1.6-2.8,1.6c-0.5,0-1-0.1-1.5-0.3s-0.8-0.5-1.2-0.8s-0.6-0.8-0.8-1.2s-0.3-1-0.3-1.6c0-0.6,0.1-1.2,0.3-1.7
		c0.2-0.5,0.5-1,0.8-1.3c0.4-0.4,0.8-0.7,1.3-0.9s1-0.3,1.6-0.3c0.6,0,1.2,0.1,1.7,0.4s0.9,0.6,1.2,1.1s0.6,1.1,0.8,1.8
		S261.3,42,261.3,42.9z M259.7,41.6c0-0.5-0.1-0.9-0.2-1.3c-0.1-0.4-0.3-0.7-0.5-1s-0.5-0.5-0.8-0.7c-0.3-0.2-0.6-0.2-1-0.2
		c-0.3,0-0.7,0.1-1,0.2s-0.6,0.3-0.8,0.6c-0.2,0.2-0.4,0.5-0.5,0.9c-0.1,0.3-0.2,0.7-0.2,1.1c0,0.4,0.1,0.8,0.2,1.2s0.3,0.6,0.5,0.9
		s0.5,0.4,0.8,0.6s0.7,0.2,1,0.2c0.3,0,0.6-0.1,0.9-0.2s0.6-0.3,0.8-0.5c0.2-0.2,0.4-0.5,0.5-0.8C259.6,42.3,259.7,42,259.7,41.6z"
		/>
	<path class="st3" d="M276.4,50h-1.4v-5.2c0-1-0.2-1.7-0.5-2.2c-0.3-0.4-0.8-0.7-1.6-0.7c-0.6,0-1.1,0.3-1.6,0.8
		c-0.4,0.6-0.6,1.2-0.6,2V50h-1.4v-5.3c0-1.8-0.7-2.7-2-2.7c-0.6,0-1.2,0.3-1.6,0.8S265,44,265,44.8V50h-1.4v-9h1.4v1.4h0
		c0.6-1.1,1.6-1.6,2.8-1.6c0.6,0,1.2,0.2,1.6,0.5s0.8,0.8,0.9,1.3c0.7-1.2,1.7-1.9,3-1.9c2,0,3,1.2,3,3.7V50z"/>
	<path class="st3" d="M283.4,44.8h-4.9v-0.7c0-0.4,0.1-0.7,0.3-1c0.2-0.3,0.4-0.5,0.7-0.8c0.3-0.2,0.5-0.5,0.8-0.7s0.6-0.4,0.8-0.7
		s0.5-0.5,0.7-0.7s0.3-0.6,0.3-0.9c0-0.3-0.1-0.6-0.3-0.8c-0.2-0.2-0.5-0.3-0.9-0.3c-0.7,0-1.3,0.3-1.9,0.9v-1.3
		c0.5-0.4,1.2-0.7,2.1-0.7c0.3,0,0.6,0,0.9,0.1s0.5,0.2,0.7,0.4s0.4,0.4,0.5,0.7s0.2,0.5,0.2,0.9c0,0.4-0.1,0.8-0.3,1.2
		c-0.2,0.3-0.4,0.6-0.6,0.9s-0.5,0.5-0.8,0.7s-0.6,0.4-0.8,0.6s-0.5,0.3-0.6,0.5c-0.2,0.2-0.3,0.3-0.3,0.5v0.1h3.5V44.8z"/>
</g>
<g>
	<path class="st3" d="M211.8,26.2c-1,0.6-2.1,0.8-3.3,0.8c-1.4,0-2.5-0.5-3.4-1.4c-0.9-0.9-1.3-2.1-1.3-3.6c0-1.5,0.5-2.8,1.4-3.7
		c1-1,2.2-1.5,3.6-1.5c1.1,0,2,0.2,2.7,0.5v1.3c-0.8-0.5-1.7-0.8-2.8-0.8c-1.1,0-2,0.4-2.7,1.1S205,20.8,205,22c0,1.2,0.3,2.2,1,2.9
		s1.5,1.1,2.7,1.1c0.8,0,1.4-0.2,2-0.5v-2.7h-2.1v-1h3.3V26.2z"/>
	<path class="st3" d="M221.1,26.9h-1.4l-1.6-2.7c-0.2-0.3-0.3-0.5-0.4-0.7s-0.3-0.3-0.4-0.4c-0.1-0.1-0.3-0.2-0.5-0.2
		c-0.2-0.1-0.4-0.1-0.6-0.1h-0.9v4.2H214v-9.8h2.9c0.4,0,0.8,0.1,1.2,0.2c0.4,0.1,0.7,0.3,0.9,0.5c0.3,0.2,0.5,0.5,0.6,0.8
		s0.2,0.7,0.2,1.1c0,0.3-0.1,0.7-0.2,0.9c-0.1,0.3-0.2,0.5-0.4,0.8c-0.2,0.2-0.4,0.4-0.7,0.6c-0.3,0.2-0.6,0.3-0.9,0.4v0
		c0.2,0.1,0.3,0.2,0.4,0.2c0.1,0.1,0.2,0.2,0.3,0.3s0.2,0.3,0.3,0.4c0.1,0.2,0.2,0.3,0.4,0.6L221.1,26.9z M215.2,18.1v3.6h1.6
		c0.3,0,0.6,0,0.8-0.1c0.2-0.1,0.5-0.2,0.6-0.4s0.3-0.4,0.4-0.6s0.2-0.5,0.2-0.8c0-0.5-0.2-0.9-0.5-1.2c-0.3-0.3-0.8-0.4-1.5-0.4
		H215.2z"/>
	<path class="st3" d="M226.2,27.1c-1.4,0-2.5-0.5-3.3-1.4c-0.8-0.9-1.3-2.1-1.3-3.6c0-1.6,0.4-2.8,1.3-3.8s2-1.4,3.5-1.4
		c1.4,0,2.4,0.5,3.3,1.4c0.8,0.9,1.2,2.1,1.2,3.6c0,1.6-0.4,2.9-1.3,3.8S227.6,27.1,226.2,27.1z M226.3,18c-1,0-1.9,0.4-2.5,1.1
		s-1,1.7-1,2.9s0.3,2.2,0.9,2.9c0.6,0.7,1.4,1.1,2.5,1.1c1.1,0,1.9-0.4,2.5-1.1s0.9-1.7,0.9-2.9c0-1.3-0.3-2.3-0.9-3
		S227.4,18,226.3,18z"/>
	<path class="st3" d="M232.4,26.5v-1.4c0.2,0.1,0.3,0.3,0.6,0.4c0.2,0.1,0.4,0.2,0.7,0.3c0.2,0.1,0.5,0.1,0.7,0.2s0.5,0.1,0.7,0.1
		c0.7,0,1.2-0.1,1.6-0.4c0.3-0.3,0.5-0.6,0.5-1.1c0-0.3-0.1-0.5-0.2-0.7c-0.1-0.2-0.3-0.4-0.5-0.5s-0.4-0.3-0.7-0.5
		c-0.3-0.1-0.6-0.3-0.9-0.5c-0.3-0.2-0.7-0.3-1-0.5s-0.6-0.4-0.8-0.6s-0.4-0.5-0.5-0.7c-0.1-0.3-0.2-0.6-0.2-1
		c0-0.4,0.1-0.8,0.3-1.2s0.5-0.6,0.8-0.8s0.7-0.4,1.1-0.5c0.4-0.1,0.8-0.2,1.2-0.2c1,0,1.7,0.1,2.1,0.3v1.3
		c-0.6-0.4-1.3-0.6-2.2-0.6c-0.3,0-0.5,0-0.8,0.1s-0.5,0.1-0.7,0.3s-0.4,0.3-0.5,0.5s-0.2,0.4-0.2,0.7c0,0.3,0,0.5,0.1,0.6
		c0.1,0.2,0.2,0.3,0.4,0.5s0.4,0.3,0.7,0.4c0.3,0.1,0.6,0.3,0.9,0.5c0.4,0.2,0.7,0.4,1,0.5s0.6,0.4,0.8,0.6s0.4,0.5,0.6,0.8
		c0.1,0.3,0.2,0.6,0.2,1c0,0.5-0.1,0.9-0.3,1.2c-0.2,0.3-0.4,0.6-0.8,0.8c-0.3,0.2-0.7,0.4-1.1,0.5s-0.9,0.1-1.3,0.1
		c-0.2,0-0.3,0-0.6,0s-0.5-0.1-0.7-0.1s-0.5-0.1-0.7-0.2C232.7,26.7,232.5,26.6,232.4,26.5z"/>
	<path class="st3" d="M239.8,26.5v-1.4c0.2,0.1,0.3,0.3,0.6,0.4c0.2,0.1,0.4,0.2,0.7,0.3c0.2,0.1,0.5,0.1,0.7,0.2s0.5,0.1,0.7,0.1
		c0.7,0,1.2-0.1,1.6-0.4c0.3-0.3,0.5-0.6,0.5-1.1c0-0.3-0.1-0.5-0.2-0.7c-0.1-0.2-0.3-0.4-0.5-0.5s-0.4-0.3-0.7-0.5
		c-0.3-0.1-0.6-0.3-0.9-0.5c-0.3-0.2-0.7-0.3-1-0.5s-0.6-0.4-0.8-0.6s-0.4-0.5-0.5-0.7c-0.1-0.3-0.2-0.6-0.2-1
		c0-0.4,0.1-0.8,0.3-1.2s0.5-0.6,0.8-0.8s0.7-0.4,1.1-0.5c0.4-0.1,0.8-0.2,1.2-0.2c1,0,1.7,0.1,2.1,0.3v1.3
		c-0.6-0.4-1.3-0.6-2.2-0.6c-0.3,0-0.5,0-0.8,0.1s-0.5,0.1-0.7,0.3s-0.4,0.3-0.5,0.5s-0.2,0.4-0.2,0.7c0,0.3,0,0.5,0.1,0.6
		c0.1,0.2,0.2,0.3,0.4,0.5s0.4,0.3,0.7,0.4c0.3,0.1,0.6,0.3,0.9,0.5c0.4,0.2,0.7,0.4,1,0.5s0.6,0.4,0.8,0.6s0.4,0.5,0.6,0.8
		c0.1,0.3,0.2,0.6,0.2,1c0,0.5-0.1,0.9-0.3,1.2c-0.2,0.3-0.4,0.6-0.8,0.8c-0.3,0.2-0.7,0.4-1.1,0.5s-0.9,0.1-1.3,0.1
		c-0.2,0-0.3,0-0.6,0s-0.5-0.1-0.7-0.1s-0.5-0.1-0.7-0.2C240.1,26.7,239.9,26.6,239.8,26.5z"/>
	<path class="st3" d="M259.1,26.9h-1.3l-1-2.7h-4.2l-1,2.7h-1.3l3.8-9.8h1.2L259.1,26.9z M256.4,23.1l-1.5-4.2
		c0-0.1-0.1-0.4-0.2-0.7h0c0,0.3-0.1,0.5-0.2,0.7l-1.5,4.2H256.4z"/>
	<path class="st3" d="M267.6,26.9h-1.4l-1.6-2.7c-0.2-0.3-0.3-0.5-0.4-0.7s-0.3-0.3-0.4-0.4c-0.1-0.1-0.3-0.2-0.5-0.2
		c-0.2-0.1-0.4-0.1-0.6-0.1h-0.9v4.2h-1.1v-9.8h2.9c0.4,0,0.8,0.1,1.2,0.2c0.4,0.1,0.7,0.3,0.9,0.5c0.3,0.2,0.5,0.5,0.6,0.8
		s0.2,0.7,0.2,1.1c0,0.3-0.1,0.7-0.2,0.9c-0.1,0.3-0.2,0.5-0.4,0.8c-0.2,0.2-0.4,0.4-0.7,0.6c-0.3,0.2-0.6,0.3-0.9,0.4v0
		c0.2,0.1,0.3,0.2,0.4,0.2c0.1,0.1,0.2,0.2,0.3,0.3s0.2,0.3,0.3,0.4c0.1,0.2,0.2,0.3,0.4,0.6L267.6,26.9z M261.7,18.1v3.6h1.6
		c0.3,0,0.6,0,0.8-0.1c0.2-0.1,0.5-0.2,0.6-0.4s0.3-0.4,0.4-0.6s0.2-0.5,0.2-0.8c0-0.5-0.2-0.9-0.5-1.2c-0.3-0.3-0.8-0.4-1.5-0.4
		H261.7z"/>
	<path class="st3" d="M274.1,26.9h-5.2v-9.8h5v1h-3.8v3.3h3.5v1h-3.5v3.4h4V26.9z"/>
	<path class="st3" d="M283.6,26.9h-1.3l-1-2.7h-4.2l-1,2.7h-1.3l3.8-9.8h1.2L283.6,26.9z M280.9,23.1l-1.5-4.2
		c0-0.1-0.1-0.4-0.2-0.7h0c0,0.3-0.1,0.5-0.2,0.7l-1.5,4.2H280.9z"/>
</g>
</svg>
