<?xml version="1.0" encoding="utf-8"?>
<!-- Generator: Adobe Illustrator 24.1.0, SVG Export Plug-In . SVG Version: 6.00 Build 0)  -->
<svg version="1.1" id="Layer_1" xmlns="http://www.w3.org/2000/svg" xmlns:xlink="http://www.w3.org/1999/xlink" x="0px" y="0px"
	 viewBox="0 0 320.1 123.3" style="enable-background:new 0 0 320.1 123.3;" xml:space="preserve">
<style type="text/css">
	.st0{fill:#804593;}
	.st1{fill:#FFFFFF;}
	.st2{fill:#88BBCB;}
	.st3{fill:#5B7C84;}
	.st4{fill:#D6ADD1;}
	.st5{fill:#C7DDB6;}
	.st6{fill:#DEA81B;}
	.st7{fill:#8BABD3;}
	.st8{fill:#8A7288;}
	.st9{fill:#8D9981;}
	.st10{fill:#9A6814;}
	.st11{fill:#2E5076;}
	.st12{fill:#45273B;}
</style>
<g>
	<g>
		<path class="st5" d="M275.4,10.7H154.9v49h2.5v4.5h-4.5v49.5h101.5V64.2h-72v-4.5h93V10.7z"/>
		<rect x="125.9" y="91.7" class="st5" width="22" height="23"/>
	</g>
	<g>
		<path class="st1" d="M68.3,95.1c-2.5,1.3-5.6,2-9.3,2c-4.8,0-8.6-1.5-11.5-4.6s-4.3-7.1-4.3-12.1c0-5.4,1.6-9.7,4.9-13
			c3.2-3.3,7.3-5,12.3-5c3.2,0,5.8,0.5,7.9,1.4V68c-2.4-1.3-5.1-2-8-2c-3.9,0-7,1.3-9.4,3.9c-2.4,2.6-3.6,6-3.6,10.3
			c0,4.1,1.1,7.4,3.4,9.8c2.2,2.4,5.2,3.6,8.8,3.6c3.4,0,6.3-0.8,8.8-2.2V95.1z"/>
		<path class="st1" d="M51.6,106.4H49v8.1h-1.1v-8.1h-2.6v-1h6.3V106.4z M56.5,114.5h-1v-7.9c-0.1,0.1-0.2,0.2-0.4,0.3
			c-0.2,0.1-0.3,0.2-0.5,0.3c-0.2,0.1-0.4,0.2-0.6,0.3c-0.2,0.1-0.4,0.2-0.6,0.2v-1.1c0.2-0.1,0.5-0.1,0.7-0.3
			c0.3-0.1,0.5-0.2,0.8-0.4c0.2-0.1,0.5-0.3,0.7-0.4c0.2-0.1,0.4-0.3,0.6-0.4h0.4V114.5z M63.6,114.5v-9.1h2.5
			c3.2,0,4.8,1.5,4.8,4.4c0,1.4-0.4,2.5-1.3,3.4c-0.9,0.9-2.1,1.3-3.6,1.3H63.6z M64.7,106.4v7.2H66c1.2,0,2.1-0.3,2.8-1
			c0.7-0.6,1-1.5,1-2.7c0-2.3-1.2-3.5-3.7-3.5H64.7z M79.4,110.9c0,2.6-1.2,3.8-3.5,3.8c-2.2,0-3.3-1.2-3.3-3.7v-5.6h1.1v5.5
			c0,1.9,0.8,2.8,2.4,2.8c1.5,0,2.3-0.9,2.3-2.7v-5.6h1.1V110.9z M82.7,111.1v3.4h-1.1v-9.1h2.5c1,0,1.7,0.2,2.3,0.7
			c0.5,0.5,0.8,1.1,0.8,2c0,0.9-0.3,1.6-0.9,2.1c-0.6,0.6-1.4,0.8-2.4,0.8H82.7z M82.7,106.4v3.7h1.1c0.7,0,1.3-0.2,1.7-0.5
			c0.4-0.3,0.6-0.8,0.6-1.4c0-1.2-0.7-1.8-2.1-1.8H82.7z M93.7,114.5H89v-9.1H90v8.1h3.7V114.5z M99.9,114.5h-4.8v-9.1h4.6v1h-3.6v3
			h3.3v1h-3.3v3.2h3.8V114.5z M107.9,114.5h-1.3l-2.1-3.5c-0.1-0.1-0.1-0.3-0.2-0.5h0c0,0.1-0.1,0.2-0.2,0.5l-2.2,3.5h-1.3l3-4.6
			l-2.8-4.5h1.3l1.9,3.2c0.1,0.2,0.2,0.4,0.3,0.6h0c0.1-0.3,0.3-0.5,0.4-0.7l1.9-3.2h1.2L105,110L107.9,114.5z"/>
	</g>
</g>
<g>
	<path class="st9" d="M218.6,47.8c0,0.6-0.1,1.2-0.3,1.7s-0.5,0.9-0.9,1.3s-0.9,0.6-1.4,0.8s-1.2,0.3-1.8,0.3c-1.2,0-2-0.2-2.6-0.5
		v-1.5c0.9,0.6,1.7,0.8,2.6,0.8c0.5,0,0.9-0.1,1.2-0.2c0.4-0.1,0.7-0.3,0.9-0.6s0.5-0.5,0.6-0.9c0.1-0.3,0.2-0.7,0.2-1.1
		c0-0.8-0.3-1.5-0.8-1.9s-1.4-0.7-2.4-0.7c-0.2,0-0.3,0-0.5,0s-0.4,0-0.6,0s-0.4,0-0.5,0s-0.3,0-0.5,0l0.4-6.3h5.8v1.3h-4.6
		l-0.3,3.7c0.2,0,0.4,0,0.6,0s0.4,0,0.6,0c0.7,0,1.3,0.1,1.8,0.3s1,0.4,1.3,0.8c0.4,0.3,0.6,0.7,0.8,1.2S218.6,47.2,218.6,47.8z"/>
	<path class="st9" d="M228.8,47.6c0,0.6-0.1,1.2-0.3,1.7s-0.5,1-0.8,1.3s-0.8,0.7-1.3,0.9s-1,0.3-1.6,0.3c-0.6,0-1.2-0.1-1.7-0.4
		c-0.5-0.3-0.9-0.6-1.3-1.1s-0.6-1.1-0.8-1.8s-0.3-1.5-0.3-2.4c0-1.1,0.1-2.1,0.4-3s0.6-1.7,1-2.3c0.4-0.6,1-1.1,1.6-1.5
		s1.3-0.5,2.1-0.5c0.9,0,1.6,0.1,2.1,0.4v1.4c-0.7-0.3-1.3-0.5-2.1-0.5c-0.6,0-1.1,0.1-1.5,0.4s-0.8,0.6-1.2,1.1s-0.6,1-0.7,1.7
		s-0.3,1.4-0.3,2.2h0c0.6-1,1.5-1.6,2.9-1.6c0.6,0,1,0.1,1.5,0.3c0.4,0.2,0.8,0.5,1.1,0.8s0.6,0.8,0.7,1.2S228.8,47.1,228.8,47.6z
		 M227.3,47.8c0-0.4-0.1-0.8-0.2-1.2s-0.3-0.7-0.5-0.9s-0.5-0.4-0.8-0.6s-0.7-0.2-1-0.2c-0.4,0-0.7,0.1-1,0.2s-0.6,0.3-0.8,0.5
		s-0.4,0.5-0.5,0.8s-0.2,0.6-0.2,1c0,0.4,0.1,0.8,0.2,1.2s0.3,0.7,0.5,1s0.5,0.5,0.8,0.7c0.3,0.2,0.6,0.2,1,0.2c0.4,0,0.7-0.1,1-0.2
		s0.6-0.3,0.8-0.6s0.4-0.5,0.5-0.9C227.3,48.6,227.3,48.2,227.3,47.8z"/>
	<path class="st9" d="M231.5,51.8c-0.3,0-0.5-0.1-0.7-0.3s-0.3-0.4-0.3-0.7s0.1-0.5,0.3-0.7s0.4-0.3,0.7-0.3c0.3,0,0.5,0.1,0.7,0.3
		s0.3,0.4,0.3,0.7s-0.1,0.5-0.3,0.7S231.8,51.8,231.5,51.8z"/>
	<path class="st9" d="M242.3,44.6c0,1.2-0.1,2.2-0.3,3.1s-0.6,1.7-1,2.3s-1,1.1-1.6,1.4s-1.4,0.5-2.2,0.5c-0.8,0-1.6-0.1-2.2-0.4V50
		c0.7,0.4,1.4,0.6,2.2,0.6c0.6,0,1.1-0.1,1.5-0.4c0.4-0.2,0.8-0.6,1.1-1s0.5-1,0.7-1.7s0.2-1.4,0.2-2.3h0c-0.5,1.1-1.5,1.6-2.8,1.6
		c-0.5,0-1-0.1-1.5-0.3s-0.8-0.5-1.2-0.8s-0.6-0.8-0.8-1.2s-0.3-1-0.3-1.6c0-0.6,0.1-1.2,0.3-1.7c0.2-0.5,0.5-1,0.8-1.3
		c0.4-0.4,0.8-0.7,1.3-0.9s1-0.3,1.6-0.3c0.6,0,1.2,0.1,1.7,0.4s0.9,0.6,1.2,1.1s0.6,1.1,0.8,1.8S242.3,43.7,242.3,44.6z
		 M240.7,43.3c0-0.5-0.1-0.9-0.2-1.3c-0.1-0.4-0.3-0.7-0.5-1s-0.5-0.5-0.8-0.7c-0.3-0.2-0.6-0.2-1-0.2c-0.3,0-0.7,0.1-1,0.2
		s-0.6,0.3-0.8,0.6c-0.2,0.2-0.4,0.5-0.5,0.9c-0.1,0.3-0.2,0.7-0.2,1.1c0,0.4,0.1,0.8,0.2,1.2s0.3,0.6,0.5,0.9s0.5,0.4,0.8,0.6
		s0.7,0.2,1,0.2c0.3,0,0.6-0.1,0.9-0.2s0.6-0.3,0.8-0.5c0.2-0.2,0.4-0.5,0.5-0.8C240.6,43.9,240.7,43.6,240.7,43.3z"/>
	<path class="st9" d="M257.4,51.6h-1.4v-5.2c0-1-0.2-1.7-0.5-2.2c-0.3-0.4-0.8-0.7-1.6-0.7c-0.6,0-1.1,0.3-1.6,0.8
		c-0.4,0.6-0.6,1.2-0.6,2v5.1h-1.4v-5.3c0-1.8-0.7-2.7-2-2.7c-0.6,0-1.2,0.3-1.6,0.8s-0.6,1.2-0.6,2.1v5.1h-1.4v-9h1.4v1.4h0
		c0.6-1.1,1.6-1.6,2.8-1.6c0.6,0,1.2,0.2,1.6,0.5s0.8,0.8,0.9,1.3c0.7-1.2,1.7-1.9,3-1.9c2,0,3,1.2,3,3.7V51.6z"/>
	<path class="st9" d="M264.4,46.5h-4.9v-0.7c0-0.4,0.1-0.7,0.3-1c0.2-0.3,0.4-0.5,0.7-0.8c0.3-0.2,0.5-0.5,0.8-0.7s0.6-0.4,0.8-0.7
		s0.5-0.5,0.7-0.7s0.3-0.6,0.3-0.9c0-0.3-0.1-0.6-0.3-0.8c-0.2-0.2-0.5-0.3-0.9-0.3c-0.7,0-1.3,0.3-1.9,0.9v-1.3
		c0.5-0.4,1.2-0.7,2.1-0.7c0.3,0,0.6,0,0.9,0.1s0.5,0.2,0.7,0.4s0.4,0.4,0.5,0.7s0.2,0.5,0.2,0.9c0,0.4-0.1,0.8-0.3,1.2
		c-0.2,0.3-0.4,0.6-0.6,0.9s-0.5,0.5-0.8,0.7s-0.6,0.4-0.8,0.6s-0.5,0.3-0.6,0.5c-0.2,0.2-0.3,0.3-0.3,0.5v0.1h3.5V46.5z"/>
</g>
<g>
	<path class="st9" d="M192.2,26.8c-1,0.6-2.1,0.8-3.3,0.8c-1.4,0-2.5-0.5-3.4-1.4c-0.9-0.9-1.3-2.1-1.3-3.6c0-1.5,0.5-2.8,1.4-3.7
		c1-1,2.2-1.5,3.6-1.5c1.1,0,2,0.2,2.7,0.5v1.3c-0.8-0.5-1.7-0.8-2.8-0.8c-1.1,0-2,0.4-2.7,1.1s-1.1,1.7-1.1,2.9
		c0,1.2,0.3,2.2,1,2.9s1.5,1.1,2.7,1.1c0.8,0,1.4-0.2,2-0.5v-2.7h-2.1v-1h3.3V26.8z"/>
	<path class="st9" d="M201.5,27.5h-1.4l-1.6-2.7c-0.2-0.3-0.3-0.5-0.4-0.7s-0.3-0.3-0.4-0.4c-0.1-0.1-0.3-0.2-0.5-0.2
		c-0.2-0.1-0.4-0.1-0.6-0.1h-0.9v4.2h-1.1v-9.8h2.9c0.4,0,0.8,0.1,1.2,0.2c0.4,0.1,0.7,0.3,0.9,0.5c0.3,0.2,0.5,0.5,0.6,0.8
		s0.2,0.7,0.2,1.1c0,0.3-0.1,0.7-0.2,0.9c-0.1,0.3-0.2,0.5-0.4,0.8c-0.2,0.2-0.4,0.4-0.7,0.6c-0.3,0.2-0.6,0.3-0.9,0.4v0
		c0.2,0.1,0.3,0.2,0.4,0.2c0.1,0.1,0.2,0.2,0.3,0.3s0.2,0.3,0.3,0.4c0.1,0.2,0.2,0.3,0.4,0.6L201.5,27.5z M195.6,18.7v3.6h1.6
		c0.3,0,0.6,0,0.8-0.1c0.2-0.1,0.5-0.2,0.6-0.4s0.3-0.4,0.4-0.6s0.2-0.5,0.2-0.8c0-0.5-0.2-0.9-0.5-1.2c-0.3-0.3-0.8-0.4-1.5-0.4
		H195.6z"/>
	<path class="st9" d="M206.7,27.6c-1.4,0-2.5-0.5-3.3-1.4c-0.8-0.9-1.3-2.1-1.3-3.6c0-1.6,0.4-2.8,1.3-3.8s2-1.4,3.5-1.4
		c1.4,0,2.4,0.5,3.3,1.4c0.8,0.9,1.2,2.1,1.2,3.6c0,1.6-0.4,2.9-1.3,3.8S208.1,27.6,206.7,27.6z M206.7,18.5c-1,0-1.9,0.4-2.5,1.1
		s-1,1.7-1,2.9s0.3,2.2,0.9,2.9c0.6,0.7,1.4,1.1,2.5,1.1c1.1,0,1.9-0.4,2.5-1.1s0.9-1.7,0.9-2.9c0-1.3-0.3-2.3-0.9-3
		S207.8,18.5,206.7,18.5z"/>
	<path class="st9" d="M212.8,27.1v-1.4c0.2,0.1,0.3,0.3,0.6,0.4c0.2,0.1,0.4,0.2,0.7,0.3c0.2,0.1,0.5,0.1,0.7,0.2s0.5,0.1,0.7,0.1
		c0.7,0,1.2-0.1,1.6-0.4c0.3-0.3,0.5-0.6,0.5-1.1c0-0.3-0.1-0.5-0.2-0.7c-0.1-0.2-0.3-0.4-0.5-0.5s-0.4-0.3-0.7-0.5
		c-0.3-0.1-0.6-0.3-0.9-0.5c-0.3-0.2-0.7-0.3-1-0.5s-0.6-0.4-0.8-0.6s-0.4-0.5-0.5-0.7c-0.1-0.3-0.2-0.6-0.2-1
		c0-0.4,0.1-0.8,0.3-1.2s0.5-0.6,0.8-0.8s0.7-0.4,1.1-0.5c0.4-0.1,0.8-0.2,1.2-0.2c1,0,1.7,0.1,2.1,0.3v1.3
		c-0.6-0.4-1.3-0.6-2.2-0.6c-0.3,0-0.5,0-0.8,0.1s-0.5,0.1-0.7,0.3s-0.4,0.3-0.5,0.5S214,19.7,214,20c0,0.3,0,0.5,0.1,0.6
		c0.1,0.2,0.2,0.3,0.4,0.5s0.4,0.3,0.7,0.4c0.3,0.1,0.6,0.3,0.9,0.5c0.4,0.2,0.7,0.4,1,0.5s0.6,0.4,0.8,0.6s0.4,0.5,0.6,0.8
		c0.1,0.3,0.2,0.6,0.2,1c0,0.5-0.1,0.9-0.3,1.2c-0.2,0.3-0.4,0.6-0.8,0.8c-0.3,0.2-0.7,0.4-1.1,0.5s-0.9,0.1-1.3,0.1
		c-0.2,0-0.3,0-0.6,0s-0.5-0.1-0.7-0.1s-0.5-0.1-0.7-0.2C213.1,27.2,212.9,27.1,212.8,27.1z"/>
	<path class="st9" d="M220.2,27.1v-1.4c0.2,0.1,0.3,0.3,0.6,0.4c0.2,0.1,0.4,0.2,0.7,0.3c0.2,0.1,0.5,0.1,0.7,0.2s0.5,0.1,0.7,0.1
		c0.7,0,1.2-0.1,1.6-0.4c0.3-0.3,0.5-0.6,0.5-1.1c0-0.3-0.1-0.5-0.2-0.7c-0.1-0.2-0.3-0.4-0.5-0.5s-0.4-0.3-0.7-0.5
		c-0.3-0.1-0.6-0.3-0.9-0.5c-0.3-0.2-0.7-0.3-1-0.5s-0.6-0.4-0.8-0.6s-0.4-0.5-0.5-0.7c-0.1-0.3-0.2-0.6-0.2-1
		c0-0.4,0.1-0.8,0.3-1.2s0.5-0.6,0.8-0.8s0.7-0.4,1.1-0.5c0.4-0.1,0.8-0.2,1.2-0.2c1,0,1.7,0.1,2.1,0.3v1.3
		c-0.6-0.4-1.3-0.6-2.2-0.6c-0.3,0-0.5,0-0.8,0.1s-0.5,0.1-0.7,0.3s-0.4,0.3-0.5,0.5s-0.2,0.4-0.2,0.7c0,0.3,0,0.5,0.1,0.6
		c0.1,0.2,0.2,0.3,0.4,0.5s0.4,0.3,0.7,0.4c0.3,0.1,0.6,0.3,0.9,0.5c0.4,0.2,0.7,0.4,1,0.5s0.6,0.4,0.8,0.6s0.4,0.5,0.6,0.8
		c0.1,0.3,0.2,0.6,0.2,1c0,0.5-0.1,0.9-0.3,1.2c-0.2,0.3-0.4,0.6-0.8,0.8c-0.3,0.2-0.7,0.4-1.1,0.5s-0.9,0.1-1.3,0.1
		c-0.2,0-0.3,0-0.6,0s-0.5-0.1-0.7-0.1s-0.5-0.1-0.7-0.2C220.5,27.2,220.4,27.1,220.2,27.1z"/>
	<path class="st9" d="M239.6,27.5h-1.3l-1-2.7h-4.2l-1,2.7h-1.3l3.8-9.8h1.2L239.6,27.5z M236.9,23.7l-1.5-4.2
		c0-0.1-0.1-0.4-0.2-0.7h0c0,0.3-0.1,0.5-0.2,0.7l-1.5,4.2H236.9z"/>
	<path class="st9" d="M248,27.5h-1.4l-1.6-2.7c-0.2-0.3-0.3-0.5-0.4-0.7s-0.3-0.3-0.4-0.4c-0.1-0.1-0.3-0.2-0.5-0.2
		c-0.2-0.1-0.4-0.1-0.6-0.1h-0.9v4.2H241v-9.8h2.9c0.4,0,0.8,0.1,1.2,0.2c0.4,0.1,0.7,0.3,0.9,0.5c0.3,0.2,0.5,0.5,0.6,0.8
		s0.2,0.7,0.2,1.1c0,0.3-0.1,0.7-0.2,0.9c-0.1,0.3-0.2,0.5-0.4,0.8c-0.2,0.2-0.4,0.4-0.7,0.6c-0.3,0.2-0.6,0.3-0.9,0.4v0
		c0.2,0.1,0.3,0.2,0.4,0.2c0.1,0.1,0.2,0.2,0.3,0.3s0.2,0.3,0.3,0.4c0.1,0.2,0.2,0.3,0.4,0.6L248,27.5z M242.1,18.7v3.6h1.6
		c0.3,0,0.6,0,0.8-0.1c0.2-0.1,0.5-0.2,0.6-0.4s0.3-0.4,0.4-0.6s0.2-0.5,0.2-0.8c0-0.5-0.2-0.9-0.5-1.2c-0.3-0.3-0.8-0.4-1.5-0.4
		H242.1z"/>
	<path class="st9" d="M254.6,27.5h-5.2v-9.8h5v1h-3.8V22h3.5v1h-3.5v3.4h4V27.5z"/>
	<path class="st9" d="M264,27.5h-1.3l-1-2.7h-4.2l-1,2.7h-1.3l3.8-9.8h1.2L264,27.5z M261.4,23.7l-1.5-4.2c0-0.1-0.1-0.4-0.2-0.7h0
		c0,0.3-0.1,0.5-0.2,0.7l-1.5,4.2H261.4z"/>
</g>
</svg>
