<?xml version="1.0" encoding="utf-8"?>
<!-- Generator: Adobe Illustrator 24.1.0, SVG Export Plug-In . SVG Version: 6.00 Build 0)  -->
<svg version="1.1" id="Layer_1" xmlns="http://www.w3.org/2000/svg" xmlns:xlink="http://www.w3.org/1999/xlink" x="0px" y="0px"
	 viewBox="0 0 870.5 111.3" style="enable-background:new 0 0 870.5 111.3;" xml:space="preserve">
<style type="text/css">
	.st0{fill:#FFFFFF;}
	.st1{fill-rule:evenodd;clip-rule:evenodd;fill:#FFFFFF;}
	.st2{fill:#C4C4C4;}
	.st3{opacity:0.2;}
	.st4{fill:#B7D8AF;}
	.st5{fill:#814494;}
	.st6{fill:#C892C1;}
	.st7{fill:#86BACB;}
	.st8{opacity:0.2;fill:#EE8B75;enable-background:new    ;}
	.st9{fill:#4075B7;}
	.st10{fill:#DFA819;}
	.st11{fill:#EBEBEB;}
	.st12{fill:#474444;}
	.st13{opacity:0.2;fill:#474444;enable-background:new    ;}
	.st14{fill:#DAB2D5;}
</style>
<g>
	<path class="st0" d="M3.3,11.1c1.3,0,2.5-1.2,2.5-2.5C5.8,6.9,4.7,6,3.4,6c-3.7,0-1.5-4,1.9-5.5L5.1,0C2.8,1,0,3.5,0,7.1
		C0,8.7,0.6,11.1,3.3,11.1z M11.2,11.1c1.3,0,2.5-1.2,2.5-2.5c0-1.7-1.1-2.6-2.4-2.6c-3.7,0-1.5-4,1.9-5.5L13,0
		c-2.3,1-5.1,3.5-5.1,7.1C7.9,8.7,8.5,11.1,11.2,11.1z"/>
	<path class="st0" d="M25.9,16.1V28h2.5c2.9,0,3.8-2.9,3.8-6.1s-1.6-5.8-4.9-5.8H25.9z M26.7,15.4c3.2,0,4.5-2.2,4.5-5.6
		c0-3.1-1.3-5.6-3.4-5.6h-1.8v11.2H26.7z M28.8,3.5c5.4,0,8.3,2.5,8.3,6.1c0,2.9-2.2,5-5,5.8v0.1c4.5,1.1,6.1,3.7,6.1,6.5
		c0,4-2.9,6.7-8.3,6.7H18V28c2.2,0,2.2,0,2.2-2.3V6.6c0-2.3,0-2.3-2.2-2.3V3.5H28.8z"/>
	<path class="st0" d="M39.7,19.7c-0.1,5.2,3.7,9.4,9.2,9.4c5.4,0,9.4-4.2,9.5-9.4c0.1-5.2-3.8-9.4-9.2-9.4S39.7,14.5,39.7,19.7z
		 M45.8,19.7c0-5.4,1-8.6,3.2-8.6c2.3,0,3.2,3.2,3.2,8.6s-1,8.6-3.2,8.6C46.8,28.4,45.8,25.1,45.8,19.7z"/>
	<path class="st0" d="M73.5,25.7c0,2.3,0,2.3-1.4,2.3v0.7h9.4V28c-2.2,0-2.2,0-2.2-2.3v-9.9c0-4-2.4-5.4-4.9-5.4
		c-2.6,0-5.2,1.4-6.6,3.8h-0.1l0.1-3.8h-0.3L60.2,12v0.5c1.8,0,1.8,0,1.8,1.8v11.3c0,2.3,0,2.3-2.2,2.3v0.7h10.1V28
		c-2.2,0-2.2,0-2.2-2.3V14.9c1.3-1.1,2.5-1.6,3.6-1.6c1.1,0,2.2,0.5,2.2,2.2V25.7z"/>
	<path class="st0" d="M96.9,10.7h-7.2c-1-8.8-2.1-7.2,2.9-5.4C95.4,6.4,96.9,1,93,1c-2.7,0-7.8,4.8-9,9.7l-1.8,0.2v0.5H84v14.2
		c0,2.3,0,2.3-2.2,2.3v0.7h10.1V28c-2.2,0-2.2,0-2.2-2.3V11.4h4.3c1.8,0,1.8,0,1.8,1.8v12.4c0,2.3,0,2.3-2.2,2.3v0.7h10.1V28
		c-2.2,0-2.2,0-2.2-2.3V10.4h-0.3L96.9,10.7z"/>
	<path class="st0" d="M117.8,25.7c0,2.3,0,2.3-1.4,2.3v0.7h9.4V28c-2.2,0-2.2,0-2.2-2.3V14.9c1.3-1.1,2.1-1.6,3.2-1.6
		c1.1,0,2.2,0.5,2.2,2.2v10.3c0,2.3,0,2.3-1.4,2.3v0.7h9.4V28c-2.2,0-2.2,0-2.2-2.3v-9.9c0-4-2.4-5.4-4.9-5.4
		c-2.6,0-4.9,1.4-6.3,3.8h-0.1c-0.6-2.7-2.7-3.8-4.8-3.8c-2.6,0-4.9,1.4-6.2,3.8h-0.1l0.1-3.8h-0.3l-7.4,1.6v0.5
		c1.8,0,1.8,0,1.8,1.8v11.3c0,2.3,0,2.3-2.2,2.3v0.7h10.1V28c-2.2,0-2.2,0-2.2-2.3V14.9c1.3-1.1,2.1-1.6,3.2-1.6
		c1.1,0,2.2,0.5,2.2,2.2V25.7z"/>
	<path class="st0" d="M154.5,8.7l-0.2-0.1l3.2-5.8c1.4-2.2,4.9,0.6,2.6,2.2L154.5,8.7z M155.3,11.1c2.7,0,2.2,4,1.6,6.5h-5.3
		C151.7,13,153.2,11.1,155.3,11.1z M155.1,29.1c4.5,0,7-3.6,7.7-7.2h-0.4c-0.7,1.3-2.2,3.1-5.4,3.1c-2.7,0-5.5-1.8-5.5-6.7h10.7
		c1.1-6.1-2.7-7.9-6.8-7.9c-4.5,0-9.5,3.4-9.5,9.5C145.9,24.8,149.2,29.1,155.1,29.1z"/>
	<path class="st0" d="M184.8,25.3v3.8h0.3l8-1.6v-0.5c-2.5,0-2.5,0-2.5-1.8V10.7h-7.9v0.7c2.2,0,2.2,0,2.2,2.3v10.8
		c-1.3,1.1-2.1,1.6-3.2,1.6c-1.1,0-2.2-0.5-2.2-2.2V10.7h-7.6v0.7c1.8,0,1.8,0,1.8,2.3v9.9c0,4,2.4,5.4,4.9,5.4
		C181.1,29.1,183.4,27.6,184.8,25.3L184.8,25.3z"/>
	<path class="st0" d="M207.1,25.7c0,2.3,0,2.3-1.4,2.3v0.7h9.4V28c-2.2,0-2.2,0-2.2-2.3V14.9c1.3-1.1,2.1-1.6,3.2-1.6
		c1.1,0,2.2,0.5,2.2,2.2v10.3c0,2.3,0,2.3-1.4,2.3v0.7h9.4V28c-2.2,0-2.2,0-2.2-2.3v-9.9c0-4-2.4-5.4-4.9-5.4
		c-2.6,0-4.9,1.4-6.3,3.8h-0.1c-0.6-2.7-2.7-3.8-4.8-3.8c-2.6,0-4.9,1.4-6.2,3.8h-0.1l0.1-3.8h-0.3l-7.4,1.6v0.5
		c1.8,0,1.8,0,1.8,1.8v11.3c0,2.3,0,2.3-2.2,2.3v0.7h10.1V28c-2.2,0-2.2,0-2.2-2.3V14.9c1.3-1.1,2.1-1.6,3.2-1.6
		c1.1,0,2.2,0.5,2.2,2.2V25.7z"/>
	<path class="st0" d="M245.3,26.9c-2.2,0-4-2.5-4.1-7.2c-0.2-4.9,1.3-8.6,3.8-8.6c1.1,0,2.9,0.4,2.9,4.5V26
		C247.1,26.6,246.2,26.9,245.3,26.9z M247.8,11.2c-1.2-0.6-2.5-0.8-3.4-0.8c-4.7,0-9.2,3.6-9.2,9.4c0,5.4,2.9,9.4,7.6,9.4
		c2.2,0,3.8-0.9,5-2.5h0.1v2.5h0.3l8-1.6v-0.5c-2.5,0-2.5,0-2.5-1.8V1h-0.3L246,2.6v0.5c1.8,0,1.8,0,1.8,1.8V11.2z"/>
	<path class="st0" d="M256.8,19.7c-0.1,5.2,3.7,9.4,9.2,9.4c5.4,0,9.4-4.2,9.5-9.4c0.1-5.2-3.8-9.4-9.2-9.4
		C260.9,10.4,256.9,14.5,256.8,19.7z M262.9,19.7c0-5.4,1-8.6,3.2-8.6s3.2,3.2,3.2,8.6s-1,8.6-3.2,8.6S262.9,25.1,262.9,19.7z"/>
	<path class="st0" d="M289.8,16.5l-0.4-5c-1.4-0.7-3.7-1.1-5.4-1.1c-4.7,0-6.8,2.3-6.8,5.2c0,3.1,1.4,4.6,5,6.1
		c2.6,1.1,3.2,2.9,3.2,3.8c0,2-1.3,2.9-2.7,2.9c-2.2,0-3.6-1.6-4.7-5.8h-0.5l0.4,5.2c1.4,0.7,3.9,1.3,5.8,1.3c4.1,0,7.2-2.3,7.2-5.8
		c0-3.2-1.6-4.7-6.3-6.7c-1.2-0.5-2.3-1.5-2.3-3.1c0-1.8,1.3-2.5,2.3-2.5c2.2,0,3.2,1.4,4.7,5.4H289.8z"/>
	<path class="st0" d="M310.9,3.2h-0.4l-9,2.2v0.5c3.2,0,3.6-0.2,3.6,1.8v18c0,2.3,0,2.3-3.6,2.3v0.7h13V28c-3.6,0-3.6,0-3.6-2.3V3.2
		z"/>
	<path class="st0" d="M317.7,16.1c0,7.6,3.9,13,9.2,13s9.2-5.4,9.2-13c0-7.6-3.9-13-9.2-13S317.7,8.6,317.7,16.1z M323.6,16.1
		c0-6.8,0.7-12.2,3.2-12.2c2.5,0,3.2,5.4,3.2,12.2c0,6.8-0.7,12.2-3.2,12.2C324.4,28.4,323.6,23,323.6,16.1z"/>
	<path class="st0" d="M356.3,12.5c2.2,0,4,2.5,4.1,7.2c0.2,4.9-1.3,8.6-3.8,8.6c-1.1,0-2.9-0.4-2.9-4.5V13.5
		C354.5,12.9,355.4,12.5,356.3,12.5z M348,28.9h0.4l4-1.6c1.6,1.4,3.5,1.8,4.9,1.8c4.7,0,9.2-3.6,9.2-9.4c0-5.4-2.9-9.4-7.6-9.4
		c-2.2,0-3.8,0.9-5,2.5h-0.1V1h-0.3l-7.3,1.6v0.5c1.8,0,1.8,0,1.8,1.8V28.9z"/>
	<path class="st0" d="M382.7,15.2c0.1-3.1-2.3-4.9-5.9-4.9c-5.4,0-9.3,5.3-8.3,7.6c0.6,1.2,5.7-0.4,4.1-1.8c-1-0.9-2-4.3,1.6-4.3
		c2.2,0,2.8,1.4,2.7,4.3l-0.1,3.8l-4.4,0.7c-2.8,0.5-4.7,1.9-4.7,4.1c0,2.4,1.8,4.3,4,4.3c2.2,0,3-0.8,5-2.9h0.1
		c0,1.4,0.7,2.9,3.2,2.9c2.2,0,3.2-0.7,5-2.2v-0.4c-1.1,0.2-2.6,0.5-2.5-2.3L382.7,15.2z M376.8,25.3c-0.5,0.4-0.9,0.7-1.6,0.7
		c-1,0-1.5-1.3-1.6-2c-0.2-1.5,0.3-2.7,1.9-3.1l1.4-0.3L376.8,25.3z"/>
	<path class="st0" d="M393.7,10.4h-0.3l-7.3,1.6v0.5c1.8,0,1.8,0,1.8,1.8v11.3c0,2.3,0,2.3-2.2,2.3v0.7h10.1V28
		c-2.2,0-2.2,0-2.2-2.3V10.4z M387.5,4.4c0,1.8,1.5,3.3,3.3,3.3s3.3-1.5,3.3-3.3S392.7,1,390.8,1S387.5,2.5,387.5,4.4z"/>
	<path class="st0" d="M404.5,15.2c0.9-0.7,2.2-0.5,4.5,0.2c2.9,0.9,3.7-5,0.2-5c-2.2,0-3.3,1.6-4.6,4.1h-0.1l0.1-4.1h-0.3l-7.4,1.6
		v0.5c1.8,0,1.8,0,1.8,1.8v11.3c0,2.3,0,2.3-2.2,2.3v0.7h10.1V28c-2.2,0-2.2,0-2.2-2.3V15.2z"/>
	<path class="st0" d="M420.1,15.2c0.9-0.7,2.2-0.5,4.5,0.2c2.9,0.9,3.7-5,0.2-5c-2.2,0-3.3,1.6-4.6,4.1h-0.1l0.1-4.1H420l-7.4,1.6
		v0.5c1.8,0,1.8,0,1.8,1.8v11.3c0,2.3,0,2.3-2.2,2.3v0.7h10.1V28c-2.2,0-2.2,0-2.2-2.3V15.2z"/>
	<path class="st0" d="M427.9,19.7c-0.1,5.2,3.7,9.4,9.2,9.4c5.4,0,9.4-4.2,9.5-9.4c0.1-5.2-3.8-9.4-9.2-9.4S428,14.5,427.9,19.7z
		 M434,19.7c0-5.4,1-8.6,3.2-8.6s3.2,3.2,3.2,8.6s-1,8.6-3.2,8.6S434,25.1,434,19.7z"/>
	<path class="st0" d="M460.9,16.5l-0.4-5c-1.4-0.7-3.7-1.1-5.4-1.1c-4.7,0-6.8,2.3-6.8,5.2c0,3.1,1.4,4.6,5,6.1
		c2.6,1.1,3.2,2.9,3.2,3.8c0,2-1.3,2.9-2.7,2.9c-2.2,0-3.6-1.6-4.7-5.8h-0.5l0.4,5.2c1.4,0.7,3.9,1.3,5.8,1.3c4.1,0,7.2-2.3,7.2-5.8
		c0-3.2-1.6-4.7-6.3-6.7c-1.2-0.5-2.3-1.5-2.3-3.1c0-1.8,1.3-2.5,2.3-2.5c2.2,0,3.2,1.4,4.7,5.4H460.9z"/>
	<path class="st0" d="M477.6,11.1c1.3,0,2.5-1.2,2.5-2.5c0-1.7-1.1-2.6-2.4-2.6c-3.7,0-1.5-4,1.9-5.5L479.4,0
		c-2.3,1-5.1,3.5-5.1,7.1C474.3,8.7,474.9,11.1,477.6,11.1z M485.5,11.1c1.3,0,2.5-1.2,2.5-2.5c0-1.7-1.1-2.6-2.4-2.6
		c-3.7,0-1.5-4,1.9-5.5L487.3,0c-2.3,1-5.1,3.5-5.1,7.1C482.2,8.7,482.9,11.1,485.5,11.1z"/>
	<path class="st0" d="M505.3,25.7c0,2.3,0,2.3-1.4,2.3v0.7h9.4V28c-2.2,0-2.2,0-2.2-2.3V14.9c1.3-1.1,2.1-1.6,3.2-1.6
		c1.1,0,2.2,0.5,2.2,2.2v10.3c0,2.3,0,2.3-1.4,2.3v0.7h9.4V28c-2.2,0-2.2,0-2.2-2.3v-9.9c0-4-2.4-5.4-4.9-5.4
		c-2.6,0-4.9,1.4-6.3,3.8H511c-0.6-2.7-2.7-3.8-4.8-3.8c-2.6,0-4.9,1.4-6.2,3.8h-0.1l0.1-3.8h-0.3l-7.4,1.6v0.5c1.8,0,1.8,0,1.8,1.8
		v11.3c0,2.3,0,2.3-2.2,2.3v0.7h10.1V28c-2.2,0-2.2,0-2.2-2.3V14.9c1.3-1.1,2.1-1.6,3.2-1.6c1.1,0,2.2,0.5,2.2,2.2V25.7z"/>
	<path class="st0" d="M540,15.2c0.1-3.1-2.3-4.9-5.9-4.9c-5.4,0-9.3,5.3-8.3,7.6c0.6,1.2,5.7-0.4,4.1-1.8c-1-0.9-2-4.3,1.6-4.3
		c2.2,0,2.8,1.4,2.7,4.3l-0.1,3.8l-4.4,0.7c-2.8,0.5-4.7,1.9-4.7,4.1c0,2.4,1.8,4.3,4,4.3c2.2,0,3-0.8,5-2.9h0.1
		c0,1.4,0.7,2.9,3.2,2.9c2.2,0,3.2-0.7,5-2.2v-0.4c-1.1,0.2-2.6,0.5-2.5-2.3L540,15.2z M534.1,25.3c-0.5,0.4-0.9,0.7-1.6,0.7
		c-1,0-1.5-1.3-1.6-2c-0.2-1.5,0.3-2.7,1.9-3.1l1.4-0.3L534.1,25.3z"/>
	<path class="st0" d="M551,10.4h-0.3l-7.3,1.6v0.5c1.8,0,1.8,0,1.8,1.8v11.3c0,2.3,0,2.3-2.2,2.3v0.7h10.1V28c-2.2,0-2.2,0-2.2-2.3
		V10.4z M544.8,4.4c0,1.8,1.5,3.3,3.3,3.3s3.3-1.5,3.3-3.3S550,1,548.1,1S544.8,2.5,544.8,4.4z"/>
	<path class="st0" d="M566.7,16.5l-0.4-5c-1.4-0.7-3.7-1.1-5.4-1.1c-4.7,0-6.8,2.3-6.8,5.2c0,3.1,1.4,4.6,5,6.1
		c2.6,1.1,3.2,2.9,3.2,3.8c0,2-1.3,2.9-2.7,2.9c-2.2,0-3.6-1.6-4.7-5.8h-0.5l0.4,5.2c1.4,0.7,3.9,1.3,5.8,1.3c4.1,0,7.2-2.3,7.2-5.8
		c0-3.2-1.6-4.7-6.3-6.7c-1.2-0.5-2.3-1.5-2.3-3.1c0-1.8,1.3-2.5,2.3-2.5c2.2,0,3.2,1.4,4.7,5.4H566.7z"/>
	<path class="st0" d="M584.8,18.6c0.6-4.2,2.2-7.5,4.7-7.5c2.2,0,2.1,1.8,1.5,4.4c-0.1,0.8,0.1,1.9,1.9,1.9c2.2,0,2.9-1.3,3.1-2.5
		c0.3-2.3-1.8-4.5-6.3-4.5s-10,3.4-10.9,9.5c-0.7,4.9,1.9,9.2,7.9,9.2c4.5,0,7.5-3.6,8.7-7.2h-0.4c-0.9,1.3-2.6,3.1-5.8,3.1
		C586.6,24.9,584.1,23.3,584.8,18.6z"/>
	<path class="st0" d="M597,19.7c-0.9,5.2,2.4,9.4,7.8,9.4c5.4,0,10-4.2,10.9-9.4c0.8-5.2-2.5-9.4-7.9-9.4
		C602.4,10.4,597.8,14.5,597,19.7z M603.1,19.7c0.8-5.4,2.2-8.6,4.4-8.6s2.8,3.2,2.1,8.6c-0.8,5.4-2.2,8.6-4.5,8.6
		C602.8,28.4,602.3,25.1,603.1,19.7z"/>
	<path class="st0" d="M617.2,19.7c-0.9,5.2,2.4,9.4,7.8,9.4c5.4,0,10-4.2,10.9-9.4c0.8-5.2-2.5-9.4-7.9-9.4
		C622.6,10.4,618,14.5,617.2,19.7z M623.3,19.7c0.8-5.4,2.2-8.6,4.4-8.6s2.8,3.2,2.1,8.6s-2.2,8.6-4.5,8.6S622.5,25.1,623.3,19.7z"
		/>
	<path class="st0" d="M646.8,3.9C647,2.4,646.5,1,644,1c-2.2,0-4.9,1.8-6.4,5.2l0.5,0.2c1.2-2.6,3-3.4,2.6-0.5l-2.9,20.3
		c-0.2,1.4,0.3,2.9,2.8,2.9c2.2,0,4.9-1.8,6.4-5.2l-0.5-0.2c-1.2,2.6-3,3.4-2.6,0.5L646.8,3.9z"/>
	<path class="st0" d="M664.6,26.9c-2.2,0-4-2.5-4.1-7.2c-0.2-4.9,1.3-8.6,3.8-8.6c1.1,0,2.9,0.4,2.9,4.5V26
		C666.4,26.6,665.5,26.9,664.6,26.9z M667.1,11.2c-1.2-0.6-2.5-0.8-3.4-0.8c-4.7,0-9.2,3.6-9.2,9.4c0,5.4,2.9,9.4,7.6,9.4
		c2.2,0,3.8-0.9,5-2.5h0.1v2.5h0.3l8-1.6v-0.5c-2.5,0-2.5,0-2.5-1.8V1h-0.3l-7.3,1.6v0.5c1.8,0,1.8,0,1.8,1.8V11.2z"/>
	<path class="st0" d="M691,15.2c0.1-3.1-2.3-4.9-5.9-4.9c-5.4,0-9.3,5.3-8.3,7.6c0.6,1.2,5.7-0.4,4.1-1.8c-1-0.9-2-4.3,1.6-4.3
		c2.2,0,2.8,1.4,2.7,4.3l-0.1,3.8l-4.4,0.7c-2.8,0.5-4.7,1.9-4.7,4.1c0,2.4,1.8,4.3,4,4.3c2.2,0,3-0.8,5-2.9h0.1
		c0,1.4,0.7,2.9,3.2,2.9c2.2,0,3.2-0.7,5-2.2v-0.4c-1.1,0.2-2.6,0.5-2.5-2.3L691,15.2z M685.1,25.3c-0.5,0.4-0.9,0.7-1.6,0.7
		c-1,0-1.5-1.3-1.6-2c-0.2-1.5,0.3-2.7,1.9-3.1l1.4-0.3L685.1,25.3z"/>
	<path class="st0" d="M710.6,4.2h3.6c3.6,0,5.4,2.5,6.8,6.1h0.5l-0.5-6.8h-18.4v0.7c2.2,0,2.2,0,2.2,2.3v19.1c0,2.3,0,2.3-2.2,2.3
		v0.7h18.7l0.7-6.8h-0.5c-1.4,3.6-3.4,6.1-7,6.1h-4V16.7h2.2c2.5,0,4.3,1.1,4.6,4h0.5v-8.8h-0.5c-0.3,2.9-2.1,4.1-4.6,4.1h-2.2V4.2z
		"/>
	<path class="st0" d="M736.5,25.3v3.8h0.3l8-1.6v-0.5c-2.5,0-2.5,0-2.5-1.8V10.7h-7.9v0.7c2.2,0,2.2,0,2.2,2.3v10.8
		c-1.3,1.1-2.1,1.6-3.2,1.6c-1.1,0-2.2-0.5-2.2-2.2V10.7h-7.6v0.7c1.8,0,1.8,0,1.8,2.3v9.9c0,4,2.4,5.4,4.9,5.4
		C732.9,29.1,735.1,27.6,736.5,25.3L736.5,25.3z"/>
	<path class="st0" d="M753.5,15.2c0.9-0.7,2.2-0.5,4.5,0.2c2.9,0.9,3.7-5,0.2-5c-2.2,0-3.3,1.6-4.6,4.1h-0.1l0.1-4.1h-0.3l-7.4,1.6
		v0.5c1.8,0,1.8,0,1.8,1.8v11.3c0,2.3,0,2.3-2.2,2.3v0.7h10.1V28c-2.2,0-2.2,0-2.2-2.3V15.2z"/>
	<path class="st0" d="M761.2,19.7c-0.1,5.2,3.7,9.4,9.2,9.4c5.4,0,9.4-4.2,9.5-9.4c0.1-5.2-3.8-9.4-9.2-9.4
		C765.3,10.4,761.3,14.5,761.2,19.7z M767.3,19.7c0-5.4,1-8.6,3.2-8.6c2.3,0,3.2,3.2,3.2,8.6s-1,8.6-3.2,8.6
		C768.3,28.4,767.3,25.1,767.3,19.7z"/>
	<path class="st0" d="M791.5,12.5c2.2,0,4,2.5,4.1,7.2c0.2,4.9-1.3,8.6-3.8,8.6c-1.1,0-2.9-0.4-2.9-4.5V13.5
		C789.7,12.9,790.6,12.5,791.5,12.5z M783.2,35c0,2.3,0,2.3-1.8,2.3v0.7h9.7v-0.7c-2.2,0-2.2,0-2.2-2.3v-6.8
		c1.2,0.6,2.5,0.8,3.4,0.8c4.7,0,9.2-3.6,9.2-9.4c0-5.4-2.9-9.4-7.6-9.4c-2.2,0-3.8,0.9-5,2.5H789l0.1-2.5h-0.3l-7.4,1.6v0.5
		c1.8,0,1.8,0,1.8,1.8V35z"/>
	<path class="st0" d="M817.9,15.2c0.1-3.1-2.3-4.9-5.9-4.9c-5.4,0-9.3,5.3-8.3,7.6c0.6,1.2,5.7-0.4,4.1-1.8c-1-0.9-2-4.3,1.6-4.3
		c2.2,0,2.8,1.4,2.7,4.3l-0.1,3.8l-4.4,0.7c-2.8,0.5-4.7,1.9-4.7,4.1c0,2.4,1.8,4.3,4,4.3c2.2,0,3-0.8,5-2.9h0.1
		c0,1.4,0.7,2.9,3.2,2.9c2.2,0,3.2-0.7,5-2.2v-0.4c-1.1,0.2-2.6,0.5-2.5-2.3L817.9,15.2z M812,25.3c-0.5,0.4-0.9,0.7-1.6,0.7
		c-1,0-1.5-1.3-1.6-2c-0.2-1.5,0.3-2.7,1.9-3.1l1.4-0.3L812,25.3z"/>
	<path class="st0" d="M826,0.6c-1.3,0-2.5,1.2-2.5,2.5c0,1.7,1.1,2.6,2.4,2.6c3.7,0,1.5,4-1.9,5.5l0.2,0.4c2.3-1,5.1-3.5,5.1-7.1
		C829.3,3,828.6,0.6,826,0.6z M833.9,0.6c-1.3,0-2.5,1.2-2.5,2.5c0,1.7,1.1,2.6,2.4,2.6c3.7,0,1.5,4-1.9,5.5l0.2,0.4
		c2.3-1,5.1-3.5,5.1-7.1C837.2,3,836.6,0.6,833.9,0.6z"/>
	<path class="st0" d="M846.1,23.9c-1.3,0-2.5,1.2-2.5,2.5c0,1.7,1.1,2.6,2.4,2.6c3.7,0,1.5,4-1.9,5.5l0.2,0.4c2.3-1,5.1-3.5,5.1-7.1
		C849.4,26.3,848.8,23.9,846.1,23.9z"/>
	<path class="st0" d="M302.4,65.9c-2.2,0-4-2.5-4.1-7.2c-0.2-4.9,1.3-8.6,3.8-8.6c1.1,0,2.9,0.4,2.9,4.5V65
		C304.2,65.6,303.3,65.9,302.4,65.9z M304.9,50.2c-1.2-0.6-2.5-0.8-3.4-0.8c-4.7,0-9.2,3.6-9.2,9.4c0,5.4,2.9,9.4,7.6,9.4
		c2.2,0,3.8-0.9,5-2.5h0.1v2.5h0.3l8-1.6v-0.5c-2.5,0-2.5,0-2.5-1.8V40h-0.3l-7.3,1.6v0.5c1.8,0,1.8,0,1.8,1.8V50.2z"/>
	<path class="st0" d="M321.8,49.4h-0.3l-7.3,1.6v0.5c1.8,0,1.8,0,1.8,1.8v11.3c0,2.3,0,2.3-2.2,2.3v0.7h10.1V67
		c-2.2,0-2.2,0-2.2-2.3V49.4z M315.6,43.4c0,1.8,1.5,3.3,3.3,3.3c1.8,0,3.3-1.5,3.3-3.3c0-1.8-1.5-3.3-3.3-3.3
		C317.1,40,315.6,41.5,315.6,43.4z"/>
	<path class="st0" d="M331.3,67h2.7c3.6,0,4.9-1.4,6.3-5h0.5l-0.7,5.8h-15.5V67l9-16.6h-1.4c-3.6,0-4.9,1.4-6.3,5h-0.5l0.7-5.8h14.2
		v0.7L331.3,67z"/>
	<path class="st0" d="M350.6,58.7c-0.1,5.2,3.7,9.4,9.2,9.4c5.4,0,9.4-4.2,9.5-9.4c0.1-5.2-3.8-9.4-9.2-9.4S350.7,53.5,350.6,58.7z
		 M356.8,58.7c0-5.4,1-8.6,3.2-8.6c2.3,0,3.2,3.2,3.2,8.6s-1,8.6-3.2,8.6C357.7,67.4,356.8,64.1,356.8,58.7z"/>
	<path class="st0" d="M401.8,65.2c-1.6,1.1-6.2,2.9-9.8,2.9c-7.6,0-11.8-5.4-10.8-13c1-7.6,6.8-13,14.4-13c3.6,0,6.7,1.3,8,2.2
		l-0.5,6.1h-0.5c-1-2.9-2.7-7.6-7.1-7.6c-4,0-7.2,5.4-8.2,12.2c-1,6.8,0.8,12.2,4.8,12.2c1.3,0,2.6-0.3,3.7-0.7l1-7.4
		c0.3-2.3,0.3-2.3-1.8-2.3l0.1-0.7h10.1l-0.1,0.7c-2.2,0-2.2,0-2.5,2.3L401.8,65.2z"/>
	<path class="st0" d="M425.6,49.7h-5.8l-1,7.2c-0.6,4.4-3,8.3-5.1,8.3c-0.7,0-1.4-0.5-1.2-2.2l1.5-10.8c0.2-1.4-0.3-2.9-2.8-2.9
		c-2.2,0-4.9,1.8-6.4,5.2l0.5,0.2c1.2-2.6,3.1-3.4,2.6-0.5l-1.2,8.5c-0.5,4,1.7,5.4,4.1,5.4c2.6,0,5.4-3.1,7.2-6.7h0.1l-0.5,3.8
		c-0.2,1.4,0.3,2.9,2.8,2.9c2.2,0,4.9-1.8,6.4-5.2l-0.5-0.2c-1.2,2.6-3,3.4-2.6,0.5L425.6,49.7z"/>
	<path class="st0" d="M435.6,65.9c-1.9,0-2.6-2.5-1.9-7.2c0.8-6.3,2.8-8.6,4.9-8.6c1.8,0,2.6,1.3,2.2,4.7l-0.6,5
		C439.5,64.1,437.6,65.9,435.6,65.9z M439.2,65.2c-0.2,1.4,0.3,2.9,2.8,2.9c2.2,0,4.9-1.8,6.4-5.2l-0.5-0.2c-1.2,2.6-3,3.4-2.6,0.5
		l1.9-13.7h-0.4l-4.2,1.6c-1.4-1.4-3.2-1.8-4.1-1.8c-4.9,0-9.8,3-10.9,9.4c-0.9,5.4,1.5,9.4,6.2,9.4c2.5,0,4.6-2,5.6-4.2h0.1
		L439.2,65.2z"/>
	<path class="st0" d="M457.1,56l0.5-3.8c0.2-1.4-0.3-2.9-2.8-2.9c-2.2,0-4.9,1.8-6.4,5.2l0.5,0.2c1.2-2.6,3-3.4,2.6-0.5l-1.9,13.5
		h5.8l1-7.2c0.8-6,3.1-6.8,5.4-6.1c2.7,0.9,4.4-5,0.9-5C460.5,49.4,458.7,51,457.1,56L457.1,56z"/>
	<path class="st0" d="M471.8,65.9c-1.9,0-2.6-2.5-1.9-7.2c0.8-6.3,2.8-8.6,4.9-8.6c1.8,0,2.6,1.3,2.2,4.7l-0.6,5
		C475.7,64.1,473.8,65.9,471.8,65.9z M484.3,42.9c0.2-1.4-0.3-2.9-2.8-2.9c-2.2,0-4.9,1.8-6.4,5.2l0.5,0.2c1.2-2.6,3-3.4,2.6-0.5
		l-0.7,4.9c-1.1-0.3-2.2-0.4-2.9-0.4c-4.9,0-9.8,3-10.9,9.4c-0.9,5.4,1.5,9.4,6.2,9.4c2.5,0,4.6-2,5.6-4.2h0.1l-0.2,1.4
		c-0.2,1.4,0.3,2.9,2.8,2.9c2.2,0,4.9-1.8,6.4-5.2l-0.5-0.2c-1.2,2.6-3,3.4-2.6,0.5L484.3,42.9z"/>
	<path class="st0" d="M489.2,43.4c-0.3,1.8,1,3.3,2.8,3.3s3.5-1.5,3.8-3.3c0.3-1.8-1-3.3-2.9-3.3S489.5,41.5,489.2,43.4z
		 M494.1,52.2c0.2-1.4-0.3-2.9-2.8-2.9c-2.2,0-4.9,1.8-6.4,5.2l0.5,0.2c1.2-2.6,3-3.4,2.6-0.5l-1.5,11c-0.2,1.4,0.3,2.9,2.8,2.9
		c2.2,0,4.9-1.8,6.4-5.2l-0.5-0.2c-1.2,2.6-3,3.4-2.6,0.5L494.1,52.2z"/>
	<path class="st0" d="M504.2,65.9c-1.9,0-2.6-2.5-1.9-7.2c0.8-6.3,2.8-8.6,4.9-8.6c1.8,0,2.6,1.3,2.2,4.7l-0.6,5
		C508.1,64.1,506.2,65.9,504.2,65.9z M507.8,65.2c-0.2,1.4,0.3,2.9,2.8,2.9c2.2,0,4.9-1.8,6.4-5.2l-0.5-0.2c-1.2,2.6-3,3.4-2.6,0.5
		l1.9-13.7h-0.4l-4.2,1.6c-1.4-1.4-3.2-1.8-4.1-1.8c-4.9,0-9.8,3-10.9,9.4c-0.9,5.4,1.5,9.4,6.2,9.4c2.5,0,4.6-2,5.6-4.2h0.1
		L507.8,65.2z"/>
	<path class="st0" d="M518.2,67.7h5.8l1-7.2c0.6-4.4,3.3-8.3,5.5-8.3c0.7,0,1.4,0.5,1.2,2.2l-1.5,10.8c-0.2,1.4,0.3,2.9,2.8,2.9
		c2.2,0,4.9-1.8,6.4-5.2l-0.5-0.2c-1.2,2.6-3.1,3.4-2.6,0.5l1.2-8.5c0.5-4-1.7-5.4-4.1-5.4c-2.6,0-5.8,3.1-7.5,6.7h-0.1l0.5-3.8
		c0.2-1.4-0.3-2.9-2.8-2.9c-2.2,0-4.9,1.8-6.4,5.2l0.5,0.2c1.2-2.6,3-3.4,2.6-0.5L518.2,67.7z"/>
	<path class="st0" d="M547.4,39.6c-1.3,0-2.7,1.2-2.8,2.5c-0.2,1.7,0.7,2.6,2,2.6c3.7,0,0.9,4-2.7,5.5l0.1,0.4
		c2.4-1,5.5-3.5,6.1-7.1C550.3,42,550,39.6,547.4,39.6z M555.3,39.6c-1.3,0-2.7,1.2-2.8,2.5c-0.2,1.7,0.7,2.6,2,2.6
		c3.7,0,0.9,4-2.7,5.5l0.1,0.4c2.4-1,5.5-3.5,6.1-7.1C558.2,42,558,39.6,555.3,39.6z"/>
	<path class="st0" d="M637.1,99.6v9.1h1.4V98.2h-1.1l-2.7,1.3l0.5,1L637.1,99.6z"/>
	<path class="st0" d="M644.6,99.3c2,0,2.3,1.7,2.3,4.2c0,2.5-0.2,4.2-2.3,4.2c-2,0-2.3-1.7-2.3-4.2C642.3,101,642.5,99.3,644.6,99.3
		z M644.6,98.2c-2.7,0-3.7,2.2-3.7,5.4c0,3.2,1,5.4,3.7,5.4s3.7-2.2,3.7-5.4C648.3,100.4,647.3,98.2,644.6,98.2z"/>
	<path class="st0" d="M652.3,107h-1.6v1.8h0.6c0,0.6,0,1.3-0.6,2.6h0.8c0.4-0.7,0.8-1.8,0.8-2.6V107z"/>
	<path class="st0" d="M664.5,97.5h-6v11.2h1.4v-4.9h3.9v-1.2h-3.9v-3.8h4.6V97.5z"/>
	<path class="st0" d="M669,107.8c0.8,0,1.8-0.2,2.5-0.5v1.1c-0.8,0.3-1.8,0.5-2.7,0.5c-2.4,0-3.5-1.5-3.5-4.1c0-2.7,1.2-4.3,3.6-4.3
		c2.7,0,3.2,2.1,2.7,4.3h-4.9C666.8,106.7,667.5,107.8,669,107.8z M670.4,103.8c0.2-1.1-0.2-2.1-1.6-2.1c-1.1,0-1.9,0.7-2,2.1H670.4
		z"/>
	<path class="st0" d="M675.6,108.8l-2.7-8.1h1.5l2,6.5h0l2-6.5h1.5l-2.7,8.1H675.6z"/>
	<path class="st0" d="M684.4,107.8c0.8,0,1.8-0.2,2.5-0.5v1.1c-0.8,0.3-1.8,0.5-2.7,0.5c-2.4,0-3.5-1.5-3.5-4.1
		c0-2.7,1.2-4.3,3.6-4.3c2.7,0,3.2,2.1,2.7,4.3h-4.9C682.1,106.7,682.9,107.8,684.4,107.8z M685.8,103.8c0.2-1.1-0.2-2.1-1.6-2.1
		c-1.1,0-1.9,0.7-2,2.1H685.8z"/>
	<path class="st0" d="M693.2,100.6c-1,0-1.8,0.4-2.6,1.1h0v-1.1h-0.2l-1.2,0.2v8h1.4v-6.1c0.9-0.6,1.7-0.7,2.7-0.7V100.6z"/>
	<path class="st0" d="M698.1,107.8c0.8,0,1.8-0.2,2.5-0.5v1.1c-0.8,0.3-1.8,0.5-2.7,0.5c-2.4,0-3.5-1.5-3.5-4.1
		c0-2.7,1.2-4.3,3.6-4.3c2.7,0,3.2,2.1,2.7,4.3h-4.9C695.8,106.7,696.6,107.8,698.1,107.8z M699.5,103.8c0.2-1.1-0.2-2.1-1.6-2.1
		c-1.1,0-1.9,0.7-2,2.1H699.5z"/>
	<path class="st0" d="M702.8,108.7h1.4v-8.2H704l-1.2,0.2V108.7z M702.8,98.5h1.4v-1.7h-1.4V98.5z"/>
	<path class="st0" d="M710.5,100.6c-1,0-1.8,0.4-2.6,1.1h0v-1.1h-0.2l-1.2,0.2v8h1.4v-6.1c0.9-0.6,1.7-0.7,2.7-0.7V100.6z"/>
	<path class="st0" d="M715.3,101.7c1.5,0,2.1,1.2,2.1,3c0,1.9-0.6,3-2.1,3c-1.5,0-2.1-1.2-2.1-3
		C713.2,102.9,713.8,101.7,715.3,101.7z M715.3,100.6c-2.5,0-3.5,1.7-3.5,4.2s1,4.2,3.5,4.2s3.5-1.7,3.5-4.2
		S717.7,100.6,715.3,100.6z"/>
	<path class="st0" d="M729.1,101.4c0-1.3-0.8-2.1-2-2.1c-0.8,0-1.6,0.2-2.5,0.5v-1.2c0.8-0.3,1.9-0.5,2.8-0.5c1.9,0,3.2,1.2,3.2,3.1
		c0,2.6-2.7,4.7-4.8,6.2h5v1.2H724v-1.1C725.8,106.2,729.1,103.9,729.1,101.4z"/>
	<path class="st0" d="M736.5,99.3c2,0,2.3,1.7,2.3,4.2c0,2.5-0.2,4.2-2.3,4.2c-2,0-2.3-1.7-2.3-4.2C734.2,101,734.4,99.3,736.5,99.3
		z M736.5,98.2c-2.7,0-3.7,2.2-3.7,5.4c0,3.2,1,5.4,3.7,5.4c2.7,0,3.7-2.2,3.7-5.4C740.2,100.4,739.2,98.2,736.5,98.2z"/>
	<path class="st0" d="M747.2,101.4c0-1.3-0.8-2.1-2-2.1c-0.8,0-1.6,0.2-2.5,0.5v-1.2c0.8-0.3,1.9-0.5,2.8-0.5c1.9,0,3.2,1.2,3.2,3.1
		c0,2.6-2.7,4.7-4.8,6.2h5v1.2H742v-1.1C743.9,106.2,747.2,103.9,747.2,101.4z"/>
	<path class="st0" d="M754.5,99.3c2,0,2.3,1.7,2.3,4.2c0,2.5-0.2,4.2-2.3,4.2c-2,0-2.3-1.7-2.3-4.2C752.3,101,752.5,99.3,754.5,99.3
		z M754.5,98.2c-2.7,0-3.7,2.2-3.7,5.4c0,3.2,1,5.4,3.7,5.4c2.7,0,3.7-2.2,3.7-5.4C758.3,100.4,757.3,98.2,754.5,98.2z"/>
	<path class="st0" d="M765.6,95.6h-1.2v14.7h1.2V95.6z"/>
	<path class="st0" d="M773.5,106.1c0,1.2-0.4,1.6-1.1,1.6c-0.6,0-1.2-0.2-1.5-0.4v1.2c0.4,0.2,1.1,0.4,1.7,0.4
		c1.4,0,2.3-0.6,2.3-2.8v-8.6h-1.4V106.1z"/>
	<path class="st0" d="M780.2,101.7c1.5,0,2.1,1.2,2.1,3c0,1.9-0.6,3-2.1,3c-1.5,0-2.1-1.2-2.1-3
		C778.2,102.9,778.8,101.7,780.2,101.7z M780.2,100.6c-2.5,0-3.5,1.7-3.5,4.2s1,4.2,3.5,4.2s3.5-1.7,3.5-4.2
		S782.7,100.6,780.2,100.6z"/>
	<path class="st0" d="M789.7,100.6c-1,0-1.8,0.4-2.6,1.1h0v-1.1h-0.2l-1.2,0.2v8h1.4v-6.1c0.9-0.6,1.7-0.7,2.7-0.7V100.6z"/>
	<path class="st0" d="M795,101.7c1.3,0,1.5,0.8,1.5,2v5h1.4v-5.4c0-1.7-0.6-2.7-2.4-2.7c-0.9,0-1.7,0.4-2.7,1.1h0v-1.1h-0.2
		l-1.2,0.2v8h1.4v-6.2C793.5,102,794.3,101.7,795,101.7z"/>
	<path class="st0" d="M805.8,102.8c0-1.3-0.8-2.3-2.5-2.3c-0.8,0-2.2,0.2-3.2,0.4v1.1c0.9-0.2,2-0.4,2.9-0.4c1.1,0,1.4,0.5,1.4,1.2
		l0,1.5l-2.5,0.4c-1.7,0.3-2.2,0.9-2.2,2c0,1.2,0.8,2.1,2.2,2.1c0.8,0,1.6-0.3,2.4-1h0v0.8h1.4L805.8,102.8z M804.3,107.1
		c-0.5,0.4-1.3,0.7-2,0.7c-0.7,0-1.2-0.4-1.2-1c-0.1-0.6,0.4-0.8,1-1l2.2-0.4L804.3,107.1z"/>
	<path class="st0" d="M808.1,108.7h1.4V96.4h-0.2l-1.2,0.2V108.7z"/>
	<path class="st0" d="M819.1,103.9c2.2,0,3.2-1.3,3.2-3.2c0-1.8-1-3.2-3.1-3.2h-3.7v11.2h1.4v-4.8H819.1z M816.9,98.7h2.1
		c1.3,0,1.9,0.7,1.9,2c0,1.4-0.8,2-2,2h-2V98.7z"/>
	<path class="st0" d="M828.6,94.2h1.6l-1.9,2.6h-0.8L828.6,94.2z M824,105.1c0,2.5,1.3,3.8,3.8,3.8c2.4,0,3.8-1.3,3.8-3.8v-7.6h-1.4
		v7.6c0,1.6-0.7,2.6-2.4,2.6c-1.7,0-2.4-1.2-2.4-2.6v-7.6H824V105.1z"/>
	<path class="st0" d="M837.4,103.6c1.2,0,1.9,0.8,1.9,2c0,1.5-0.9,1.9-2.3,1.9h-2v-3.9H837.4z M837.2,98.7c1.2,0,1.8,0.7,1.8,1.8
		c0,1.3-0.8,1.9-1.8,1.9h-2v-3.7H837.2z M833.7,97.5v11.2h3.6c1.9,0,3.5-0.8,3.5-3c0-1.4-0.8-2.4-1.9-2.7c1-0.4,1.6-1.4,1.6-2.5
		c0-1.7-1-2.9-3-2.9H833.7z"/>
	<path class="st0" d="M842.7,97.5v11.2h6.1v-1.2h-4.7v-10H842.7z"/>
	<path class="st0" d="M851.6,97.5h-1.4v11.2h1.4V97.5z"/>
	<path class="st0" d="M854.9,103.1c0,2.6,1,4.6,3.1,4.6c0.9,0,1.8-0.2,2.7-0.5v1.2c-0.8,0.3-1.8,0.5-2.7,0.5c-3.3,0-4.5-2.7-4.5-5.8
		s1.3-5.8,4.5-5.8c1,0,1.9,0.2,2.7,0.5v1.2c-0.9-0.3-1.8-0.5-2.7-0.5C855.9,98.6,854.9,100.6,854.9,103.1z"/>
	<path class="st0" d="M866.3,98.6c2.2,0,2.7,2.1,2.7,4.5c0,2.5-0.5,4.6-2.7,4.6c-2.2,0-2.8-2-2.8-4.6
		C863.5,100.6,864,98.6,866.3,98.6z M866.3,97.4c-3.1,0-4.2,2.6-4.2,5.8c0,3.2,1.2,5.8,4.2,5.8c3,0,4.2-2.6,4.2-5.8
		C870.5,100,869.3,97.4,866.3,97.4z"/>
</g>
</svg>
