<?xml version="1.0" encoding="utf-8"?>
<!-- Generator: Adobe Illustrator 16.0.0, SVG Export Plug-In . SVG Version: 6.00 Build 0)  -->
<!DOCTYPE svg PUBLIC "-//W3C//DTD SVG 1.1//EN" "http://www.w3.org/Graphics/SVG/1.1/DTD/svg11.dtd">
<svg version="1.1" id="Layer_1" xmlns="http://www.w3.org/2000/svg" xmlns:xlink="http://www.w3.org/1999/xlink" x="0px" y="0px"
	 width="45px" height="50px" viewBox="0 0 45 50" enable-background="new 0 0 45 50" xml:space="preserve">
<g>
	<g>
		<g>
			<path fill="#FFFFFF" d="M36.545,6.179c1.238,0,2.248,1.009,2.248,2.248c0,1.238-1.01,2.247-2.248,2.247s-2.248-1.009-2.248-2.247
				C34.297,7.188,35.307,6.179,36.545,6.179z"/>
		</g>
	</g>
	<path fill="#FFFFFF" d="M44.973,25.28l-0.002-10.281V8.527c0-4.348-3.322-8.029-7.553-8.48C37.135,0.021,36.848,0,36.545,0
		s-0.592,0.021-0.875,0.047c-4.994,0.471-7.035,4.887-7.313,6.373l-3.418,0.57c-1.084,0.181-1.878,1.118-1.878,2.216V9.41
		l3.554,0.732l1.502,0.25v4.606l0,0v2.979l-28.089,2v3.309l9.98,13.354c2.492,3.834,6.258,6.526,10.551,7.678L21.994,50h3.667
		l-1.176-5.077c0.275,0.013,0.549,0.021,0.824,0.021c0.746,0,1.482-0.044,2.207-0.125L28.734,50h3.668l-1.514-5.864
		C39.021,41.725,44.973,34.185,44.973,25.28z M25.309,41.573c-5.055,0-9.719-2.531-12.474-6.77L4.088,23.348l5.994-0.469
		l6.417,8.046c2.003,2.804,5.236,4.469,8.682,4.469c5.576,0,10.197-4.461,10.24-10.036c0.023-3.288-1.523-6.216-3.934-8.079V8.527
		c0-0.345,0.035-0.682,0.102-1.009c0.002-0.017,0.006-0.032,0.01-0.048c0.061-0.279,0.146-0.564,0.26-0.85
		c0.02-0.049,0.037-0.098,0.059-0.146c0.68-1.59,2.18-3.104,4.627-3.104c2.445,0,3.947,1.514,4.625,3.104
		c0.021,0.049,0.039,0.098,0.059,0.146c0.113,0.285,0.199,0.57,0.26,0.85c0.004,0.016,0.008,0.031,0.012,0.048
		c0.064,0.316,0.102,0.624,0.102,0.908v6.572V25.28C41.602,34.265,34.293,41.573,25.309,41.573z"/>
</g>
</svg>
