<?xml version="1.0" encoding="utf-8"?>
<!-- Generator: Adobe Illustrator 16.0.0, SVG Export Plug-In . SVG Version: 6.00 Build 0)  -->
<!DOCTYPE svg PUBLIC "-//W3C//DTD SVG 1.1//EN" "http://www.w3.org/Graphics/SVG/1.1/DTD/svg11.dtd">
<svg version="1.1" id="Layer_1" xmlns="http://www.w3.org/2000/svg" xmlns:xlink="http://www.w3.org/1999/xlink" x="0px" y="0px"
	 width="122.217px" height="50px" viewBox="0 0 122.217 50" enable-background="new 0 0 122.217 50" xml:space="preserve">
<g>
	<path fill="#FFFFFF" d="M118.563,0.031c-0.056-0.06-0.122-0.023-0.225,0.026l-0.001,0.01c0,0-0.152,0.262-0.607,0.679
		c-0.227,0.221-0.474,0.477-0.799,0.781c-0.156,0.173-0.313,0.332-0.515,0.499c-0.147,0.152-0.357,0.332-0.596,0.51
		c-0.373,0.413-0.912,0.776-1.433,1.223c-0.488,0.448-1.084,0.866-1.747,1.343c-0.638,0.478-1.33,0.936-2.058,1.432
		c-0.339,0.248-0.729,0.485-1.088,0.739c-0.394,0.255-0.824,0.512-1.193,0.753c-1.669,1.014-3.459,2.054-5.402,3.09
		c-1.994,0.967-4.042,2.037-6.289,2.995c-0.524,0.239-1.075,0.518-1.657,0.776c-0.555,0.239-1.089,0.478-1.687,0.716
		c-1.188,0.477-2.265,1.014-3.458,1.432c-1.194,0.478-2.388,0.896-3.581,1.373c-1.256,0.417-2.506,0.809-3.725,1.213
		c-1.27,0.397-2.479,0.815-3.733,1.201c-0.655,0.211-1.252,0.39-1.866,0.616l-0.938,0.292l-0.924,0.317
		c-1.224,0.465-2.417,0.895-3.61,1.313c-1.193,0.478-2.387,0.96-3.462,1.432c-0.347,0.12-0.596,0.239-0.904,0.358
		c-0.281,0.119-0.528,0.245-0.825,0.388c-0.537,0.237-1.094,0.476-1.612,0.715c-0.559,0.296-1.073,0.478-1.617,0.808
		c-0.524,0.266-1.008,0.505-1.514,0.743c-0.511,0.323-1.016,0.58-1.493,0.836c-0.21,0.119-0.417,0.238-0.597,0.357
		c-0.042,0-0.059,0-0.073,0c-0.497-0.119-1-0.278-1.478-0.443c-1.014-0.268-2.028-0.511-3.069-0.75
		c-0.272-0.119-0.523-0.166-0.794-0.238c-0.268-0.097-0.552-0.119-0.817-0.239c-0.271-0.011-0.54-0.118-0.809-0.176
		c-0.298-0.063-0.595-0.082-0.88-0.181c-2.282-0.389-4.663-0.588-7.055-0.598c-2.389-0.051-4.833,0.015-7.239,0.187
		c-2.428,0.164-4.829,0.311-7.2,0.504c-2.376,0.146-4.684,0.318-6.922,0.503c-2.227,0.128-4.377,0.238-6.417,0.357
		c-2.03,0.043-3.951,0.025-5.692-0.119c-1.733-0.119-3.339-0.396-4.698-0.749c-0.325-0.085-0.669-0.206-0.97-0.324
		c-0.171-0.071-0.306-0.12-0.477-0.146c-0.126-0.093-0.291-0.095-0.419-0.21c-0.296-0.122-0.548-0.235-0.831-0.317
		c-0.242-0.164-0.48-0.26-0.706-0.395c-0.448-0.215-0.83-0.456-1.152-0.693c-0.175-0.12-0.345-0.188-0.473-0.298
		c-0.122-0.12-0.242-0.223-0.357-0.299c-0.422-0.358-0.658-0.537-0.658-0.537l-0.005-0.036c-0.054-0.024-0.114-0.024-0.172-0.001
		c-0.058,0.037-0.06,0.124-0.003,0.164c0,0,0.182,0.246,0.54,0.709c0.092,0.119,0.18,0.239,0.299,0.36
		c0.119,0.164,0.269,0.294,0.417,0.416c0.298,0.309,0.651,0.685,1.077,0.945c0.235,0.218,0.47,0.338,0.709,0.577
		c0.242,0.118,0.533,0.259,0.802,0.477c0.152,0.104,0.276,0.119,0.447,0.238c0.138,0.119,0.306,0.119,0.476,0.238
		c0.307,0.12,0.649,0.309,1.001,0.478c1.396,0.574,3.064,1.057,4.912,1.313c0.46,0.119,0.916,0.231,1.401,0.238
		c0.479,0.081,0.979,0.119,1.464,0.164c1.006,0.075,2.028,0.164,3.087,0.181c2.101,0.014,4.31-0.028,6.578-0.226
		c2.267-0.13,4.594-0.47,6.968-0.716c2.337-0.342,4.724-0.597,7.111-0.836c2.386-0.238,4.772-0.464,7.101-0.477
		c2.333-0.061,4.654,0.001,6.801,0.357c0.298,0,0.537,0.067,0.834,0.119c0.24,0.021,0.538,0.12,0.813,0.12
		c0.262,0.119,0.5,0.131,0.795,0.238c0.241,0,0.538,0.093,0.779,0.119c1.074,0.239,2.112,0.478,3.14,0.717
		c0.141,0,0.278,0.06,0.421,0.086c-0.26,0.152-0.519,0.289-0.758,0.468c-0.438,0.281-0.857,0.521-1.269,0.822
		c-0.41,0.276-0.819,0.533-1.237,0.772c-0.358,0.306-0.742,0.581-1.085,0.835c-0.764,0.477-1.42,1.072-2.02,1.55
		c-1.25,1.07-2.266,2.03-3.055,2.864c-0.78,0.837-1.358,1.553-1.716,2.074c-0.179,0.256-0.298,0.432-0.382,0.584
		c-0.095,0.171-0.124,0.206-0.124,0.206l-0.005,0.026c-0.025,0.093-0.005,0.18,0.077,0.211c0.058,0.002,0.137,0.002,0.196-0.109
		c0,0,0.016-0.009,0.119-0.149c0.065-0.1,0.225-0.337,0.418-0.576c0.358-0.476,0.955-1.094,1.787-1.907
		c0.829-0.76,1.852-1.671,3.106-2.626c0.656-0.478,1.313-0.955,2.087-1.433c0.358-0.238,0.752-0.476,1.134-0.726
		c0.409-0.25,0.822-0.488,1.237-0.741c0.416-0.25,0.851-0.506,1.269-0.766c0.468-0.239,0.911-0.484,1.372-0.732
		c0.238-0.082,0.418-0.167,0.657-0.256c0.239,0,0.482,0.073,0.736,0.112c0.959,0.126,1.918,0.312,2.763,0.484
		c0.94,0.119,1.779,0.238,2.617,0.341c0.834,0.072,1.587,0.23,2.345,0.256c0.755,0.045,1.403,0.119,2.069,0.122
		c0.598,0.093,1.193,0.086,1.732,0.1c0.269,0.002,0.536,0.011,0.768,0.007c0.243-0.009,0.474-0.018,0.631-0.024
		c0.446-0.079,0.809-0.081,1.047-0.085c0.597-0.063,0.858-0.119,0.858-0.119h0.005c0.091,0,0.091-0.046,0.091-0.12
		c0-0.09-0.008-0.119-0.119-0.119c0,0-0.294,0.033-0.835,0.048c-0.281,0.071-0.613,0.005-1.053,0.002
		c-0.152-0.003-0.382-0.006-0.62-0.009c-0.236-0.008-0.475-0.041-0.76-0.041c-0.53-0.028-1.1-0.054-1.745-0.119
		c-0.596-0.113-1.312-0.175-2.028-0.243c-0.716-0.115-1.439-0.242-2.269-0.409c-0.834-0.182-1.671-0.274-2.551-0.424
		c-0.672-0.187-1.489-0.356-2.197-0.507c0.243-0.153,0.533-0.248,0.805-0.405c0.961-0.419,2.033-0.983,3.108-1.354
		c0.581-0.238,1.073-0.477,1.672-0.715c0.237-0.121,0.488-0.239,0.831-0.343c0.241-0.078,0.558-0.157,0.839-0.296
		c1.127-0.437,2.269-0.824,3.46-1.247c1.193-0.388,2.387-0.771,3.611-1.165l0.924-0.285l0.955-0.261
		c0.596-0.162,1.193-0.325,1.843-0.493c1.259-0.357,2.557-0.715,3.771-1.074c1.288-0.358,2.503-0.696,3.813-1.022
		c1.243-0.41,2.506-0.827,3.725-1.206c1.287-0.397,2.48-0.874,3.674-1.309c0.596-0.222,1.193-0.46,1.789-0.699
		c0.598-0.239,1.16-0.478,1.721-0.751c1.143-0.533,2.233-0.983,3.294-1.576c1.072-0.596,2.146-1.112,3.099-1.729
		c0.954-0.597,1.909-1.159,2.807-1.785c0.894-0.607,1.729-1.198,2.563-1.799c1.554-1.216,2.97-2.441,4.11-3.571
		c1.146-1.138,2.118-2.177,2.816-3.107c0.234-0.232,0.372-0.429,0.562-0.649c0.15-0.193,0.27-0.41,0.39-0.604
		c0.262-0.358,0.478-0.665,0.634-0.954c0.32-0.538,0.459-0.835,0.459-0.835C118.67,0.15,118.604,0.09,118.563,0.031z"/>
	<g>
		<path fill="#FFFFFF" d="M85.464,46.063c0,1.313-0.31,2.312-0.905,2.981C83.961,49.641,83.006,50,81.813,50
			c-0.823,0-1.551-0.229-2.267-0.557v-0.876c0.819,0.451,1.551,0.614,2.267,0.614c1.819,0,2.746-0.972,2.746-2.882v-0.9l0,0
			c-0.593,0.905-1.419,1.385-2.508,1.385c-0.476,0-0.834-0.059-1.193-0.244c-0.356-0.121-0.716-0.359-0.954-0.667
			c-0.239-0.291-0.477-0.647-0.597-1.125c-0.12-0.438-0.238-0.944-0.238-1.432c0-0.596,0.118-1.163,0.238-1.654
			c0.128-0.491,0.359-0.852,0.639-1.209c0.316-0.358,0.667-0.598,1.032-0.835c0.427-0.119,0.839-0.24,1.348-0.24
			c1.04,0,1.756,0.392,2.233,1.2l0,0v-1.056h0.905V46.063z M84.559,42.353c0-0.349-0.056-0.587-0.144-0.832
			c-0.096-0.269-0.26-0.506-0.454-0.71c-0.223-0.229-0.396-0.357-0.715-0.478c-0.24-0.118-0.488-0.222-0.836-0.222
			c-0.359,0-0.716,0.104-0.975,0.226c-0.339,0.174-0.578,0.355-0.781,0.596c-0.217,0.326-0.393,0.594-0.495,0.984
			c-0.136,0.415-0.136,0.804-0.136,1.28c0,0.471,0,0.837,0.118,1.194c0.12,0.356,0.271,0.653,0.478,0.904
			c0.219,0.252,0.399,0.407,0.716,0.527c0.239,0.137,0.591,0.239,0.911,0.239c0.332,0,0.642-0.099,0.925-0.239
			c0.313-0.116,0.551-0.248,0.788-0.478c0.177-0.238,0.359-0.478,0.449-0.836c0.087-0.258,0.15-0.596,0.15-0.953V42.353z"/>
		<path fill="#FFFFFF" d="M91.835,46.658v-1.283l0,0c-0.239,0.448-0.595,0.806-0.953,1.044c-0.452,0.239-0.859,0.365-1.375,0.365
			c-0.322,0-0.653-0.007-0.895-0.126c-0.339-0.118-0.579-0.239-0.719-0.363c-0.233-0.232-0.354-0.428-0.473-0.71
			c-0.118-0.239-0.122-0.478-0.122-0.802c0-0.631,0.154-1.123,0.588-1.543c0.369-0.399,0.967-0.639,1.802-0.758l2.146-0.3
			c0-1.372-0.508-2.071-1.567-2.071c-0.822,0-1.653,0.342-2.333,0.938v-0.955c0.178-0.119,0.321-0.239,0.515-0.314
			c0.165-0.043,0.404-0.163,0.579-0.17c0.184-0.111,0.421-0.146,0.66-0.177c0.238-0.056,0.415-0.056,0.633-0.056
			c0.799,0,1.396,0.239,1.757,0.654c0.473,0.421,0.648,1.138,0.648,1.972v4.654H91.835z M90.018,43.197
			c-0.329,0.039-0.579,0.121-0.813,0.193c-0.232,0.046-0.447,0.166-0.59,0.284c-0.12,0.12-0.238,0.239-0.345,0.397
			c-0.014,0.199-0.079,0.425-0.079,0.676c0,0.15,0.065,0.359,0.076,0.478c0.109,0.186,0.191,0.354,0.348,0.478
			c0.119,0.118,0.239,0.187,0.433,0.239c0.164,0.109,0.402,0.12,0.642,0.12c0.313,0,0.598-0.096,0.836-0.189
			c0.238-0.153,0.478-0.288,0.716-0.527c0.169-0.205,0.35-0.463,0.433-0.716c0.084-0.327,0.162-0.633,0.162-0.96v-0.711
			L90.018,43.197z"/>
		<path fill="#FFFFFF" d="M95.297,37.709c-0.164,0-0.344,0-0.478-0.12c-0.115-0.118-0.136-0.29-0.136-0.478
			c0-0.212,0.021-0.356,0.136-0.478c0.134-0.103,0.313-0.141,0.478-0.141c0.099,0,0.158,0.022,0.238,0.022
			c0.107,0.03,0.154,0.118,0.239,0.118c0.007,0.095,0.105,0.121,0.118,0.239c0.001,0.083,0.051,0.12,0.051,0.238
			c0,0.114-0.05,0.174-0.051,0.239c-0.007,0.12-0.108,0.12-0.118,0.224c-0.085,0.034-0.13,0.134-0.239,0.135
			C95.462,37.709,95.399,37.709,95.297,37.709z M94.824,46.658v-7.136h0.95v7.136H94.824z"/>
		<path fill="#FFFFFF" d="M100.547,46.658H99.71l-2.742-7.136h0.983l1.998,5.463c0.12,0.313,0.217,0.6,0.238,0.838h0.002
			c0.066-0.358,0.118-0.598,0.236-0.836l2.03-5.465h0.954L100.547,46.658z"/>
		<path fill="#FFFFFF" d="M107.467,46.784c-0.513,0-0.979-0.064-1.431-0.245c-0.4-0.151-0.737-0.406-1.073-0.717
			c-0.243-0.357-0.48-0.715-0.664-1.192c-0.17-0.47-0.243-0.955-0.243-1.458c0-0.578,0.073-1.168,0.256-1.598
			c0.173-0.481,0.411-0.882,0.731-1.224c0.277-0.256,0.645-0.563,1.11-0.733c0.45-0.152,0.944-0.239,1.434-0.239
			c0.508,0,0.961,0.087,1.429,0.239c0.361,0.166,0.719,0.415,0.996,0.72c0.319,0.355,0.558,0.713,0.677,1.189
			c0.128,0.478,0.239,0.956,0.239,1.553c0,0.591-0.112,1.073-0.239,1.551c-0.166,0.438-0.358,0.835-0.709,1.176
			c-0.245,0.313-0.626,0.572-1.079,0.733C108.512,46.718,108.018,46.784,107.467,46.784z M107.54,40.111
			c-0.415,0-0.762,0.104-1.027,0.222c-0.357,0.12-0.598,0.359-0.837,0.598c-0.235,0.239-0.373,0.596-0.478,0.955
			c-0.142,0.357-0.235,0.788-0.235,1.273c0,0.401,0.094,0.836,0.235,1.172c0.104,0.397,0.242,0.656,0.478,0.895
			c0.239,0.252,0.478,0.478,0.817,0.598c0.273,0.136,0.618,0.239,1.03,0.239c0.421,0,0.778-0.102,1.057-0.239
			c0.319-0.12,0.558-0.272,0.797-0.539c0.215-0.297,0.357-0.542,0.478-0.893c0.118-0.397,0.131-0.835,0.131-1.313
			c0-0.955-0.204-1.671-0.608-2.148C108.918,40.43,108.324,40.111,107.54,40.111z"/>
		<path fill="#FFFFFF" d="M115.775,46.54c-0.314,0.172-0.668,0.238-1.03,0.238c-1.116,0-1.678-0.639-1.678-1.969v-4.477h-1.301
			v-0.811h1.301v-1.81l0.843-0.242v2.052h1.865v0.811h-1.865v4.309c0,0.493,0.119,0.824,0.239,1.062
			c0.152,0.239,0.476,0.357,0.834,0.357c0.239,0,0.529-0.118,0.792-0.255V46.54z"/>
		<path fill="#FFFFFF" d="M121.31,46.658v-1.283h-0.001c-0.239,0.448-0.587,0.806-0.955,1.044c-0.411,0.239-0.84,0.365-1.354,0.365
			c-0.323,0-0.674-0.007-0.914-0.126c-0.319-0.118-0.533-0.239-0.714-0.363c-0.207-0.232-0.356-0.428-0.476-0.71
			c-0.114-0.239-0.121-0.478-0.121-0.802c0-0.631,0.174-1.123,0.597-1.543c0.369-0.399,0.962-0.639,1.79-0.758l2.148-0.3
			c0-1.372-0.491-2.071-1.556-2.071c-0.832,0-1.651,0.342-2.327,0.938v-0.955c0.179-0.119,0.303-0.239,0.514-0.314
			c0.15-0.043,0.384-0.163,0.584-0.17c0.214-0.111,0.399-0.146,0.637-0.177c0.238-0.056,0.439-0.056,0.651-0.056
			c0.78,0,1.376,0.239,1.759,0.654c0.453,0.421,0.646,1.138,0.646,1.972v4.654H121.31z M119.51,43.197
			c-0.349,0.039-0.588,0.121-0.826,0.193c-0.238,0.046-0.437,0.166-0.594,0.284c-0.121,0.12-0.242,0.239-0.329,0.397
			c-0.031,0.199-0.078,0.425-0.078,0.676c0,0.15,0.047,0.359,0.075,0.478c0.089,0.186,0.205,0.354,0.327,0.478
			c0.122,0.118,0.245,0.187,0.478,0.239c0.124,0.109,0.359,0.12,0.599,0.12c0.332,0,0.597-0.096,0.837-0.189
			c0.267-0.153,0.484-0.288,0.713-0.527c0.189-0.205,0.358-0.463,0.456-0.716c0.106-0.327,0.143-0.633,0.143-0.96v-0.711
			L119.51,43.197z"/>
	</g>
</g>
</svg>
