<?xml version="1.0" encoding="utf-8"?>
<!-- Generator: Adobe Illustrator 24.1.0, SVG Export Plug-In . SVG Version: 6.00 Build 0)  -->
<svg version="1.1" id="Layer_1" xmlns="http://www.w3.org/2000/svg" xmlns:xlink="http://www.w3.org/1999/xlink" x="0px" y="0px"
	 viewBox="0 0 15 25.7" style="enable-background:new 0 0 15 25.7;" xml:space="preserve">
<style type="text/css">
	.st0{fill:#FFFFFF;}
	.st1{fill-rule:evenodd;clip-rule:evenodd;fill:#FFFFFF;}
	.st2{fill:#C4C4C4;}
</style>
<path class="st2" d="M13.4,25.5l1.3-1.3c0.2-0.2,0.3-0.4,0.3-0.6s-0.1-0.4-0.3-0.6L4.6,12.9L14.7,2.7C14.9,2.6,15,2.4,15,2.1
	c0-0.2-0.1-0.4-0.3-0.6l-1.3-1.3C13.3,0.1,13.1,0,12.9,0c-0.2,0-0.4,0.1-0.6,0.3l-12,12C0.1,12.4,0,12.6,0,12.9
	c0,0.2,0.1,0.4,0.3,0.6l12,12c0.2,0.2,0.4,0.3,0.6,0.3C13.1,25.7,13.3,25.6,13.4,25.5z"/>
</svg>
